<?xml version="1.0" encoding="utf-8"?>
<!-- Generator: Adobe Illustrator 17.0.0, SVG Export Plug-In . SVG Version: 6.00 Build 0)  -->
<!DOCTYPE svg PUBLIC "-//W3C//DTD SVG 1.1//EN" "http://www.w3.org/Graphics/SVG/1.1/DTD/svg11.dtd">
<svg version="1.1" id="Layer_1" xmlns="http://www.w3.org/2000/svg" xmlns:xlink="http://www.w3.org/1999/xlink" x="0px" y="0px"
	 width="188.694px" height="65.112px" viewBox="0 0 188.694 65.112" enable-background="new 0 0 188.694 65.112"
	 xml:space="preserve">
<g>
	<path fill="#FFFFFF" d="M64.301,13.227c0-1.746,0-2.068-0.023-2.436c-0.023-0.391-0.138-0.586-0.391-0.644
		c-0.127-0.034-0.276-0.046-0.414-0.046c-0.115,0-0.184-0.023-0.184-0.115c0-0.069,0.092-0.092,0.276-0.092
		c0.437,0,1.161,0.034,1.494,0.034c0.287,0,0.965-0.034,1.402-0.034c0.149,0,0.241,0.023,0.241,0.092
		c0,0.092-0.069,0.115-0.184,0.115s-0.207,0.012-0.345,0.034c-0.31,0.057-0.402,0.253-0.425,0.655
		c-0.023,0.368-0.023,0.689-0.023,2.436v2.022c0,1.115,0,2.022,0.046,2.516c0.034,0.31,0.115,0.517,0.46,0.563
		c0.161,0.023,0.414,0.046,0.586,0.046c0.127,0,0.184,0.035,0.184,0.092c0,0.08-0.092,0.115-0.218,0.115
		c-0.759,0-1.482-0.034-1.793-0.034c-0.264,0-0.988,0.034-1.448,0.034c-0.15,0-0.23-0.034-0.23-0.115
		c0-0.057,0.046-0.092,0.184-0.092c0.172,0,0.311-0.023,0.414-0.046c0.23-0.046,0.299-0.241,0.333-0.575
		c0.057-0.483,0.057-1.39,0.057-2.505v-2.02H64.301z M64.37,8.367c0-0.287,0.184-0.667,0.644-0.667c0.368,0,0.655,0.242,0.655,0.621
		c0,0.379-0.264,0.689-0.655,0.689C64.554,9.01,64.37,8.654,64.37,8.367z"/>
	<path fill="#FFFFFF" d="M72.988,17.915c1.172,0,1.62-0.287,1.804-0.632c0.103-0.184,0.172-0.39,0.207-0.551
		c0.023-0.115,0.046-0.184,0.115-0.184c0.092,0,0.115,0.081,0.115,0.356c0,0.368-0.149,1.115-0.23,1.402
		c-0.057,0.207-0.138,0.299-0.345,0.299c-1.919,0-3.849-0.057-6.171-0.057c-0.126,0-0.195-0.034-0.195-0.115
		c0-0.08,0.034-0.138,0.172-0.345c1.62-2.528,3.321-5.125,4.86-7.55h-2.252c-0.586,0-1.287,0.035-1.654,0.242
		c-0.379,0.207-0.586,0.632-0.621,0.896c-0.023,0.161-0.069,0.207-0.138,0.207c-0.08,0-0.092-0.057-0.092-0.195
		c0-0.264,0.172-1.31,0.23-1.655c0.023-0.161,0.069-0.218,0.138-0.218c0.103,0,0.172,0.069,0.46,0.081
		c1.092,0.046,1.643,0.034,2.114,0.034h3.505c0.115,0,0.195,0.034,0.195,0.092c0,0.069-0.046,0.138-0.092,0.218
		c-1.586,2.574-3.332,5.205-4.953,7.676h2.828V17.915z"/>
	<path fill="#FFFFFF" d="M78.077,9.941c0.034-0.195,0.103-0.299,0.195-0.299s0.161,0.057,0.31,0.356l3.137,6.48l3.125-6.561
		c0.092-0.184,0.149-0.276,0.253-0.276c0.103,0,0.172,0.115,0.207,0.356l1.046,7.101c0.103,0.724,0.218,1.057,0.563,1.16
		c0.333,0.104,0.563,0.115,0.712,0.115c0.103,0,0.184,0.012,0.184,0.081c0,0.092-0.138,0.126-0.299,0.126
		c-0.287,0-1.873-0.034-2.332-0.069c-0.264-0.023-0.333-0.057-0.333-0.127c0-0.057,0.046-0.092,0.127-0.127
		c0.069-0.023,0.103-0.172,0.057-0.494L84.34,12.71h-0.046l-2.505,5.217c-0.264,0.54-0.321,0.644-0.425,0.644
		c-0.103,0-0.218-0.23-0.402-0.575c-0.276-0.528-1.183-2.286-1.321-2.608c-0.103-0.241-0.793-1.689-1.195-2.551H78.4l-0.598,4.573
		c-0.023,0.207-0.034,0.356-0.034,0.54c0,0.218,0.149,0.322,0.345,0.368c0.207,0.046,0.368,0.057,0.483,0.057
		c0.092,0,0.172,0.023,0.172,0.081c0,0.103-0.103,0.126-0.276,0.126c-0.483,0-1-0.034-1.206-0.034c-0.218,0-0.77,0.034-1.137,0.034
		c-0.115,0-0.207-0.023-0.207-0.126c0-0.057,0.069-0.081,0.184-0.081c0.092,0,0.172,0,0.345-0.034
		c0.322-0.069,0.414-0.517,0.471-0.908L78.077,9.941z"/>
	<path fill="#FFFFFF" d="M89.636,13.227c0-1.746,0-2.068-0.023-2.436c-0.023-0.391-0.138-0.586-0.391-0.644
		c-0.127-0.034-0.276-0.046-0.414-0.046c-0.115,0-0.184-0.023-0.184-0.115c0-0.069,0.092-0.092,0.276-0.092
		c0.437,0,1.161,0.034,1.494,0.034c0.287,0,0.965-0.034,1.402-0.034c0.149,0,0.241,0.023,0.241,0.092
		c0,0.092-0.069,0.115-0.184,0.115s-0.207,0.012-0.345,0.034c-0.31,0.057-0.402,0.253-0.425,0.655
		c-0.023,0.368-0.023,0.689-0.023,2.436v2.022c0,1.115,0,2.022,0.046,2.516c0.034,0.31,0.115,0.517,0.46,0.563
		c0.161,0.023,0.414,0.046,0.586,0.046c0.127,0,0.184,0.035,0.184,0.092c0,0.08-0.092,0.115-0.218,0.115
		c-0.759,0-1.482-0.034-1.793-0.034c-0.264,0-0.988,0.034-1.448,0.034c-0.15,0-0.23-0.034-0.23-0.115
		c0-0.057,0.046-0.092,0.184-0.092c0.172,0,0.311-0.023,0.414-0.046c0.23-0.046,0.299-0.241,0.333-0.575
		c0.057-0.483,0.057-1.39,0.057-2.505v-2.02H89.636z M89.706,8.367c0-0.287,0.184-0.667,0.644-0.667
		c0.368,0,0.655,0.242,0.655,0.621c0,0.379-0.264,0.689-0.655,0.689C89.889,9.01,89.706,8.654,89.706,8.367z"/>
	<path fill="#FFFFFF" d="M94.83,13.227c0-1.746,0-2.068-0.023-2.436c-0.023-0.391-0.115-0.575-0.494-0.655
		c-0.092-0.023-0.287-0.034-0.448-0.034c-0.126,0-0.195-0.023-0.195-0.103c0-0.081,0.081-0.103,0.253-0.103
		c0.609,0,1.333,0.034,1.574,0.034c0.391,0,1.264-0.034,1.62-0.034c0.724,0,1.494,0.069,2.114,0.494
		c0.322,0.218,0.782,0.804,0.782,1.574c0,0.85-0.356,1.632-1.517,2.574c1.023,1.287,1.816,2.31,2.494,3.022
		c0.644,0.666,1.114,0.747,1.286,0.781c0.127,0.023,0.23,0.034,0.322,0.034c0.092,0,0.138,0.035,0.138,0.092
		c0,0.092-0.081,0.115-0.218,0.115h-1.091c-0.644,0-0.931-0.057-1.23-0.218c-0.494-0.264-0.931-0.804-1.574-1.689
		c-0.46-0.632-0.988-1.413-1.137-1.586c-0.057-0.069-0.127-0.081-0.207-0.081l-1-0.023c-0.057,0-0.092,0.023-0.092,0.092v0.161
		c0,1.069,0,1.976,0.057,2.459c0.035,0.333,0.103,0.586,0.448,0.632c0.172,0.023,0.425,0.046,0.563,0.046
		c0.092,0,0.138,0.035,0.138,0.092c0,0.08-0.08,0.115-0.23,0.115c-0.667,0-1.517-0.034-1.689-0.034
		c-0.218,0-0.942,0.034-1.402,0.034c-0.15,0-0.23-0.034-0.23-0.115c0-0.057,0.046-0.092,0.184-0.092
		c0.172,0,0.311-0.023,0.414-0.046c0.23-0.046,0.287-0.299,0.333-0.632c0.057-0.483,0.057-1.39,0.057-2.447L94.83,13.227
		L94.83,13.227z M96.186,14.135c0,0.127,0.023,0.172,0.103,0.207c0.242,0.081,0.586,0.115,0.873,0.115
		c0.46,0,0.609-0.046,0.816-0.195c0.345-0.253,0.678-0.782,0.678-1.724c0-1.632-1.08-2.103-1.758-2.103
		c-0.287,0-0.494,0.012-0.609,0.046c-0.08,0.023-0.103,0.069-0.103,0.161V14.135z"/>
	<path fill="#FFFFFF" d="M65.588,29.394c0-0.62-0.115-0.873-0.264-1.206c-0.081-0.184-1.62-2.712-2.022-3.309
		c-0.287-0.425-0.575-0.712-0.793-0.839c-0.149-0.081-0.345-0.149-0.483-0.149c-0.092,0-0.172-0.023-0.172-0.103
		c0-0.069,0.08-0.103,0.218-0.103c0.207,0,1.068,0.034,1.448,0.034c0.241,0,0.712-0.034,1.23-0.034c0.115,0,0.172,0.034,0.172,0.103
		s-0.08,0.08-0.253,0.126c-0.103,0.023-0.161,0.115-0.161,0.207c0,0.092,0.057,0.23,0.138,0.391
		c0.161,0.345,1.769,3.114,1.953,3.436c0.115-0.276,1.563-2.804,1.724-3.16c0.115-0.253,0.161-0.448,0.161-0.598
		c0-0.115-0.046-0.241-0.241-0.287c-0.103-0.023-0.207-0.046-0.207-0.115c0-0.081,0.057-0.103,0.195-0.103
		c0.379,0,0.747,0.034,1.08,0.034c0.253,0,1.011-0.034,1.229-0.034c0.127,0,0.207,0.023,0.207,0.092c0,0.08-0.092,0.115-0.218,0.115
		c-0.115,0-0.333,0.046-0.506,0.138c-0.241,0.115-0.368,0.253-0.62,0.563c-0.379,0.46-1.988,3.16-2.195,3.654
		c-0.172,0.414-0.172,0.77-0.172,1.149v0.942c0,0.184,0,0.666,0.034,1.149c0.023,0.333,0.127,0.586,0.471,0.632
		c0.161,0.023,0.414,0.046,0.575,0.046c0.126,0,0.184,0.035,0.184,0.092c0,0.08-0.092,0.115-0.241,0.115
		c-0.724,0-1.448-0.034-1.758-0.034c-0.287,0-1.011,0.034-1.436,0.034c-0.161,0-0.253-0.023-0.253-0.115
		c0-0.057,0.057-0.092,0.184-0.092c0.161,0,0.299-0.023,0.402-0.046c0.23-0.046,0.333-0.299,0.356-0.632
		c0.035-0.483,0.035-0.965,0.035-1.149v-0.944H65.588z"/>
	<path fill="#FFFFFF" d="M71.505,27.015c0-1.746,0-2.068-0.023-2.436c-0.023-0.391-0.115-0.575-0.494-0.655
		c-0.092-0.023-0.287-0.034-0.448-0.034c-0.127,0-0.195-0.023-0.195-0.103c0-0.081,0.08-0.103,0.253-0.103
		c0.609,0,1.333,0.034,1.678,0.034c0.276,0,1-0.034,1.413-0.034c0.172,0,0.253,0.023,0.253,0.103s-0.069,0.103-0.184,0.103
		c-0.127,0-0.196,0.012-0.333,0.034c-0.31,0.057-0.402,0.253-0.425,0.655c-0.023,0.368-0.023,0.689-0.023,2.436v1.609
		c0,1.666,0.333,2.367,0.896,2.827c0.517,0.425,1.046,0.471,1.436,0.471c0.505,0,1.126-0.161,1.586-0.62
		c0.632-0.632,0.666-1.666,0.666-2.85v-1.436c0-1.746,0-2.068-0.023-2.436c-0.023-0.391-0.115-0.575-0.494-0.655
		c-0.092-0.023-0.287-0.034-0.414-0.034s-0.195-0.023-0.195-0.103c0-0.081,0.08-0.103,0.241-0.103c0.586,0,1.31,0.034,1.321,0.034
		c0.138,0,0.862-0.034,1.31-0.034c0.161,0,0.241,0.023,0.241,0.103s-0.069,0.103-0.207,0.103c-0.126,0-0.195,0.012-0.333,0.034
		c-0.31,0.057-0.402,0.253-0.425,0.655c-0.023,0.368-0.023,0.689-0.023,2.436v1.23c0,1.276-0.126,2.631-1.092,3.459
		c-0.816,0.701-1.643,0.827-2.39,0.827c-0.609,0-1.712-0.034-2.551-0.793c-0.586-0.529-1.022-1.379-1.022-3.045L71.505,27.015
		L71.505,27.015z M73.493,22.258c0-0.218,0.161-0.529,0.529-0.529c0.299,0,0.54,0.184,0.54,0.494c0,0.322-0.218,0.575-0.551,0.575
		C73.643,22.798,73.493,22.499,73.493,22.258z M75.918,22.258c0-0.23,0.161-0.54,0.528-0.54c0.299,0,0.54,0.184,0.54,0.505
		c0,0.322-0.218,0.575-0.551,0.575C76.067,22.798,75.918,22.499,75.918,22.258z"/>
	<path fill="#FFFFFF" d="M83.19,27.521h0.057c0.391-0.425,2.068-2.137,2.402-2.528c0.322-0.379,0.575-0.667,0.575-0.862
		c0-0.126-0.046-0.207-0.161-0.23c-0.103-0.023-0.149-0.046-0.149-0.115c0-0.081,0.057-0.103,0.184-0.103
		c0.241,0,0.873,0.034,1.184,0.034c0.356,0,0.988-0.034,1.344-0.034c0.115,0,0.195,0.023,0.195,0.103s-0.057,0.103-0.172,0.103
		c-0.161,0-0.448,0.046-0.667,0.126c-0.356,0.138-0.747,0.379-1.241,0.862c-0.356,0.345-2.091,2.068-2.482,2.482
		c0.414,0.54,2.666,2.964,3.114,3.39c0.505,0.483,1.022,1,1.643,1.241c0.345,0.138,0.575,0.172,0.712,0.172
		c0.08,0,0.149,0.023,0.149,0.092c0,0.08-0.057,0.115-0.276,0.115h-1c-0.345,0-0.551,0-0.793-0.023
		c-0.62-0.057-0.931-0.31-1.425-0.747c-0.506-0.448-2.769-3.102-3.011-3.436l-0.127-0.172H83.19v1.046c0,1.057,0,1.965,0.035,2.459
		c0.023,0.322,0.126,0.575,0.414,0.62c0.161,0.023,0.414,0.046,0.563,0.046c0.092,0,0.149,0.035,0.149,0.092
		c0,0.08-0.092,0.115-0.218,0.115c-0.643,0-1.367-0.034-1.654-0.034c-0.264,0-0.988,0.034-1.448,0.034
		c-0.15,0-0.23-0.034-0.23-0.115c0-0.057,0.046-0.092,0.184-0.092c0.172,0,0.311-0.023,0.414-0.046
		c0.23-0.046,0.287-0.299,0.333-0.632c0.057-0.483,0.057-1.39,0.057-2.447v-2.022c0-1.746,0-2.068-0.023-2.436
		c-0.023-0.391-0.115-0.575-0.494-0.655c-0.092-0.023-0.287-0.034-0.448-0.034c-0.127,0-0.196-0.023-0.196-0.103
		c0-0.081,0.081-0.103,0.253-0.103c0.609,0,1.333,0.034,1.609,0.034s1-0.034,1.39-0.034c0.161,0,0.242,0.023,0.242,0.103
		s-0.069,0.103-0.161,0.103c-0.115,0-0.184,0.012-0.322,0.034c-0.31,0.057-0.402,0.253-0.425,0.655
		c-0.023,0.368-0.023,0.689-0.023,2.436L83.19,27.521L83.19,27.521z"/>
	<path fill="#FFFFFF" d="M90.039,32.232c-0.184-0.08-0.218-0.138-0.218-0.391c0-0.632,0.046-1.321,0.057-1.505
		c0.012-0.172,0.046-0.299,0.138-0.299c0.103,0,0.115,0.103,0.115,0.195c0,0.149,0.046,0.391,0.103,0.586
		c0.253,0.85,0.931,1.161,1.643,1.161c1.034,0,1.54-0.701,1.54-1.31c0-0.563-0.172-1.092-1.126-1.838l-0.529-0.414
		c-1.264-0.988-1.7-1.793-1.7-2.724c0-1.264,1.057-2.171,2.654-2.171c0.747,0,1.23,0.115,1.528,0.195
		c0.103,0.023,0.161,0.057,0.161,0.138c0,0.15-0.046,0.483-0.046,1.379c0,0.253-0.034,0.345-0.127,0.345
		c-0.08,0-0.115-0.069-0.115-0.207c0-0.103-0.057-0.46-0.299-0.759c-0.172-0.218-0.505-0.563-1.252-0.563
		c-0.85,0-1.367,0.494-1.367,1.183c0,0.529,0.264,0.931,1.218,1.655l0.322,0.241c1.39,1.046,1.884,1.838,1.884,2.93
		c0,0.667-0.253,1.46-1.08,1.999c-0.575,0.368-1.218,0.471-1.827,0.471C91.05,32.53,90.533,32.45,90.039,32.232z"/>
	<path fill="#FFFFFF" d="M97.357,27.015c0-1.746,0-2.068-0.023-2.436c-0.023-0.391-0.115-0.575-0.494-0.655
		c-0.092-0.023-0.287-0.034-0.448-0.034c-0.126,0-0.195-0.023-0.195-0.103c0-0.081,0.081-0.103,0.253-0.103
		c0.311,0,0.644,0.011,0.931,0.011c0.299,0.012,0.563,0.023,0.724,0.023c0.368,0,2.654,0,2.873-0.012
		c0.218-0.023,0.402-0.046,0.494-0.069c0.057-0.012,0.127-0.046,0.184-0.046s0.069,0.046,0.069,0.103
		c0,0.081-0.058,0.218-0.093,0.747c-0.011,0.115-0.034,0.62-0.057,0.759c-0.012,0.057-0.035,0.126-0.115,0.126
		c-0.08,0-0.103-0.057-0.103-0.161c0-0.08-0.012-0.276-0.069-0.414c-0.08-0.207-0.196-0.345-0.77-0.414
		c-0.195-0.023-1.401-0.046-1.632-0.046c-0.057,0-0.08,0.034-0.08,0.115v2.907c0,0.08,0.011,0.126,0.08,0.126
		c0.253,0,1.575,0,1.838-0.023c0.276-0.023,0.448-0.057,0.552-0.172c0.08-0.092,0.126-0.149,0.184-0.149
		c0.046,0,0.08,0.023,0.08,0.092c0,0.069-0.046,0.253-0.092,0.839c-0.012,0.23-0.046,0.689-0.046,0.77c0,0.092,0,0.218-0.103,0.218
		c-0.08,0-0.103-0.046-0.103-0.103c-0.011-0.115-0.011-0.264-0.046-0.414c-0.058-0.23-0.218-0.402-0.644-0.448
		c-0.218-0.023-1.356-0.035-1.632-0.035c-0.057,0-0.069,0.046-0.069,0.115v0.908c0,0.39-0.012,1.448,0,1.781
		c0.023,0.793,0.207,0.965,1.379,0.965c0.299,0,0.781,0,1.08-0.138s0.437-0.379,0.517-0.85c0.023-0.126,0.046-0.172,0.127-0.172
		c0.092,0,0.092,0.092,0.092,0.207c0,0.264-0.092,1.046-0.149,1.275c-0.081,0.299-0.184,0.299-0.621,0.299
		c-0.862,0-1.493-0.023-1.988-0.035c-0.494-0.023-0.85-0.034-1.195-0.034c-0.127,0-0.379,0-0.655,0.012
		c-0.264,0-0.563,0.023-0.793,0.023c-0.15,0-0.23-0.034-0.23-0.115c0-0.057,0.046-0.092,0.184-0.092
		c0.172,0,0.311-0.023,0.414-0.046c0.23-0.046,0.287-0.299,0.333-0.632c0.057-0.483,0.057-1.39,0.057-2.447V27.015z"/>
	<path fill="#FFFFFF" d="M106.021,27.521h0.057c0.391-0.425,2.069-2.137,2.402-2.528c0.322-0.379,0.575-0.667,0.575-0.862
		c0-0.126-0.046-0.207-0.161-0.23c-0.103-0.023-0.149-0.046-0.149-0.115c0-0.081,0.057-0.103,0.184-0.103
		c0.241,0,0.873,0.034,1.184,0.034c0.356,0,0.988-0.034,1.344-0.034c0.114,0,0.195,0.023,0.195,0.103s-0.057,0.103-0.171,0.103
		c-0.161,0-0.449,0.046-0.667,0.126c-0.356,0.138-0.747,0.379-1.241,0.862c-0.356,0.345-2.091,2.068-2.482,2.482
		c0.414,0.54,2.666,2.964,3.114,3.39c0.506,0.483,1.023,1,1.644,1.241c0.344,0.138,0.574,0.172,0.712,0.172
		c0.08,0,0.149,0.023,0.149,0.092c0,0.08-0.057,0.115-0.276,0.115h-0.999c-0.345,0-0.552,0-0.793-0.023
		c-0.62-0.057-0.931-0.31-1.425-0.747c-0.506-0.448-2.769-3.102-3.011-3.436l-0.127-0.172h-0.057v1.046c0,1.057,0,1.965,0.035,2.459
		c0.022,0.322,0.126,0.575,0.414,0.62c0.161,0.023,0.414,0.046,0.563,0.046c0.093,0,0.15,0.035,0.15,0.092
		c0,0.08-0.092,0.115-0.218,0.115c-0.643,0-1.367-0.034-1.654-0.034c-0.265,0-0.988,0.034-1.448,0.034
		c-0.15,0-0.23-0.034-0.23-0.115c0-0.057,0.046-0.092,0.184-0.092c0.172,0,0.311-0.023,0.414-0.046
		c0.229-0.046,0.287-0.299,0.333-0.632c0.058-0.483,0.058-1.39,0.058-2.447v-2.022c0-1.746,0-2.068-0.023-2.436
		c-0.023-0.391-0.115-0.575-0.494-0.655c-0.093-0.023-0.288-0.034-0.448-0.034c-0.127,0-0.195-0.023-0.195-0.103
		c0-0.081,0.08-0.103,0.252-0.103c0.609,0,1.333,0.034,1.609,0.034s1-0.034,1.391-0.034c0.161,0,0.241,0.023,0.241,0.103
		s-0.069,0.103-0.161,0.103c-0.115,0-0.184,0.012-0.322,0.034c-0.31,0.057-0.402,0.253-0.425,0.655
		c-0.023,0.368-0.023,0.689-0.023,2.436v0.506H106.021z"/>
	<path fill="#FFFFFF" d="M118.418,24.326l-1.712,0.046c-0.667,0.023-0.942,0.08-1.114,0.333c-0.116,0.172-0.173,0.31-0.196,0.402
		c-0.023,0.092-0.057,0.138-0.127,0.138c-0.08,0-0.103-0.057-0.103-0.184c0-0.184,0.219-1.229,0.242-1.321
		c0.035-0.15,0.069-0.218,0.138-0.218c0.092,0,0.207,0.115,0.494,0.138c0.333,0.034,0.77,0.057,1.149,0.057h4.55
		c0.367,0,0.62-0.034,0.793-0.057c0.171-0.034,0.264-0.057,0.31-0.057c0.08,0,0.091,0.069,0.091,0.242
		c0,0.241-0.034,1.034-0.034,1.333c-0.012,0.115-0.035,0.184-0.103,0.184c-0.093,0-0.115-0.057-0.127-0.23l-0.012-0.126
		c-0.022-0.299-0.333-0.621-1.356-0.644l-1.448-0.035v4.711c0,1.057,0,1.965,0.057,2.459c0.035,0.322,0.103,0.575,0.448,0.62
		c0.161,0.023,0.414,0.046,0.586,0.046c0.127,0,0.184,0.035,0.184,0.092c0,0.08-0.091,0.115-0.218,0.115
		c-0.759,0-1.482-0.034-1.804-0.034c-0.264,0-0.988,0.034-1.448,0.034c-0.15,0-0.23-0.034-0.23-0.115
		c0-0.057,0.046-0.092,0.184-0.092c0.173,0,0.31-0.023,0.414-0.046c0.23-0.046,0.299-0.299,0.333-0.632
		c0.057-0.483,0.057-1.39,0.057-2.447v-4.712H118.418z"/>
	<path fill="#FFFFFF" d="M125.049,27.015c0-1.746,0-2.068-0.023-2.436c-0.023-0.391-0.114-0.575-0.494-0.655
		c-0.092-0.023-0.287-0.034-0.448-0.034c-0.126,0-0.195-0.023-0.195-0.103c0-0.081,0.08-0.103,0.253-0.103
		c0.31,0,0.644,0.011,0.931,0.011c0.299,0.012,0.563,0.023,0.724,0.023c0.367,0,2.654,0,2.872-0.012
		c0.219-0.023,0.403-0.046,0.495-0.069c0.058-0.012,0.126-0.046,0.184-0.046s0.069,0.046,0.069,0.103
		c0,0.081-0.057,0.218-0.091,0.747c-0.012,0.115-0.035,0.62-0.058,0.759c-0.012,0.057-0.035,0.126-0.115,0.126
		s-0.103-0.057-0.103-0.161c0-0.08-0.012-0.276-0.069-0.414c-0.08-0.207-0.195-0.345-0.769-0.414
		c-0.195-0.023-1.402-0.046-1.632-0.046c-0.057,0-0.08,0.034-0.08,0.115v2.907c0,0.08,0.012,0.126,0.08,0.126
		c0.253,0,1.574,0,1.839-0.023c0.276-0.023,0.448-0.057,0.552-0.172c0.08-0.092,0.127-0.149,0.184-0.149
		c0.046,0,0.08,0.023,0.08,0.092c0,0.069-0.046,0.253-0.092,0.839c-0.012,0.23-0.046,0.689-0.046,0.77c0,0.092,0,0.218-0.103,0.218
		c-0.08,0-0.103-0.046-0.103-0.103c-0.012-0.115-0.012-0.264-0.046-0.414c-0.057-0.23-0.218-0.402-0.644-0.448
		c-0.218-0.023-1.356-0.035-1.631-0.035c-0.058,0-0.069,0.046-0.069,0.115v0.908c0,0.39-0.011,1.448,0,1.781
		c0.023,0.793,0.207,0.965,1.379,0.965c0.299,0,0.782,0,1.08-0.138c0.299-0.138,0.436-0.379,0.517-0.85
		c0.022-0.126,0.046-0.172,0.127-0.172c0.092,0,0.092,0.092,0.092,0.207c0,0.264-0.092,1.046-0.15,1.275
		c-0.08,0.299-0.184,0.299-0.62,0.299c-0.861,0-1.494-0.023-1.988-0.035c-0.494-0.023-0.85-0.034-1.195-0.034
		c-0.127,0-0.38,0-0.656,0.012c-0.264,0-0.563,0.023-0.792,0.023c-0.15,0-0.23-0.034-0.23-0.115c0-0.057,0.046-0.092,0.184-0.092
		c0.172,0,0.31-0.023,0.414-0.046c0.23-0.046,0.287-0.299,0.333-0.632c0.057-0.483,0.057-1.39,0.057-2.447v-2.023H125.049z"/>
	<path fill="#FFFFFF" d="M133.711,27.521h0.058c0.391-0.425,2.069-2.137,2.402-2.528c0.321-0.379,0.574-0.667,0.574-0.862
		c0-0.126-0.046-0.207-0.161-0.23c-0.103-0.023-0.15-0.046-0.15-0.115c0-0.081,0.057-0.103,0.184-0.103
		c0.242,0,0.873,0.034,1.184,0.034c0.356,0,0.988-0.034,1.344-0.034c0.115,0,0.195,0.023,0.195,0.103s-0.058,0.103-0.172,0.103
		c-0.161,0-0.448,0.046-0.667,0.126c-0.356,0.138-0.747,0.379-1.241,0.862c-0.356,0.345-2.091,2.068-2.482,2.482
		c0.414,0.54,2.665,2.964,3.114,3.39c0.505,0.483,1.022,1,1.643,1.241c0.345,0.138,0.575,0.172,0.713,0.172
		c0.08,0,0.149,0.023,0.149,0.092c0,0.08-0.058,0.115-0.276,0.115h-1c-0.344,0-0.551,0-0.793-0.023
		c-0.621-0.057-0.931-0.31-1.425-0.747c-0.505-0.448-2.769-3.102-3.01-3.436l-0.127-0.172h-0.058v1.046c0,1.057,0,1.965,0.035,2.459
		c0.022,0.322,0.126,0.575,0.414,0.62c0.161,0.023,0.414,0.046,0.563,0.046c0.092,0,0.149,0.035,0.149,0.092
		c0,0.08-0.091,0.115-0.218,0.115c-0.644,0-1.367-0.034-1.654-0.034c-0.265,0-0.988,0.034-1.448,0.034
		c-0.15,0-0.23-0.034-0.23-0.115c0-0.057,0.046-0.092,0.184-0.092c0.172,0,0.31-0.023,0.414-0.046
		c0.23-0.046,0.287-0.299,0.333-0.632c0.057-0.483,0.057-1.39,0.057-2.447v-2.022c0-1.746,0-2.068-0.023-2.436
		c-0.023-0.391-0.114-0.575-0.494-0.655c-0.092-0.023-0.287-0.034-0.448-0.034c-0.126,0-0.195-0.023-0.195-0.103
		c0-0.081,0.08-0.103,0.253-0.103c0.609,0,1.333,0.034,1.608,0.034c0.276,0,1-0.034,1.391-0.034c0.161,0,0.242,0.023,0.242,0.103
		s-0.069,0.103-0.161,0.103c-0.114,0-0.184,0.012-0.321,0.034c-0.31,0.057-0.403,0.253-0.426,0.655
		c-0.023,0.368-0.023,0.689-0.023,2.436L133.711,27.521L133.711,27.521z"/>
	<path fill="#FFFFFF" d="M141.778,30.807c0.022,0.896,0.172,1.195,0.401,1.276c0.196,0.069,0.414,0.08,0.598,0.08
		c0.126,0,0.195,0.023,0.195,0.092c0,0.092-0.103,0.115-0.264,0.115c-0.747,0-1.207-0.034-1.425-0.034
		c-0.103,0-0.643,0.034-1.241,0.034c-0.149,0-0.252-0.011-0.252-0.115c0-0.069,0.068-0.092,0.184-0.092
		c0.149,0,0.356-0.011,0.517-0.057c0.299-0.092,0.344-0.425,0.356-1.425l0.103-6.803c0-0.23,0.034-0.391,0.149-0.391
		c0.126,0,0.229,0.15,0.425,0.356c0.137,0.149,1.884,2.022,3.562,3.688c0.781,0.782,2.332,2.436,2.528,2.62h0.057l-0.114-5.159
		c-0.012-0.701-0.116-0.919-0.391-1.034c-0.172-0.069-0.448-0.069-0.609-0.069c-0.138,0-0.184-0.035-0.184-0.103
		c0-0.092,0.127-0.103,0.299-0.103c0.597,0,1.149,0.034,1.39,0.034c0.127,0,0.563-0.034,1.127-0.034c0.15,0,0.264,0.011,0.264,0.103
		c0,0.069-0.069,0.103-0.207,0.103c-0.114,0-0.207,0-0.344,0.034c-0.322,0.092-0.414,0.333-0.426,0.977l-0.126,7.251
		c0,0.253-0.046,0.356-0.149,0.356c-0.127,0-0.265-0.127-0.391-0.253c-0.724-0.689-2.195-2.195-3.39-3.378
		c-1.252-1.241-2.528-2.677-2.735-2.896h-0.034L141.778,30.807z"/>
	<path fill="#FFFFFF" d="M150.648,28.026c0-1.965,1.299-4.504,4.746-4.504c2.861,0,4.642,1.666,4.642,4.297
		s-1.838,4.711-4.757,4.711C151.981,32.53,150.648,30.06,150.648,28.026z M158.428,28.245c0-2.574-1.483-4.171-3.367-4.171
		c-1.321,0-2.826,0.735-2.826,3.597c0,2.39,1.321,4.286,3.527,4.286C156.566,31.956,158.428,31.565,158.428,28.245z"/>
	<path fill="#FFFFFF" d="M163.874,29.037c0,1.471,0,2.264,0.241,2.47c0.195,0.172,0.494,0.253,1.391,0.253
		c0.609,0,1.057-0.012,1.344-0.322c0.138-0.149,0.276-0.471,0.299-0.689c0.012-0.103,0.035-0.172,0.127-0.172
		c0.08,0,0.092,0.057,0.092,0.196c0,0.126-0.08,0.988-0.172,1.321c-0.069,0.253-0.127,0.31-0.725,0.31
		c-0.827,0-1.425-0.023-1.942-0.035c-0.517-0.023-0.931-0.034-1.401-0.034c-0.127,0-0.38,0-0.656,0.012
		c-0.264,0-0.563,0.023-0.792,0.023c-0.15,0-0.23-0.034-0.23-0.115c0-0.057,0.046-0.092,0.184-0.092c0.172,0,0.31-0.023,0.414-0.046
		c0.23-0.046,0.287-0.299,0.333-0.632c0.057-0.483,0.057-1.39,0.057-2.447v-2.022c0-1.746,0-2.068-0.023-2.436
		c-0.023-0.391-0.114-0.575-0.494-0.655c-0.092-0.023-0.23-0.034-0.38-0.034c-0.126,0-0.195-0.023-0.195-0.103
		c0-0.081,0.08-0.103,0.252-0.103c0.54,0,1.264,0.034,1.574,0.034c0.276,0,1.115-0.034,1.563-0.034c0.161,0,0.242,0.023,0.242,0.103
		s-0.069,0.103-0.207,0.103c-0.127,0-0.31,0.012-0.448,0.034c-0.31,0.057-0.402,0.253-0.425,0.655
		c-0.022,0.368-0.022,0.689-0.022,2.436L163.874,29.037L163.874,29.037z"/>
	<path fill="#FFFFFF" d="M168.079,28.026c0-1.965,1.299-4.504,4.746-4.504c2.861,0,4.642,1.666,4.642,4.297
		s-1.838,4.711-4.757,4.711C169.412,32.53,168.079,30.06,168.079,28.026z M175.858,28.245c0-2.574-1.482-4.171-3.367-4.171
		c-1.322,0-2.827,0.735-2.827,3.597c0,2.39,1.321,4.286,3.528,4.286C173.997,31.956,175.858,31.565,175.858,28.245z"/>
	<path fill="#FFFFFF" d="M179.868,27.015c0-1.746,0-2.068-0.023-2.436c-0.023-0.391-0.114-0.575-0.494-0.655
		c-0.092-0.023-0.287-0.034-0.448-0.034c-0.126,0-0.195-0.023-0.195-0.103c0-0.081,0.08-0.103,0.253-0.103
		c0.609,0,1.333,0.034,1.631,0.034c0.276,0,1-0.034,1.448-0.034c0.161,0,0.242,0.023,0.242,0.103s-0.069,0.103-0.207,0.103
		c-0.126,0-0.195,0.012-0.333,0.034c-0.31,0.057-0.402,0.253-0.425,0.655c-0.023,0.368-0.023,0.689-0.023,2.436v2.126
		c0,0.494,0.035,1.046,0.035,1.62c0,0.655-0.046,1.391-0.276,2.034c-0.242,0.701-0.85,1.494-1.954,2.172
		c-0.149,0.092-0.333,0.184-0.574,0.299c-0.08,0.046-0.173,0.069-0.23,0.069c-0.046,0-0.092-0.034-0.092-0.091
		c0-0.058,0.058-0.103,0.252-0.207c0.15-0.081,0.322-0.207,0.552-0.437c0.873-0.885,0.861-2.034,0.861-4.286L179.868,27.015
		L179.868,27.015z"/>
	<path fill="#FFFFFF" d="M184.647,27.015c0-1.746,0-2.068-0.022-2.436c-0.023-0.391-0.138-0.586-0.391-0.644
		c-0.127-0.034-0.276-0.046-0.414-0.046c-0.114,0-0.184-0.023-0.184-0.115c0-0.069,0.093-0.092,0.276-0.092
		c0.437,0,1.161,0.034,1.494,0.034c0.287,0,0.965-0.034,1.401-0.034c0.15,0,0.241,0.023,0.241,0.092
		c0,0.092-0.068,0.115-0.184,0.115c-0.114,0-0.207,0.012-0.344,0.034c-0.31,0.057-0.403,0.253-0.425,0.655
		c-0.023,0.368-0.023,0.689-0.023,2.436v2.022c0,1.115,0,2.022,0.046,2.516c0.035,0.31,0.116,0.517,0.46,0.563
		c0.161,0.023,0.414,0.046,0.586,0.046c0.127,0,0.184,0.035,0.184,0.092c0,0.08-0.093,0.115-0.218,0.115
		c-0.759,0-1.482-0.034-1.793-0.034c-0.264,0-0.988,0.034-1.448,0.034c-0.15,0-0.23-0.034-0.23-0.115
		c0-0.057,0.046-0.092,0.184-0.092c0.173,0,0.31-0.023,0.414-0.046c0.23-0.046,0.299-0.241,0.333-0.575
		c0.057-0.483,0.057-1.39,0.057-2.505L184.647,27.015L184.647,27.015z M184.717,22.155c0-0.287,0.184-0.667,0.644-0.667
		c0.367,0,0.654,0.242,0.654,0.621s-0.264,0.689-0.654,0.689C184.9,22.798,184.717,22.442,184.717,22.155z"/>
	<path fill="#FFFFFF" d="M64.301,40.803c0-1.746,0-2.068-0.023-2.435c-0.023-0.391-0.115-0.575-0.494-0.656
		c-0.092-0.022-0.287-0.034-0.448-0.034c-0.126,0-0.195-0.023-0.195-0.103s0.081-0.103,0.253-0.103c0.311,0,0.644,0.012,0.931,0.012
		c0.299,0.012,0.563,0.022,0.724,0.022c0.368,0,2.654,0,2.873-0.011c0.218-0.023,0.402-0.046,0.494-0.069
		c0.057-0.011,0.126-0.046,0.184-0.046c0.057,0,0.069,0.046,0.069,0.104c0,0.08-0.057,0.218-0.092,0.746
		c-0.012,0.116-0.035,0.62-0.057,0.759c-0.012,0.057-0.035,0.126-0.115,0.126c-0.08,0-0.103-0.057-0.103-0.161
		c0-0.081-0.012-0.276-0.069-0.414c-0.08-0.207-0.195-0.344-0.77-0.414c-0.195-0.022-1.402-0.046-1.632-0.046
		c-0.057,0-0.08,0.035-0.08,0.115v2.908c0,0.08,0.011,0.126,0.08,0.126c0.253,0,1.574,0,1.838-0.022
		c0.276-0.023,0.448-0.058,0.552-0.173c0.08-0.092,0.126-0.15,0.184-0.15c0.046,0,0.08,0.023,0.08,0.093
		c0,0.069-0.046,0.252-0.092,0.838c-0.012,0.23-0.046,0.69-0.046,0.77c0,0.093,0,0.218-0.103,0.218c-0.08,0-0.103-0.046-0.103-0.103
		c-0.012-0.115-0.012-0.265-0.046-0.414c-0.057-0.23-0.218-0.402-0.644-0.448c-0.218-0.023-1.356-0.034-1.632-0.034
		c-0.057,0-0.069,0.046-0.069,0.114v0.908c0,0.39-0.012,1.448,0,1.781c0.023,0.793,0.207,0.965,1.379,0.965
		c0.299,0,0.781,0,1.08-0.138s0.436-0.379,0.517-0.85c0.023-0.126,0.046-0.172,0.127-0.172c0.092,0,0.092,0.092,0.092,0.207
		c0,0.264-0.092,1.046-0.149,1.275c-0.081,0.299-0.184,0.299-0.621,0.299c-0.862,0-1.494-0.023-1.988-0.035
		c-0.494-0.022-0.85-0.035-1.195-0.035c-0.127,0-0.379,0-0.655,0.012c-0.264,0-0.563,0.022-0.793,0.022
		c-0.15,0-0.23-0.035-0.23-0.115c0-0.057,0.046-0.092,0.184-0.092c0.172,0,0.311-0.022,0.414-0.046
		c0.23-0.046,0.287-0.299,0.333-0.633c0.057-0.482,0.057-1.39,0.057-2.447v-2.021H64.301z"/>
	<path fill="#FFFFFF" d="M72.206,44.595c0.023,0.897,0.172,1.195,0.402,1.276c0.196,0.069,0.414,0.08,0.598,0.08
		c0.126,0,0.195,0.023,0.195,0.092c0,0.093-0.103,0.115-0.264,0.115c-0.747,0-1.206-0.035-1.425-0.035
		c-0.103,0-0.643,0.035-1.241,0.035c-0.149,0-0.253-0.012-0.253-0.115c0-0.069,0.069-0.092,0.184-0.092
		c0.149,0,0.356-0.012,0.517-0.058c0.299-0.091,0.345-0.424,0.356-1.425l0.103-6.802c0-0.23,0.034-0.391,0.149-0.391
		c0.126,0,0.23,0.15,0.425,0.356c0.138,0.15,1.884,2.022,3.562,3.689c0.781,0.782,2.332,2.436,2.528,2.62h0.057l-0.115-5.159
		c-0.012-0.701-0.115-0.92-0.391-1.035c-0.172-0.069-0.448-0.069-0.609-0.069c-0.138,0-0.184-0.035-0.184-0.103
		c0-0.092,0.127-0.103,0.299-0.103c0.597,0,1.149,0.034,1.39,0.034c0.127,0,0.563-0.034,1.126-0.034
		c0.149,0,0.264,0.012,0.264,0.103c0,0.069-0.069,0.103-0.207,0.103c-0.115,0-0.207,0-0.345,0.034
		c-0.322,0.093-0.414,0.333-0.425,0.977l-0.126,7.251c0,0.253-0.046,0.356-0.149,0.356c-0.127,0-0.264-0.127-0.391-0.253
		c-0.724-0.689-2.195-2.195-3.39-3.378c-1.253-1.241-2.528-2.677-2.735-2.895H72.08L72.206,44.595z"/>
	<path fill="#FFFFFF" d="M81.811,46.02c-0.184-0.08-0.218-0.137-0.218-0.39c0-0.632,0.046-1.321,0.057-1.505
		c0.012-0.173,0.046-0.299,0.138-0.299c0.103,0,0.115,0.103,0.115,0.196c0,0.149,0.046,0.39,0.103,0.586
		c0.253,0.85,0.931,1.161,1.643,1.161c1.034,0,1.54-0.701,1.54-1.31c0-0.563-0.172-1.092-1.126-1.839l-0.529-0.414
		c-1.264-0.988-1.7-1.793-1.7-2.723c0-1.264,1.057-2.171,2.654-2.171c0.747,0,1.23,0.114,1.528,0.195
		c0.103,0.023,0.161,0.058,0.161,0.138c0,0.15-0.046,0.482-0.046,1.379c0,0.253-0.034,0.345-0.127,0.345
		c-0.08,0-0.115-0.069-0.115-0.207c0-0.103-0.057-0.46-0.299-0.759c-0.172-0.218-0.505-0.563-1.252-0.563
		c-0.85,0-1.367,0.494-1.367,1.184c0,0.529,0.264,0.931,1.218,1.654l0.322,0.242c1.39,1.046,1.884,1.839,1.884,2.93
		c0,0.667-0.253,1.46-1.08,1.999c-0.575,0.368-1.218,0.471-1.827,0.471C82.823,46.319,82.306,46.239,81.811,46.02z"/>
	<path fill="#FFFFFF" d="M90.659,38.115l-1.712,0.046c-0.667,0.022-0.942,0.08-1.115,0.333c-0.115,0.172-0.172,0.31-0.195,0.402
		c-0.023,0.093-0.057,0.138-0.127,0.138c-0.081,0-0.103-0.058-0.103-0.184c0-0.184,0.218-1.229,0.241-1.321
		c0.035-0.15,0.069-0.218,0.138-0.218c0.092,0,0.207,0.114,0.494,0.137c0.333,0.035,0.77,0.057,1.149,0.057h4.55
		c0.368,0,0.62-0.034,0.793-0.057c0.172-0.034,0.264-0.057,0.31-0.057c0.08,0,0.092,0.069,0.092,0.241
		c0,0.242-0.034,1.034-0.034,1.333c-0.012,0.114-0.035,0.184-0.103,0.184c-0.092,0-0.115-0.057-0.127-0.23l-0.012-0.127
		c-0.023-0.299-0.333-0.62-1.356-0.644l-1.448-0.034v4.711c0,1.057,0,1.965,0.057,2.459c0.034,0.321,0.103,0.574,0.448,0.62
		c0.161,0.023,0.414,0.046,0.586,0.046c0.126,0,0.184,0.035,0.184,0.092c0,0.08-0.092,0.115-0.218,0.115
		c-0.759,0-1.482-0.035-1.804-0.035c-0.264,0-0.988,0.035-1.448,0.035c-0.149,0-0.23-0.035-0.23-0.115
		c0-0.057,0.046-0.092,0.184-0.092c0.172,0,0.31-0.022,0.414-0.046c0.23-0.046,0.299-0.299,0.333-0.633
		c0.057-0.482,0.057-1.39,0.057-2.447v-4.709H90.659z"/>
	<path fill="#FFFFFF" d="M97.289,40.803c0-1.746,0-2.068-0.023-2.435c-0.023-0.391-0.138-0.586-0.391-0.644
		c-0.127-0.035-0.276-0.046-0.414-0.046c-0.115,0-0.184-0.023-0.184-0.115c0-0.069,0.092-0.092,0.276-0.092
		c0.437,0,1.161,0.034,1.494,0.034c0.287,0,0.965-0.034,1.402-0.034c0.149,0,0.241,0.023,0.241,0.092
		c0,0.092-0.069,0.115-0.184,0.115s-0.207,0.012-0.345,0.034c-0.31,0.058-0.402,0.253-0.425,0.656
		c-0.023,0.367-0.023,0.689-0.023,2.435v2.022c0,1.115,0,2.022,0.046,2.516c0.034,0.31,0.115,0.517,0.46,0.563
		c0.161,0.023,0.414,0.046,0.586,0.046c0.127,0,0.184,0.035,0.184,0.092c0,0.08-0.093,0.115-0.219,0.115
		c-0.758,0-1.482-0.035-1.792-0.035c-0.264,0-0.988,0.035-1.448,0.035c-0.15,0-0.23-0.035-0.23-0.115
		c0-0.057,0.046-0.092,0.184-0.092c0.172,0,0.311-0.022,0.414-0.046c0.23-0.046,0.299-0.242,0.333-0.575
		c0.057-0.482,0.057-1.39,0.057-2.505v-2.021H97.289z M97.358,35.943c0-0.288,0.184-0.667,0.644-0.667
		c0.368,0,0.655,0.241,0.655,0.62c0,0.379-0.264,0.69-0.655,0.69C97.541,36.587,97.358,36.231,97.358,35.943z"/>
	<path fill="#FFFFFF" d="M104.01,38.115l-1.712,0.046c-0.667,0.022-0.942,0.08-1.114,0.333c-0.116,0.172-0.173,0.31-0.196,0.402
		c-0.023,0.093-0.057,0.138-0.127,0.138c-0.08,0-0.103-0.058-0.103-0.184c0-0.184,0.219-1.229,0.242-1.321
		c0.035-0.15,0.069-0.218,0.138-0.218c0.092,0,0.207,0.114,0.494,0.137c0.333,0.035,0.77,0.057,1.149,0.057h4.55
		c0.367,0,0.62-0.034,0.793-0.057c0.171-0.034,0.264-0.057,0.31-0.057c0.08,0,0.091,0.069,0.091,0.241
		c0,0.242-0.034,1.034-0.034,1.333c-0.012,0.114-0.035,0.184-0.103,0.184c-0.093,0-0.115-0.057-0.127-0.23l-0.012-0.127
		c-0.022-0.299-0.333-0.62-1.356-0.644l-1.448-0.034v4.711c0,1.057,0,1.965,0.057,2.459c0.035,0.321,0.103,0.574,0.448,0.62
		c0.161,0.023,0.414,0.046,0.586,0.046c0.127,0,0.184,0.035,0.184,0.092c0,0.08-0.091,0.115-0.218,0.115
		c-0.759,0-1.482-0.035-1.804-0.035c-0.264,0-0.988,0.035-1.448,0.035c-0.15,0-0.23-0.035-0.23-0.115
		c0-0.057,0.046-0.092,0.184-0.092c0.173,0,0.31-0.022,0.414-0.046c0.23-0.046,0.299-0.299,0.333-0.633
		c0.057-0.482,0.057-1.39,0.057-2.447v-4.709H104.01z"/>
	<path fill="#FFFFFF" d="M110.146,40.803c0-1.746,0-2.068-0.023-2.435c-0.023-0.391-0.115-0.575-0.494-0.656
		c-0.093-0.022-0.287-0.034-0.448-0.034c-0.127,0-0.195-0.023-0.195-0.103s0.08-0.103,0.253-0.103c0.608,0,1.332,0.034,1.678,0.034
		c0.276,0,0.999-0.034,1.413-0.034c0.172,0,0.252,0.023,0.252,0.103s-0.069,0.103-0.184,0.103c-0.127,0-0.195,0.012-0.333,0.034
		c-0.31,0.058-0.401,0.253-0.424,0.656c-0.023,0.367-0.023,0.689-0.023,2.435v1.609c0,1.666,0.333,2.367,0.896,2.827
		c0.518,0.425,1.046,0.471,1.436,0.471c0.506,0,1.127-0.161,1.586-0.62c0.631-0.631,0.666-1.666,0.666-2.849v-1.437
		c0-1.746,0-2.068-0.022-2.435c-0.023-0.391-0.116-0.575-0.495-0.656c-0.092-0.022-0.287-0.034-0.414-0.034
		s-0.195-0.023-0.195-0.103s0.08-0.103,0.241-0.103c0.586,0,1.31,0.034,1.322,0.034c0.138,0,0.862-0.034,1.31-0.034
		c0.161,0,0.242,0.023,0.242,0.103s-0.069,0.103-0.207,0.103c-0.126,0-0.195,0.012-0.333,0.034c-0.31,0.058-0.403,0.253-0.426,0.656
		c-0.023,0.367-0.023,0.689-0.023,2.435v1.23c0,1.275-0.126,2.631-1.091,3.459c-0.816,0.701-1.644,0.827-2.39,0.827
		c-0.609,0-1.712-0.035-2.551-0.793c-0.586-0.529-1.022-1.378-1.022-3.045v-1.679H110.146z M112.134,36.047
		c0-0.219,0.161-0.529,0.529-0.529c0.299,0,0.539,0.184,0.539,0.495c0,0.322-0.218,0.575-0.551,0.575
		C112.284,36.587,112.134,36.288,112.134,36.047z M114.559,36.047c0-0.23,0.161-0.54,0.528-0.54c0.299,0,0.54,0.184,0.54,0.505
		s-0.218,0.575-0.551,0.575C114.708,36.587,114.559,36.288,114.559,36.047z"/>
	<path fill="#FFFFFF" d="M119.798,46.02c-0.184-0.08-0.219-0.137-0.219-0.39c0-0.632,0.046-1.321,0.058-1.505
		c0.012-0.173,0.046-0.299,0.138-0.299c0.103,0,0.114,0.103,0.114,0.196c0,0.149,0.046,0.39,0.103,0.586
		c0.253,0.85,0.931,1.161,1.644,1.161c1.034,0,1.54-0.701,1.54-1.31c0-0.563-0.173-1.092-1.127-1.839l-0.529-0.414
		c-1.264-0.988-1.7-1.793-1.7-2.723c0-1.264,1.057-2.171,2.654-2.171c0.747,0,1.229,0.114,1.529,0.195
		c0.103,0.023,0.161,0.058,0.161,0.138c0,0.15-0.046,0.482-0.046,1.379c0,0.253-0.034,0.345-0.127,0.345
		c-0.08,0-0.114-0.069-0.114-0.207c0-0.103-0.057-0.46-0.299-0.759c-0.172-0.218-0.505-0.563-1.252-0.563
		c-0.85,0-1.367,0.494-1.367,1.184c0,0.529,0.264,0.931,1.218,1.654l0.322,0.242c1.39,1.046,1.884,1.839,1.884,2.93
		c0,0.667-0.252,1.46-1.08,1.999c-0.575,0.368-1.218,0.471-1.827,0.471C120.809,46.319,120.292,46.239,119.798,46.02z"/>
	<path fill="#FFFFFF" d="M126.623,40.803c0-1.746,0-2.068-0.023-2.435c-0.023-0.391-0.115-0.575-0.494-0.656
		c-0.093-0.022-0.287-0.034-0.448-0.034c-0.127,0-0.195-0.023-0.195-0.103s0.08-0.103,0.253-0.103c0.608,0,1.332,0.034,1.678,0.034
		c0.276,0,0.999-0.034,1.413-0.034c0.172,0,0.252,0.023,0.252,0.103s-0.069,0.103-0.184,0.103c-0.127,0-0.195,0.012-0.333,0.034
		c-0.31,0.058-0.401,0.253-0.424,0.656c-0.023,0.367-0.023,0.689-0.023,2.435v1.609c0,1.666,0.333,2.367,0.896,2.827
		c0.518,0.425,1.046,0.471,1.436,0.471c0.506,0,1.127-0.161,1.586-0.62c0.631-0.631,0.666-1.666,0.666-2.849v-1.437
		c0-1.746,0-2.068-0.022-2.435c-0.023-0.391-0.116-0.575-0.495-0.656c-0.092-0.022-0.287-0.034-0.414-0.034
		s-0.195-0.023-0.195-0.103s0.08-0.103,0.241-0.103c0.586,0,1.31,0.034,1.322,0.034c0.138,0,0.862-0.034,1.31-0.034
		c0.161,0,0.242,0.023,0.242,0.103s-0.069,0.103-0.207,0.103c-0.126,0-0.195,0.012-0.333,0.034c-0.31,0.058-0.403,0.253-0.426,0.656
		c-0.023,0.367-0.023,0.689-0.023,2.435v1.23c0,1.275-0.126,2.631-1.091,3.459c-0.816,0.701-1.644,0.827-2.39,0.827
		c-0.609,0-1.712-0.035-2.551-0.793c-0.586-0.529-1.022-1.378-1.022-3.045v-1.679H126.623z M128.611,36.047
		c0-0.219,0.161-0.529,0.529-0.529c0.299,0,0.539,0.184,0.539,0.495c0,0.322-0.218,0.575-0.551,0.575
		C128.76,36.587,128.611,36.288,128.611,36.047z M131.035,36.047c0-0.23,0.161-0.54,0.528-0.54c0.299,0,0.54,0.184,0.54,0.505
		s-0.218,0.575-0.551,0.575C131.185,36.587,131.035,36.288,131.035,36.047z"/>
</g>
<g>
	<g>
		<path fill="#FFFFFF" d="M54.121,28.543c0,14.422-11.691,26.113-26.113,26.113c-14.422,0-26.113-11.691-26.113-26.113
			c0-14.422,11.691-26.113,26.113-26.113C42.43,2.43,54.121,14.121,54.121,28.543"/>
		<g>
			<path fill="#1A1A1A" d="M12.917,46.305c-0.061,0.07-0.186,0.124-0.298,0.027c-0.09-0.078-0.109-0.198-0.029-0.29
				c0.08-0.093,0.21-0.113,0.306-0.03C13.009,46.108,12.978,46.235,12.917,46.305 M13.962,45.132c-0.369,0.426-0.438,0.505-0.51,0.6
				c-0.077,0.1-0.09,0.172-0.041,0.24c0.023,0.035,0.058,0.07,0.091,0.099c0.028,0.024,0.04,0.044,0.02,0.067
				c-0.015,0.017-0.042,0.003-0.087-0.035c-0.107-0.092-0.276-0.254-0.358-0.324c-0.07-0.061-0.243-0.196-0.35-0.289
				c-0.037-0.032-0.054-0.057-0.039-0.074c0.019-0.022,0.041-0.013,0.069,0.011c0.028,0.024,0.053,0.041,0.092,0.065
				c0.088,0.051,0.152,0.023,0.242-0.07c0.083-0.085,0.152-0.164,0.521-0.59l0.428-0.494c0.236-0.272,0.428-0.494,0.521-0.624
				c0.057-0.083,0.081-0.151,0.007-0.235c-0.034-0.04-0.091-0.099-0.133-0.135c-0.031-0.026-0.038-0.047-0.025-0.061
				c0.017-0.019,0.047-0.009,0.078,0.018c0.185,0.161,0.355,0.322,0.431,0.388c0.065,0.056,0.249,0.201,0.361,0.298
				c0.037,0.032,0.049,0.057,0.032,0.077c-0.012,0.014-0.031,0.013-0.064-0.017c-0.042-0.036-0.081-0.06-0.111-0.076
				c-0.066-0.037-0.124-0.004-0.203,0.07c-0.116,0.106-0.308,0.328-0.544,0.6L13.962,45.132z"/>
			<path fill="#1A1A1A" d="M12.496,41.518c-0.249-0.285-0.414-0.334-0.537-0.305c-0.067,0.014-0.132,0.041-0.178,0.067
				c-0.033,0.019-0.055,0.028-0.069,0.011c-0.019-0.022-0.005-0.045,0.062-0.104c0.09-0.078,0.303-0.201,0.39-0.242
				c0.063-0.03,0.102-0.03,0.146,0.021c0.408,0.468,0.804,0.95,1.298,1.516c0.027,0.031,0.033,0.055,0.014,0.072
				c-0.02,0.017-0.041,0.021-0.121,0.031c-0.96,0.142-1.955,0.28-2.873,0.42l0.479,0.549c0.125,0.143,0.282,0.306,0.411,0.352
				c0.131,0.048,0.279,0.008,0.35-0.039c0.044-0.029,0.065-0.027,0.08-0.01c0.017,0.02,0.006,0.035-0.028,0.064
				c-0.064,0.056-0.356,0.236-0.452,0.296c-0.044,0.028-0.068,0.029-0.083,0.013c-0.022-0.025-0.02-0.057-0.078-0.129
				c-0.221-0.276-0.341-0.408-0.441-0.522l-0.745-0.854c-0.024-0.028-0.033-0.055-0.019-0.067c0.017-0.015,0.043-0.018,0.073-0.024
				c0.964-0.161,1.977-0.294,2.923-0.425L12.496,41.518z"/>
			<path fill="#1A1A1A" d="M8.863,40.978c-0.06,0.022-0.1,0.019-0.115-0.006c-0.015-0.026-0.01-0.054,0.05-0.144l1.306-1.927
				l-2.342,0.187c-0.066,0.004-0.101,0.003-0.118-0.026c-0.017-0.029,0.004-0.067,0.066-0.115l1.818-1.442
				c0.186-0.146,0.261-0.232,0.234-0.346c-0.025-0.11-0.059-0.176-0.083-0.218c-0.017-0.029-0.026-0.053-0.007-0.064
				c0.026-0.015,0.058,0.018,0.084,0.063c0.046,0.08,0.294,0.53,0.358,0.664c0.037,0.078,0.038,0.103,0.019,0.114
				c-0.016,0.01-0.033,0.002-0.056-0.015c-0.018-0.015-0.065-0.001-0.148,0.064l-1.304,1.011l0.008,0.013l1.866-0.143
				c0.194-0.014,0.232-0.014,0.249,0.015c0.017,0.029-0.029,0.098-0.096,0.206c-0.103,0.163-0.449,0.701-0.516,0.792
				c-0.051,0.068-0.344,0.495-0.521,0.747l0.007,0.013l1.377-0.573c0.062-0.027,0.105-0.048,0.157-0.078
				c0.061-0.035,0.066-0.094,0.047-0.156c-0.021-0.065-0.043-0.112-0.062-0.144c-0.015-0.026-0.021-0.052-0.005-0.061
				c0.029-0.017,0.052,0.009,0.08,0.057c0.078,0.135,0.152,0.285,0.186,0.344c0.035,0.061,0.134,0.21,0.194,0.313
				c0.019,0.032,0.027,0.062-0.002,0.078c-0.016,0.009-0.034-0.006-0.052-0.038c-0.015-0.026-0.028-0.048-0.066-0.091
				c-0.071-0.079-0.212-0.032-0.33,0.015L8.863,40.978z"/>
			<path fill="#1A1A1A" d="M6.214,36.805c-0.087,0.032-0.223,0.019-0.274-0.121c-0.041-0.112,0-0.226,0.115-0.268
				c0.115-0.043,0.239,0.003,0.282,0.121C6.389,36.677,6.301,36.773,6.214,36.805 M7.696,36.283
				c-0.53,0.195-0.627,0.231-0.737,0.279c-0.116,0.051-0.162,0.107-0.151,0.191c0.004,0.042,0.017,0.089,0.032,0.13
				c0.013,0.035,0.014,0.058-0.014,0.068c-0.021,0.008-0.038-0.018-0.059-0.073c-0.049-0.132-0.119-0.356-0.157-0.457
				C6.579,36.334,6.493,36.132,6.444,36c-0.017-0.045-0.02-0.076,0.001-0.083c0.028-0.01,0.043,0.008,0.055,0.043
				c0.013,0.035,0.027,0.062,0.049,0.101c0.052,0.088,0.122,0.094,0.246,0.056c0.114-0.034,0.212-0.07,0.741-0.265l0.614-0.226
				c0.338-0.125,0.614-0.226,0.758-0.295c0.09-0.045,0.144-0.093,0.119-0.203c-0.011-0.051-0.032-0.131-0.052-0.183
				c-0.014-0.038-0.01-0.059,0.007-0.066c0.024-0.009,0.045,0.015,0.059,0.053c0.085,0.23,0.155,0.454,0.19,0.548
				c0.029,0.08,0.121,0.296,0.172,0.436c0.017,0.045,0.015,0.074-0.009,0.083c-0.017,0.006-0.033-0.004-0.048-0.046
				c-0.019-0.052-0.042-0.091-0.06-0.12c-0.04-0.065-0.107-0.064-0.212-0.037c-0.153,0.037-0.428,0.138-0.766,0.263L7.696,36.283z"
				/>
			<path fill="#1A1A1A" d="M6.913,33.828c-0.552,0.116-0.654,0.138-0.769,0.169c-0.122,0.033-0.174,0.075-0.174,0.2
				c-0.001,0.031,0.008,0.093,0.019,0.144c0.008,0.04,0.006,0.063-0.02,0.069c-0.025,0.005-0.038-0.019-0.049-0.073
				c-0.041-0.192-0.078-0.424-0.094-0.5c-0.026-0.124-0.095-0.397-0.119-0.51c-0.048-0.229-0.078-0.477,0.015-0.701
				c0.048-0.116,0.203-0.301,0.446-0.352c0.269-0.056,0.54,0.004,0.915,0.308c0.339-0.409,0.61-0.728,0.79-0.99
				c0.168-0.248,0.162-0.402,0.161-0.459c-0.001-0.042-0.004-0.075-0.01-0.104c-0.006-0.029,0.002-0.046,0.02-0.05
				c0.029-0.006,0.042,0.018,0.051,0.061l0.073,0.345c0.043,0.204,0.044,0.298,0.013,0.403c-0.051,0.174-0.193,0.348-0.43,0.61
				c-0.169,0.187-0.381,0.407-0.426,0.465c-0.018,0.023-0.017,0.045-0.012,0.071l0.059,0.317c0.004,0.018,0.013,0.028,0.035,0.023
				l0.051-0.011c0.338-0.071,0.625-0.132,0.774-0.182c0.103-0.033,0.179-0.072,0.17-0.184c-0.004-0.056-0.014-0.138-0.023-0.181
				c-0.006-0.029,0.002-0.046,0.02-0.05c0.025-0.005,0.042,0.018,0.052,0.066c0.044,0.211,0.09,0.482,0.101,0.536
				c0.015,0.069,0.074,0.296,0.104,0.441c0.01,0.047,0.004,0.075-0.021,0.08c-0.018,0.004-0.032-0.008-0.041-0.052
				c-0.011-0.054-0.028-0.097-0.042-0.128c-0.03-0.07-0.114-0.071-0.222-0.063c-0.156,0.014-0.444,0.074-0.778,0.145L6.913,33.828z
				 M7.11,33.339c0.04-0.009,0.053-0.019,0.059-0.046c0.009-0.082-0.003-0.193-0.022-0.284c-0.031-0.145-0.055-0.19-0.116-0.245
				c-0.103-0.092-0.292-0.163-0.59-0.1c-0.516,0.109-0.593,0.482-0.548,0.696c0.019,0.091,0.037,0.155,0.055,0.189
				c0.013,0.024,0.029,0.028,0.058,0.022L7.11,33.339z"/>
			<path fill="#1A1A1A" d="M7.064,27.821c-0.2-0.009-0.284,0.024-0.393,0.068c-0.061,0.023-0.9,0.484-1.098,0.605
				c-0.142,0.087-0.238,0.175-0.282,0.244c-0.028,0.047-0.053,0.109-0.055,0.154c-0.001,0.03-0.01,0.055-0.036,0.054
				c-0.022-0.001-0.032-0.028-0.03-0.072c0.003-0.067,0.026-0.345,0.032-0.467c0.003-0.078-0.001-0.231,0.007-0.398
				c0.002-0.037,0.013-0.055,0.036-0.054c0.022,0.001,0.025,0.027,0.037,0.083c0.006,0.034,0.035,0.054,0.065,0.055
				c0.03,0.001,0.075-0.015,0.128-0.039c0.114-0.047,1.031-0.527,1.138-0.581c-0.087-0.041-0.883-0.545-0.995-0.602
				c-0.08-0.041-0.142-0.059-0.191-0.061c-0.037-0.002-0.079,0.012-0.096,0.074c-0.009,0.033-0.018,0.067-0.04,0.065
				c-0.026-0.001-0.033-0.02-0.03-0.065c0.005-0.123,0.022-0.241,0.027-0.348c0.004-0.082,0.003-0.327,0.007-0.398
				c0.002-0.041,0.01-0.067,0.033-0.065c0.026,0.001,0.036,0.031,0.034,0.072c-0.002,0.037,0.01,0.108,0.037,0.165
				c0.034,0.08,0.076,0.122,0.173,0.208c0.143,0.129,0.992,0.688,1.148,0.762c0.131,0.062,0.246,0.067,0.369,0.072l0.304,0.014
				c0.059,0.003,0.215,0.009,0.371,0.005c0.108-0.003,0.191-0.033,0.211-0.143c0.01-0.051,0.021-0.133,0.023-0.185
				c0.002-0.041,0.014-0.059,0.033-0.058c0.026,0.001,0.036,0.031,0.034,0.079c-0.011,0.234-0.032,0.467-0.037,0.568
				c-0.004,0.092-0.004,0.327-0.01,0.464c-0.002,0.052-0.011,0.081-0.041,0.08c-0.019,0-0.029-0.02-0.027-0.061
				c0.002-0.052-0.003-0.097-0.009-0.13c-0.012-0.075-0.092-0.112-0.199-0.124c-0.155-0.018-0.311-0.025-0.371-0.028L7.064,27.821z"
				/>
			<path fill="#1A1A1A" d="M5.187,23.998c-0.069-0.015-0.156-0.087-0.13-0.204c0.021-0.095,0.096-0.158,0.194-0.136
				c0.102,0.022,0.166,0.109,0.143,0.214C5.368,23.988,5.263,24.015,5.187,23.998 M5.356,23.232
				c-0.072-0.016-0.159-0.089-0.134-0.204c0.021-0.094,0.096-0.158,0.198-0.135c0.101,0.023,0.166,0.109,0.143,0.214
				C5.537,23.223,5.432,23.249,5.356,23.232 M6.551,24.957c-0.551-0.122-0.653-0.144-0.771-0.163
				c-0.125-0.02-0.189-0.004-0.241,0.11c-0.014,0.027-0.031,0.088-0.042,0.139c-0.009,0.04-0.021,0.06-0.046,0.054
				c-0.025-0.006-0.027-0.032-0.015-0.087c0.042-0.192,0.104-0.418,0.128-0.527c0.019-0.087,0.059-0.318,0.088-0.449
				c0.012-0.054,0.025-0.078,0.05-0.073c0.026,0.005,0.028,0.029,0.02,0.065c-0.009,0.04-0.01,0.063-0.012,0.108
				c-0.004,0.102,0.052,0.145,0.177,0.18C6,24.348,6.102,24.371,6.653,24.493l0.508,0.112c0.526,0.116,0.771,0.059,0.955-0.086
				c0.17-0.134,0.221-0.298,0.249-0.421c0.035-0.16,0.028-0.367-0.085-0.544c-0.156-0.244-0.48-0.326-0.853-0.409l-0.453-0.1
				c-0.551-0.122-0.653-0.144-0.771-0.163c-0.125-0.02-0.189-0.004-0.241,0.111c-0.014,0.027-0.031,0.088-0.04,0.128
				c-0.009,0.04-0.021,0.06-0.046,0.055c-0.025-0.005-0.027-0.033-0.016-0.083c0.041-0.185,0.102-0.411,0.103-0.414
				c0.01-0.044,0.049-0.274,0.08-0.417c0.011-0.051,0.024-0.074,0.049-0.069c0.026,0.006,0.028,0.029,0.018,0.073
				c-0.009,0.04-0.01,0.063-0.012,0.108c-0.003,0.102,0.052,0.145,0.177,0.18c0.115,0.033,0.216,0.055,0.767,0.177l0.388,0.086
				c0.403,0.089,0.822,0.223,1.016,0.586c0.164,0.307,0.147,0.576,0.095,0.812c-0.042,0.192-0.13,0.538-0.428,0.75
				c-0.208,0.148-0.507,0.227-1.033,0.111L6.551,24.957z"/>
			<path fill="#1A1A1A" d="M8.003,20.492l0.007-0.017c-0.077-0.17-0.376-0.885-0.45-1.034c-0.072-0.144-0.126-0.255-0.184-0.28
				c-0.038-0.016-0.067-0.013-0.089,0.019c-0.02,0.028-0.033,0.038-0.053,0.03c-0.024-0.01-0.024-0.03-0.008-0.067
				c0.03-0.072,0.12-0.256,0.159-0.348c0.045-0.106,0.114-0.298,0.159-0.405c0.015-0.034,0.031-0.055,0.055-0.045
				c0.024,0.01,0.024,0.03,0.009,0.064c-0.02,0.048-0.043,0.14-0.046,0.215c-0.004,0.123,0.019,0.27,0.1,0.478
				c0.058,0.15,0.352,0.884,0.426,1.052c0.213-0.055,1.219-0.42,1.402-0.5c0.207-0.09,0.426-0.178,0.576-0.333
				c0.084-0.085,0.124-0.15,0.141-0.19c0.01-0.024,0.026-0.042,0.046-0.033c0.024,0.01,0.027,0.031-0.001,0.096l-0.126,0.298
				c-0.043,0.103-0.069,0.164-0.107,0.233c-0.096,0.177-0.21,0.238-0.402,0.33c-0.197,0.094-1.273,0.433-1.402,0.463l-0.067,0.016
				l-0.007,0.017l0.311,0.132c0.315,0.133,0.585,0.248,0.737,0.299c0.099,0.034,0.187,0.035,0.237-0.045
				c0.027-0.045,0.066-0.117,0.085-0.162c0.012-0.027,0.029-0.04,0.046-0.033c0.024,0.01,0.022,0.042,0.007,0.08
				c-0.081,0.192-0.183,0.403-0.219,0.488c-0.033,0.079-0.114,0.298-0.172,0.435c-0.019,0.044-0.039,0.064-0.063,0.054
				c-0.017-0.007-0.022-0.025-0.004-0.066c0.022-0.051,0.032-0.095,0.038-0.129c0.015-0.074-0.053-0.123-0.146-0.179
				c-0.136-0.078-0.407-0.192-0.721-0.326l-0.602-0.255c-0.52-0.22-0.616-0.261-0.728-0.3c-0.119-0.043-0.185-0.038-0.257,0.064
				c-0.018,0.024-0.047,0.081-0.067,0.129c-0.016,0.037-0.031,0.055-0.055,0.045c-0.024-0.01-0.021-0.037,0.001-0.088
				c0.077-0.181,0.178-0.392,0.213-0.475c0.035-0.082,0.116-0.302,0.165-0.418c0.02-0.048,0.037-0.069,0.061-0.059
				c0.024,0.01,0.022,0.033,0.011,0.061c-0.015,0.034-0.02,0.056-0.03,0.1c-0.022,0.1,0.025,0.152,0.141,0.209
				c0.106,0.053,0.202,0.094,0.722,0.314L8.003,20.492z"/>
			<path fill="#1A1A1A" d="M10.651,18.515c-0.053,0.037-0.075,0.036-0.144-0.007c-0.173-0.108-0.354-0.239-0.403-0.274
				c-0.045-0.033-0.074-0.064-0.058-0.089c0.018-0.028,0.048-0.014,0.073,0.002c0.041,0.026,0.115,0.054,0.178,0.072
				c0.276,0.077,0.478-0.056,0.6-0.251c0.177-0.283,0.072-0.542-0.095-0.647c-0.154-0.096-0.328-0.14-0.697-0.007l-0.204,0.074
				c-0.488,0.177-0.783,0.159-1.038-0.001c-0.346-0.217-0.414-0.662-0.14-1.1c0.128-0.205,0.242-0.317,0.316-0.385
				c0.024-0.024,0.043-0.034,0.065-0.021c0.041,0.026,0.124,0.095,0.37,0.249c0.069,0.044,0.089,0.068,0.073,0.094
				c-0.014,0.022-0.039,0.02-0.076-0.004c-0.028-0.018-0.136-0.063-0.259-0.048c-0.089,0.01-0.241,0.042-0.369,0.247
				c-0.146,0.233-0.099,0.459,0.09,0.577c0.145,0.091,0.3,0.087,0.662-0.05L9.716,16.9c0.525-0.202,0.827-0.201,1.126-0.014
				c0.183,0.114,0.356,0.319,0.362,0.639c0.002,0.221-0.08,0.414-0.184,0.581C10.906,18.289,10.796,18.417,10.651,18.515"/>
			<path fill="#1A1A1A" d="M11.074,14.937c-0.43-0.366-0.51-0.433-0.605-0.504c-0.101-0.076-0.166-0.092-0.265-0.015
				c-0.025,0.018-0.069,0.064-0.102,0.103c-0.026,0.031-0.047,0.044-0.066,0.027c-0.02-0.017-0.009-0.041,0.028-0.084
				c0.065-0.076,0.137-0.156,0.198-0.227c0.065-0.071,0.124-0.134,0.157-0.174c0.077-0.091,0.555-0.654,0.598-0.71
				c0.04-0.059,0.073-0.109,0.087-0.136c0.009-0.017,0.015-0.041,0.027-0.055c0.012-0.014,0.026-0.008,0.04,0.005
				c0.02,0.017,0.042,0.06,0.165,0.179c0.026,0.027,0.146,0.138,0.175,0.173c0.012,0.015,0.024,0.035,0.007,0.055
				c-0.017,0.02-0.036,0.014-0.062-0.008c-0.02-0.017-0.07-0.055-0.116-0.07c-0.068-0.023-0.126-0.024-0.263,0.103
				c-0.047,0.043-0.305,0.336-0.353,0.392c-0.012,0.014-0.008,0.027,0.012,0.044l0.716,0.608c0.02,0.017,0.033,0.024,0.048,0.007
				c0.053-0.062,0.329-0.388,0.379-0.458c0.052-0.073,0.08-0.123,0.073-0.172c-0.006-0.039-0.01-0.062,0.002-0.076
				c0.01-0.012,0.022-0.015,0.04-0.001c0.017,0.015,0.053,0.065,0.187,0.199c0.054,0.051,0.16,0.155,0.18,0.172
				c0.023,0.019,0.054,0.045,0.032,0.071c-0.017,0.02-0.033,0.016-0.047,0.004c-0.031-0.021-0.068-0.052-0.112-0.075
				c-0.069-0.034-0.145-0.03-0.245,0.065c-0.051,0.049-0.292,0.327-0.35,0.395c-0.012,0.014-0.003,0.026,0.014,0.041l0.224,0.19
				c0.096,0.082,0.354,0.306,0.439,0.373c0.2,0.16,0.281,0.151,0.526-0.138c0.063-0.074,0.164-0.193,0.192-0.295
				c0.029-0.103-0.002-0.187-0.101-0.305c-0.026-0.032-0.033-0.047-0.016-0.067c0.019-0.023,0.042-0.003,0.07,0.021
				c0.065,0.055,0.238,0.241,0.283,0.304c0.057,0.082,0.035,0.108-0.056,0.216c-0.18,0.212-0.318,0.363-0.424,0.482
				c-0.109,0.117-0.186,0.203-0.258,0.287c-0.027,0.031-0.079,0.093-0.134,0.164c-0.055,0.065-0.112,0.144-0.16,0.2
				c-0.031,0.037-0.057,0.049-0.077,0.033c-0.014-0.012-0.013-0.031,0.016-0.065c0.036-0.042,0.059-0.081,0.075-0.111
				c0.037-0.066-0.014-0.133-0.086-0.214c-0.107-0.115-0.331-0.305-0.591-0.526L11.074,14.937z"/>
			<path fill="#1A1A1A" d="M13.75,12.381l0.014-0.012c0.007-0.186,0.061-0.959,0.061-1.126c0-0.16,0.002-0.284-0.039-0.332
				c-0.027-0.031-0.055-0.041-0.088-0.022c-0.03,0.016-0.046,0.02-0.061,0.003c-0.017-0.02-0.007-0.037,0.024-0.063
				c0.059-0.051,0.222-0.175,0.298-0.24c0.088-0.075,0.236-0.216,0.324-0.291c0.028-0.024,0.053-0.035,0.07-0.016
				c0.017,0.02,0.007,0.037-0.021,0.062c-0.04,0.034-0.1,0.105-0.137,0.171c-0.059,0.108-0.104,0.25-0.125,0.472
				c-0.015,0.16-0.081,0.948-0.09,1.131c0.215,0.046,1.277,0.171,1.477,0.181c0.226,0.013,0.461,0.032,0.664-0.039
				c0.114-0.038,0.178-0.078,0.211-0.107c0.02-0.017,0.042-0.026,0.056-0.009c0.017,0.019,0.01,0.04-0.044,0.086l-0.246,0.21
				c-0.085,0.072-0.136,0.115-0.2,0.16c-0.165,0.116-0.294,0.119-0.507,0.115c-0.218-0.004-1.332-0.183-1.461-0.214l-0.067-0.016
				l-0.014,0.012l0.219,0.257c0.222,0.26,0.412,0.483,0.524,0.598c0.073,0.074,0.151,0.115,0.232,0.066
				c0.044-0.028,0.111-0.075,0.148-0.106c0.022-0.019,0.044-0.023,0.056-0.009c0.017,0.019,0.001,0.047-0.03,0.074
				c-0.158,0.135-0.344,0.278-0.414,0.338c-0.065,0.056-0.236,0.216-0.349,0.312c-0.037,0.031-0.064,0.04-0.081,0.02
				c-0.012-0.014-0.008-0.032,0.026-0.061c0.043-0.036,0.072-0.071,0.092-0.098c0.047-0.06,0.008-0.134-0.051-0.226
				c-0.087-0.131-0.277-0.354-0.499-0.614l-0.424-0.498c-0.366-0.43-0.433-0.509-0.516-0.594c-0.088-0.091-0.149-0.117-0.259-0.058
				c-0.027,0.014-0.078,0.052-0.117,0.086c-0.031,0.027-0.053,0.036-0.07,0.016c-0.017-0.02-0.002-0.042,0.041-0.078
				c0.15-0.128,0.335-0.271,0.403-0.329c0.068-0.058,0.239-0.218,0.335-0.301c0.04-0.034,0.064-0.045,0.081-0.025
				c0.017,0.02,0.005,0.04-0.018,0.059c-0.028,0.024-0.043,0.042-0.072,0.076c-0.064,0.079-0.046,0.147,0.033,0.251
				c0.071,0.095,0.139,0.174,0.505,0.604L13.75,12.381z"/>
			<path fill="#1A1A1A" d="M18.048,8.271l-0.493,0.253c-0.191,0.1-0.263,0.155-0.278,0.253c-0.009,0.066-0.007,0.114-0.001,0.145
				c0.006,0.03,0.003,0.048-0.018,0.058c-0.023,0.011-0.038-0.002-0.056-0.039c-0.026-0.054-0.108-0.389-0.115-0.419
				c-0.011-0.048-0.011-0.073,0.01-0.083c0.027-0.013,0.076,0.005,0.163-0.029c0.102-0.037,0.232-0.091,0.343-0.144l1.326-0.637
				c0.107-0.052,0.176-0.097,0.223-0.128c0.046-0.034,0.069-0.054,0.082-0.06c0.024-0.011,0.036,0.008,0.061,0.058
				c0.034,0.07,0.135,0.306,0.176,0.393c0.013,0.035,0.016,0.058-0.004,0.068c-0.027,0.013-0.042-0.001-0.069-0.049l-0.021-0.036
				c-0.048-0.084-0.184-0.134-0.485,0.002L18.466,8.07l0.659,1.373c0.148,0.308,0.275,0.573,0.361,0.709
				c0.055,0.089,0.11,0.153,0.217,0.118c0.05-0.016,0.127-0.045,0.177-0.069c0.037-0.018,0.058-0.016,0.067,0.001
				c0.011,0.023-0.011,0.046-0.048,0.064c-0.221,0.106-0.437,0.197-0.53,0.242c-0.077,0.037-0.283,0.148-0.417,0.213
				c-0.044,0.021-0.072,0.022-0.083-0.001c-0.008-0.017,0.001-0.033,0.041-0.053c0.05-0.024,0.087-0.05,0.114-0.071
				c0.06-0.045,0.045-0.129,0.009-0.231c-0.051-0.149-0.178-0.413-0.326-0.721L18.048,8.271z"/>
			<path fill="#1A1A1A" d="M21.248,7.898c-0.161-0.541-0.191-0.641-0.232-0.753c-0.043-0.119-0.089-0.167-0.214-0.157
				C20.771,6.99,20.71,7.004,20.66,7.019c-0.039,0.012-0.063,0.011-0.07-0.014c-0.008-0.025,0.015-0.039,0.069-0.055
				c0.096-0.029,0.2-0.056,0.29-0.083c0.094-0.024,0.176-0.045,0.226-0.06c0.114-0.034,0.822-0.245,0.889-0.269
				c0.066-0.027,0.12-0.051,0.147-0.067c0.017-0.009,0.035-0.026,0.053-0.031c0.018-0.005,0.026,0.008,0.031,0.026
				c0.007,0.025,0.002,0.073,0.041,0.24c0.007,0.037,0.047,0.195,0.052,0.24c0.002,0.019,0.001,0.042-0.024,0.049
				c-0.025,0.008-0.037-0.008-0.047-0.04c-0.007-0.025-0.029-0.084-0.06-0.122c-0.044-0.057-0.092-0.089-0.277-0.057
				c-0.063,0.011-0.438,0.115-0.51,0.136c-0.018,0.005-0.022,0.018-0.014,0.043l0.269,0.901c0.008,0.025,0.015,0.038,0.037,0.032
				c0.078-0.023,0.488-0.146,0.567-0.177c0.083-0.032,0.133-0.059,0.155-0.104c0.017-0.036,0.026-0.058,0.043-0.063
				c0.014-0.004,0.027,0,0.034,0.021c0.006,0.021,0.009,0.083,0.049,0.269c0.018,0.072,0.05,0.218,0.057,0.243
				c0.008,0.028,0.02,0.068-0.012,0.077c-0.025,0.007-0.036-0.005-0.042-0.023c-0.014-0.035-0.028-0.081-0.052-0.124
				c-0.039-0.066-0.105-0.104-0.241-0.079c-0.07,0.013-0.423,0.115-0.509,0.14c-0.018,0.006-0.017,0.021-0.011,0.042l0.084,0.281
				c0.036,0.121,0.13,0.45,0.165,0.552c0.081,0.244,0.153,0.28,0.516,0.172c0.093-0.028,0.242-0.072,0.322-0.143
				c0.08-0.07,0.1-0.158,0.082-0.311c-0.004-0.041-0.002-0.058,0.023-0.065c0.028-0.009,0.037,0.02,0.047,0.056
				c0.024,0.082,0.068,0.332,0.072,0.409c0.003,0.1-0.029,0.11-0.165,0.15c-0.267,0.08-0.465,0.131-0.619,0.173
				c-0.155,0.039-0.267,0.068-0.373,0.1c-0.039,0.012-0.117,0.035-0.202,0.064c-0.082,0.024-0.172,0.059-0.244,0.08
				c-0.046,0.014-0.074,0.011-0.082-0.014c-0.005-0.018,0.006-0.032,0.049-0.045c0.053-0.016,0.094-0.036,0.124-0.052
				c0.067-0.036,0.061-0.119,0.045-0.227c-0.027-0.155-0.111-0.436-0.208-0.764L21.248,7.898z"/>
			<path fill="#1A1A1A" d="M24.885,7.218l0.018-0.003c0.108-0.152,0.575-0.77,0.666-0.909c0.087-0.135,0.157-0.237,0.149-0.3
				c-0.005-0.041-0.023-0.064-0.061-0.067c-0.034-0.003-0.05-0.009-0.053-0.031c-0.003-0.026,0.014-0.035,0.055-0.04
				c0.077-0.01,0.281-0.025,0.381-0.038c0.114-0.015,0.315-0.052,0.43-0.066c0.037-0.005,0.064-0.001,0.067,0.025
				c0.003,0.026-0.014,0.036-0.051,0.04c-0.051,0.006-0.142,0.033-0.208,0.068c-0.109,0.059-0.224,0.152-0.362,0.327
				c-0.1,0.125-0.585,0.749-0.694,0.898c0.155,0.156,0.977,0.841,1.138,0.959c0.182,0.134,0.369,0.278,0.578,0.33
				c0.116,0.03,0.191,0.032,0.236,0.026c0.026-0.004,0.049,0.001,0.052,0.023c0.003,0.026-0.014,0.04-0.084,0.049L26.82,8.55
				c-0.111,0.014-0.177,0.023-0.255,0.025c-0.201,0.007-0.311-0.061-0.487-0.181c-0.181-0.123-1.015-0.881-1.107-0.978l-0.048-0.05
				l-0.019,0.003l0.043,0.335c0.044,0.339,0.081,0.63,0.112,0.787c0.021,0.102,0.064,0.179,0.158,0.182
				c0.053,0.001,0.135-0.002,0.182-0.008c0.03-0.004,0.049,0.005,0.052,0.023c0.003,0.026-0.025,0.041-0.065,0.046
				c-0.206,0.027-0.44,0.045-0.532,0.057c-0.085,0.011-0.315,0.051-0.463,0.071c-0.048,0.006-0.075-0.002-0.078-0.027
				c-0.003-0.019,0.011-0.032,0.055-0.037c0.055-0.007,0.099-0.02,0.131-0.032c0.072-0.024,0.08-0.108,0.081-0.216
				c-0.001-0.157-0.039-0.448-0.082-0.787l-0.083-0.649c-0.072-0.56-0.085-0.663-0.107-0.78c-0.024-0.124-0.061-0.18-0.185-0.19
				c-0.03-0.003-0.094,0.001-0.145,0.007c-0.04,0.005-0.064,0.001-0.067-0.025c-0.003-0.026,0.022-0.037,0.077-0.043
				c0.195-0.025,0.429-0.044,0.517-0.055c0.088-0.012,0.319-0.052,0.444-0.069C25,5.953,25.027,5.957,25.03,5.982
				c0.003,0.026-0.018,0.036-0.047,0.04c-0.037,0.005-0.058,0.011-0.102,0.025c-0.097,0.031-0.119,0.097-0.11,0.227
				c0.008,0.119,0.021,0.222,0.093,0.782L24.885,7.218z"/>
			<path fill="#1A1A1A" d="M28.335,8.041c-0.01,0.289,0.032,0.389,0.105,0.419c0.062,0.026,0.132,0.034,0.191,0.037
				c0.041,0.003,0.063,0.012,0.061,0.034c-0.002,0.03-0.036,0.035-0.088,0.032c-0.241-0.015-0.389-0.035-0.459-0.04
				c-0.033-0.002-0.208-0.002-0.401-0.014c-0.048-0.003-0.081-0.009-0.079-0.042c0.001-0.022,0.024-0.028,0.061-0.026
				c0.048,0.003,0.115,0.003,0.168-0.008c0.098-0.024,0.12-0.131,0.143-0.453l0.168-2.192c0.004-0.074,0.019-0.125,0.056-0.123
				c0.041,0.002,0.071,0.053,0.13,0.123c0.042,0.051,0.568,0.69,1.076,1.26c0.237,0.268,0.704,0.832,0.764,0.895l0.019,0.001
				l0.065-1.666c0.01-0.226-0.019-0.299-0.106-0.341c-0.054-0.026-0.143-0.031-0.195-0.034c-0.045-0.003-0.059-0.015-0.057-0.037
				c0.002-0.03,0.043-0.031,0.098-0.028c0.193,0.012,0.37,0.034,0.448,0.039c0.041,0.003,0.182,0,0.364,0.012
				c0.048,0.003,0.085,0.009,0.083,0.038c-0.001,0.022-0.024,0.032-0.069,0.029c-0.037-0.002-0.067-0.004-0.112,0.004
				c-0.106,0.023-0.14,0.099-0.156,0.307l-0.184,2.336c-0.005,0.082-0.022,0.114-0.055,0.112c-0.041-0.003-0.083-0.046-0.121-0.089
				c-0.22-0.236-0.665-0.751-1.027-1.157c-0.38-0.425-0.763-0.913-0.825-0.988L28.39,6.481L28.335,8.041z"/>
			<path fill="#1A1A1A" d="M32.138,7.504c0.166-0.613,0.785-1.296,1.861-1.005c0.893,0.241,1.308,0.911,1.086,1.732
				c-0.222,0.821-0.971,1.315-1.882,1.068C32.173,9.021,31.966,8.138,32.138,7.504 M34.546,8.228
				c0.217-0.803-0.111-1.426-0.699-1.585c-0.412-0.111-0.944-0.009-1.185,0.884c-0.202,0.746,0.051,1.449,0.739,1.635
				C33.652,9.229,34.266,9.264,34.546,8.228"/>
			<path fill="#1A1A1A" d="M36.867,9.435c-0.201,0.431-0.31,0.663-0.267,0.757c0.033,0.077,0.11,0.141,0.373,0.264
				c0.178,0.083,0.311,0.141,0.438,0.09c0.061-0.025,0.145-0.1,0.182-0.161c0.018-0.029,0.034-0.046,0.061-0.033
				c0.024,0.011,0.019,0.029,0,0.07c-0.017,0.037-0.159,0.278-0.231,0.363c-0.055,0.065-0.079,0.074-0.254-0.008
				c-0.242-0.113-0.414-0.202-0.564-0.276c-0.148-0.078-0.268-0.138-0.406-0.202c-0.037-0.017-0.111-0.052-0.193-0.086
				c-0.077-0.036-0.168-0.07-0.235-0.101c-0.044-0.021-0.063-0.042-0.051-0.065c0.008-0.017,0.026-0.021,0.066-0.002
				c0.051,0.023,0.094,0.036,0.128,0.043c0.074,0.018,0.125-0.048,0.184-0.139c0.083-0.133,0.207-0.399,0.351-0.709l0.277-0.592
				c0.239-0.512,0.283-0.606,0.327-0.717c0.047-0.117,0.045-0.184-0.055-0.259c-0.024-0.019-0.062-0.041-0.106-0.062
				c-0.037-0.017-0.054-0.034-0.043-0.057c0.011-0.023,0.038-0.019,0.088,0.005c0.158,0.074,0.366,0.183,0.456,0.225
				c0.081,0.038,0.331,0.142,0.462,0.203c0.047,0.022,0.068,0.04,0.056,0.063c-0.011,0.024-0.034,0.021-0.075,0.002
				c-0.037-0.017-0.092-0.039-0.136-0.051c-0.099-0.026-0.152,0.019-0.214,0.134c-0.057,0.105-0.101,0.199-0.34,0.71L36.867,9.435z"
				/>
			<path fill="#1A1A1A" d="M39.007,10.137c0.364-0.521,1.178-0.953,2.092-0.315c0.758,0.53,0.922,1.301,0.435,1.998
				c-0.487,0.697-1.359,0.908-2.133,0.368C38.527,11.578,38.631,10.677,39.007,10.137 M41.028,11.636
				c0.477-0.682,0.38-1.38-0.12-1.729c-0.35-0.245-0.885-0.329-1.415,0.43c-0.442,0.633-0.443,1.38,0.141,1.789
				C39.848,12.275,40.414,12.516,41.028,11.636"/>
			<path fill="#1A1A1A" d="M42.92,12.759c0.391-0.408,0.463-0.482,0.54-0.573c0.082-0.096,0.102-0.16,0.031-0.263
				c-0.016-0.026-0.059-0.072-0.097-0.108c-0.029-0.028-0.04-0.049-0.023-0.068c0.018-0.019,0.042-0.006,0.082,0.032
				c0.142,0.136,0.303,0.306,0.373,0.373c0.064,0.062,0.241,0.216,0.346,0.316c0.037,0.036,0.051,0.059,0.033,0.078
				c-0.018,0.019-0.039,0.009-0.071-0.022c-0.029-0.028-0.048-0.041-0.086-0.067c-0.085-0.056-0.15-0.031-0.246,0.058
				c-0.088,0.081-0.16,0.156-0.55,0.563l-0.476,0.496c-0.111,0.115-0.226,0.251-0.354,0.386c-0.147,0.153-0.322,0.314-0.519,0.413
				c-0.213,0.109-0.532,0.158-0.941,0.07c-0.055-0.012-0.119-0.032-0.201-0.059c-0.029-0.007-0.056-0.023-0.069-0.035
				c-0.011-0.01-0.014-0.028-0.001-0.042c0.013-0.014,0.037-0.011,0.105,0.008c0.053,0.015,0.121,0.024,0.226,0.021
				c0.402-0.011,0.656-0.282,1.16-0.807L42.92,12.759z"/>
			<path fill="#1A1A1A" d="M44.577,14.505c0.434-0.361,0.514-0.427,0.601-0.509c0.092-0.086,0.117-0.155,0.079-0.23
				c-0.018-0.038-0.046-0.078-0.074-0.112c-0.024-0.029-0.032-0.05-0.01-0.069c0.017-0.014,0.042,0.004,0.08,0.05
				c0.09,0.109,0.231,0.296,0.3,0.379c0.059,0.071,0.208,0.233,0.298,0.341c0.031,0.037,0.044,0.065,0.027,0.079
				c-0.023,0.019-0.043,0.006-0.067-0.022c-0.024-0.028-0.045-0.049-0.08-0.079c-0.078-0.065-0.146-0.048-0.251,0.03
				c-0.096,0.07-0.176,0.137-0.61,0.497l-0.503,0.418c-0.277,0.23-0.503,0.417-0.616,0.531c-0.07,0.073-0.105,0.135-0.045,0.23
				c0.028,0.045,0.074,0.113,0.11,0.155c0.026,0.031,0.029,0.053,0.015,0.064c-0.02,0.017-0.047,0.001-0.073-0.03
				c-0.157-0.188-0.298-0.376-0.362-0.453c-0.055-0.066-0.213-0.239-0.308-0.353c-0.031-0.037-0.039-0.064-0.019-0.081
				c0.014-0.012,0.032-0.008,0.061,0.027c0.036,0.043,0.07,0.073,0.097,0.093c0.059,0.048,0.122,0.024,0.212-0.036
				c0.132-0.086,0.358-0.273,0.635-0.503L44.577,14.505z M45.799,13.518c0.071-0.059,0.204-0.092,0.299,0.023
				c0.076,0.091,0.075,0.212-0.019,0.291c-0.094,0.078-0.226,0.077-0.306-0.021C45.677,13.697,45.728,13.578,45.799,13.518"/>
			<path fill="#1A1A1A" d="M47.128,18.222c0.503-0.256,0.596-0.303,0.698-0.363c0.109-0.064,0.149-0.118,0.117-0.238
				c-0.007-0.03-0.032-0.088-0.056-0.134c-0.018-0.036-0.022-0.06,0.001-0.072c0.023-0.012,0.042,0.008,0.067,0.058
				c0.045,0.089,0.091,0.187,0.133,0.27c0.04,0.088,0.076,0.165,0.099,0.212c0.054,0.106,0.389,0.765,0.424,0.826
				c0.039,0.059,0.072,0.109,0.092,0.132c0.012,0.015,0.032,0.03,0.04,0.046c0.008,0.017-0.003,0.026-0.02,0.035
				c-0.023,0.012-0.071,0.015-0.229,0.083c-0.035,0.013-0.184,0.081-0.227,0.094c-0.018,0.005-0.041,0.009-0.053-0.015
				c-0.012-0.023,0.001-0.038,0.031-0.053c0.023-0.012,0.078-0.044,0.109-0.081c0.048-0.053,0.071-0.106,0.007-0.282
				c-0.022-0.06-0.192-0.411-0.226-0.477c-0.008-0.016-0.022-0.018-0.045-0.006l-0.838,0.426c-0.023,0.012-0.035,0.022-0.025,0.041
				c0.037,0.073,0.23,0.454,0.276,0.527c0.047,0.076,0.082,0.121,0.13,0.134c0.038,0.01,0.062,0.014,0.07,0.031
				c0.007,0.013,0.005,0.027-0.015,0.037c-0.02,0.01-0.08,0.024-0.255,0.096c-0.068,0.031-0.205,0.088-0.229,0.099
				c-0.027,0.014-0.063,0.032-0.078,0.003c-0.012-0.023-0.002-0.037,0.014-0.045c0.032-0.02,0.075-0.042,0.113-0.074
				c0.058-0.05,0.084-0.122,0.035-0.251c-0.025-0.067-0.188-0.396-0.229-0.475c-0.008-0.016-0.023-0.013-0.043-0.003l-0.262,0.133
				c-0.112,0.057-0.419,0.209-0.513,0.261c-0.225,0.123-0.248,0.201-0.076,0.539c0.044,0.086,0.114,0.225,0.198,0.291
				c0.083,0.066,0.173,0.07,0.321,0.024c0.04-0.012,0.056-0.012,0.068,0.011c0.013,0.026-0.013,0.04-0.046,0.057
				c-0.076,0.038-0.315,0.127-0.389,0.144c-0.098,0.021-0.113-0.009-0.177-0.135c-0.126-0.248-0.212-0.434-0.281-0.578
				c-0.066-0.146-0.115-0.25-0.165-0.349c-0.019-0.036-0.055-0.109-0.099-0.187c-0.039-0.076-0.089-0.159-0.123-0.225
				c-0.022-0.043-0.024-0.071,0-0.083c0.017-0.008,0.033,0,0.053,0.04c0.025,0.05,0.052,0.086,0.074,0.112
				c0.047,0.06,0.128,0.039,0.231,0.004c0.148-0.054,0.409-0.187,0.714-0.342L47.128,18.222z"/>
			<path fill="#1A1A1A" d="M47.377,21.764c-0.275,0.09-0.354,0.164-0.358,0.243c-0.003,0.067,0.014,0.136,0.031,0.193
				c0.012,0.039,0.011,0.062-0.01,0.069c-0.029,0.008-0.045-0.022-0.06-0.071c-0.069-0.231-0.101-0.377-0.121-0.444
				c-0.01-0.032-0.07-0.196-0.126-0.381c-0.014-0.046-0.02-0.08,0.012-0.089c0.021-0.006,0.035,0.013,0.046,0.048
				c0.014,0.046,0.037,0.109,0.066,0.155c0.056,0.084,0.164,0.067,0.474-0.022l2.116-0.599c0.071-0.021,0.124-0.026,0.135,0.01
				c0.012,0.039-0.025,0.085-0.071,0.165c-0.034,0.056-0.451,0.771-0.812,1.445c-0.17,0.314-0.538,0.948-0.577,1.026l0.005,0.018
				l1.587-0.515c0.216-0.068,0.274-0.121,0.284-0.217c0.005-0.06-0.02-0.145-0.035-0.195c-0.013-0.043-0.006-0.06,0.015-0.067
				c0.028-0.009,0.044,0.029,0.06,0.083c0.055,0.185,0.096,0.359,0.118,0.434c0.012,0.039,0.063,0.171,0.115,0.346
				c0.014,0.046,0.021,0.083-0.008,0.091c-0.021,0.007-0.038-0.012-0.051-0.054c-0.011-0.036-0.019-0.064-0.043-0.104
				c-0.058-0.091-0.141-0.097-0.342-0.041l-2.257,0.633c-0.078,0.023-0.114,0.019-0.124-0.013c-0.012-0.039,0.015-0.093,0.042-0.144
				c0.146-0.288,0.476-0.883,0.732-1.363c0.268-0.503,0.594-1.031,0.643-1.116l-0.003-0.01L47.377,21.764z"/>
			<path fill="#1A1A1A" d="M47.829,25.522c0.019-0.062,0.036-0.076,0.117-0.085c0.203-0.024,0.426-0.035,0.485-0.038
				c0.056-0.003,0.098,0.004,0.101,0.033c0.004,0.033-0.029,0.041-0.058,0.044c-0.048,0.006-0.124,0.03-0.184,0.055
				c-0.263,0.113-0.337,0.343-0.311,0.571c0.039,0.332,0.283,0.468,0.479,0.445c0.181-0.021,0.344-0.097,0.548-0.431l0.113-0.186
				c0.269-0.443,0.511-0.613,0.81-0.649c0.406-0.048,0.737,0.257,0.797,0.77c0.028,0.24,0.01,0.399-0.005,0.498
				c-0.003,0.034-0.012,0.054-0.038,0.057c-0.048,0.006-0.157,0.004-0.444,0.037c-0.081,0.01-0.112,0.002-0.115-0.027
				c-0.003-0.026,0.018-0.04,0.062-0.045c0.033-0.004,0.145-0.036,0.232-0.124c0.063-0.064,0.162-0.184,0.133-0.423
				c-0.032-0.273-0.21-0.42-0.432-0.394c-0.17,0.02-0.289,0.12-0.485,0.454l-0.065,0.112c-0.283,0.486-0.519,0.675-0.869,0.716
				c-0.214,0.025-0.478-0.026-0.683-0.271c-0.14-0.171-0.197-0.373-0.22-0.569C47.771,25.858,47.778,25.689,47.829,25.522"/>
			<path fill="#1A1A1A" d="M50.597,29.108l0.004-0.554c0-0.216-0.016-0.306-0.096-0.364c-0.054-0.039-0.098-0.059-0.128-0.067
				c-0.029-0.009-0.044-0.02-0.043-0.042c0.001-0.026,0.02-0.033,0.06-0.032c0.059,0.002,0.395,0.084,0.424,0.092
				c0.048,0.013,0.07,0.024,0.069,0.047c-0.001,0.03-0.039,0.066-0.05,0.158c-0.015,0.107-0.027,0.248-0.031,0.371l-0.049,1.471
				c-0.004,0.119,0.005,0.201,0.01,0.257c0.009,0.056,0.016,0.086,0.015,0.101c-0.001,0.026-0.023,0.029-0.079,0.027
				c-0.078-0.003-0.334-0.022-0.43-0.026c-0.037-0.005-0.059-0.013-0.058-0.035c0.001-0.03,0.02-0.037,0.076-0.038l0.041-0.003
				c0.097-0.004,0.204-0.101,0.222-0.431l0.027-0.467l-1.523-0.05c-0.341-0.012-0.635-0.021-0.795-0.008
				c-0.104,0.008-0.187,0.027-0.205,0.138c-0.009,0.051-0.019,0.133-0.021,0.189c-0.001,0.041-0.013,0.059-0.032,0.059
				c-0.026-0.001-0.036-0.031-0.035-0.072c0.008-0.245,0.027-0.479,0.031-0.582c0.003-0.086,0-0.32,0.004-0.468
				c0.002-0.048,0.014-0.074,0.039-0.073c0.019,0.001,0.029,0.016,0.028,0.06c-0.002,0.056,0.004,0.101,0.01,0.134
				c0.012,0.075,0.093,0.1,0.201,0.115c0.155,0.024,0.449,0.033,0.79,0.045L50.597,29.108z"/>
			<path fill="#1A1A1A" d="M49.446,32.101c0.556,0.097,0.659,0.115,0.777,0.128c0.126,0.015,0.194-0.011,0.227-0.088
				c0.018-0.038,0.03-0.085,0.038-0.129c0.006-0.036,0.018-0.057,0.047-0.052c0.022,0.004,0.024,0.034,0.014,0.093
				c-0.024,0.139-0.076,0.368-0.094,0.474c-0.016,0.092-0.043,0.309-0.067,0.448c-0.008,0.048-0.021,0.076-0.043,0.072
				c-0.029-0.005-0.033-0.028-0.026-0.065c0.006-0.037,0.008-0.067,0.008-0.112c-0.001-0.102-0.058-0.142-0.185-0.172
				c-0.116-0.028-0.218-0.046-0.774-0.143l-0.644-0.113c-0.355-0.062-0.644-0.113-0.804-0.126c-0.101-0.006-0.171,0.008-0.205,0.115
				c-0.016,0.05-0.038,0.129-0.047,0.184c-0.007,0.04-0.021,0.057-0.04,0.054c-0.026-0.005-0.031-0.036-0.024-0.076
				c0.042-0.242,0.094-0.47,0.111-0.569c0.015-0.084,0.044-0.316,0.07-0.462c0.008-0.048,0.024-0.072,0.05-0.067
				c0.018,0.003,0.027,0.02,0.019,0.063c-0.01,0.055-0.01,0.1-0.008,0.135c0.002,0.076,0.06,0.109,0.164,0.138
				c0.15,0.045,0.439,0.096,0.794,0.158L49.446,32.101z M50.99,32.394c0.091,0.016,0.202,0.096,0.176,0.242
				c-0.021,0.117-0.113,0.195-0.234,0.174c-0.121-0.021-0.205-0.123-0.183-0.247C50.775,32.417,50.899,32.379,50.99,32.394"/>
			<path fill="#1A1A1A" d="M49.562,35.352l0.157-0.531c0.06-0.207,0.07-0.298,0.009-0.376c-0.042-0.053-0.078-0.084-0.104-0.1
				c-0.026-0.016-0.037-0.031-0.03-0.053c0.008-0.025,0.028-0.026,0.067-0.013c0.056,0.018,0.356,0.19,0.382,0.206
				c0.042,0.025,0.06,0.043,0.053,0.064c-0.009,0.028-0.056,0.052-0.092,0.138c-0.044,0.099-0.095,0.231-0.133,0.347l-0.455,1.398
				c-0.037,0.113-0.052,0.194-0.062,0.249c-0.007,0.056-0.009,0.087-0.013,0.101c-0.008,0.025-0.03,0.022-0.083,0.004
				c-0.074-0.024-0.314-0.114-0.406-0.144c-0.034-0.015-0.053-0.029-0.046-0.05c0.009-0.028,0.029-0.03,0.083-0.016l0.04,0.009
				c0.094,0.023,0.224-0.04,0.333-0.352l0.155-0.441l-1.448-0.471c-0.325-0.106-0.604-0.197-0.761-0.228
				c-0.102-0.021-0.187-0.026-0.236,0.076c-0.023,0.047-0.055,0.123-0.073,0.175c-0.013,0.039-0.029,0.053-0.047,0.047
				c-0.025-0.008-0.026-0.04-0.013-0.078c0.076-0.233,0.159-0.452,0.191-0.551c0.026-0.081,0.088-0.307,0.134-0.449
				c0.015-0.046,0.033-0.067,0.058-0.059c0.018,0.006,0.024,0.023,0.01,0.065c-0.017,0.053-0.024,0.098-0.028,0.132
				c-0.009,0.075,0.062,0.122,0.161,0.166c0.142,0.066,0.421,0.157,0.746,0.263L49.562,35.352z"/>
			<path fill="#1A1A1A" d="M47.703,37.808c0.498,0.267,0.589,0.316,0.698,0.365c0.115,0.053,0.181,0.055,0.262-0.041
				c0.021-0.023,0.054-0.077,0.078-0.122c0.019-0.036,0.037-0.053,0.059-0.04c0.023,0.012,0.017,0.038-0.009,0.088
				c-0.093,0.174-0.213,0.374-0.266,0.473c-0.042,0.079-0.143,0.29-0.206,0.408c-0.026,0.049-0.045,0.069-0.068,0.056
				c-0.023-0.012-0.019-0.035-0.001-0.068c0.019-0.036,0.026-0.057,0.041-0.1c0.031-0.097-0.011-0.153-0.122-0.221
				c-0.101-0.063-0.193-0.112-0.691-0.378l-0.458-0.246c-0.475-0.254-0.725-0.266-0.943-0.176c-0.2,0.083-0.294,0.226-0.354,0.337
				c-0.077,0.144-0.126,0.346-0.065,0.547c0.084,0.277,0.373,0.444,0.71,0.625l0.409,0.219c0.498,0.267,0.589,0.316,0.698,0.365
				c0.115,0.053,0.181,0.055,0.262-0.041c0.021-0.023,0.054-0.077,0.073-0.113c0.019-0.036,0.036-0.052,0.059-0.04
				c0.023,0.012,0.017,0.039-0.007,0.084c-0.09,0.167-0.21,0.368-0.212,0.371c-0.021,0.039-0.122,0.251-0.19,0.379
				c-0.025,0.046-0.043,0.065-0.067,0.053c-0.023-0.012-0.019-0.035,0.002-0.075c0.019-0.036,0.026-0.057,0.041-0.1
				c0.031-0.097-0.01-0.153-0.122-0.221c-0.101-0.062-0.193-0.112-0.691-0.378l-0.35-0.187c-0.364-0.195-0.731-0.438-0.819-0.84
				c-0.075-0.339,0.015-0.594,0.129-0.807c0.093-0.174,0.271-0.483,0.616-0.606c0.24-0.086,0.549-0.081,1.024,0.173L47.703,37.808z
				 M48.385,39.792c0.065,0.035,0.129,0.128,0.073,0.233c-0.046,0.085-0.135,0.126-0.226,0.077c-0.092-0.049-0.131-0.15-0.08-0.245
				C48.208,39.752,48.316,39.755,48.385,39.792 M48.755,39.101c0.062,0.033,0.126,0.126,0.07,0.231
				c-0.046,0.085-0.135,0.126-0.223,0.079c-0.092-0.049-0.13-0.15-0.079-0.245C48.578,39.061,48.686,39.064,48.755,39.101"/>
			<path fill="#1A1A1A" d="M44.3,40.246c0.057-0.031,0.079-0.028,0.143,0.021c0.162,0.125,0.329,0.272,0.374,0.312
				c0.042,0.037,0.067,0.071,0.049,0.094c-0.02,0.027-0.049,0.009-0.073-0.009c-0.038-0.029-0.109-0.065-0.17-0.089
				c-0.268-0.103-0.481,0.009-0.621,0.192c-0.204,0.265-0.124,0.533,0.031,0.653c0.144,0.111,0.314,0.171,0.693,0.075l0.21-0.054
				c0.502-0.129,0.794-0.082,1.033,0.101c0.324,0.25,0.347,0.699,0.032,1.109c-0.147,0.191-0.272,0.292-0.352,0.352
				c-0.026,0.022-0.046,0.03-0.067,0.014c-0.038-0.029-0.114-0.107-0.344-0.284c-0.065-0.05-0.081-0.077-0.063-0.1
				c0.016-0.021,0.04-0.015,0.076,0.012c0.026,0.021,0.129,0.076,0.253,0.073c0.09-0.001,0.244-0.018,0.391-0.21
				c0.168-0.218,0.143-0.447-0.033-0.584c-0.135-0.104-0.29-0.115-0.664-0.015l-0.125,0.035c-0.542,0.15-0.842,0.12-1.122-0.096
				c-0.171-0.132-0.324-0.353-0.299-0.671c0.019-0.22,0.12-0.405,0.24-0.561C44.024,40.445,44.146,40.329,44.3,40.246"/>
			<path fill="#1A1A1A" d="M43.642,43.683c0.385,0.413,0.456,0.489,0.542,0.571c0.092,0.087,0.154,0.11,0.261,0.046
				c0.027-0.015,0.076-0.055,0.114-0.091c0.03-0.028,0.051-0.038,0.069-0.019c0.018,0.019,0.004,0.042-0.037,0.08
				c-0.144,0.134-0.323,0.286-0.404,0.362c-0.065,0.061-0.229,0.229-0.327,0.321c-0.041,0.038-0.065,0.05-0.083,0.031
				c-0.018-0.019-0.006-0.04,0.021-0.065c0.03-0.028,0.044-0.046,0.071-0.082c0.061-0.082,0.039-0.149-0.044-0.249
				c-0.076-0.092-0.147-0.168-0.531-0.581l-0.355-0.38c-0.367-0.394-0.601-0.486-0.835-0.471c-0.216,0.013-0.351,0.119-0.443,0.205
				c-0.12,0.112-0.231,0.286-0.238,0.496c-0.01,0.289,0.21,0.541,0.471,0.821l0.317,0.34c0.385,0.413,0.456,0.489,0.542,0.571
				c0.091,0.087,0.154,0.111,0.261,0.046c0.027-0.015,0.076-0.055,0.105-0.083c0.03-0.028,0.051-0.038,0.069-0.018
				c0.018,0.019,0.004,0.042-0.034,0.077c-0.139,0.129-0.317,0.281-0.32,0.283c-0.033,0.031-0.196,0.198-0.302,0.298
				c-0.038,0.035-0.062,0.048-0.08,0.029c-0.018-0.019-0.006-0.04,0.026-0.07c0.03-0.028,0.044-0.046,0.071-0.081
				c0.061-0.082,0.04-0.149-0.044-0.249c-0.076-0.092-0.147-0.168-0.531-0.581l-0.271-0.29c-0.281-0.302-0.55-0.65-0.504-1.059
				c0.038-0.346,0.206-0.558,0.383-0.722c0.144-0.135,0.412-0.369,0.778-0.375c0.255-0.004,0.546,0.1,0.913,0.495L43.642,43.683z
				 M43.647,45.78c0.051,0.055,0.081,0.163-0.006,0.244c-0.071,0.066-0.168,0.076-0.239-0.001c-0.071-0.076-0.075-0.184,0.004-0.257
				C43.493,45.686,43.594,45.723,43.647,45.78 M44.221,45.246c0.048,0.052,0.079,0.16-0.008,0.242
				c-0.071,0.066-0.168,0.075-0.237,0.002c-0.071-0.076-0.075-0.184,0.004-0.257C44.066,45.151,44.167,45.189,44.221,45.246"/>
			<path fill="#1A1A1A" d="M24.31,49.497c0.037-0.187,0.066-0.337,0.089-0.455c0.016-0.083,0.024-0.125-0.028-0.135
				c-0.066-0.013-0.353,0.072-0.435,0.088c-0.019,0.003-0.037,0.007-0.051,0.004c-0.01-0.002-0.024-0.022-0.02-0.043
				c0.004-0.021,0.025-0.035,0.044-0.042c0.015-0.004,0.767-0.311,0.906-0.378c0.035-0.015,0.071-0.033,0.099-0.027
				c0.031,0.006,0.034,0.046,0.027,0.081c-0.005,0.027-0.093,0.367-0.197,0.899l-0.125,0.642c-0.065,0.334-0.122,0.629-0.139,0.784
				c-0.011,0.113-0.004,0.169,0.102,0.214c0.05,0.021,0.197,0.06,0.225,0.066c0.014,0.003,0.029,0.017,0.024,0.041
				c-0.005,0.024-0.023,0.028-0.062,0.021c-0.264-0.051-0.484-0.105-0.578-0.123c-0.08-0.015-0.374-0.062-0.596-0.105
				c-0.038-0.007-0.058-0.018-0.053-0.043c0.005-0.024,0.02-0.032,0.034-0.029c0.038,0.007,0.217,0.031,0.283,0.03
				c0.116-0.003,0.143-0.048,0.175-0.157c0.044-0.15,0.108-0.444,0.17-0.778L24.31,49.497z"/>
			<path fill="#1A1A1A" d="M27.71,49.761c-0.063,0.989-0.968,1.555-1.419,1.732c-0.018,0.009-0.036,0.012-0.064,0.01
				c-0.014-0.001-0.031-0.019-0.029-0.037c0.002-0.025,0.028-0.044,0.046-0.057c0.382-0.199,0.969-0.743,1.022-1.576
				c0.04-0.625-0.207-0.917-0.479-0.935c-0.254-0.016-0.438,0.199-0.457,0.499c-0.035,0.54,0.307,0.689,0.427,0.697
				c0.124,0.008,0.196-0.009,0.243-0.027c0.04-0.019,0.059-0.035,0.073-0.034c0.014,0.001,0.027,0.016,0.026,0.033
				c-0.001,0.011-0.013,0.031-0.02,0.038c-0.109,0.103-0.296,0.145-0.477,0.133c-0.508-0.032-0.696-0.431-0.677-0.727
				c0.03-0.477,0.412-0.8,0.956-0.765C27.456,48.781,27.744,49.225,27.71,49.761"/>
			<path fill="#1A1A1A" d="M30.072,49.649c0.063,0.989-0.763,1.665-1.187,1.898c-0.017,0.012-0.034,0.017-0.063,0.018
				c-0.014,0.001-0.033-0.015-0.034-0.033c-0.002-0.025,0.022-0.047,0.039-0.063c0.353-0.246,0.867-0.86,0.814-1.693
				c-0.04-0.625-0.322-0.884-0.594-0.866c-0.254,0.016-0.409,0.253-0.39,0.553c0.035,0.54,0.392,0.645,0.512,0.638
				c0.124-0.008,0.193-0.034,0.237-0.058c0.037-0.024,0.054-0.043,0.068-0.044c0.014-0.001,0.029,0.012,0.03,0.03
				c0.001,0.011-0.008,0.032-0.015,0.04c-0.096,0.116-0.276,0.181-0.456,0.192c-0.508,0.032-0.745-0.339-0.764-0.635
				c-0.03-0.477,0.308-0.845,0.851-0.88C29.697,48.708,30.038,49.112,30.072,49.649"/>
			<path fill="#1A1A1A" d="M31.01,51.29c-0.024,0.005-0.053-0.011-0.058-0.039c-0.005-0.028,0.023-0.066,0.052-0.104
				c0.403-0.522,0.988-1.198,0.845-1.931c-0.107-0.549-0.431-0.601-0.604-0.567c-0.149,0.029-0.258,0.079-0.344,0.197
				c-0.068,0.096-0.098,0.272-0.081,0.362c0.007,0.035,0.003,0.068-0.032,0.075c-0.017,0.003-0.033-0.019-0.044-0.06
				c-0.01-0.031-0.083-0.316-0.103-0.416c-0.006-0.031-0.005-0.046,0.028-0.078c0.122-0.096,0.297-0.195,0.603-0.254
				c0.611-0.119,0.937,0.164,1.016,0.57c0.131,0.673-0.501,1.406-0.879,1.851c-0.015,0.017-0.006,0.027,0.012,0.023l0.236-0.046
				c0.059-0.012,0.468-0.095,0.593-0.137c0.234-0.074,0.326-0.215,0.336-0.386c0.002-0.044,0.01-0.06,0.031-0.064
				c0.024-0.005,0.034,0.026,0.041,0.06c0.011,0.055,0.008,0.391-0.004,0.516c-0.01,0.099-0.063,0.12-0.282,0.163L31.01,51.29z"/>
		</g>
		<g>
			<path fill="#92080F" d="M28.008,3.474C14.163,3.474,2.94,14.698,2.94,28.543c0,13.845,11.224,25.068,25.068,25.068
				s25.069-11.223,25.069-25.068C53.077,14.698,41.853,3.474,28.008,3.474 M28.008,52.567c-13.268,0-24.024-10.756-24.024-24.024
				S14.74,4.519,28.008,4.519c13.268,0,24.024,10.756,24.024,24.024S41.276,52.567,28.008,52.567"/>
			<path fill="#92080F" d="M28.008,9.741c-10.384,0-18.801,8.418-18.801,18.802c0,10.384,8.418,18.801,18.801,18.801
				c10.384,0,18.801-8.418,18.801-18.801C46.809,18.159,38.392,9.741,28.008,9.741 M28.008,46.3c-9.807,0-17.757-7.95-17.757-17.757
				c0-9.807,7.95-17.757,17.757-17.757c9.807,0,17.757,7.95,17.757,17.757C45.765,38.35,37.815,46.3,28.008,46.3"/>
			<path fill="#92080F" d="M44.72,28.543c0,9.23-7.483,16.712-16.712,16.712c-9.23,0-16.712-7.482-16.712-16.712
				c0-9.23,7.482-16.712,16.712-16.712C37.238,11.831,44.72,19.313,44.72,28.543"/>
			<path fill="#92080F" d="M37.955,46.812c0-0.495,0.344-1.184,1.183-1.184c0.667,0,1.184,0.43,1.184,1.119
				c0,0.689-0.473,1.248-1.205,1.248C38.299,47.995,37.955,47.35,37.955,46.812"/>
			<path fill="#92080F" d="M15.694,46.812c0-0.495,0.344-1.184,1.184-1.184c0.667,0,1.183,0.43,1.183,1.119
				c0,0.689-0.473,1.248-1.205,1.248C16.038,47.995,15.694,47.35,15.694,46.812"/>
		</g>
		<g>
			<path fill="#FFFFFF" d="M27.098,26.191h-0.531c-0.178,0-0.322-0.144-0.322-0.322v-6.41c0-0.178,0.144-0.322,0.322-0.322h0.531
				c0.178,0,0.322,0.145,0.322,0.322v6.41C27.42,26.047,27.276,26.191,27.098,26.191"/>
			<path fill="#FFFFFF" d="M28.141,22.664h-0.266c-0.089,0-0.161-0.072-0.161-0.161v-6.732c0-0.089,0.072-0.161,0.161-0.161h0.266
				c0.089,0,0.161,0.072,0.161,0.161v6.732C28.302,22.592,28.23,22.664,28.141,22.664"/>
			<path fill="#FFFFFF" d="M29.449,26.191h-0.531c-0.178,0-0.322-0.144-0.322-0.322v-6.41c0-0.178,0.144-0.322,0.322-0.322h0.531
				c0.178,0,0.322,0.145,0.322,0.322v6.41C29.772,26.047,29.627,26.191,29.449,26.191"/>
			<path fill="#FFFFFF" d="M34.602,22.364L34.602,22.364l2.655-2.654c0.057-0.058,0.057-0.151,0-0.208l-0.208-0.208
				c-0.058-0.057-0.151-0.057-0.208,0l-2.654,2.655c-0.115-0.115-0.301-0.115-0.416,0l-3.325,3.325
				c-0.115,0.115-0.115,0.301,0,0.416l0.416,0.415c0.115,0.115,0.301,0.115,0.415,0l3.326-3.325
				C34.717,22.665,34.717,22.479,34.602,22.364"/>
			<path fill="#FFFFFF" d="M30.359,27.633v-0.532c0-0.178,0.144-0.322,0.322-0.322h6.41c0.178,0,0.323,0.144,0.323,0.322v0.532
				c0,0.178-0.145,0.322-0.323,0.322h-6.41C30.504,27.955,30.359,27.811,30.359,27.633"/>
			<path fill="#FFFFFF" d="M33.886,28.676V28.41c0-0.089,0.072-0.161,0.161-0.161h6.732c0.089,0,0.161,0.072,0.161,0.161v0.266
				c0,0.089-0.072,0.161-0.161,0.161h-6.732C33.959,28.837,33.886,28.765,33.886,28.676"/>
			<path fill="#FFFFFF" d="M30.359,29.984v-0.531c0-0.178,0.144-0.322,0.322-0.322h6.41c0.178,0,0.323,0.144,0.323,0.322v0.531
				c0,0.178-0.145,0.322-0.323,0.322h-6.41C30.504,30.307,30.359,30.162,30.359,29.984"/>
			<path fill="#FFFFFF" d="M34.187,35.137L34.187,35.137l2.654,2.655c0.057,0.057,0.151,0.057,0.208,0l0.208-0.208
				c0.057-0.057,0.057-0.15,0-0.208l-2.655-2.654c0.115-0.115,0.115-0.301,0-0.415l-3.326-3.326c-0.115-0.115-0.301-0.115-0.415,0
				l-0.416,0.416c-0.115,0.115-0.115,0.301,0,0.415l3.325,3.326C33.886,35.252,34.072,35.252,34.187,35.137"/>
			<path fill="#FFFFFF" d="M28.918,30.894h0.532c0.178,0,0.322,0.144,0.322,0.322v6.41c0,0.178-0.144,0.322-0.322,0.322h-0.532
				c-0.178,0-0.322-0.144-0.322-0.322v-6.41C28.596,31.039,28.74,30.894,28.918,30.894"/>
			<path fill="#FFFFFF" d="M27.875,34.421h0.266c0.089,0,0.161,0.072,0.161,0.161v6.732c0,0.089-0.072,0.161-0.161,0.161h-0.266
				c-0.089,0-0.161-0.072-0.161-0.161v-6.732C27.714,34.494,27.786,34.421,27.875,34.421"/>
			<path fill="#FFFFFF" d="M26.567,30.894h0.531c0.178,0,0.322,0.144,0.322,0.322v6.41c0,0.178-0.144,0.322-0.322,0.322h-0.531
				c-0.178,0-0.322-0.144-0.322-0.322v-6.41C26.244,31.039,26.389,30.894,26.567,30.894"/>
			<path fill="#FFFFFF" d="M21.414,34.722L21.414,34.722l-2.655,2.654c-0.057,0.058-0.057,0.151,0,0.208l0.208,0.208
				c0.058,0.057,0.15,0.057,0.208,0l2.654-2.655c0.115,0.115,0.301,0.115,0.416,0l3.325-3.326c0.115-0.115,0.115-0.301,0-0.415
				l-0.416-0.416c-0.115-0.115-0.301-0.115-0.416,0l-3.325,3.325C21.299,34.421,21.299,34.607,21.414,34.722"/>
			<path fill="#FFFFFF" d="M25.657,29.453v0.531c0,0.178-0.144,0.322-0.322,0.322h-6.41c-0.178,0-0.322-0.144-0.322-0.322v-0.531
				c0-0.178,0.144-0.322,0.322-0.322h6.41C25.512,29.131,25.657,29.275,25.657,29.453"/>
			<path fill="#FFFFFF" d="M22.129,28.41v0.266c0,0.089-0.072,0.161-0.161,0.161h-6.732c-0.089,0-0.161-0.072-0.161-0.161V28.41
				c0-0.089,0.072-0.161,0.161-0.161h6.732C22.057,28.249,22.129,28.321,22.129,28.41"/>
			<path fill="#FFFFFF" d="M25.657,27.102v0.531c0,0.178-0.144,0.322-0.322,0.322h-6.41c-0.178,0-0.322-0.145-0.322-0.322v-0.531
				c0-0.178,0.144-0.323,0.322-0.323h6.41C25.512,26.779,25.657,26.923,25.657,27.102"/>
			<path fill="#FFFFFF" d="M21.829,21.949L21.829,21.949l-2.655-2.655c-0.057-0.057-0.151-0.057-0.208,0l-0.208,0.208
				c-0.057,0.057-0.057,0.15,0,0.208l2.655,2.654c-0.115,0.115-0.115,0.301,0,0.416l3.325,3.325c0.115,0.115,0.301,0.115,0.416,0
				l0.416-0.415c0.115-0.115,0.115-0.301,0-0.415l-3.325-3.325C22.13,21.834,21.944,21.834,21.829,21.949"/>
		</g>
	</g>
</g>
<text transform="matrix(1 0 0 1 62.8543 63.1127)" fill="#FFFFFF" font-family="'Roboto-ThinItalic'" font-size="11.6008">Trkiyenin Teknoloji ss</text>
</svg>
