<?xml version="1.0" encoding="iso-8859-1"?>
<!-- Generator: Adobe Illustrator 17.0.0, SVG Export Plug-In . SVG Version: 6.00 Build 0)  -->
<!DOCTYPE svg PUBLIC "-//W3C//DTD SVG 1.1//EN" "http://www.w3.org/Graphics/SVG/1.1/DTD/svg11.dtd">
<svg version="1.1" id="Layer_1" xmlns="http://www.w3.org/2000/svg" xmlns:xlink="http://www.w3.org/1999/xlink" x="0px" y="0px"
	 width="188.694px" height="63.558px" viewBox="0 0 188.694 63.558" enable-background="new 0 0 188.694 63.558"
	 xml:space="preserve">
<g>
	<path fill="#FFFFFF" d="M28.008,2.43c-14.422,0-26.113,11.691-26.113,26.113c0,14.422,11.691,26.113,26.113,26.113
		c14.422,0,26.113-11.691,26.113-26.113C54.122,14.122,42.43,2.43,28.008,2.43 M28.008,53.569
		c-13.821,0-25.025-11.204-25.025-25.025c0-13.821,11.204-25.025,25.025-25.025c13.821,0,25.025,11.204,25.025,25.025
		C53.034,42.365,41.829,53.569,28.008,53.569"/>
	<path fill="#FFFFFF" d="M28.008,8.959c-10.816,0-19.585,8.769-19.585,19.585s8.768,19.585,19.585,19.585
		c10.816,0,19.585-8.768,19.585-19.585S38.825,8.959,28.008,8.959 M28.008,47.04c-10.215,0-18.497-8.281-18.497-18.497
		c0-10.216,8.281-18.497,18.497-18.497s18.497,8.281,18.497,18.497C46.505,38.759,38.224,47.04,28.008,47.04"/>
	<path fill="#FFFFFF" d="M12.289,47.046c-0.063,0.073-0.194,0.129-0.311,0.028c-0.094-0.081-0.114-0.206-0.03-0.303
		c0.084-0.097,0.219-0.117,0.319-0.031C12.384,46.841,12.352,46.972,12.289,47.046 M13.378,45.824
		c-0.385,0.444-0.456,0.526-0.531,0.625c-0.08,0.104-0.094,0.179-0.042,0.25c0.025,0.037,0.06,0.073,0.095,0.103
		c0.029,0.025,0.042,0.046,0.021,0.07c-0.015,0.018-0.044,0.003-0.09-0.037c-0.111-0.096-0.288-0.264-0.373-0.338
		c-0.073-0.063-0.253-0.204-0.364-0.301c-0.038-0.033-0.056-0.059-0.041-0.077c0.02-0.023,0.043-0.014,0.072,0.011
		c0.029,0.025,0.055,0.043,0.095,0.067c0.092,0.053,0.158,0.024,0.253-0.073c0.087-0.088,0.158-0.17,0.543-0.615l0.446-0.515
		c0.246-0.284,0.446-0.515,0.543-0.65c0.06-0.086,0.085-0.157,0.007-0.245c-0.036-0.041-0.095-0.103-0.139-0.141
		c-0.032-0.028-0.039-0.049-0.026-0.064c0.018-0.02,0.049-0.009,0.081,0.019c0.193,0.167,0.37,0.336,0.449,0.404
		c0.067,0.058,0.259,0.209,0.376,0.31c0.038,0.033,0.051,0.06,0.033,0.08c-0.013,0.015-0.032,0.013-0.067-0.017
		c-0.044-0.038-0.084-0.062-0.116-0.079c-0.069-0.039-0.129-0.004-0.211,0.073c-0.121,0.11-0.321,0.341-0.567,0.625L13.378,45.824z"
		/>
	<path fill="#FFFFFF" d="M11.85,42.059c-0.259-0.297-0.432-0.348-0.56-0.318c-0.07,0.014-0.137,0.043-0.186,0.07
		c-0.034,0.019-0.057,0.029-0.072,0.012c-0.02-0.023-0.005-0.047,0.065-0.108c0.093-0.081,0.316-0.209,0.407-0.252
		c0.065-0.031,0.106-0.031,0.152,0.021c0.425,0.487,0.838,0.99,1.352,1.579c0.028,0.032,0.035,0.057,0.014,0.075
		c-0.02,0.018-0.043,0.022-0.126,0.032c-1,0.148-2.036,0.292-2.993,0.438l0.499,0.572c0.13,0.149,0.294,0.319,0.428,0.366
		c0.137,0.05,0.29,0.009,0.365-0.041c0.046-0.03,0.068-0.028,0.083-0.011c0.018,0.02,0.006,0.036-0.029,0.067
		c-0.067,0.058-0.371,0.246-0.471,0.308c-0.046,0.03-0.071,0.031-0.086,0.013c-0.023-0.026-0.021-0.059-0.081-0.135
		c-0.23-0.287-0.355-0.425-0.459-0.544l-0.776-0.89c-0.025-0.029-0.035-0.057-0.02-0.07c0.017-0.015,0.045-0.019,0.076-0.025
		c1.004-0.168,2.059-0.307,3.045-0.443L11.85,42.059z"/>
	<path fill="#FFFFFF" d="M8.066,41.497c-0.063,0.023-0.105,0.02-0.12-0.007c-0.015-0.027-0.01-0.057,0.052-0.15l1.361-2.008
		l-2.44,0.195C6.849,39.532,6.813,39.53,6.795,39.5c-0.018-0.03,0.004-0.07,0.069-0.12l1.894-1.502
		c0.194-0.152,0.271-0.242,0.244-0.36c-0.026-0.115-0.061-0.183-0.087-0.227c-0.017-0.03-0.028-0.055-0.008-0.067
		c0.027-0.016,0.06,0.019,0.087,0.066c0.048,0.084,0.306,0.552,0.373,0.692c0.038,0.081,0.039,0.107,0.019,0.118
		c-0.017,0.01-0.035,0.002-0.058-0.016c-0.018-0.016-0.068-0.001-0.154,0.067l-1.358,1.053l0.008,0.013l1.943-0.149
		c0.202-0.014,0.242-0.015,0.259,0.015c0.018,0.03-0.03,0.102-0.1,0.214c-0.108,0.169-0.467,0.731-0.538,0.825
		c-0.053,0.071-0.359,0.516-0.542,0.778l0.008,0.013l1.434-0.597c0.064-0.028,0.11-0.05,0.163-0.081
		c0.064-0.037,0.069-0.098,0.049-0.163c-0.022-0.068-0.045-0.117-0.065-0.15c-0.015-0.027-0.022-0.054-0.005-0.064
		c0.03-0.017,0.054,0.009,0.083,0.059c0.081,0.141,0.158,0.297,0.193,0.358c0.037,0.064,0.14,0.219,0.202,0.326
		c0.019,0.033,0.028,0.064-0.002,0.081c-0.017,0.01-0.035-0.006-0.054-0.04c-0.016-0.027-0.029-0.05-0.068-0.095
		c-0.074-0.082-0.22-0.033-0.344,0.016L8.066,41.497z"/>
	<path fill="#FFFFFF" d="M5.306,37.15c-0.091,0.034-0.232,0.02-0.286-0.126c-0.043-0.116,0-0.235,0.12-0.279
		c0.12-0.044,0.249,0.003,0.294,0.127C5.488,37.017,5.397,37.116,5.306,37.15 M6.85,36.606c-0.552,0.203-0.654,0.241-0.767,0.291
		c-0.121,0.053-0.169,0.112-0.158,0.199c0.004,0.044,0.018,0.092,0.034,0.136c0.013,0.037,0.014,0.061-0.015,0.071
		c-0.022,0.008-0.04-0.018-0.061-0.076c-0.051-0.138-0.124-0.371-0.163-0.476c-0.034-0.091-0.123-0.301-0.174-0.439
		c-0.017-0.047-0.021-0.079,0.001-0.087c0.029-0.011,0.044,0.008,0.058,0.045c0.014,0.036,0.028,0.064,0.051,0.105
		c0.054,0.091,0.127,0.098,0.256,0.058c0.119-0.035,0.221-0.073,0.772-0.276l0.639-0.235c0.352-0.13,0.639-0.235,0.79-0.307
		c0.094-0.047,0.15-0.097,0.125-0.211c-0.012-0.053-0.034-0.136-0.054-0.191c-0.015-0.04-0.011-0.062,0.008-0.069
		c0.025-0.009,0.047,0.016,0.062,0.055c0.088,0.24,0.161,0.473,0.198,0.571c0.031,0.084,0.126,0.309,0.179,0.454
		c0.017,0.047,0.016,0.077-0.01,0.086c-0.018,0.007-0.034-0.004-0.05-0.047c-0.02-0.055-0.043-0.095-0.063-0.125
		c-0.041-0.067-0.111-0.066-0.22-0.038c-0.159,0.038-0.446,0.144-0.798,0.273L6.85,36.606z"/>
	<path fill="#FFFFFF" d="M6.034,34.049c-0.575,0.121-0.681,0.143-0.801,0.176c-0.127,0.035-0.181,0.078-0.181,0.208
		c-0.001,0.032,0.008,0.097,0.02,0.15c0.009,0.042,0.006,0.066-0.021,0.072c-0.027,0.006-0.04-0.019-0.052-0.076
		c-0.042-0.201-0.081-0.441-0.098-0.521c-0.027-0.129-0.099-0.414-0.124-0.532c-0.05-0.238-0.081-0.497,0.016-0.731
		c0.05-0.121,0.211-0.313,0.465-0.366c0.28-0.059,0.562,0.004,0.953,0.321c0.353-0.426,0.635-0.758,0.823-1.031
		c0.175-0.258,0.169-0.419,0.168-0.478c-0.001-0.043-0.005-0.078-0.011-0.108c-0.006-0.03,0.002-0.048,0.021-0.052
		c0.03-0.006,0.043,0.019,0.053,0.064l0.076,0.36c0.045,0.212,0.046,0.311,0.013,0.42c-0.053,0.181-0.201,0.363-0.447,0.636
		c-0.176,0.195-0.397,0.423-0.444,0.485c-0.019,0.024-0.018,0.047-0.012,0.074l0.062,0.331c0.004,0.019,0.014,0.029,0.037,0.024
		l0.053-0.011c0.352-0.074,0.651-0.137,0.806-0.19c0.107-0.034,0.186-0.075,0.177-0.191c-0.004-0.058-0.014-0.143-0.024-0.189
		c-0.006-0.03,0.002-0.048,0.021-0.052c0.027-0.005,0.043,0.019,0.054,0.068c0.046,0.219,0.094,0.502,0.106,0.559
		c0.015,0.072,0.077,0.308,0.109,0.459c0.01,0.049,0.005,0.078-0.022,0.084c-0.019,0.004-0.034-0.009-0.043-0.054
		c-0.012-0.057-0.029-0.101-0.044-0.133c-0.031-0.073-0.118-0.074-0.231-0.066c-0.163,0.015-0.462,0.078-0.81,0.151L6.034,34.049z
		 M6.24,33.539c0.042-0.009,0.055-0.02,0.061-0.048c0.01-0.085-0.003-0.201-0.023-0.296c-0.032-0.151-0.057-0.197-0.121-0.255
		c-0.107-0.096-0.304-0.169-0.615-0.104c-0.538,0.113-0.618,0.502-0.571,0.725c0.02,0.094,0.038,0.162,0.057,0.197
		c0.013,0.025,0.03,0.029,0.06,0.023L6.24,33.539z"/>
	<path fill="#FFFFFF" d="M6.192,27.791c-0.209-0.01-0.296,0.025-0.41,0.07c-0.063,0.024-0.937,0.504-1.144,0.63
		c-0.147,0.09-0.248,0.183-0.294,0.254c-0.029,0.049-0.055,0.114-0.058,0.16c-0.001,0.031-0.01,0.058-0.037,0.056
		c-0.023-0.001-0.034-0.029-0.031-0.075c0.003-0.07,0.028-0.359,0.033-0.487c0.004-0.081-0.001-0.24,0.007-0.414
		c0.002-0.039,0.014-0.058,0.037-0.056c0.023,0.001,0.026,0.028,0.039,0.087c0.006,0.035,0.036,0.056,0.067,0.057
		c0.031,0.001,0.078-0.016,0.134-0.04c0.118-0.049,1.074-0.548,1.185-0.605c-0.091-0.043-0.92-0.568-1.037-0.627
		c-0.083-0.043-0.148-0.061-0.199-0.063c-0.039-0.002-0.082,0.012-0.1,0.077c-0.009,0.034-0.019,0.069-0.042,0.068
		c-0.027-0.002-0.034-0.021-0.032-0.068c0.006-0.128,0.023-0.251,0.028-0.363c0.004-0.085,0.004-0.341,0.007-0.414
		c0.002-0.042,0.011-0.069,0.034-0.068c0.027,0.001,0.037,0.033,0.035,0.075c-0.002,0.039,0.01,0.113,0.039,0.172
		c0.035,0.083,0.08,0.127,0.18,0.217c0.149,0.135,1.033,0.716,1.196,0.793c0.136,0.064,0.256,0.07,0.384,0.075l0.317,0.014
		c0.062,0.003,0.224,0.01,0.387,0.006c0.112-0.003,0.199-0.034,0.22-0.149c0.01-0.054,0.022-0.139,0.024-0.193
		c0.002-0.043,0.014-0.061,0.034-0.061c0.027,0.001,0.037,0.033,0.035,0.083c-0.011,0.244-0.034,0.486-0.038,0.591
		c-0.004,0.097-0.004,0.341-0.01,0.484c-0.002,0.054-0.011,0.085-0.042,0.083c-0.019-0.001-0.03-0.021-0.028-0.063
		c0.002-0.054-0.003-0.101-0.009-0.136c-0.012-0.078-0.096-0.117-0.207-0.13c-0.162-0.019-0.324-0.026-0.386-0.029L6.192,27.791z"/>
	<path fill="#FFFFFF" d="M4.237,23.809c-0.072-0.016-0.162-0.091-0.135-0.212c0.022-0.098,0.1-0.164,0.202-0.142
		c0.106,0.023,0.173,0.113,0.149,0.223C4.425,23.799,4.316,23.827,4.237,23.809 M4.413,23.012c-0.076-0.017-0.166-0.092-0.139-0.213
		c0.022-0.098,0.1-0.164,0.206-0.141c0.106,0.023,0.173,0.114,0.149,0.223C4.601,23.002,4.492,23.029,4.413,23.012 M5.657,24.808
		c-0.574-0.127-0.68-0.15-0.803-0.169c-0.13-0.021-0.197-0.004-0.251,0.115c-0.014,0.028-0.032,0.092-0.044,0.145
		c-0.009,0.042-0.022,0.063-0.048,0.057c-0.026-0.006-0.028-0.034-0.016-0.091c0.044-0.2,0.108-0.436,0.133-0.549
		c0.02-0.091,0.061-0.331,0.091-0.468c0.012-0.057,0.026-0.082,0.052-0.076c0.027,0.006,0.029,0.03,0.021,0.068
		c-0.009,0.042-0.01,0.065-0.013,0.112c-0.004,0.106,0.054,0.151,0.184,0.187c0.119,0.034,0.225,0.058,0.799,0.184l0.529,0.117
		c0.548,0.121,0.803,0.062,0.995-0.089c0.177-0.139,0.231-0.31,0.259-0.438c0.037-0.166,0.029-0.382-0.089-0.566
		c-0.162-0.254-0.499-0.34-0.889-0.426l-0.472-0.104c-0.574-0.127-0.68-0.15-0.803-0.169c-0.13-0.021-0.197-0.004-0.251,0.115
		c-0.014,0.028-0.032,0.092-0.041,0.133c-0.009,0.042-0.022,0.063-0.048,0.057c-0.026-0.006-0.028-0.034-0.016-0.086
		c0.042-0.193,0.106-0.428,0.107-0.432c0.01-0.045,0.051-0.286,0.084-0.434c0.012-0.053,0.025-0.078,0.051-0.072
		c0.027,0.006,0.029,0.03,0.019,0.076c-0.009,0.041-0.01,0.065-0.013,0.112c-0.004,0.106,0.054,0.151,0.185,0.187
		c0.119,0.034,0.225,0.058,0.799,0.184l0.404,0.089c0.42,0.093,0.856,0.233,1.058,0.61c0.171,0.319,0.153,0.6,0.099,0.846
		c-0.044,0.2-0.136,0.56-0.446,0.781c-0.216,0.154-0.528,0.236-1.076,0.115L5.657,24.808z"/>
	<path fill="#FFFFFF" d="M7.17,20.157l0.007-0.018c-0.081-0.177-0.391-0.922-0.469-1.077c-0.075-0.15-0.131-0.266-0.192-0.291
		c-0.039-0.016-0.07-0.013-0.092,0.02c-0.021,0.029-0.034,0.04-0.055,0.031c-0.025-0.011-0.025-0.031-0.008-0.07
		c0.032-0.075,0.125-0.266,0.166-0.363c0.047-0.11,0.119-0.311,0.166-0.422c0.015-0.035,0.033-0.058,0.058-0.047
		c0.025,0.011,0.025,0.031,0.01,0.067c-0.021,0.05-0.045,0.145-0.048,0.223c-0.004,0.128,0.019,0.281,0.104,0.498
		c0.06,0.156,0.367,0.92,0.444,1.096c0.222-0.058,1.269-0.438,1.46-0.521c0.216-0.094,0.444-0.186,0.6-0.347
		c0.088-0.089,0.129-0.156,0.147-0.198c0.011-0.025,0.027-0.043,0.048-0.034c0.025,0.011,0.028,0.033-0.001,0.1l-0.131,0.31
		c-0.045,0.107-0.072,0.171-0.111,0.243c-0.099,0.185-0.219,0.248-0.419,0.344c-0.205,0.098-1.326,0.452-1.461,0.483l-0.07,0.016
		l-0.007,0.018l0.324,0.137c0.328,0.139,0.609,0.258,0.767,0.312c0.103,0.035,0.195,0.036,0.247-0.047
		c0.028-0.047,0.068-0.122,0.088-0.169c0.012-0.028,0.03-0.042,0.048-0.034c0.025,0.011,0.023,0.043,0.007,0.083
		c-0.084,0.2-0.19,0.42-0.228,0.509c-0.035,0.082-0.119,0.311-0.179,0.453c-0.02,0.046-0.041,0.067-0.066,0.056
		c-0.018-0.007-0.022-0.026-0.004-0.069c0.023-0.054,0.033-0.099,0.04-0.134c0.016-0.077-0.055-0.128-0.152-0.187
		c-0.142-0.081-0.424-0.2-0.751-0.339l-0.627-0.265c-0.542-0.229-0.641-0.272-0.759-0.313c-0.124-0.044-0.193-0.04-0.268,0.067
		c-0.019,0.026-0.049,0.085-0.07,0.135c-0.017,0.039-0.033,0.057-0.058,0.047c-0.025-0.011-0.022-0.038,0.001-0.092
		c0.08-0.189,0.186-0.409,0.222-0.494c0.036-0.085,0.12-0.314,0.172-0.436c0.021-0.05,0.039-0.072,0.064-0.061
		c0.025,0.011,0.023,0.035,0.011,0.064C6.13,19.477,6.125,19.5,6.114,19.546c-0.023,0.104,0.026,0.158,0.147,0.218
		c0.111,0.055,0.211,0.097,0.752,0.327L7.17,20.157z"/>
	<path fill="#FFFFFF" d="M9.928,18.098c-0.056,0.038-0.078,0.038-0.15-0.008c-0.18-0.113-0.369-0.249-0.419-0.285
		c-0.047-0.034-0.077-0.067-0.061-0.093c0.019-0.03,0.05-0.014,0.076,0.002c0.043,0.027,0.12,0.057,0.186,0.075
		c0.288,0.08,0.497-0.058,0.625-0.261c0.185-0.295,0.075-0.565-0.099-0.674c-0.161-0.1-0.342-0.146-0.726-0.007l-0.212,0.077
		c-0.508,0.184-0.815,0.165-1.081-0.001c-0.361-0.226-0.431-0.69-0.146-1.146c0.133-0.213,0.252-0.33,0.329-0.401
		c0.025-0.025,0.045-0.036,0.068-0.021c0.043,0.027,0.13,0.099,0.385,0.259c0.072,0.045,0.092,0.071,0.076,0.097
		c-0.014,0.023-0.04,0.021-0.079-0.004c-0.03-0.019-0.141-0.066-0.27-0.05c-0.093,0.01-0.251,0.044-0.384,0.257
		c-0.152,0.243-0.103,0.479,0.093,0.602c0.151,0.094,0.313,0.091,0.69-0.052l0.126-0.049c0.547-0.21,0.862-0.21,1.173-0.015
		c0.19,0.119,0.371,0.333,0.378,0.665c0.002,0.23-0.083,0.432-0.192,0.606C10.194,17.863,10.079,17.996,9.928,18.098"/>
	<path fill="#FFFFFF" d="M10.368,14.371c-0.448-0.381-0.531-0.451-0.63-0.525c-0.105-0.079-0.173-0.096-0.276-0.016
		c-0.026,0.019-0.072,0.066-0.107,0.107c-0.028,0.032-0.049,0.045-0.069,0.028c-0.021-0.018-0.009-0.043,0.029-0.088
		c0.068-0.079,0.143-0.163,0.206-0.236c0.068-0.074,0.129-0.139,0.164-0.181c0.08-0.094,0.579-0.681,0.623-0.74
		c0.042-0.061,0.076-0.113,0.09-0.142c0.01-0.017,0.016-0.043,0.028-0.057c0.013-0.015,0.027-0.008,0.042,0.005
		c0.021,0.018,0.043,0.062,0.172,0.187c0.027,0.028,0.152,0.144,0.182,0.18c0.012,0.016,0.025,0.036,0.008,0.057
		c-0.018,0.021-0.037,0.014-0.064-0.008c-0.021-0.018-0.073-0.057-0.121-0.073c-0.071-0.024-0.131-0.025-0.274,0.108
		c-0.049,0.045-0.317,0.35-0.367,0.409c-0.013,0.015-0.009,0.028,0.012,0.046l0.746,0.634c0.021,0.018,0.035,0.025,0.05,0.007
		c0.055-0.065,0.343-0.404,0.395-0.477c0.054-0.076,0.083-0.128,0.076-0.179c-0.006-0.04-0.011-0.065,0.002-0.079
		c0.01-0.012,0.023-0.016,0.041-0.001c0.018,0.015,0.055,0.067,0.195,0.207c0.056,0.053,0.167,0.162,0.188,0.18
		c0.024,0.02,0.056,0.047,0.034,0.074c-0.018,0.021-0.034,0.016-0.049,0.004c-0.032-0.022-0.07-0.055-0.116-0.078
		c-0.071-0.035-0.151-0.031-0.255,0.067c-0.054,0.051-0.304,0.341-0.365,0.411c-0.013,0.015-0.003,0.028,0.014,0.043l0.233,0.198
		c0.1,0.085,0.369,0.318,0.457,0.388c0.208,0.167,0.293,0.157,0.548-0.144c0.065-0.077,0.17-0.201,0.2-0.307
		c0.03-0.107-0.002-0.195-0.105-0.318c-0.028-0.033-0.034-0.049-0.017-0.07c0.02-0.024,0.044-0.004,0.073,0.021
		c0.068,0.058,0.248,0.252,0.295,0.316c0.059,0.086,0.037,0.112-0.059,0.225c-0.188,0.221-0.331,0.378-0.442,0.503
		c-0.114,0.122-0.194,0.211-0.269,0.299c-0.028,0.032-0.083,0.097-0.14,0.171c-0.058,0.068-0.117,0.15-0.167,0.208
		c-0.033,0.038-0.059,0.052-0.08,0.034c-0.015-0.013-0.013-0.032,0.017-0.067c0.037-0.044,0.062-0.085,0.078-0.116
		c0.038-0.069-0.014-0.139-0.09-0.223c-0.111-0.12-0.344-0.318-0.616-0.548L10.368,14.371z"/>
	<path fill="#FFFFFF" d="M13.156,11.708l0.015-0.013c0.007-0.194,0.063-0.999,0.063-1.173c0-0.167,0.002-0.296-0.041-0.346
		c-0.028-0.032-0.057-0.043-0.092-0.023c-0.031,0.016-0.048,0.021-0.063,0.003c-0.017-0.021-0.008-0.039,0.025-0.066
		c0.062-0.053,0.231-0.182,0.311-0.25c0.091-0.078,0.246-0.225,0.337-0.303c0.03-0.025,0.055-0.037,0.073-0.016
		c0.018,0.021,0.008,0.039-0.022,0.064c-0.041,0.035-0.105,0.11-0.143,0.178c-0.061,0.113-0.109,0.26-0.13,0.492
		c-0.016,0.166-0.084,0.987-0.094,1.178c0.224,0.048,1.33,0.178,1.538,0.189c0.235,0.013,0.48,0.033,0.692-0.04
		c0.118-0.04,0.185-0.082,0.22-0.112c0.021-0.017,0.043-0.027,0.058-0.009c0.017,0.02,0.01,0.042-0.046,0.09l-0.256,0.218
		c-0.088,0.075-0.141,0.12-0.208,0.167c-0.171,0.121-0.306,0.124-0.528,0.12c-0.228-0.004-1.387-0.19-1.522-0.223l-0.07-0.016
		l-0.015,0.013l0.228,0.268c0.231,0.271,0.429,0.503,0.546,0.623c0.076,0.078,0.158,0.12,0.242,0.069
		c0.046-0.029,0.116-0.079,0.154-0.111c0.023-0.02,0.046-0.024,0.058-0.009c0.018,0.02,0.002,0.049-0.031,0.077
		c-0.165,0.14-0.358,0.29-0.432,0.352c-0.068,0.058-0.246,0.225-0.363,0.325c-0.038,0.033-0.066,0.041-0.084,0.021
		c-0.013-0.015-0.008-0.034,0.027-0.064c0.044-0.038,0.075-0.074,0.096-0.102c0.049-0.062,0.008-0.139-0.053-0.235
		c-0.091-0.136-0.289-0.369-0.52-0.64l-0.442-0.518c-0.381-0.448-0.452-0.53-0.538-0.619c-0.091-0.095-0.155-0.122-0.27-0.06
		c-0.029,0.014-0.081,0.054-0.122,0.089c-0.032,0.028-0.055,0.037-0.073,0.016c-0.018-0.021-0.002-0.044,0.042-0.081
		c0.156-0.133,0.349-0.282,0.42-0.342c0.071-0.06,0.249-0.227,0.349-0.313c0.041-0.035,0.067-0.046,0.084-0.026
		c0.018,0.021,0.005,0.042-0.019,0.062c-0.03,0.025-0.045,0.043-0.075,0.079c-0.067,0.082-0.048,0.153,0.034,0.261
		c0.074,0.099,0.145,0.182,0.526,0.629L13.156,11.708z"/>
	<path fill="#FFFFFF" d="M17.633,7.427L17.12,7.691c-0.199,0.104-0.274,0.162-0.29,0.264c-0.01,0.069-0.007,0.119-0.001,0.151
		c0.006,0.031,0.003,0.05-0.018,0.06c-0.024,0.012-0.04-0.002-0.058-0.04c-0.027-0.056-0.113-0.405-0.119-0.437
		c-0.011-0.05-0.011-0.076,0.01-0.086c0.028-0.013,0.08,0.005,0.17-0.03c0.106-0.038,0.242-0.095,0.357-0.15l1.381-0.663
		c0.112-0.054,0.183-0.101,0.232-0.133c0.047-0.035,0.072-0.056,0.086-0.063c0.024-0.011,0.038,0.008,0.063,0.06
		c0.035,0.073,0.14,0.319,0.184,0.41c0.013,0.037,0.016,0.061-0.004,0.071c-0.028,0.013-0.043-0.001-0.072-0.051l-0.022-0.037
		c-0.05-0.087-0.191-0.14-0.505,0.002l-0.445,0.201l0.687,1.43c0.154,0.321,0.287,0.596,0.376,0.738
		c0.057,0.092,0.115,0.159,0.226,0.123c0.052-0.016,0.132-0.046,0.185-0.071c0.038-0.019,0.061-0.017,0.069,0.001
		c0.012,0.025-0.011,0.049-0.05,0.067c-0.23,0.111-0.455,0.206-0.553,0.252c-0.08,0.038-0.295,0.154-0.434,0.222
		c-0.046,0.022-0.075,0.023-0.087-0.002c-0.008-0.017,0.001-0.034,0.042-0.055c0.052-0.025,0.091-0.052,0.119-0.074
		c0.063-0.047,0.047-0.134,0.009-0.24c-0.053-0.155-0.185-0.431-0.339-0.751L17.633,7.427z"/>
	<path fill="#FFFFFF" d="M20.967,7.039c-0.168-0.564-0.199-0.668-0.242-0.784c-0.045-0.124-0.092-0.174-0.222-0.164
		c-0.032,0.001-0.096,0.016-0.148,0.032c-0.041,0.012-0.065,0.011-0.073-0.015c-0.008-0.026,0.016-0.041,0.072-0.058
		c0.1-0.03,0.209-0.058,0.302-0.086c0.098-0.025,0.184-0.047,0.236-0.062c0.119-0.035,0.857-0.255,0.926-0.28
		c0.068-0.028,0.125-0.054,0.153-0.07c0.017-0.009,0.036-0.027,0.055-0.033c0.019-0.005,0.027,0.008,0.032,0.027
		c0.008,0.026,0.002,0.076,0.042,0.25c0.007,0.038,0.049,0.204,0.055,0.25c0.002,0.019,0.001,0.044-0.025,0.052
		c-0.026,0.008-0.039-0.008-0.049-0.042c-0.008-0.026-0.03-0.088-0.062-0.127c-0.046-0.059-0.096-0.092-0.288-0.059
		c-0.065,0.011-0.457,0.12-0.531,0.142c-0.018,0.006-0.023,0.019-0.015,0.045l0.28,0.938c0.008,0.026,0.016,0.04,0.038,0.033
		c0.081-0.024,0.508-0.151,0.591-0.184c0.087-0.034,0.139-0.062,0.161-0.109c0.017-0.037,0.027-0.061,0.045-0.066
		c0.015-0.004,0.028,0,0.035,0.022c0.007,0.022,0.01,0.086,0.051,0.28c0.019,0.075,0.052,0.227,0.059,0.253
		c0.009,0.03,0.021,0.07-0.012,0.08c-0.026,0.008-0.038-0.005-0.043-0.023c-0.015-0.036-0.029-0.084-0.055-0.129
		c-0.041-0.069-0.109-0.109-0.251-0.082c-0.073,0.013-0.441,0.119-0.53,0.146c-0.019,0.006-0.018,0.022-0.011,0.044l0.087,0.293
		c0.038,0.126,0.136,0.468,0.171,0.575c0.084,0.254,0.16,0.291,0.538,0.179c0.096-0.029,0.252-0.075,0.335-0.148
		c0.083-0.073,0.104-0.164,0.085-0.324c-0.005-0.043-0.002-0.06,0.024-0.068c0.03-0.009,0.038,0.021,0.049,0.058
		c0.025,0.085,0.071,0.346,0.075,0.426c0.003,0.104-0.031,0.114-0.171,0.156c-0.278,0.083-0.484,0.136-0.645,0.18
		c-0.162,0.04-0.278,0.071-0.389,0.104c-0.041,0.012-0.122,0.037-0.21,0.067c-0.085,0.025-0.179,0.061-0.254,0.084
		c-0.048,0.014-0.078,0.011-0.085-0.015c-0.006-0.019,0.006-0.034,0.051-0.047c0.056-0.016,0.098-0.037,0.129-0.055
		c0.07-0.037,0.064-0.124,0.047-0.236c-0.028-0.161-0.115-0.454-0.217-0.796L20.967,7.039z"/>
	<path fill="#FFFFFF" d="M24.756,6.33l0.019-0.002c0.112-0.159,0.599-0.802,0.694-0.947c0.091-0.14,0.163-0.247,0.155-0.312
		c-0.005-0.042-0.024-0.067-0.064-0.07c-0.035-0.003-0.052-0.009-0.055-0.032c-0.003-0.027,0.015-0.037,0.057-0.042
		c0.081-0.01,0.293-0.026,0.397-0.039c0.119-0.015,0.329-0.054,0.448-0.069c0.038-0.005,0.066-0.001,0.07,0.026
		c0.003,0.027-0.015,0.037-0.053,0.042c-0.054,0.007-0.148,0.034-0.217,0.071c-0.113,0.061-0.233,0.159-0.378,0.341
		c-0.104,0.13-0.61,0.78-0.722,0.935c0.161,0.163,1.017,0.876,1.185,0.999c0.189,0.139,0.384,0.29,0.602,0.344
		c0.121,0.031,0.199,0.033,0.245,0.027c0.027-0.004,0.051,0.001,0.054,0.024c0.003,0.027-0.014,0.041-0.087,0.05l-0.334,0.043
		c-0.115,0.015-0.184,0.024-0.266,0.026c-0.21,0.007-0.324-0.064-0.508-0.188c-0.188-0.128-1.058-0.918-1.153-1.019l-0.05-0.052
		l-0.019,0.003l0.045,0.349c0.045,0.353,0.084,0.656,0.117,0.82c0.021,0.106,0.067,0.187,0.165,0.19
		c0.055,0.001,0.14-0.002,0.19-0.009c0.031-0.004,0.051,0.005,0.054,0.024c0.003,0.027-0.026,0.042-0.068,0.048
		c-0.215,0.028-0.458,0.047-0.554,0.059c-0.088,0.011-0.329,0.054-0.482,0.073c-0.05,0.006-0.078-0.002-0.081-0.028
		c-0.003-0.019,0.011-0.033,0.057-0.039c0.058-0.007,0.103-0.021,0.136-0.033c0.075-0.025,0.083-0.112,0.084-0.225
		c-0.002-0.164-0.04-0.467-0.086-0.82l-0.087-0.676c-0.075-0.583-0.089-0.691-0.112-0.812c-0.025-0.13-0.063-0.187-0.193-0.198
		c-0.032-0.004-0.098,0.001-0.151,0.007c-0.042,0.005-0.066,0.001-0.07-0.026c-0.004-0.027,0.022-0.038,0.08-0.045
		c0.203-0.026,0.447-0.046,0.539-0.057c0.092-0.012,0.332-0.054,0.463-0.071c0.054-0.007,0.081-0.002,0.085,0.024
		c0.003,0.027-0.019,0.037-0.049,0.041c-0.038,0.005-0.061,0.012-0.106,0.025c-0.101,0.032-0.124,0.102-0.114,0.237
		c0.008,0.124,0.022,0.231,0.097,0.814L24.756,6.33z"/>
	<path fill="#FFFFFF" d="M28.349,7.187c-0.011,0.301,0.033,0.405,0.109,0.437c0.064,0.027,0.137,0.036,0.199,0.039
		c0.042,0.003,0.065,0.012,0.064,0.035c-0.002,0.031-0.037,0.036-0.091,0.033c-0.251-0.016-0.405-0.037-0.478-0.041
		c-0.035-0.002-0.217-0.002-0.418-0.014c-0.05-0.003-0.085-0.009-0.082-0.044c0.001-0.023,0.025-0.029,0.064-0.027
		c0.05,0.003,0.12,0.003,0.175-0.009c0.102-0.025,0.125-0.136,0.149-0.471l0.175-2.284c0.005-0.077,0.019-0.13,0.058-0.128
		c0.042,0.002,0.074,0.055,0.136,0.128c0.043,0.053,0.591,0.718,1.121,1.313c0.246,0.279,0.733,0.867,0.795,0.933l0.019,0.001
		l0.068-1.736c0.01-0.236-0.02-0.311-0.11-0.356c-0.057-0.027-0.149-0.032-0.203-0.036c-0.046-0.003-0.061-0.015-0.06-0.038
		c0.002-0.031,0.045-0.032,0.103-0.029c0.201,0.012,0.385,0.035,0.466,0.04c0.042,0.003,0.19,0,0.379,0.012
		c0.05,0.003,0.089,0.009,0.087,0.04c-0.001,0.023-0.025,0.033-0.072,0.03c-0.039-0.002-0.069-0.004-0.117,0.005
		c-0.11,0.024-0.146,0.103-0.163,0.319L30.53,7.774c-0.005,0.085-0.023,0.119-0.057,0.117c-0.043-0.003-0.086-0.048-0.126-0.093
		c-0.229-0.247-0.692-0.783-1.069-1.205c-0.395-0.443-0.794-0.952-0.859-1.029l-0.012-0.001L28.349,7.187z"/>
	<path fill="#FFFFFF" d="M32.31,6.628c0.173-0.639,0.818-1.35,1.938-1.047c0.93,0.251,1.362,0.949,1.131,1.805
		c-0.231,0.855-1.011,1.37-1.96,1.113C32.347,8.209,32.131,7.289,32.31,6.628 M34.819,7.382c0.226-0.836-0.115-1.486-0.728-1.651
		c-0.429-0.116-0.983-0.009-1.235,0.92c-0.21,0.777,0.053,1.509,0.77,1.703C33.888,8.425,34.527,8.461,34.819,7.382"/>
	<path fill="#FFFFFF" d="M37.236,8.639c-0.21,0.449-0.323,0.691-0.278,0.788c0.035,0.08,0.115,0.147,0.388,0.275
		c0.186,0.087,0.324,0.147,0.456,0.094c0.063-0.026,0.151-0.104,0.189-0.168c0.018-0.03,0.035-0.048,0.063-0.034
		c0.025,0.011,0.02,0.031,0,0.073c-0.018,0.039-0.165,0.29-0.241,0.378c-0.057,0.067-0.083,0.077-0.265-0.008
		c-0.252-0.118-0.431-0.21-0.587-0.287c-0.154-0.081-0.279-0.143-0.423-0.21c-0.039-0.018-0.116-0.054-0.201-0.09
		c-0.081-0.038-0.175-0.073-0.245-0.106c-0.046-0.021-0.065-0.043-0.054-0.068c0.008-0.017,0.027-0.021,0.069-0.002
		c0.053,0.025,0.098,0.037,0.133,0.045c0.077,0.019,0.13-0.05,0.192-0.145c0.086-0.139,0.216-0.416,0.366-0.738l0.288-0.617
		c0.249-0.533,0.295-0.631,0.34-0.746c0.049-0.122,0.047-0.192-0.057-0.27c-0.025-0.02-0.065-0.043-0.111-0.064
		c-0.039-0.018-0.056-0.035-0.045-0.06c0.011-0.024,0.039-0.02,0.092,0.005c0.165,0.077,0.381,0.191,0.475,0.235
		c0.084,0.039,0.345,0.148,0.482,0.211c0.049,0.023,0.07,0.041,0.059,0.066c-0.011,0.025-0.036,0.022-0.078,0.002
		c-0.039-0.018-0.096-0.041-0.142-0.053c-0.103-0.027-0.159,0.02-0.223,0.139c-0.059,0.109-0.105,0.207-0.354,0.74L37.236,8.639z"/>
	<path fill="#FFFFFF" d="M39.466,9.371c0.379-0.542,1.227-0.993,2.179-0.328c0.79,0.552,0.96,1.355,0.453,2.082
		c-0.508,0.726-1.416,0.946-2.222,0.383C38.965,10.872,39.074,9.933,39.466,9.371 M41.571,10.932
		c0.497-0.711,0.395-1.438-0.125-1.801c-0.365-0.255-0.922-0.342-1.474,0.448c-0.461,0.66-0.462,1.438,0.147,1.863
		C40.342,11.597,40.931,11.849,41.571,10.932"/>
	<path fill="#FFFFFF" d="M43.542,12.102c0.407-0.425,0.482-0.503,0.562-0.597c0.085-0.1,0.106-0.166,0.033-0.274
		c-0.017-0.027-0.062-0.075-0.101-0.113c-0.031-0.029-0.042-0.051-0.024-0.071c0.019-0.019,0.044-0.006,0.086,0.034
		c0.148,0.142,0.316,0.319,0.388,0.389c0.067,0.064,0.251,0.225,0.36,0.329c0.039,0.037,0.053,0.062,0.034,0.082
		c-0.019,0.019-0.041,0.009-0.074-0.023c-0.031-0.029-0.05-0.043-0.089-0.069c-0.089-0.058-0.157-0.032-0.256,0.06
		c-0.091,0.084-0.166,0.162-0.573,0.587l-0.495,0.517c-0.115,0.12-0.235,0.262-0.369,0.402c-0.153,0.159-0.335,0.327-0.541,0.43
		c-0.222,0.114-0.555,0.165-0.981,0.073c-0.058-0.012-0.124-0.033-0.209-0.061c-0.03-0.008-0.058-0.024-0.072-0.037
		c-0.011-0.011-0.014-0.03-0.001-0.044c0.013-0.014,0.038-0.012,0.11,0.009c0.055,0.015,0.126,0.025,0.236,0.022
		c0.418-0.011,0.683-0.293,1.208-0.841L43.542,12.102z"/>
	<path fill="#FFFFFF" d="M45.267,13.921c0.452-0.376,0.536-0.445,0.626-0.53c0.096-0.09,0.122-0.162,0.083-0.24
		c-0.018-0.04-0.047-0.081-0.077-0.117c-0.025-0.03-0.034-0.052-0.01-0.072c0.018-0.015,0.044,0.004,0.083,0.052
		c0.094,0.113,0.241,0.308,0.312,0.394c0.062,0.074,0.217,0.243,0.311,0.355c0.032,0.039,0.046,0.067,0.028,0.082
		c-0.024,0.019-0.045,0.007-0.069-0.023c-0.025-0.03-0.047-0.051-0.083-0.082c-0.082-0.068-0.152-0.05-0.261,0.031
		c-0.1,0.073-0.184,0.142-0.636,0.518l-0.524,0.435c-0.289,0.24-0.524,0.435-0.642,0.553c-0.073,0.076-0.109,0.141-0.047,0.24
		c0.029,0.047,0.077,0.117,0.114,0.162c0.027,0.033,0.031,0.055,0.016,0.067c-0.021,0.017-0.049,0.001-0.077-0.031
		c-0.163-0.196-0.31-0.391-0.377-0.471c-0.057-0.069-0.222-0.249-0.32-0.368c-0.032-0.039-0.04-0.067-0.02-0.084
		c0.015-0.012,0.034-0.008,0.063,0.028c0.037,0.045,0.073,0.076,0.101,0.097c0.061,0.05,0.127,0.025,0.22-0.037
		c0.137-0.089,0.372-0.284,0.661-0.524L45.267,13.921z M46.541,12.893c0.074-0.062,0.212-0.096,0.311,0.023
		c0.079,0.095,0.078,0.221-0.02,0.303c-0.098,0.082-0.235,0.08-0.319-0.021C46.414,13.079,46.466,12.955,46.541,12.893"/>
	<path fill="#FFFFFF" d="M47.926,17.793c0.524-0.267,0.621-0.315,0.727-0.378c0.114-0.067,0.155-0.122,0.121-0.248
		c-0.007-0.031-0.033-0.091-0.058-0.14c-0.019-0.038-0.023-0.062,0.001-0.074c0.024-0.012,0.043,0.008,0.07,0.06
		c0.047,0.093,0.095,0.195,0.139,0.281c0.042,0.091,0.079,0.172,0.103,0.221c0.056,0.11,0.405,0.797,0.442,0.86
		c0.04,0.062,0.075,0.114,0.096,0.138c0.012,0.016,0.033,0.031,0.042,0.048c0.009,0.017-0.003,0.028-0.021,0.036
		c-0.024,0.012-0.074,0.016-0.238,0.086c-0.036,0.014-0.191,0.084-0.236,0.098c-0.019,0.005-0.043,0.009-0.055-0.015
		c-0.012-0.024,0.002-0.04,0.033-0.055c0.024-0.012,0.081-0.046,0.114-0.084c0.05-0.055,0.074-0.111,0.007-0.294
		c-0.023-0.062-0.2-0.428-0.235-0.497c-0.009-0.017-0.023-0.019-0.047-0.007l-0.872,0.444c-0.024,0.012-0.036,0.022-0.026,0.043
		c0.038,0.076,0.24,0.473,0.287,0.548c0.049,0.079,0.086,0.126,0.136,0.139c0.04,0.01,0.064,0.015,0.073,0.032
		c0.007,0.014,0.005,0.028-0.015,0.038c-0.021,0.011-0.083,0.025-0.266,0.1c-0.071,0.032-0.214,0.091-0.238,0.103
		c-0.028,0.014-0.066,0.034-0.081,0.002c-0.012-0.024-0.002-0.038,0.015-0.047c0.033-0.021,0.078-0.044,0.117-0.077
		c0.06-0.052,0.087-0.127,0.036-0.261c-0.026-0.069-0.196-0.412-0.238-0.495c-0.009-0.017-0.024-0.014-0.045-0.003l-0.273,0.138
		c-0.117,0.06-0.436,0.217-0.534,0.272c-0.234,0.128-0.258,0.209-0.079,0.561c0.046,0.09,0.119,0.235,0.206,0.303
		c0.087,0.069,0.18,0.073,0.334,0.025c0.042-0.013,0.059-0.013,0.071,0.012c0.014,0.027-0.014,0.042-0.048,0.059
		c-0.079,0.04-0.328,0.132-0.405,0.15c-0.102,0.021-0.118-0.01-0.184-0.141c-0.131-0.259-0.221-0.452-0.293-0.602
		c-0.069-0.152-0.119-0.261-0.172-0.364c-0.019-0.038-0.058-0.114-0.103-0.195c-0.04-0.079-0.093-0.165-0.128-0.234
		c-0.023-0.045-0.025-0.074,0-0.087c0.017-0.009,0.034,0,0.056,0.041c0.026,0.052,0.054,0.09,0.077,0.117
		c0.049,0.062,0.134,0.041,0.24,0.004c0.154-0.056,0.426-0.195,0.743-0.356L47.926,17.793z"/>
	<path fill="#FFFFFF" d="M48.184,21.482c-0.287,0.094-0.369,0.171-0.373,0.253c-0.003,0.07,0.014,0.141,0.032,0.201
		c0.012,0.041,0.011,0.065-0.011,0.072c-0.03,0.009-0.047-0.022-0.063-0.074c-0.072-0.241-0.105-0.392-0.127-0.463
		c-0.01-0.033-0.073-0.204-0.131-0.397c-0.014-0.048-0.021-0.083,0.013-0.093c0.022-0.007,0.036,0.013,0.047,0.05
		c0.015,0.048,0.038,0.114,0.069,0.161c0.059,0.088,0.17,0.07,0.494-0.023l2.204-0.624c0.074-0.022,0.129-0.027,0.14,0.01
		c0.012,0.04-0.026,0.088-0.074,0.172c-0.035,0.059-0.47,0.803-0.845,1.505c-0.177,0.327-0.56,0.988-0.601,1.068l0.006,0.019
		l1.653-0.536c0.225-0.071,0.285-0.126,0.296-0.226c0.005-0.062-0.021-0.151-0.037-0.203c-0.013-0.045-0.007-0.063,0.016-0.069
		c0.03-0.009,0.046,0.031,0.062,0.086c0.058,0.193,0.1,0.374,0.123,0.452c0.012,0.041,0.066,0.178,0.12,0.36
		c0.014,0.048,0.022,0.086-0.008,0.095c-0.022,0.007-0.04-0.012-0.053-0.057c-0.011-0.037-0.02-0.067-0.045-0.108
		c-0.061-0.095-0.147-0.101-0.356-0.043l-2.351,0.66c-0.081,0.025-0.119,0.02-0.129-0.014c-0.012-0.04,0.015-0.097,0.044-0.15
		c0.152-0.3,0.496-0.92,0.762-1.42c0.279-0.524,0.619-1.074,0.67-1.162l-0.003-0.011L48.184,21.482z"/>
	<path fill="#FFFFFF" d="M48.655,25.397c0.02-0.065,0.038-0.079,0.122-0.088c0.211-0.025,0.444-0.037,0.506-0.04
		c0.058-0.003,0.102,0.004,0.105,0.034c0.004,0.035-0.03,0.043-0.061,0.046c-0.05,0.006-0.129,0.031-0.192,0.058
		c-0.274,0.118-0.351,0.357-0.323,0.595c0.041,0.346,0.295,0.487,0.499,0.463c0.188-0.022,0.358-0.101,0.57-0.449l0.118-0.193
		c0.281-0.462,0.532-0.639,0.844-0.676c0.423-0.05,0.768,0.268,0.831,0.802c0.029,0.249,0.01,0.416-0.005,0.518
		c-0.004,0.036-0.013,0.056-0.04,0.059c-0.05,0.006-0.163,0.004-0.463,0.039c-0.085,0.01-0.117,0.002-0.12-0.028
		c-0.003-0.027,0.019-0.041,0.065-0.047c0.035-0.004,0.151-0.037,0.242-0.13c0.066-0.066,0.168-0.191,0.139-0.441
		c-0.033-0.284-0.219-0.438-0.45-0.411c-0.177,0.021-0.301,0.125-0.505,0.472l-0.068,0.117c-0.295,0.506-0.541,0.703-0.905,0.745
		c-0.223,0.026-0.498-0.027-0.711-0.282c-0.145-0.178-0.205-0.389-0.229-0.592C48.595,25.747,48.602,25.571,48.655,25.397"/>
	<path fill="#FFFFFF" d="M51.538,29.132l0.004-0.577c0-0.225-0.016-0.318-0.1-0.379c-0.057-0.041-0.102-0.061-0.133-0.07
		c-0.031-0.009-0.046-0.021-0.045-0.044c0.001-0.027,0.021-0.034,0.063-0.033c0.062,0.002,0.411,0.087,0.442,0.096
		c0.05,0.013,0.073,0.025,0.072,0.049c-0.001,0.031-0.041,0.069-0.052,0.165c-0.015,0.112-0.028,0.258-0.032,0.386l-0.051,1.532
		c-0.004,0.124,0.005,0.209,0.011,0.267c0.01,0.058,0.016,0.089,0.016,0.105c-0.001,0.027-0.024,0.03-0.082,0.028
		c-0.081-0.003-0.348-0.023-0.448-0.027c-0.039-0.005-0.061-0.014-0.061-0.037c0.001-0.031,0.021-0.038,0.079-0.04l0.043-0.003
		c0.101-0.004,0.213-0.105,0.232-0.449l0.028-0.487l-1.586-0.052c-0.356-0.012-0.661-0.022-0.828-0.008
		c-0.109,0.008-0.194,0.028-0.214,0.144c-0.01,0.054-0.02,0.139-0.022,0.197c-0.002,0.043-0.014,0.061-0.033,0.061
		c-0.027-0.001-0.038-0.032-0.036-0.075c0.009-0.255,0.028-0.499,0.032-0.607c0.003-0.089,0-0.333,0.005-0.488
		c0.002-0.05,0.014-0.077,0.041-0.076c0.019,0.001,0.031,0.016,0.029,0.063c-0.002,0.058,0.004,0.105,0.011,0.14
		c0.013,0.078,0.097,0.104,0.209,0.119c0.162,0.025,0.467,0.035,0.823,0.047L51.538,29.132z"/>
	<path fill="#FFFFFF" d="M50.34,32.25c0.579,0.101,0.686,0.12,0.809,0.134c0.131,0.015,0.202-0.011,0.236-0.092
		c0.019-0.04,0.031-0.089,0.039-0.135c0.007-0.038,0.018-0.059,0.049-0.054c0.023,0.004,0.025,0.036,0.014,0.097
		c-0.025,0.145-0.079,0.383-0.098,0.494c-0.017,0.095-0.045,0.322-0.07,0.467c-0.009,0.05-0.022,0.079-0.045,0.075
		c-0.03-0.005-0.034-0.029-0.027-0.067c0.007-0.038,0.008-0.069,0.009-0.116c-0.001-0.106-0.061-0.148-0.193-0.179
		c-0.121-0.029-0.227-0.048-0.807-0.149l-0.671-0.118c-0.37-0.065-0.671-0.117-0.838-0.131c-0.105-0.007-0.178,0.008-0.213,0.12
		c-0.017,0.052-0.039,0.134-0.049,0.192c-0.007,0.042-0.022,0.059-0.041,0.056c-0.027-0.005-0.033-0.037-0.025-0.079
		c0.044-0.252,0.097-0.49,0.115-0.593c0.015-0.088,0.046-0.33,0.073-0.482c0.009-0.05,0.025-0.074,0.052-0.07
		c0.019,0.003,0.028,0.02,0.02,0.066c-0.01,0.057-0.011,0.104-0.009,0.14c0.002,0.079,0.063,0.113,0.171,0.144
		c0.157,0.047,0.458,0.1,0.828,0.165L50.34,32.25z M51.948,32.555c0.095,0.017,0.21,0.1,0.184,0.252
		c-0.021,0.122-0.118,0.203-0.244,0.181c-0.126-0.022-0.213-0.128-0.191-0.257C51.724,32.579,51.853,32.539,51.948,32.555"/>
	<path fill="#FFFFFF" d="M50.46,35.636l0.163-0.553c0.062-0.216,0.073-0.31,0.01-0.391c-0.043-0.055-0.081-0.088-0.108-0.105
		c-0.027-0.017-0.038-0.033-0.031-0.055c0.008-0.026,0.029-0.027,0.07-0.014c0.059,0.019,0.371,0.198,0.398,0.215
		c0.044,0.026,0.063,0.045,0.055,0.067c-0.01,0.029-0.058,0.054-0.096,0.144c-0.046,0.103-0.099,0.241-0.138,0.362l-0.474,1.456
		c-0.038,0.118-0.054,0.202-0.064,0.26c-0.007,0.059-0.009,0.091-0.014,0.105c-0.008,0.026-0.032,0.022-0.087,0.004
		c-0.077-0.025-0.327-0.119-0.423-0.15c-0.036-0.016-0.055-0.03-0.048-0.052c0.01-0.03,0.03-0.031,0.087-0.017l0.042,0.009
		c0.098,0.024,0.233-0.042,0.347-0.367l0.162-0.46l-1.508-0.491c-0.338-0.11-0.629-0.205-0.793-0.238
		c-0.106-0.022-0.195-0.027-0.245,0.079c-0.024,0.049-0.058,0.128-0.076,0.183c-0.013,0.04-0.03,0.055-0.049,0.049
		c-0.026-0.008-0.027-0.041-0.014-0.082c0.079-0.243,0.166-0.471,0.199-0.574c0.027-0.085,0.092-0.32,0.14-0.467
		c0.016-0.048,0.035-0.07,0.061-0.061c0.018,0.006,0.025,0.024,0.01,0.068c-0.018,0.055-0.025,0.102-0.029,0.137
		c-0.009,0.078,0.064,0.127,0.168,0.172c0.148,0.069,0.439,0.163,0.777,0.273L50.46,35.636z"/>
	<path fill="#FFFFFF" d="M48.524,38.195c0.518,0.278,0.614,0.329,0.727,0.381c0.12,0.055,0.189,0.057,0.273-0.042
		c0.021-0.024,0.056-0.08,0.081-0.127c0.02-0.038,0.038-0.055,0.062-0.042c0.024,0.013,0.018,0.04-0.009,0.091
		c-0.097,0.181-0.222,0.39-0.277,0.492c-0.044,0.082-0.149,0.302-0.215,0.425c-0.027,0.051-0.047,0.072-0.071,0.059
		c-0.024-0.013-0.02-0.037-0.001-0.071c0.02-0.037,0.028-0.06,0.043-0.104c0.032-0.101-0.011-0.16-0.127-0.23
		c-0.105-0.065-0.201-0.117-0.719-0.394l-0.478-0.256c-0.495-0.265-0.756-0.277-0.982-0.184c-0.208,0.086-0.306,0.235-0.368,0.351
		c-0.08,0.15-0.131,0.36-0.068,0.569c0.087,0.288,0.389,0.463,0.74,0.651l0.426,0.229c0.518,0.278,0.614,0.329,0.727,0.381
		c0.12,0.055,0.189,0.057,0.273-0.043c0.021-0.024,0.056-0.08,0.076-0.117c0.02-0.037,0.038-0.054,0.062-0.042
		c0.024,0.013,0.018,0.04-0.008,0.088c-0.093,0.174-0.219,0.384-0.22,0.387c-0.022,0.041-0.127,0.261-0.198,0.395
		c-0.026,0.048-0.045,0.068-0.069,0.055c-0.024-0.013-0.02-0.037,0.002-0.078c0.02-0.037,0.028-0.06,0.043-0.104
		c0.032-0.101-0.011-0.16-0.127-0.23c-0.106-0.065-0.201-0.116-0.72-0.394l-0.365-0.195c-0.379-0.203-0.761-0.456-0.853-0.874
		c-0.078-0.353,0.016-0.619,0.134-0.841c0.097-0.181,0.282-0.503,0.641-0.631c0.25-0.09,0.572-0.084,1.067,0.181L48.524,38.195z
		 M49.234,40.261c0.068,0.037,0.135,0.134,0.076,0.243c-0.048,0.089-0.14,0.131-0.236,0.08c-0.096-0.051-0.136-0.156-0.083-0.255
		C49.05,40.219,49.163,40.223,49.234,40.261 M49.62,39.541c0.065,0.035,0.131,0.132,0.073,0.241
		c-0.048,0.089-0.141,0.131-0.233,0.082c-0.095-0.051-0.136-0.156-0.083-0.255C49.436,39.5,49.548,39.503,49.62,39.541"/>
	<path fill="#FFFFFF" d="M44.979,40.734c0.059-0.032,0.082-0.03,0.149,0.022c0.169,0.13,0.343,0.284,0.39,0.324
		c0.044,0.039,0.07,0.074,0.051,0.098c-0.021,0.028-0.051,0.009-0.076-0.01c-0.04-0.031-0.114-0.068-0.178-0.093
		c-0.279-0.107-0.501,0.01-0.647,0.2c-0.213,0.276-0.13,0.555,0.033,0.68c0.15,0.116,0.327,0.178,0.722,0.078l0.219-0.056
		c0.523-0.134,0.827-0.085,1.076,0.106c0.337,0.26,0.362,0.728,0.034,1.155c-0.154,0.199-0.283,0.304-0.366,0.367
		c-0.027,0.023-0.048,0.031-0.07,0.015c-0.04-0.031-0.119-0.112-0.358-0.296c-0.067-0.052-0.085-0.08-0.066-0.105
		c0.017-0.021,0.042-0.016,0.079,0.012c0.028,0.021,0.134,0.079,0.264,0.076c0.094-0.001,0.254-0.019,0.408-0.219
		c0.175-0.227,0.149-0.466-0.035-0.608c-0.141-0.109-0.303-0.121-0.692-0.015l-0.13,0.036c-0.565,0.156-0.878,0.125-1.169-0.1
		c-0.178-0.137-0.337-0.367-0.311-0.699c0.02-0.229,0.125-0.422,0.25-0.584C44.691,40.942,44.819,40.821,44.979,40.734"/>
	<path fill="#FFFFFF" d="M44.294,44.315c0.401,0.43,0.475,0.509,0.565,0.595c0.095,0.091,0.16,0.115,0.272,0.048
		c0.028-0.016,0.079-0.058,0.118-0.094c0.031-0.029,0.053-0.039,0.072-0.019c0.018,0.02,0.004,0.044-0.039,0.083
		c-0.15,0.14-0.336,0.297-0.421,0.377c-0.068,0.063-0.238,0.238-0.34,0.334c-0.042,0.04-0.067,0.052-0.086,0.033
		c-0.018-0.02-0.007-0.041,0.022-0.068c0.031-0.029,0.045-0.048,0.074-0.085c0.063-0.085,0.041-0.155-0.046-0.259
		c-0.079-0.096-0.153-0.175-0.554-0.605l-0.369-0.396c-0.382-0.41-0.626-0.507-0.87-0.491c-0.225,0.014-0.366,0.124-0.462,0.214
		c-0.125,0.116-0.24,0.298-0.248,0.517c-0.011,0.301,0.218,0.563,0.49,0.855l0.33,0.354c0.401,0.43,0.475,0.509,0.565,0.595
		c0.095,0.091,0.16,0.115,0.272,0.048c0.028-0.016,0.079-0.058,0.11-0.087c0.031-0.029,0.053-0.039,0.072-0.019
		c0.018,0.02,0.004,0.044-0.036,0.08c-0.144,0.135-0.33,0.292-0.333,0.295c-0.034,0.032-0.204,0.206-0.315,0.31
		c-0.04,0.037-0.065,0.05-0.083,0.03c-0.018-0.02-0.007-0.041,0.027-0.073c0.031-0.029,0.045-0.048,0.074-0.085
		c0.063-0.085,0.041-0.155-0.046-0.259c-0.079-0.096-0.153-0.175-0.554-0.605l-0.282-0.303c-0.293-0.314-0.573-0.677-0.525-1.103
		c0.04-0.36,0.215-0.581,0.399-0.752c0.15-0.14,0.43-0.384,0.81-0.39c0.266-0.004,0.568,0.105,0.951,0.515L44.294,44.315z
		 M44.3,46.499c0.053,0.057,0.084,0.17-0.006,0.254c-0.074,0.069-0.175,0.079-0.249-0.001c-0.074-0.079-0.078-0.192,0.004-0.268
		C44.139,46.401,44.244,46.44,44.3,46.499 M44.897,45.943c0.05,0.054,0.082,0.167-0.009,0.252c-0.074,0.068-0.175,0.079-0.246,0.002
		c-0.074-0.079-0.078-0.192,0.004-0.268C44.736,45.844,44.841,45.883,44.897,45.943"/>
	<path fill="#FFFFFF" d="M27.06,26.094h-0.553c-0.185,0-0.336-0.15-0.336-0.336v-6.677c0-0.185,0.15-0.336,0.336-0.336h0.553
		c0.185,0,0.336,0.151,0.336,0.336v6.677C27.396,25.944,27.246,26.094,27.06,26.094"/>
	<path fill="#FFFFFF" d="M28.147,22.42H27.87c-0.093,0-0.168-0.075-0.168-0.168v-7.013c0-0.093,0.075-0.168,0.168-0.168h0.277
		c0.093,0,0.168,0.075,0.168,0.168v7.013C28.315,22.345,28.24,22.42,28.147,22.42"/>
	<path fill="#FFFFFF" d="M29.51,26.094h-0.553c-0.185,0-0.336-0.15-0.336-0.336v-6.677c0-0.185,0.15-0.336,0.336-0.336h0.553
		c0.185,0,0.336,0.151,0.336,0.336v6.677C29.845,25.944,29.695,26.094,29.51,26.094"/>
	<path fill="#FFFFFF" d="M34.878,22.107L34.878,22.107l2.765-2.765c0.06-0.06,0.06-0.157,0-0.217l-0.216-0.217
		c-0.06-0.06-0.157-0.06-0.217,0l-2.765,2.765c-0.119-0.12-0.313-0.12-0.433,0l-3.464,3.464c-0.119,0.12-0.119,0.313,0,0.433
		l0.433,0.433c0.119,0.12,0.313,0.12,0.433,0l3.464-3.464C34.997,22.421,34.997,22.227,34.878,22.107"/>
	<path fill="#FFFFFF" d="M30.458,27.595v-0.554c0-0.185,0.15-0.336,0.336-0.336h6.677c0.185,0,0.336,0.15,0.336,0.336v0.554
		c0,0.186-0.151,0.336-0.336,0.336h-6.677C30.608,27.931,30.458,27.781,30.458,27.595"/>
	<path fill="#FFFFFF" d="M34.132,28.682v-0.277c0-0.093,0.075-0.168,0.168-0.168h7.013c0.093,0,0.168,0.075,0.168,0.168v0.277
		c0,0.093-0.075,0.168-0.168,0.168H34.3C34.207,28.85,34.132,28.775,34.132,28.682"/>
	<path fill="#FFFFFF" d="M30.458,30.045v-0.553c0-0.185,0.15-0.336,0.336-0.336h6.677c0.185,0,0.336,0.151,0.336,0.336v0.553
		c0,0.186-0.151,0.336-0.336,0.336h-6.677C30.608,30.381,30.458,30.23,30.458,30.045"/>
	<path fill="#FFFFFF" d="M34.444,35.413L34.444,35.413l2.765,2.765c0.06,0.06,0.157,0.06,0.217,0l0.216-0.217
		c0.06-0.06,0.06-0.157,0-0.217l-2.765-2.765c0.119-0.119,0.119-0.313,0-0.433l-3.464-3.464c-0.12-0.12-0.313-0.12-0.433,0
		l-0.433,0.433c-0.119,0.119-0.119,0.313,0,0.433l3.464,3.464C34.131,35.532,34.325,35.532,34.444,35.413"/>
	<path fill="#FFFFFF" d="M28.956,30.993h0.554c0.185,0,0.336,0.15,0.336,0.336v6.677c0,0.185-0.15,0.336-0.336,0.336h-0.554
		c-0.185,0-0.336-0.151-0.336-0.336v-6.677C28.621,31.143,28.771,30.993,28.956,30.993"/>
	<path fill="#FFFFFF" d="M27.87,34.667h0.277c0.093,0,0.168,0.075,0.168,0.168v7.013c0,0.093-0.075,0.168-0.168,0.168H27.87
		c-0.093,0-0.168-0.075-0.168-0.168v-7.013C27.702,34.742,27.777,34.667,27.87,34.667"/>
	<path fill="#FFFFFF" d="M26.507,30.993h0.553c0.185,0,0.336,0.15,0.336,0.336v6.677c0,0.185-0.15,0.336-0.336,0.336h-0.553
		c-0.185,0-0.336-0.151-0.336-0.336v-6.677C26.171,31.143,26.322,30.993,26.507,30.993"/>
	<path fill="#FFFFFF" d="M21.139,34.98L21.139,34.98l-2.765,2.765c-0.06,0.06-0.06,0.157,0,0.217l0.217,0.217
		c0.06,0.06,0.157,0.06,0.217,0l2.765-2.765c0.12,0.12,0.314,0.12,0.433,0l3.464-3.464c0.119-0.12,0.119-0.313,0-0.433l-0.433-0.433
		c-0.12-0.12-0.313-0.12-0.433,0l-3.464,3.464C21.02,34.666,21.02,34.86,21.139,34.98"/>
	<path fill="#FFFFFF" d="M25.559,29.492v0.554c0,0.185-0.15,0.336-0.336,0.336h-6.677c-0.185,0-0.336-0.15-0.336-0.336v-0.554
		c0-0.186,0.15-0.336,0.336-0.336h6.677C25.409,29.156,25.559,29.306,25.559,29.492"/>
	<path fill="#FFFFFF" d="M21.885,28.405v0.277c0,0.093-0.075,0.168-0.168,0.168h-7.013c-0.093,0-0.168-0.075-0.168-0.168v-0.277
		c0-0.093,0.075-0.168,0.168-0.168h7.013C21.81,28.237,21.885,28.312,21.885,28.405"/>
	<path fill="#FFFFFF" d="M25.559,27.042v0.553c0,0.185-0.15,0.336-0.336,0.336h-6.677c-0.185,0-0.336-0.151-0.336-0.336v-0.553
		c0-0.186,0.15-0.336,0.336-0.336h6.677C25.409,26.706,25.559,26.857,25.559,27.042"/>
	<path fill="#FFFFFF" d="M21.572,21.674L21.572,21.674l-2.765-2.765c-0.06-0.06-0.157-0.06-0.216,0l-0.216,0.217
		c-0.06,0.06-0.06,0.157,0,0.217l2.765,2.765c-0.12,0.12-0.12,0.313,0,0.433l3.464,3.464c0.119,0.12,0.313,0.12,0.433,0l0.433-0.433
		c0.119-0.119,0.119-0.313,0-0.433l-3.464-3.464C21.886,21.555,21.692,21.555,21.572,21.674"/>
	<path fill="#FFFFFF" d="M24.157,50.37c0.038-0.195,0.068-0.351,0.092-0.474c0.017-0.087,0.025-0.13-0.029-0.141
		c-0.069-0.013-0.367,0.075-0.453,0.092c-0.019,0.004-0.039,0.007-0.054,0.005c-0.011-0.002-0.025-0.023-0.021-0.045
		c0.004-0.022,0.026-0.036,0.046-0.044c0.016-0.004,0.799-0.324,0.944-0.394c0.037-0.015,0.074-0.034,0.103-0.029
		c0.033,0.006,0.035,0.048,0.028,0.085c-0.005,0.029-0.097,0.383-0.205,0.936l-0.13,0.669c-0.068,0.348-0.128,0.655-0.144,0.817
		c-0.012,0.118-0.004,0.176,0.107,0.223c0.052,0.022,0.205,0.063,0.234,0.068c0.015,0.003,0.03,0.017,0.025,0.043
		c-0.005,0.025-0.024,0.029-0.064,0.021c-0.275-0.054-0.504-0.109-0.602-0.129c-0.083-0.016-0.389-0.064-0.621-0.11
		c-0.04-0.008-0.06-0.019-0.055-0.045c0.005-0.025,0.021-0.033,0.036-0.03c0.04,0.008,0.226,0.033,0.294,0.031
		c0.121-0.003,0.149-0.05,0.182-0.164c0.045-0.156,0.113-0.462,0.177-0.81L24.157,50.37z"/>
	<path fill="#FFFFFF" d="M27.698,50.646c-0.066,1.03-1.008,1.62-1.478,1.804c-0.019,0.01-0.038,0.012-0.067,0.011
		c-0.015-0.001-0.032-0.02-0.031-0.039c0.002-0.026,0.029-0.046,0.048-0.06c0.397-0.208,1.01-0.774,1.065-1.642
		c0.042-0.651-0.216-0.955-0.499-0.973c-0.265-0.017-0.456,0.207-0.476,0.52c-0.036,0.563,0.32,0.718,0.445,0.726
		c0.129,0.008,0.204-0.009,0.253-0.028c0.042-0.019,0.061-0.037,0.076-0.036c0.015,0.001,0.028,0.017,0.027,0.035
		c-0.001,0.011-0.013,0.032-0.021,0.039c-0.114,0.107-0.309,0.151-0.496,0.139c-0.53-0.034-0.725-0.449-0.705-0.758
		c0.032-0.497,0.43-0.833,0.996-0.797C27.434,49.625,27.733,50.087,27.698,50.646"/>
	<path fill="#FFFFFF" d="M30.159,50.529c0.066,1.03-0.794,1.735-1.237,1.977c-0.018,0.012-0.036,0.017-0.065,0.019
		c-0.015,0.001-0.034-0.016-0.036-0.035c-0.002-0.026,0.023-0.049,0.04-0.065c0.368-0.256,0.903-0.896,0.848-1.764
		c-0.042-0.651-0.336-0.92-0.619-0.902c-0.265,0.017-0.426,0.264-0.406,0.576c0.036,0.563,0.408,0.672,0.533,0.664
		c0.129-0.008,0.201-0.035,0.247-0.06c0.039-0.025,0.056-0.044,0.071-0.045c0.015-0.001,0.03,0.013,0.031,0.031
		c0.001,0.011-0.009,0.034-0.016,0.042c-0.1,0.121-0.287,0.188-0.475,0.2c-0.53,0.034-0.776-0.353-0.796-0.662
		c-0.032-0.497,0.321-0.881,0.887-0.917C29.767,49.549,30.123,49.97,30.159,50.529"/>
	<path fill="#FFFFFF" d="M31.136,52.238c-0.025,0.005-0.055-0.012-0.061-0.041c-0.006-0.029,0.024-0.068,0.054-0.108
		c0.42-0.544,1.029-1.248,0.881-2.012c-0.111-0.572-0.449-0.626-0.63-0.591c-0.155,0.03-0.269,0.082-0.358,0.205
		c-0.07,0.1-0.103,0.283-0.084,0.377c0.007,0.036,0.003,0.071-0.034,0.078c-0.018,0.004-0.034-0.019-0.046-0.062
		c-0.01-0.032-0.087-0.329-0.107-0.434c-0.006-0.033-0.006-0.048,0.029-0.081c0.127-0.1,0.309-0.203,0.628-0.265
		c0.637-0.124,0.976,0.17,1.058,0.594c0.137,0.701-0.522,1.464-0.916,1.928c-0.015,0.018-0.006,0.028,0.012,0.024l0.246-0.048
		c0.061-0.012,0.488-0.099,0.618-0.143c0.244-0.077,0.339-0.224,0.35-0.402c0.002-0.046,0.01-0.062,0.032-0.066
		c0.025-0.005,0.035,0.027,0.042,0.063c0.011,0.058,0.008,0.408-0.004,0.538c-0.01,0.103-0.066,0.125-0.293,0.17L31.136,52.238z"/>
	<path fill="#FFFFFF" d="M38.37,47.574c0-0.516,0.358-1.233,1.233-1.233c0.695,0,1.233,0.448,1.233,1.166
		c0,0.718-0.493,1.3-1.255,1.3C38.728,48.806,38.37,48.134,38.37,47.574"/>
	<path fill="#FFFFFF" d="M15.181,47.574c0-0.516,0.358-1.233,1.233-1.233c0.695,0,1.233,0.448,1.233,1.166
		c0,0.718-0.493,1.3-1.255,1.3C15.54,48.806,15.181,48.134,15.181,47.574"/>
</g>
<g>
	<path fill="#FFFFFF" d="M2.881,61.462H2.552V58.52H1.469v-0.293h2.495v0.293H2.881V61.462z"/>
	<path fill="#FFFFFF" d="M5.572,61.462c-0.006-0.058-0.011-0.122-0.014-0.192s-0.004-0.128-0.004-0.174H5.545
		c-0.061,0.125-0.16,0.227-0.297,0.304s-0.282,0.116-0.434,0.116c-0.271,0-0.475-0.08-0.61-0.242C4.068,61.113,4,60.9,4,60.635
		v-1.311h0.311v1.183c0,0.113,0.009,0.215,0.028,0.306c0.018,0.091,0.049,0.17,0.094,0.235c0.044,0.065,0.104,0.116,0.178,0.153
		c0.075,0.037,0.168,0.055,0.281,0.055c0.082,0,0.162-0.017,0.24-0.05c0.078-0.034,0.147-0.085,0.208-0.153
		c0.061-0.069,0.11-0.156,0.146-0.261c0.037-0.105,0.055-0.229,0.055-0.372v-1.097h0.311v1.667c0,0.058,0.001,0.133,0.004,0.224
		s0.008,0.173,0.014,0.247H5.572z M4.256,58.507c0-0.061,0.021-0.115,0.064-0.163c0.043-0.047,0.099-0.071,0.169-0.071
		s0.127,0.024,0.169,0.071c0.043,0.048,0.064,0.101,0.064,0.163c0,0.061-0.021,0.115-0.064,0.162
		c-0.043,0.048-0.099,0.071-0.169,0.071s-0.126-0.023-0.169-0.071C4.278,58.622,4.256,58.567,4.256,58.507z M5.133,58.507
		c0-0.061,0.021-0.115,0.064-0.163c0.043-0.047,0.099-0.071,0.169-0.071s0.127,0.024,0.169,0.071
		c0.043,0.048,0.064,0.101,0.064,0.163c0,0.061-0.021,0.115-0.064,0.162c-0.043,0.048-0.099,0.071-0.169,0.071
		s-0.127-0.023-0.169-0.071C5.155,58.622,5.133,58.567,5.133,58.507z"/>
	<path fill="#FFFFFF" d="M6.668,59.571c-0.003-0.091-0.007-0.173-0.014-0.246h0.297c0.006,0.058,0.011,0.122,0.014,0.192
		c0.003,0.07,0.005,0.128,0.005,0.173h0.009c0.061-0.125,0.152-0.226,0.274-0.304c0.122-0.078,0.259-0.116,0.411-0.116
		c0.04,0,0.076,0.001,0.107,0.005c0.032,0.003,0.065,0.009,0.098,0.018l-0.041,0.297c-0.018-0.006-0.049-0.012-0.091-0.018
		c-0.043-0.006-0.085-0.009-0.128-0.009c-0.082,0-0.161,0.015-0.237,0.046c-0.076,0.031-0.143,0.078-0.199,0.144
		c-0.056,0.065-0.102,0.149-0.137,0.25c-0.035,0.102-0.053,0.224-0.053,0.367v1.094H6.673v-1.668
		C6.673,59.737,6.672,59.662,6.668,59.571z"/>
	<path fill="#FFFFFF" d="M8.638,60.288h0.014l0.987-0.964h0.448l-1.078,0.978l1.188,1.161H9.739l-1.087-1.124H8.638v1.124H8.327
		v-3.454h0.311V60.288z"/>
	<path fill="#FFFFFF" d="M11.027,58.502c0,0.064-0.023,0.116-0.069,0.158c-0.046,0.041-0.096,0.061-0.151,0.061
		c-0.055,0-0.105-0.02-0.151-0.061c-0.046-0.042-0.069-0.094-0.069-0.158c0-0.064,0.023-0.116,0.069-0.158
		c0.046-0.041,0.096-0.061,0.151-0.061c0.055,0,0.105,0.02,0.151,0.061C11.004,58.385,11.027,58.438,11.027,58.502z M10.963,61.462
		h-0.311v-2.138h0.311V61.462z"/>
	<path fill="#FFFFFF" d="M12.525,61.128h0.009l0.663-1.804h0.338l-1.065,2.691c-0.064,0.165-0.146,0.297-0.244,0.395
		c-0.099,0.099-0.242,0.149-0.427,0.149c-0.095,0-0.187-0.01-0.279-0.028l0.032-0.283c0.073,0.024,0.149,0.037,0.229,0.037
		c0.106,0,0.19-0.033,0.251-0.099c0.061-0.065,0.114-0.159,0.16-0.281l0.173-0.448l-0.914-2.133h0.347L12.525,61.128z"/>
	<path fill="#FFFFFF" d="M15.966,60.329c0,0.022,0,0.044,0,0.069s-0.002,0.05-0.005,0.078h-1.772
		c0.003,0.107,0.024,0.207,0.064,0.301c0.039,0.095,0.094,0.177,0.164,0.247c0.07,0.07,0.152,0.126,0.247,0.167
		c0.094,0.041,0.196,0.062,0.306,0.062c0.161,0,0.301-0.037,0.418-0.112c0.117-0.074,0.206-0.161,0.267-0.258l0.233,0.182
		c-0.128,0.162-0.269,0.278-0.422,0.348c-0.154,0.07-0.319,0.105-0.496,0.105c-0.159,0-0.305-0.028-0.441-0.084
		c-0.135-0.056-0.252-0.135-0.349-0.235c-0.098-0.101-0.174-0.219-0.231-0.356c-0.056-0.137-0.085-0.286-0.085-0.448
		c0-0.161,0.028-0.31,0.082-0.448c0.055-0.137,0.131-0.256,0.229-0.356c0.097-0.1,0.212-0.179,0.343-0.235
		c0.131-0.056,0.272-0.084,0.425-0.084c0.167,0,0.315,0.029,0.443,0.084c0.128,0.056,0.234,0.133,0.32,0.229
		c0.085,0.096,0.15,0.208,0.194,0.336C15.944,60.046,15.966,60.183,15.966,60.329z M15.65,60.228
		c-0.009-0.201-0.074-0.367-0.194-0.5c-0.12-0.133-0.292-0.199-0.514-0.199c-0.103,0-0.2,0.019-0.288,0.057
		c-0.088,0.038-0.166,0.09-0.233,0.155c-0.067,0.066-0.12,0.14-0.16,0.224c-0.04,0.084-0.063,0.171-0.069,0.263H15.65z"/>
	<path fill="#FFFFFF" d="M16.674,59.301h-0.261l0.306-1.073h0.324L16.674,59.301z"/>
	<path fill="#FFFFFF" d="M17.926,59.324c0.006,0.058,0.011,0.122,0.014,0.192c0.003,0.07,0.005,0.128,0.005,0.173h0.009
		c0.061-0.125,0.16-0.226,0.297-0.304c0.137-0.078,0.282-0.116,0.434-0.116c0.271,0,0.474,0.081,0.61,0.242
		c0.135,0.161,0.203,0.375,0.203,0.639v1.312h-0.311v-1.184c0-0.112-0.009-0.214-0.027-0.306c-0.018-0.091-0.05-0.169-0.094-0.235
		c-0.044-0.066-0.103-0.117-0.178-0.153c-0.075-0.037-0.168-0.055-0.281-0.055c-0.082,0-0.162,0.017-0.24,0.05
		c-0.078,0.033-0.147,0.084-0.208,0.153c-0.061,0.069-0.11,0.155-0.146,0.261c-0.036,0.105-0.055,0.229-0.055,0.372v1.097h-0.311
		v-1.668c0-0.058-0.002-0.132-0.005-0.224c-0.003-0.091-0.007-0.173-0.014-0.246H17.926z"/>
	<path fill="#FFFFFF" d="M20.68,58.502c0,0.064-0.023,0.116-0.069,0.158c-0.046,0.041-0.096,0.061-0.151,0.061
		c-0.055,0-0.105-0.02-0.151-0.061c-0.046-0.042-0.069-0.094-0.069-0.158c0-0.064,0.023-0.116,0.069-0.158
		c0.046-0.041,0.096-0.061,0.151-0.061c0.055,0,0.105,0.02,0.151,0.061C20.658,58.385,20.68,58.438,20.68,58.502z M20.616,61.462
		h-0.311v-2.138h0.311V61.462z"/>
	<path fill="#FFFFFF" d="M21.722,59.324c0.006,0.058,0.011,0.122,0.014,0.192c0.003,0.07,0.005,0.128,0.005,0.173h0.009
		c0.061-0.125,0.16-0.226,0.297-0.304c0.137-0.078,0.282-0.116,0.434-0.116c0.271,0,0.474,0.081,0.61,0.242
		c0.135,0.161,0.203,0.375,0.203,0.639v1.312h-0.311v-1.184c0-0.112-0.009-0.214-0.027-0.306c-0.018-0.091-0.05-0.169-0.094-0.235
		c-0.044-0.066-0.103-0.117-0.178-0.153c-0.075-0.037-0.168-0.055-0.281-0.055c-0.082,0-0.162,0.017-0.24,0.05
		c-0.078,0.033-0.147,0.084-0.208,0.153s-0.11,0.155-0.146,0.261c-0.036,0.105-0.055,0.229-0.055,0.372v1.097h-0.311v-1.668
		c0-0.058-0.002-0.132-0.005-0.224c-0.003-0.091-0.007-0.173-0.014-0.246H21.722z"/>
	<path fill="#FFFFFF" d="M26.186,61.462h-0.329V58.52h-1.083v-0.293h2.495v0.293h-1.083V61.462z"/>
	<path fill="#FFFFFF" d="M29.242,60.329c0,0.022,0,0.044,0,0.069s-0.002,0.05-0.005,0.078h-1.772
		c0.003,0.107,0.024,0.207,0.064,0.301c0.039,0.095,0.094,0.177,0.164,0.247c0.07,0.07,0.152,0.126,0.247,0.167
		c0.094,0.041,0.196,0.062,0.306,0.062c0.161,0,0.301-0.037,0.418-0.112c0.117-0.074,0.206-0.161,0.267-0.258l0.233,0.182
		c-0.128,0.162-0.269,0.278-0.422,0.348c-0.154,0.07-0.319,0.105-0.496,0.105c-0.159,0-0.305-0.028-0.441-0.084
		c-0.135-0.056-0.252-0.135-0.349-0.235c-0.098-0.101-0.174-0.219-0.231-0.356c-0.056-0.137-0.085-0.286-0.085-0.448
		c0-0.161,0.028-0.31,0.082-0.448c0.055-0.137,0.131-0.256,0.229-0.356c0.097-0.1,0.212-0.179,0.343-0.235
		c0.131-0.056,0.272-0.084,0.425-0.084c0.167,0,0.315,0.029,0.443,0.084c0.128,0.056,0.234,0.133,0.32,0.229s0.15,0.208,0.194,0.336
		C29.22,60.046,29.242,60.183,29.242,60.329z M28.927,60.228c-0.009-0.201-0.074-0.367-0.194-0.5s-0.292-0.199-0.514-0.199
		c-0.103,0-0.2,0.019-0.288,0.057c-0.088,0.038-0.166,0.09-0.233,0.155c-0.067,0.066-0.12,0.14-0.16,0.224
		c-0.04,0.084-0.063,0.171-0.069,0.263H28.927z"/>
	<path fill="#FFFFFF" d="M30.229,60.288h0.014l0.987-0.964h0.448l-1.078,0.978l1.188,1.161H31.33l-1.087-1.124h-0.014v1.124h-0.311
		v-3.454h0.311V60.288z"/>
	<path fill="#FFFFFF" d="M32.518,59.324c0.006,0.058,0.011,0.122,0.014,0.192c0.003,0.07,0.005,0.128,0.005,0.173h0.009
		c0.061-0.125,0.16-0.226,0.297-0.304c0.137-0.078,0.282-0.116,0.434-0.116c0.271,0,0.474,0.081,0.61,0.242
		c0.135,0.161,0.203,0.375,0.203,0.639v1.312h-0.311v-1.184c0-0.112-0.009-0.214-0.027-0.306c-0.018-0.091-0.05-0.169-0.094-0.235
		c-0.044-0.066-0.103-0.117-0.178-0.153c-0.075-0.037-0.168-0.055-0.281-0.055c-0.082,0-0.162,0.017-0.24,0.05
		c-0.078,0.033-0.147,0.084-0.208,0.153s-0.11,0.155-0.146,0.261c-0.036,0.105-0.055,0.229-0.055,0.372v1.097h-0.311v-1.668
		c0-0.058-0.002-0.132-0.005-0.224c-0.003-0.091-0.007-0.173-0.014-0.246H32.518z"/>
	<path fill="#FFFFFF" d="M37.018,60.393c0,0.162-0.028,0.311-0.085,0.448c-0.056,0.137-0.135,0.256-0.235,0.356
		c-0.1,0.101-0.221,0.179-0.361,0.235c-0.14,0.056-0.294,0.084-0.461,0.084c-0.165,0-0.317-0.028-0.457-0.084
		c-0.14-0.056-0.26-0.135-0.361-0.235c-0.1-0.101-0.179-0.219-0.235-0.356c-0.056-0.137-0.085-0.286-0.085-0.448
		c0-0.161,0.028-0.31,0.085-0.448c0.056-0.137,0.135-0.256,0.235-0.356c0.101-0.1,0.221-0.179,0.361-0.235
		c0.14-0.056,0.293-0.084,0.457-0.084c0.167,0,0.321,0.029,0.461,0.084c0.14,0.056,0.261,0.135,0.361,0.235
		c0.101,0.101,0.179,0.22,0.235,0.356C36.99,60.083,37.018,60.232,37.018,60.393z M36.689,60.393c0-0.118-0.019-0.231-0.057-0.335
		c-0.038-0.105-0.092-0.197-0.162-0.274c-0.07-0.078-0.155-0.139-0.256-0.185c-0.101-0.046-0.213-0.069-0.338-0.069
		c-0.125,0-0.237,0.023-0.336,0.069c-0.099,0.046-0.183,0.107-0.253,0.185c-0.07,0.078-0.124,0.169-0.162,0.274
		c-0.038,0.105-0.057,0.217-0.057,0.335c0,0.119,0.019,0.231,0.057,0.336c0.038,0.105,0.092,0.197,0.162,0.274
		c0.07,0.078,0.154,0.139,0.253,0.182c0.099,0.044,0.211,0.067,0.336,0.067c0.125,0,0.237-0.022,0.338-0.067
		c0.1-0.044,0.186-0.105,0.256-0.182c0.07-0.078,0.124-0.169,0.162-0.274C36.67,60.624,36.689,60.512,36.689,60.393z"/>
	<path fill="#FFFFFF" d="M38.005,61.462h-0.311v-3.454h0.311V61.462z"/>
	<path fill="#FFFFFF" d="M40.961,60.393c0,0.162-0.028,0.311-0.085,0.448c-0.056,0.137-0.135,0.256-0.235,0.356
		c-0.1,0.101-0.221,0.179-0.361,0.235c-0.14,0.056-0.294,0.084-0.461,0.084c-0.165,0-0.317-0.028-0.457-0.084
		c-0.14-0.056-0.26-0.135-0.361-0.235c-0.1-0.101-0.179-0.219-0.235-0.356c-0.056-0.137-0.085-0.286-0.085-0.448
		c0-0.161,0.028-0.31,0.085-0.448c0.056-0.137,0.135-0.256,0.235-0.356c0.101-0.1,0.221-0.179,0.361-0.235
		c0.14-0.056,0.293-0.084,0.457-0.084c0.167,0,0.321,0.029,0.461,0.084c0.14,0.056,0.261,0.135,0.361,0.235
		c0.101,0.101,0.179,0.22,0.235,0.356C40.933,60.083,40.961,60.232,40.961,60.393z M40.632,60.393c0-0.118-0.019-0.231-0.057-0.335
		c-0.038-0.105-0.092-0.197-0.162-0.274s-0.155-0.139-0.256-0.185c-0.101-0.046-0.213-0.069-0.338-0.069
		c-0.125,0-0.237,0.023-0.336,0.069c-0.099,0.046-0.183,0.107-0.253,0.185c-0.07,0.078-0.124,0.169-0.162,0.274
		c-0.038,0.105-0.057,0.217-0.057,0.335c0,0.119,0.019,0.231,0.057,0.336c0.038,0.105,0.092,0.197,0.162,0.274
		c0.07,0.078,0.154,0.139,0.253,0.182c0.099,0.044,0.211,0.067,0.336,0.067c0.125,0,0.237-0.022,0.338-0.067
		c0.1-0.044,0.186-0.105,0.256-0.182s0.124-0.169,0.162-0.274C40.612,60.624,40.632,60.512,40.632,60.393z"/>
	<path fill="#FFFFFF" d="M41.139,62.267c0.03,0.009,0.063,0.016,0.098,0.02c0.035,0.005,0.068,0.007,0.098,0.007
		c0.064,0,0.116-0.012,0.155-0.034c0.039-0.023,0.07-0.054,0.091-0.094c0.021-0.039,0.036-0.088,0.043-0.144
		c0.007-0.056,0.012-0.118,0.012-0.185v-2.512h0.311v2.563c0,0.086-0.009,0.169-0.028,0.249c-0.018,0.081-0.05,0.152-0.096,0.215
		c-0.046,0.063-0.107,0.113-0.185,0.151c-0.078,0.038-0.177,0.057-0.299,0.057c-0.034,0-0.073-0.003-0.119-0.007
		c-0.046-0.004-0.088-0.013-0.128-0.024L41.139,62.267z M42.011,58.502c0,0.064-0.023,0.116-0.068,0.158
		c-0.046,0.041-0.096,0.061-0.151,0.061c-0.055,0-0.105-0.02-0.151-0.061c-0.046-0.042-0.068-0.094-0.068-0.158
		c0-0.064,0.023-0.116,0.068-0.158c0.046-0.041,0.096-0.061,0.151-0.061c0.055,0,0.105,0.02,0.151,0.061
		C41.988,58.385,42.011,58.438,42.011,58.502z"/>
	<path fill="#FFFFFF" d="M43.154,58.502c0,0.064-0.023,0.116-0.069,0.158c-0.046,0.041-0.096,0.061-0.151,0.061
		c-0.055,0-0.105-0.02-0.151-0.061c-0.046-0.042-0.069-0.094-0.069-0.158c0-0.064,0.023-0.116,0.069-0.158
		c0.046-0.041,0.096-0.061,0.151-0.061c0.055,0,0.105,0.02,0.151,0.061C43.131,58.385,43.154,58.438,43.154,58.502z M43.09,61.462
		h-0.311v-2.138h0.311V61.462z"/>
	<path fill="#FFFFFF" d="M46.269,61.545c-0.244,0-0.443-0.042-0.598-0.126c-0.155-0.084-0.279-0.19-0.37-0.318
		c-0.091-0.128-0.155-0.267-0.19-0.418c-0.035-0.151-0.052-0.293-0.052-0.427v-2.029h0.329v1.992c0,0.131,0.015,0.258,0.046,0.382
		c0.031,0.123,0.08,0.233,0.149,0.329c0.068,0.096,0.159,0.174,0.272,0.233s0.251,0.089,0.416,0.089c0.165,0,0.303-0.03,0.416-0.089
		c0.113-0.059,0.203-0.137,0.272-0.233c0.068-0.096,0.118-0.205,0.148-0.329c0.031-0.124,0.046-0.25,0.046-0.382v-1.992h0.329v2.029
		c0,0.134-0.018,0.276-0.053,0.427c-0.035,0.15-0.098,0.29-0.189,0.418c-0.091,0.128-0.216,0.234-0.372,0.318
		S46.51,61.545,46.269,61.545z M45.602,57.592c0-0.061,0.021-0.114,0.064-0.162c0.043-0.047,0.099-0.071,0.169-0.071
		s0.127,0.024,0.169,0.071c0.043,0.048,0.064,0.101,0.064,0.162c0,0.061-0.021,0.116-0.064,0.163s-0.099,0.071-0.169,0.071
		s-0.126-0.024-0.169-0.071C45.623,57.708,45.602,57.653,45.602,57.592z M46.479,57.592c0-0.061,0.021-0.114,0.064-0.162
		c0.043-0.047,0.099-0.071,0.169-0.071c0.07,0,0.127,0.024,0.169,0.071c0.043,0.048,0.064,0.101,0.064,0.162
		c0,0.061-0.021,0.116-0.064,0.163s-0.099,0.071-0.169,0.071c-0.07,0-0.127-0.024-0.169-0.071S46.479,57.653,46.479,57.592z"/>
	<path fill="#FFFFFF" d="M49.44,59.831c-0.046-0.088-0.115-0.161-0.208-0.217c-0.093-0.056-0.199-0.084-0.317-0.084
		c-0.055,0-0.11,0.006-0.165,0.018c-0.055,0.012-0.103,0.032-0.146,0.059c-0.043,0.027-0.077,0.063-0.103,0.105
		c-0.026,0.042-0.039,0.093-0.039,0.15c0,0.101,0.041,0.178,0.123,0.231c0.082,0.054,0.212,0.099,0.388,0.135
		c0.253,0.052,0.439,0.127,0.56,0.227c0.12,0.099,0.18,0.232,0.18,0.4c0,0.122-0.023,0.224-0.071,0.308
		c-0.047,0.084-0.109,0.152-0.185,0.205c-0.076,0.053-0.162,0.091-0.258,0.114s-0.193,0.034-0.29,0.034
		c-0.161,0-0.318-0.033-0.47-0.1c-0.152-0.067-0.277-0.172-0.375-0.316l0.247-0.182c0.055,0.094,0.135,0.173,0.242,0.237
		c0.106,0.064,0.224,0.096,0.352,0.096c0.067,0,0.131-0.006,0.192-0.018s0.114-0.033,0.16-0.064c0.046-0.031,0.082-0.069,0.11-0.116
		c0.028-0.048,0.041-0.106,0.041-0.176c0-0.112-0.054-0.197-0.162-0.254c-0.108-0.056-0.264-0.109-0.468-0.157
		c-0.064-0.016-0.132-0.035-0.203-0.057c-0.071-0.023-0.138-0.056-0.199-0.101c-0.061-0.044-0.111-0.1-0.151-0.167
		c-0.04-0.067-0.06-0.151-0.06-0.251c0-0.11,0.021-0.203,0.064-0.282c0.043-0.078,0.1-0.141,0.171-0.192
		c0.071-0.05,0.153-0.087,0.244-0.112c0.091-0.024,0.186-0.037,0.283-0.037c0.149,0,0.294,0.033,0.434,0.101
		c0.14,0.067,0.245,0.161,0.315,0.283L49.44,59.831z"/>
	<path fill="#FFFFFF" d="M51.468,59.831c-0.046-0.088-0.115-0.161-0.208-0.217c-0.093-0.056-0.199-0.084-0.317-0.084
		c-0.055,0-0.11,0.006-0.165,0.018s-0.103,0.032-0.146,0.059c-0.043,0.027-0.077,0.063-0.103,0.105
		c-0.026,0.042-0.039,0.093-0.039,0.15c0,0.101,0.041,0.178,0.123,0.231c0.082,0.054,0.212,0.099,0.388,0.135
		c0.253,0.052,0.439,0.127,0.56,0.227c0.12,0.099,0.18,0.232,0.18,0.4c0,0.122-0.023,0.224-0.071,0.308s-0.109,0.152-0.185,0.205
		c-0.076,0.053-0.162,0.091-0.258,0.114s-0.193,0.034-0.29,0.034c-0.161,0-0.318-0.033-0.47-0.1
		c-0.152-0.067-0.277-0.172-0.375-0.316l0.247-0.182c0.055,0.094,0.135,0.173,0.242,0.237c0.106,0.064,0.224,0.096,0.352,0.096
		c0.067,0,0.131-0.006,0.192-0.018c0.061-0.012,0.114-0.033,0.16-0.064c0.046-0.031,0.082-0.069,0.11-0.116
		c0.028-0.048,0.041-0.106,0.041-0.176c0-0.112-0.054-0.197-0.162-0.254c-0.108-0.056-0.264-0.109-0.468-0.157
		c-0.064-0.016-0.132-0.035-0.203-0.057c-0.071-0.023-0.138-0.056-0.199-0.101c-0.061-0.044-0.111-0.1-0.151-0.167
		c-0.04-0.067-0.06-0.151-0.06-0.251c0-0.11,0.021-0.203,0.064-0.282c0.043-0.078,0.1-0.141,0.171-0.192
		c0.071-0.05,0.153-0.087,0.244-0.112c0.091-0.024,0.186-0.037,0.283-0.037c0.149,0,0.294,0.033,0.434,0.101
		c0.14,0.067,0.245,0.161,0.315,0.283L51.468,59.831z"/>
	<path fill="#FFFFFF" d="M53.913,61.462c-0.006-0.058-0.011-0.122-0.014-0.192c-0.003-0.07-0.004-0.128-0.004-0.174h-0.009
		c-0.061,0.125-0.16,0.227-0.297,0.304s-0.282,0.116-0.434,0.116c-0.271,0-0.475-0.08-0.61-0.242
		c-0.136-0.161-0.203-0.374-0.203-0.639v-1.311h0.311v1.183c0,0.113,0.009,0.215,0.028,0.306c0.018,0.091,0.049,0.17,0.094,0.235
		s0.104,0.116,0.178,0.153c0.075,0.037,0.168,0.055,0.281,0.055c0.082,0,0.162-0.017,0.24-0.05c0.078-0.034,0.147-0.085,0.208-0.153
		c0.061-0.069,0.11-0.156,0.146-0.261c0.037-0.105,0.055-0.229,0.055-0.372v-1.097h0.311v1.667c0,0.058,0.001,0.133,0.004,0.224
		c0.003,0.091,0.008,0.173,0.014,0.247H53.913z M52.597,58.507c0-0.061,0.021-0.115,0.064-0.163
		c0.043-0.047,0.099-0.071,0.169-0.071s0.127,0.024,0.169,0.071c0.043,0.048,0.064,0.101,0.064,0.163
		c0,0.061-0.021,0.115-0.064,0.162c-0.043,0.048-0.099,0.071-0.169,0.071s-0.126-0.023-0.169-0.071
		C52.618,58.622,52.597,58.567,52.597,58.507z M53.474,58.507c0-0.061,0.021-0.115,0.064-0.163c0.043-0.047,0.099-0.071,0.169-0.071
		c0.07,0,0.127,0.024,0.169,0.071c0.043,0.048,0.064,0.101,0.064,0.163c0,0.061-0.021,0.115-0.064,0.162
		c-0.043,0.048-0.099,0.071-0.169,0.071c-0.07,0-0.127-0.023-0.169-0.071C53.495,58.622,53.474,58.567,53.474,58.507z"/>
</g>
<g>
	<path fill="#FFFFFF" d="M64.301,13.227c0-1.746,0-2.068-0.023-2.436c-0.023-0.391-0.138-0.586-0.391-0.644
		c-0.127-0.034-0.276-0.046-0.414-0.046c-0.115,0-0.184-0.023-0.184-0.115c0-0.069,0.092-0.092,0.276-0.092
		c0.437,0,1.161,0.034,1.494,0.034c0.287,0,0.965-0.034,1.402-0.034c0.149,0,0.241,0.023,0.241,0.092
		c0,0.092-0.069,0.115-0.184,0.115s-0.207,0.012-0.345,0.034c-0.31,0.057-0.402,0.253-0.425,0.655
		c-0.023,0.368-0.023,0.689-0.023,2.436v2.022c0,1.115,0,2.022,0.046,2.516c0.034,0.31,0.115,0.517,0.46,0.563
		c0.161,0.023,0.414,0.046,0.586,0.046c0.127,0,0.184,0.035,0.184,0.092c0,0.08-0.092,0.115-0.218,0.115
		c-0.759,0-1.482-0.034-1.793-0.034c-0.264,0-0.988,0.034-1.448,0.034c-0.15,0-0.23-0.034-0.23-0.115
		c0-0.057,0.046-0.092,0.184-0.092c0.172,0,0.311-0.023,0.414-0.046c0.23-0.046,0.299-0.241,0.333-0.575
		c0.057-0.483,0.057-1.39,0.057-2.505V13.227z M64.37,8.367c0-0.287,0.184-0.667,0.644-0.667c0.368,0,0.655,0.242,0.655,0.621
		c0,0.379-0.264,0.689-0.655,0.689C64.554,9.01,64.37,8.654,64.37,8.367z"/>
	<path fill="#FFFFFF" d="M72.988,17.915c1.172,0,1.62-0.287,1.804-0.632c0.103-0.184,0.172-0.39,0.207-0.551
		c0.023-0.115,0.046-0.184,0.115-0.184c0.092,0,0.115,0.081,0.115,0.356c0,0.368-0.149,1.115-0.23,1.402
		c-0.057,0.207-0.138,0.299-0.345,0.299c-1.919,0-3.849-0.057-6.171-0.057c-0.126,0-0.195-0.034-0.195-0.115
		c0-0.08,0.034-0.138,0.172-0.345c1.62-2.528,3.321-5.125,4.86-7.55h-2.252c-0.586,0-1.287,0.035-1.654,0.242
		c-0.379,0.207-0.586,0.632-0.621,0.896c-0.023,0.161-0.069,0.207-0.138,0.207c-0.08,0-0.092-0.057-0.092-0.195
		c0-0.264,0.172-1.31,0.23-1.655c0.023-0.161,0.069-0.218,0.138-0.218c0.103,0,0.172,0.069,0.46,0.081
		c1.092,0.046,1.643,0.034,2.114,0.034h3.505c0.115,0,0.195,0.034,0.195,0.092c0,0.069-0.046,0.138-0.092,0.218
		c-1.586,2.574-3.332,5.205-4.953,7.676H72.988z"/>
	<path fill="#FFFFFF" d="M78.077,9.941c0.034-0.195,0.103-0.299,0.195-0.299c0.092,0,0.161,0.057,0.31,0.356l3.137,6.48l3.125-6.561
		c0.092-0.184,0.149-0.276,0.253-0.276c0.103,0,0.172,0.115,0.207,0.356l1.046,7.101c0.103,0.724,0.218,1.057,0.563,1.16
		c0.333,0.104,0.563,0.115,0.712,0.115c0.103,0,0.184,0.012,0.184,0.081c0,0.092-0.138,0.126-0.299,0.126
		c-0.287,0-1.873-0.034-2.332-0.069c-0.264-0.023-0.333-0.057-0.333-0.127c0-0.057,0.046-0.092,0.127-0.127
		c0.069-0.023,0.103-0.172,0.057-0.494L84.34,12.71h-0.046l-2.505,5.217c-0.264,0.54-0.321,0.644-0.425,0.644
		c-0.103,0-0.218-0.23-0.402-0.575c-0.276-0.528-1.183-2.286-1.321-2.608c-0.103-0.241-0.793-1.689-1.195-2.551h-0.046l-0.598,4.573
		c-0.023,0.207-0.034,0.356-0.034,0.54c0,0.218,0.149,0.322,0.345,0.368c0.207,0.046,0.368,0.057,0.483,0.057
		c0.092,0,0.172,0.023,0.172,0.081c0,0.103-0.103,0.126-0.276,0.126c-0.483,0-1-0.034-1.206-0.034c-0.218,0-0.77,0.034-1.137,0.034
		c-0.115,0-0.207-0.023-0.207-0.126c0-0.057,0.069-0.081,0.184-0.081c0.092,0,0.172,0,0.345-0.034
		c0.322-0.069,0.414-0.517,0.471-0.908L78.077,9.941z"/>
	<path fill="#FFFFFF" d="M89.636,13.227c0-1.746,0-2.068-0.023-2.436c-0.023-0.391-0.138-0.586-0.391-0.644
		c-0.127-0.034-0.276-0.046-0.414-0.046c-0.115,0-0.184-0.023-0.184-0.115c0-0.069,0.092-0.092,0.276-0.092
		c0.437,0,1.161,0.034,1.494,0.034c0.287,0,0.965-0.034,1.402-0.034c0.149,0,0.241,0.023,0.241,0.092
		c0,0.092-0.069,0.115-0.184,0.115c-0.115,0-0.207,0.012-0.345,0.034c-0.31,0.057-0.402,0.253-0.425,0.655
		c-0.023,0.368-0.023,0.689-0.023,2.436v2.022c0,1.115,0,2.022,0.046,2.516c0.034,0.31,0.115,0.517,0.46,0.563
		c0.161,0.023,0.414,0.046,0.586,0.046c0.127,0,0.184,0.035,0.184,0.092c0,0.08-0.092,0.115-0.218,0.115
		c-0.759,0-1.482-0.034-1.793-0.034c-0.264,0-0.988,0.034-1.448,0.034c-0.15,0-0.23-0.034-0.23-0.115
		c0-0.057,0.046-0.092,0.184-0.092c0.172,0,0.311-0.023,0.414-0.046c0.23-0.046,0.299-0.241,0.333-0.575
		c0.057-0.483,0.057-1.39,0.057-2.505V13.227z M89.706,8.367c0-0.287,0.184-0.667,0.644-0.667c0.368,0,0.655,0.242,0.655,0.621
		c0,0.379-0.264,0.689-0.655,0.689C89.889,9.01,89.706,8.654,89.706,8.367z"/>
	<path fill="#FFFFFF" d="M94.83,13.227c0-1.746,0-2.068-0.023-2.436c-0.023-0.391-0.115-0.575-0.494-0.655
		c-0.092-0.023-0.287-0.034-0.448-0.034c-0.126,0-0.195-0.023-0.195-0.103c0-0.081,0.081-0.103,0.253-0.103
		c0.609,0,1.333,0.034,1.574,0.034c0.391,0,1.264-0.034,1.62-0.034c0.724,0,1.494,0.069,2.114,0.494
		c0.322,0.218,0.782,0.804,0.782,1.574c0,0.85-0.356,1.632-1.517,2.574c1.023,1.287,1.816,2.31,2.494,3.022
		c0.644,0.666,1.114,0.747,1.286,0.781c0.127,0.023,0.23,0.034,0.322,0.034c0.092,0,0.138,0.035,0.138,0.092
		c0,0.092-0.081,0.115-0.218,0.115h-1.091c-0.644,0-0.931-0.057-1.23-0.218c-0.494-0.264-0.931-0.804-1.574-1.689
		c-0.46-0.632-0.988-1.413-1.137-1.586c-0.057-0.069-0.127-0.081-0.207-0.081l-1-0.023c-0.057,0-0.092,0.023-0.092,0.092v0.161
		c0,1.069,0,1.976,0.057,2.459c0.035,0.333,0.103,0.586,0.448,0.632c0.172,0.023,0.425,0.046,0.563,0.046
		c0.092,0,0.138,0.035,0.138,0.092c0,0.08-0.08,0.115-0.23,0.115c-0.667,0-1.517-0.034-1.689-0.034
		c-0.218,0-0.942,0.034-1.402,0.034c-0.15,0-0.23-0.034-0.23-0.115c0-0.057,0.046-0.092,0.184-0.092
		c0.172,0,0.311-0.023,0.414-0.046c0.23-0.046,0.287-0.299,0.333-0.632c0.057-0.483,0.057-1.39,0.057-2.447V13.227z M96.186,14.135
		c0,0.127,0.023,0.172,0.103,0.207c0.242,0.081,0.586,0.115,0.873,0.115c0.46,0,0.609-0.046,0.816-0.195
		c0.345-0.253,0.678-0.782,0.678-1.724c0-1.632-1.08-2.103-1.758-2.103c-0.287,0-0.494,0.012-0.609,0.046
		c-0.08,0.023-0.103,0.069-0.103,0.161V14.135z"/>
	<path fill="#FFFFFF" d="M65.588,29.394c0-0.62-0.115-0.873-0.264-1.206c-0.081-0.184-1.62-2.712-2.022-3.309
		c-0.287-0.425-0.575-0.712-0.793-0.839c-0.149-0.081-0.345-0.149-0.483-0.149c-0.092,0-0.172-0.023-0.172-0.103
		c0-0.069,0.08-0.103,0.218-0.103c0.207,0,1.068,0.034,1.448,0.034c0.241,0,0.712-0.034,1.23-0.034c0.115,0,0.172,0.034,0.172,0.103
		c0,0.069-0.08,0.08-0.253,0.126c-0.103,0.023-0.161,0.115-0.161,0.207c0,0.092,0.057,0.23,0.138,0.391
		c0.161,0.345,1.769,3.114,1.953,3.436c0.115-0.276,1.563-2.804,1.724-3.16c0.115-0.253,0.161-0.448,0.161-0.598
		c0-0.115-0.046-0.241-0.241-0.287c-0.103-0.023-0.207-0.046-0.207-0.115c0-0.081,0.057-0.103,0.195-0.103
		c0.379,0,0.747,0.034,1.08,0.034c0.253,0,1.011-0.034,1.229-0.034c0.127,0,0.207,0.023,0.207,0.092c0,0.08-0.092,0.115-0.218,0.115
		c-0.115,0-0.333,0.046-0.506,0.138c-0.241,0.115-0.368,0.253-0.62,0.563c-0.379,0.46-1.988,3.16-2.195,3.654
		c-0.172,0.414-0.172,0.77-0.172,1.149v0.942c0,0.184,0,0.666,0.034,1.149c0.023,0.333,0.127,0.586,0.471,0.632
		c0.161,0.023,0.414,0.046,0.575,0.046c0.126,0,0.184,0.035,0.184,0.092c0,0.08-0.092,0.115-0.241,0.115
		c-0.724,0-1.448-0.034-1.758-0.034c-0.287,0-1.011,0.034-1.436,0.034c-0.161,0-0.253-0.023-0.253-0.115
		c0-0.057,0.057-0.092,0.184-0.092c0.161,0,0.299-0.023,0.402-0.046c0.23-0.046,0.333-0.299,0.356-0.632
		c0.035-0.483,0.035-0.965,0.035-1.149V29.394z"/>
	<path fill="#FFFFFF" d="M71.505,27.015c0-1.746,0-2.068-0.023-2.436c-0.023-0.391-0.115-0.575-0.494-0.655
		c-0.092-0.023-0.287-0.034-0.448-0.034c-0.127,0-0.195-0.023-0.195-0.103c0-0.081,0.08-0.103,0.253-0.103
		c0.609,0,1.333,0.034,1.678,0.034c0.276,0,1-0.034,1.413-0.034c0.172,0,0.253,0.023,0.253,0.103c0,0.08-0.069,0.103-0.184,0.103
		c-0.127,0-0.196,0.012-0.333,0.034c-0.31,0.057-0.402,0.253-0.425,0.655c-0.023,0.368-0.023,0.689-0.023,2.436v1.609
		c0,1.666,0.333,2.367,0.896,2.827c0.517,0.425,1.046,0.471,1.436,0.471c0.505,0,1.126-0.161,1.586-0.62
		c0.632-0.632,0.666-1.666,0.666-2.85v-1.436c0-1.746,0-2.068-0.023-2.436c-0.023-0.391-0.115-0.575-0.494-0.655
		c-0.092-0.023-0.287-0.034-0.414-0.034s-0.195-0.023-0.195-0.103c0-0.081,0.08-0.103,0.241-0.103c0.586,0,1.31,0.034,1.321,0.034
		c0.138,0,0.862-0.034,1.31-0.034c0.161,0,0.241,0.023,0.241,0.103c0,0.08-0.069,0.103-0.207,0.103
		c-0.126,0-0.195,0.012-0.333,0.034c-0.31,0.057-0.402,0.253-0.425,0.655c-0.023,0.368-0.023,0.689-0.023,2.436v1.23
		c0,1.276-0.126,2.631-1.092,3.459c-0.816,0.701-1.643,0.827-2.39,0.827c-0.609,0-1.712-0.034-2.551-0.793
		c-0.586-0.529-1.022-1.379-1.022-3.045V27.015z M73.493,22.258c0-0.218,0.161-0.529,0.529-0.529c0.299,0,0.54,0.184,0.54,0.494
		c0,0.322-0.218,0.575-0.551,0.575C73.643,22.798,73.493,22.499,73.493,22.258z M75.918,22.258c0-0.23,0.161-0.54,0.528-0.54
		c0.299,0,0.54,0.184,0.54,0.505c0,0.322-0.218,0.575-0.551,0.575C76.067,22.798,75.918,22.499,75.918,22.258z"/>
	<path fill="#FFFFFF" d="M83.19,27.521h0.057c0.391-0.425,2.068-2.137,2.402-2.528c0.322-0.379,0.575-0.667,0.575-0.862
		c0-0.126-0.046-0.207-0.161-0.23c-0.103-0.023-0.149-0.046-0.149-0.115c0-0.081,0.057-0.103,0.184-0.103
		c0.241,0,0.873,0.034,1.184,0.034c0.356,0,0.988-0.034,1.344-0.034c0.115,0,0.195,0.023,0.195,0.103
		c0,0.08-0.057,0.103-0.172,0.103c-0.161,0-0.448,0.046-0.667,0.126c-0.356,0.138-0.747,0.379-1.241,0.862
		c-0.356,0.345-2.091,2.068-2.482,2.482c0.414,0.54,2.666,2.964,3.114,3.39c0.505,0.483,1.022,1,1.643,1.241
		c0.345,0.138,0.575,0.172,0.712,0.172c0.08,0,0.149,0.023,0.149,0.092c0,0.08-0.057,0.115-0.276,0.115h-1
		c-0.345,0-0.551,0-0.793-0.023c-0.62-0.057-0.931-0.31-1.425-0.747c-0.506-0.448-2.769-3.102-3.011-3.436l-0.127-0.172H83.19v1.046
		c0,1.057,0,1.965,0.035,2.459c0.023,0.322,0.126,0.575,0.414,0.62c0.161,0.023,0.414,0.046,0.563,0.046
		c0.092,0,0.149,0.035,0.149,0.092c0,0.08-0.092,0.115-0.218,0.115c-0.643,0-1.367-0.034-1.654-0.034
		c-0.264,0-0.988,0.034-1.448,0.034c-0.15,0-0.23-0.034-0.23-0.115c0-0.057,0.046-0.092,0.184-0.092
		c0.172,0,0.311-0.023,0.414-0.046c0.23-0.046,0.287-0.299,0.333-0.632c0.057-0.483,0.057-1.39,0.057-2.447v-2.022
		c0-1.746,0-2.068-0.023-2.436c-0.023-0.391-0.115-0.575-0.494-0.655c-0.092-0.023-0.287-0.034-0.448-0.034
		c-0.127,0-0.196-0.023-0.196-0.103c0-0.081,0.081-0.103,0.253-0.103c0.609,0,1.333,0.034,1.609,0.034s1-0.034,1.39-0.034
		c0.161,0,0.242,0.023,0.242,0.103c0,0.08-0.069,0.103-0.161,0.103c-0.115,0-0.184,0.012-0.322,0.034
		c-0.31,0.057-0.402,0.253-0.425,0.655c-0.023,0.368-0.023,0.689-0.023,2.436V27.521z"/>
	<path fill="#FFFFFF" d="M90.039,32.232c-0.184-0.08-0.218-0.138-0.218-0.391c0-0.632,0.046-1.321,0.057-1.505
		c0.012-0.172,0.046-0.299,0.138-0.299c0.103,0,0.115,0.103,0.115,0.195c0,0.149,0.046,0.391,0.103,0.586
		c0.253,0.85,0.931,1.161,1.643,1.161c1.034,0,1.54-0.701,1.54-1.31c0-0.563-0.172-1.092-1.126-1.838l-0.529-0.414
		c-1.264-0.988-1.7-1.793-1.7-2.724c0-1.264,1.057-2.171,2.654-2.171c0.747,0,1.23,0.115,1.528,0.195
		c0.103,0.023,0.161,0.057,0.161,0.138c0,0.15-0.046,0.483-0.046,1.379c0,0.253-0.034,0.345-0.127,0.345
		c-0.08,0-0.115-0.069-0.115-0.207c0-0.103-0.057-0.46-0.299-0.759c-0.172-0.218-0.505-0.563-1.252-0.563
		c-0.85,0-1.367,0.494-1.367,1.183c0,0.529,0.264,0.931,1.218,1.655l0.322,0.241c1.39,1.046,1.884,1.838,1.884,2.93
		c0,0.667-0.253,1.46-1.08,1.999c-0.575,0.368-1.218,0.471-1.827,0.471C91.05,32.53,90.533,32.45,90.039,32.232z"/>
	<path fill="#FFFFFF" d="M97.357,27.015c0-1.746,0-2.068-0.023-2.436c-0.023-0.391-0.115-0.575-0.494-0.655
		c-0.092-0.023-0.287-0.034-0.448-0.034c-0.126,0-0.195-0.023-0.195-0.103c0-0.081,0.081-0.103,0.253-0.103
		c0.311,0,0.644,0.011,0.931,0.011c0.299,0.012,0.563,0.023,0.724,0.023c0.368,0,2.654,0,2.873-0.012
		c0.218-0.023,0.402-0.046,0.494-0.069c0.057-0.012,0.127-0.046,0.184-0.046s0.069,0.046,0.069,0.103
		c0,0.081-0.058,0.218-0.093,0.747c-0.011,0.115-0.034,0.62-0.057,0.759c-0.012,0.057-0.035,0.126-0.115,0.126
		c-0.08,0-0.103-0.057-0.103-0.161c0-0.08-0.012-0.276-0.069-0.414c-0.08-0.207-0.196-0.345-0.77-0.414
		c-0.195-0.023-1.401-0.046-1.632-0.046c-0.057,0-0.08,0.034-0.08,0.115v2.907c0,0.08,0.011,0.126,0.08,0.126
		c0.253,0,1.575,0,1.838-0.023c0.276-0.023,0.448-0.057,0.552-0.172c0.08-0.092,0.126-0.149,0.184-0.149
		c0.046,0,0.08,0.023,0.08,0.092c0,0.069-0.046,0.253-0.092,0.839c-0.012,0.23-0.046,0.689-0.046,0.77c0,0.092,0,0.218-0.103,0.218
		c-0.08,0-0.103-0.046-0.103-0.103c-0.011-0.115-0.011-0.264-0.046-0.414c-0.058-0.23-0.218-0.402-0.644-0.448
		c-0.218-0.023-1.356-0.035-1.632-0.035c-0.057,0-0.069,0.046-0.069,0.115v0.908c0,0.39-0.012,1.448,0,1.781
		c0.023,0.793,0.207,0.965,1.379,0.965c0.299,0,0.781,0,1.08-0.138c0.299-0.138,0.437-0.379,0.517-0.85
		c0.023-0.126,0.046-0.172,0.127-0.172c0.092,0,0.092,0.092,0.092,0.207c0,0.264-0.092,1.046-0.149,1.275
		c-0.081,0.299-0.184,0.299-0.621,0.299c-0.862,0-1.493-0.023-1.988-0.035c-0.494-0.023-0.85-0.034-1.195-0.034
		c-0.127,0-0.379,0-0.655,0.012c-0.264,0-0.563,0.023-0.793,0.023c-0.15,0-0.23-0.034-0.23-0.115c0-0.057,0.046-0.092,0.184-0.092
		c0.172,0,0.311-0.023,0.414-0.046c0.23-0.046,0.287-0.299,0.333-0.632c0.057-0.483,0.057-1.39,0.057-2.447V27.015z"/>
	<path fill="#FFFFFF" d="M106.021,27.521h0.057c0.391-0.425,2.069-2.137,2.402-2.528c0.322-0.379,0.575-0.667,0.575-0.862
		c0-0.126-0.046-0.207-0.161-0.23c-0.103-0.023-0.149-0.046-0.149-0.115c0-0.081,0.057-0.103,0.184-0.103
		c0.241,0,0.873,0.034,1.184,0.034c0.356,0,0.988-0.034,1.344-0.034c0.114,0,0.195,0.023,0.195,0.103
		c0,0.08-0.057,0.103-0.171,0.103c-0.161,0-0.449,0.046-0.667,0.126c-0.356,0.138-0.747,0.379-1.241,0.862
		c-0.356,0.345-2.091,2.068-2.482,2.482c0.414,0.54,2.666,2.964,3.114,3.39c0.506,0.483,1.023,1,1.644,1.241
		c0.344,0.138,0.574,0.172,0.712,0.172c0.08,0,0.149,0.023,0.149,0.092c0,0.08-0.057,0.115-0.276,0.115h-0.999
		c-0.345,0-0.552,0-0.793-0.023c-0.62-0.057-0.931-0.31-1.425-0.747c-0.506-0.448-2.769-3.102-3.011-3.436l-0.127-0.172h-0.057
		v1.046c0,1.057,0,1.965,0.035,2.459c0.022,0.322,0.126,0.575,0.414,0.62c0.161,0.023,0.414,0.046,0.563,0.046
		c0.093,0,0.15,0.035,0.15,0.092c0,0.08-0.092,0.115-0.218,0.115c-0.643,0-1.367-0.034-1.654-0.034
		c-0.265,0-0.988,0.034-1.448,0.034c-0.15,0-0.23-0.034-0.23-0.115c0-0.057,0.046-0.092,0.184-0.092
		c0.172,0,0.311-0.023,0.414-0.046c0.229-0.046,0.287-0.299,0.333-0.632c0.058-0.483,0.058-1.39,0.058-2.447v-2.022
		c0-1.746,0-2.068-0.023-2.436c-0.023-0.391-0.115-0.575-0.494-0.655c-0.093-0.023-0.288-0.034-0.448-0.034
		c-0.127,0-0.195-0.023-0.195-0.103c0-0.081,0.08-0.103,0.252-0.103c0.609,0,1.333,0.034,1.609,0.034s1-0.034,1.391-0.034
		c0.161,0,0.241,0.023,0.241,0.103c0,0.08-0.069,0.103-0.161,0.103c-0.115,0-0.184,0.012-0.322,0.034
		c-0.31,0.057-0.402,0.253-0.425,0.655c-0.023,0.368-0.023,0.689-0.023,2.436V27.521z"/>
	<path fill="#FFFFFF" d="M118.418,24.326l-1.712,0.046c-0.667,0.023-0.942,0.08-1.114,0.333c-0.116,0.172-0.173,0.31-0.196,0.402
		c-0.023,0.092-0.057,0.138-0.127,0.138c-0.08,0-0.103-0.057-0.103-0.184c0-0.184,0.219-1.229,0.242-1.321
		c0.035-0.15,0.069-0.218,0.138-0.218c0.092,0,0.207,0.115,0.494,0.138c0.333,0.034,0.77,0.057,1.149,0.057h4.55
		c0.367,0,0.62-0.034,0.793-0.057c0.171-0.034,0.264-0.057,0.31-0.057c0.08,0,0.091,0.069,0.091,0.242
		c0,0.241-0.034,1.034-0.034,1.333c-0.012,0.115-0.035,0.184-0.103,0.184c-0.093,0-0.115-0.057-0.127-0.23l-0.012-0.126
		c-0.022-0.299-0.333-0.621-1.356-0.644l-1.448-0.035v4.711c0,1.057,0,1.965,0.057,2.459c0.035,0.322,0.103,0.575,0.448,0.62
		c0.161,0.023,0.414,0.046,0.586,0.046c0.127,0,0.184,0.035,0.184,0.092c0,0.08-0.091,0.115-0.218,0.115
		c-0.759,0-1.482-0.034-1.804-0.034c-0.264,0-0.988,0.034-1.448,0.034c-0.15,0-0.23-0.034-0.23-0.115
		c0-0.057,0.046-0.092,0.184-0.092c0.173,0,0.31-0.023,0.414-0.046c0.23-0.046,0.299-0.299,0.333-0.632
		c0.057-0.483,0.057-1.39,0.057-2.447V24.326z"/>
	<path fill="#FFFFFF" d="M125.049,27.015c0-1.746,0-2.068-0.023-2.436c-0.023-0.391-0.114-0.575-0.494-0.655
		c-0.092-0.023-0.287-0.034-0.448-0.034c-0.126,0-0.195-0.023-0.195-0.103c0-0.081,0.08-0.103,0.253-0.103
		c0.31,0,0.644,0.011,0.931,0.011c0.299,0.012,0.563,0.023,0.724,0.023c0.367,0,2.654,0,2.872-0.012
		c0.219-0.023,0.403-0.046,0.495-0.069c0.058-0.012,0.126-0.046,0.184-0.046c0.058,0,0.069,0.046,0.069,0.103
		c0,0.081-0.057,0.218-0.091,0.747c-0.012,0.115-0.035,0.62-0.058,0.759c-0.012,0.057-0.035,0.126-0.115,0.126
		s-0.103-0.057-0.103-0.161c0-0.08-0.012-0.276-0.069-0.414c-0.08-0.207-0.195-0.345-0.769-0.414
		c-0.195-0.023-1.402-0.046-1.632-0.046c-0.057,0-0.08,0.034-0.08,0.115v2.907c0,0.08,0.012,0.126,0.08,0.126
		c0.253,0,1.574,0,1.839-0.023c0.276-0.023,0.448-0.057,0.552-0.172c0.08-0.092,0.127-0.149,0.184-0.149
		c0.046,0,0.08,0.023,0.08,0.092c0,0.069-0.046,0.253-0.092,0.839c-0.012,0.23-0.046,0.689-0.046,0.77c0,0.092,0,0.218-0.103,0.218
		c-0.08,0-0.103-0.046-0.103-0.103c-0.012-0.115-0.012-0.264-0.046-0.414c-0.057-0.23-0.218-0.402-0.644-0.448
		c-0.218-0.023-1.356-0.035-1.631-0.035c-0.058,0-0.069,0.046-0.069,0.115v0.908c0,0.39-0.011,1.448,0,1.781
		c0.023,0.793,0.207,0.965,1.379,0.965c0.299,0,0.782,0,1.08-0.138c0.299-0.138,0.436-0.379,0.517-0.85
		c0.022-0.126,0.046-0.172,0.127-0.172c0.092,0,0.092,0.092,0.092,0.207c0,0.264-0.092,1.046-0.15,1.275
		c-0.08,0.299-0.184,0.299-0.62,0.299c-0.861,0-1.494-0.023-1.988-0.035c-0.494-0.023-0.85-0.034-1.195-0.034
		c-0.127,0-0.38,0-0.656,0.012c-0.264,0-0.563,0.023-0.792,0.023c-0.15,0-0.23-0.034-0.23-0.115c0-0.057,0.046-0.092,0.184-0.092
		c0.172,0,0.31-0.023,0.414-0.046c0.23-0.046,0.287-0.299,0.333-0.632c0.057-0.483,0.057-1.39,0.057-2.447V27.015z"/>
	<path fill="#FFFFFF" d="M133.711,27.521h0.058c0.391-0.425,2.069-2.137,2.402-2.528c0.321-0.379,0.574-0.667,0.574-0.862
		c0-0.126-0.046-0.207-0.161-0.23c-0.103-0.023-0.15-0.046-0.15-0.115c0-0.081,0.057-0.103,0.184-0.103
		c0.242,0,0.873,0.034,1.184,0.034c0.356,0,0.988-0.034,1.344-0.034c0.115,0,0.195,0.023,0.195,0.103
		c0,0.08-0.058,0.103-0.172,0.103c-0.161,0-0.448,0.046-0.667,0.126c-0.356,0.138-0.747,0.379-1.241,0.862
		c-0.356,0.345-2.091,2.068-2.482,2.482c0.414,0.54,2.665,2.964,3.114,3.39c0.505,0.483,1.022,1,1.643,1.241
		c0.345,0.138,0.575,0.172,0.713,0.172c0.08,0,0.149,0.023,0.149,0.092c0,0.08-0.058,0.115-0.276,0.115h-1
		c-0.344,0-0.551,0-0.793-0.023c-0.621-0.057-0.931-0.31-1.425-0.747c-0.505-0.448-2.769-3.102-3.01-3.436l-0.127-0.172h-0.058
		v1.046c0,1.057,0,1.965,0.035,2.459c0.022,0.322,0.126,0.575,0.414,0.62c0.161,0.023,0.414,0.046,0.563,0.046
		c0.092,0,0.149,0.035,0.149,0.092c0,0.08-0.091,0.115-0.218,0.115c-0.644,0-1.367-0.034-1.654-0.034
		c-0.265,0-0.988,0.034-1.448,0.034c-0.15,0-0.23-0.034-0.23-0.115c0-0.057,0.046-0.092,0.184-0.092c0.172,0,0.31-0.023,0.414-0.046
		c0.23-0.046,0.287-0.299,0.333-0.632c0.057-0.483,0.057-1.39,0.057-2.447v-2.022c0-1.746,0-2.068-0.023-2.436
		c-0.023-0.391-0.114-0.575-0.494-0.655c-0.092-0.023-0.287-0.034-0.448-0.034c-0.126,0-0.195-0.023-0.195-0.103
		c0-0.081,0.08-0.103,0.253-0.103c0.609,0,1.333,0.034,1.608,0.034c0.276,0,1-0.034,1.391-0.034c0.161,0,0.242,0.023,0.242,0.103
		c0,0.08-0.069,0.103-0.161,0.103c-0.114,0-0.184,0.012-0.321,0.034c-0.31,0.057-0.403,0.253-0.426,0.655
		c-0.023,0.368-0.023,0.689-0.023,2.436V27.521z"/>
	<path fill="#FFFFFF" d="M141.778,30.807c0.022,0.896,0.172,1.195,0.401,1.276c0.196,0.069,0.414,0.08,0.598,0.08
		c0.126,0,0.195,0.023,0.195,0.092c0,0.092-0.103,0.115-0.264,0.115c-0.747,0-1.207-0.034-1.425-0.034
		c-0.103,0-0.643,0.034-1.241,0.034c-0.149,0-0.252-0.011-0.252-0.115c0-0.069,0.068-0.092,0.184-0.092
		c0.149,0,0.356-0.011,0.517-0.057c0.299-0.092,0.344-0.425,0.356-1.425l0.103-6.803c0-0.23,0.034-0.391,0.149-0.391
		c0.126,0,0.229,0.15,0.425,0.356c0.137,0.149,1.884,2.022,3.562,3.688c0.781,0.782,2.332,2.436,2.528,2.62h0.057l-0.114-5.159
		c-0.012-0.701-0.116-0.919-0.391-1.034c-0.172-0.069-0.448-0.069-0.609-0.069c-0.138,0-0.184-0.035-0.184-0.103
		c0-0.092,0.127-0.103,0.299-0.103c0.597,0,1.149,0.034,1.39,0.034c0.127,0,0.563-0.034,1.127-0.034c0.15,0,0.264,0.011,0.264,0.103
		c0,0.069-0.069,0.103-0.207,0.103c-0.114,0-0.207,0-0.344,0.034c-0.322,0.092-0.414,0.333-0.426,0.977l-0.126,7.251
		c0,0.253-0.046,0.356-0.149,0.356c-0.127,0-0.265-0.127-0.391-0.253c-0.724-0.689-2.195-2.195-3.39-3.378
		c-1.252-1.241-2.528-2.677-2.735-2.896h-0.034L141.778,30.807z"/>
	<path fill="#FFFFFF" d="M150.648,28.026c0-1.965,1.299-4.504,4.746-4.504c2.861,0,4.642,1.666,4.642,4.297
		s-1.838,4.711-4.757,4.711C151.981,32.53,150.648,30.06,150.648,28.026z M158.428,28.245c0-2.574-1.483-4.171-3.367-4.171
		c-1.321,0-2.826,0.735-2.826,3.597c0,2.39,1.321,4.286,3.527,4.286C156.566,31.956,158.428,31.565,158.428,28.245z"/>
	<path fill="#FFFFFF" d="M163.874,29.037c0,1.471,0,2.264,0.241,2.47c0.195,0.172,0.494,0.253,1.391,0.253
		c0.609,0,1.057-0.012,1.344-0.322c0.138-0.149,0.276-0.471,0.299-0.689c0.012-0.103,0.035-0.172,0.127-0.172
		c0.08,0,0.092,0.057,0.092,0.196c0,0.126-0.08,0.988-0.172,1.321c-0.069,0.253-0.127,0.31-0.725,0.31
		c-0.827,0-1.425-0.023-1.942-0.035c-0.517-0.023-0.931-0.034-1.401-0.034c-0.127,0-0.38,0-0.656,0.012
		c-0.264,0-0.563,0.023-0.792,0.023c-0.15,0-0.23-0.034-0.23-0.115c0-0.057,0.046-0.092,0.184-0.092c0.172,0,0.31-0.023,0.414-0.046
		c0.23-0.046,0.287-0.299,0.333-0.632c0.057-0.483,0.057-1.39,0.057-2.447v-2.022c0-1.746,0-2.068-0.023-2.436
		c-0.023-0.391-0.114-0.575-0.494-0.655c-0.092-0.023-0.23-0.034-0.38-0.034c-0.126,0-0.195-0.023-0.195-0.103
		c0-0.081,0.08-0.103,0.252-0.103c0.54,0,1.264,0.034,1.574,0.034c0.276,0,1.115-0.034,1.563-0.034c0.161,0,0.242,0.023,0.242,0.103
		c0,0.08-0.069,0.103-0.207,0.103c-0.127,0-0.31,0.012-0.448,0.034c-0.31,0.057-0.402,0.253-0.425,0.655
		c-0.022,0.368-0.022,0.689-0.022,2.436V29.037z"/>
	<path fill="#FFFFFF" d="M168.079,28.026c0-1.965,1.299-4.504,4.746-4.504c2.861,0,4.642,1.666,4.642,4.297
		s-1.838,4.711-4.757,4.711C169.412,32.53,168.079,30.06,168.079,28.026z M175.858,28.245c0-2.574-1.482-4.171-3.367-4.171
		c-1.322,0-2.827,0.735-2.827,3.597c0,2.39,1.321,4.286,3.528,4.286C173.997,31.956,175.858,31.565,175.858,28.245z"/>
	<path fill="#FFFFFF" d="M179.868,27.015c0-1.746,0-2.068-0.023-2.436c-0.023-0.391-0.114-0.575-0.494-0.655
		c-0.092-0.023-0.287-0.034-0.448-0.034c-0.126,0-0.195-0.023-0.195-0.103c0-0.081,0.08-0.103,0.253-0.103
		c0.609,0,1.333,0.034,1.631,0.034c0.276,0,1-0.034,1.448-0.034c0.161,0,0.242,0.023,0.242,0.103c0,0.08-0.069,0.103-0.207,0.103
		c-0.126,0-0.195,0.012-0.333,0.034c-0.31,0.057-0.402,0.253-0.425,0.655c-0.023,0.368-0.023,0.689-0.023,2.436v2.126
		c0,0.494,0.035,1.046,0.035,1.62c0,0.655-0.046,1.391-0.276,2.034c-0.242,0.701-0.85,1.494-1.954,2.172
		c-0.149,0.092-0.333,0.184-0.574,0.299c-0.08,0.046-0.173,0.069-0.23,0.069c-0.046,0-0.092-0.034-0.092-0.091
		c0-0.058,0.058-0.103,0.252-0.207c0.15-0.081,0.322-0.207,0.552-0.437c0.873-0.885,0.861-2.034,0.861-4.286V27.015z"/>
	<path fill="#FFFFFF" d="M184.647,27.015c0-1.746,0-2.068-0.022-2.436c-0.023-0.391-0.138-0.586-0.391-0.644
		c-0.127-0.034-0.276-0.046-0.414-0.046c-0.114,0-0.184-0.023-0.184-0.115c0-0.069,0.093-0.092,0.276-0.092
		c0.437,0,1.161,0.034,1.494,0.034c0.287,0,0.965-0.034,1.401-0.034c0.15,0,0.241,0.023,0.241,0.092
		c0,0.092-0.068,0.115-0.184,0.115c-0.114,0-0.207,0.012-0.344,0.034c-0.31,0.057-0.403,0.253-0.425,0.655
		c-0.023,0.368-0.023,0.689-0.023,2.436v2.022c0,1.115,0,2.022,0.046,2.516c0.035,0.31,0.116,0.517,0.46,0.563
		c0.161,0.023,0.414,0.046,0.586,0.046c0.127,0,0.184,0.035,0.184,0.092c0,0.08-0.093,0.115-0.218,0.115
		c-0.759,0-1.482-0.034-1.793-0.034c-0.264,0-0.988,0.034-1.448,0.034c-0.15,0-0.23-0.034-0.23-0.115
		c0-0.057,0.046-0.092,0.184-0.092c0.173,0,0.31-0.023,0.414-0.046c0.23-0.046,0.299-0.241,0.333-0.575
		c0.057-0.483,0.057-1.39,0.057-2.505V27.015z M184.717,22.155c0-0.287,0.184-0.667,0.644-0.667c0.367,0,0.654,0.242,0.654,0.621
		c0,0.379-0.264,0.689-0.654,0.689C184.9,22.798,184.717,22.442,184.717,22.155z"/>
	<path fill="#FFFFFF" d="M64.301,40.803c0-1.746,0-2.068-0.023-2.435c-0.023-0.391-0.115-0.575-0.494-0.656
		c-0.092-0.022-0.287-0.034-0.448-0.034c-0.126,0-0.195-0.023-0.195-0.103c0-0.08,0.081-0.103,0.253-0.103
		c0.311,0,0.644,0.012,0.931,0.012c0.299,0.012,0.563,0.022,0.724,0.022c0.368,0,2.654,0,2.873-0.011
		c0.218-0.023,0.402-0.046,0.494-0.069c0.057-0.011,0.126-0.046,0.184-0.046c0.057,0,0.069,0.046,0.069,0.104
		c0,0.08-0.057,0.218-0.092,0.746c-0.012,0.116-0.035,0.62-0.057,0.759c-0.012,0.057-0.035,0.126-0.115,0.126
		c-0.08,0-0.103-0.057-0.103-0.161c0-0.081-0.012-0.276-0.069-0.414c-0.08-0.207-0.195-0.344-0.77-0.414
		c-0.195-0.022-1.402-0.046-1.632-0.046c-0.057,0-0.08,0.035-0.08,0.115v2.908c0,0.08,0.011,0.126,0.08,0.126
		c0.253,0,1.574,0,1.838-0.022c0.276-0.023,0.448-0.058,0.552-0.173c0.08-0.092,0.126-0.15,0.184-0.15
		c0.046,0,0.08,0.023,0.08,0.093c0,0.069-0.046,0.252-0.092,0.838c-0.012,0.23-0.046,0.69-0.046,0.77c0,0.093,0,0.218-0.103,0.218
		c-0.08,0-0.103-0.046-0.103-0.103c-0.012-0.115-0.012-0.265-0.046-0.414c-0.057-0.23-0.218-0.402-0.644-0.448
		c-0.218-0.023-1.356-0.034-1.632-0.034c-0.057,0-0.069,0.046-0.069,0.114v0.908c0,0.39-0.012,1.448,0,1.781
		c0.023,0.793,0.207,0.965,1.379,0.965c0.299,0,0.781,0,1.08-0.138c0.299-0.138,0.436-0.379,0.517-0.85
		c0.023-0.126,0.046-0.172,0.127-0.172c0.092,0,0.092,0.092,0.092,0.207c0,0.264-0.092,1.046-0.149,1.275
		c-0.081,0.299-0.184,0.299-0.621,0.299c-0.862,0-1.494-0.023-1.988-0.035c-0.494-0.022-0.85-0.035-1.195-0.035
		c-0.127,0-0.379,0-0.655,0.012c-0.264,0-0.563,0.022-0.793,0.022c-0.15,0-0.23-0.035-0.23-0.115c0-0.057,0.046-0.092,0.184-0.092
		c0.172,0,0.311-0.022,0.414-0.046c0.23-0.046,0.287-0.299,0.333-0.633c0.057-0.482,0.057-1.39,0.057-2.447V40.803z"/>
	<path fill="#FFFFFF" d="M72.206,44.595c0.023,0.897,0.172,1.195,0.402,1.276c0.196,0.069,0.414,0.08,0.598,0.08
		c0.126,0,0.195,0.023,0.195,0.092c0,0.093-0.103,0.115-0.264,0.115c-0.747,0-1.206-0.035-1.425-0.035
		c-0.103,0-0.643,0.035-1.241,0.035c-0.149,0-0.253-0.012-0.253-0.115c0-0.069,0.069-0.092,0.184-0.092
		c0.149,0,0.356-0.012,0.517-0.058c0.299-0.091,0.345-0.424,0.356-1.425l0.103-6.802c0-0.23,0.034-0.391,0.149-0.391
		c0.126,0,0.23,0.15,0.425,0.356c0.138,0.15,1.884,2.022,3.562,3.689c0.781,0.782,2.332,2.436,2.528,2.62h0.057l-0.115-5.159
		c-0.012-0.701-0.115-0.92-0.391-1.035c-0.172-0.069-0.448-0.069-0.609-0.069c-0.138,0-0.184-0.035-0.184-0.103
		c0-0.092,0.127-0.103,0.299-0.103c0.597,0,1.149,0.034,1.39,0.034c0.127,0,0.563-0.034,1.126-0.034
		c0.149,0,0.264,0.012,0.264,0.103c0,0.069-0.069,0.103-0.207,0.103c-0.115,0-0.207,0-0.345,0.034
		c-0.322,0.093-0.414,0.333-0.425,0.977l-0.126,7.251c0,0.253-0.046,0.356-0.149,0.356c-0.127,0-0.264-0.127-0.391-0.253
		c-0.724-0.689-2.195-2.195-3.39-3.378c-1.253-1.241-2.528-2.677-2.735-2.895H72.08L72.206,44.595z"/>
	<path fill="#FFFFFF" d="M81.811,46.02c-0.184-0.08-0.218-0.137-0.218-0.39c0-0.632,0.046-1.321,0.057-1.505
		c0.012-0.173,0.046-0.299,0.138-0.299c0.103,0,0.115,0.103,0.115,0.196c0,0.149,0.046,0.39,0.103,0.586
		c0.253,0.85,0.931,1.161,1.643,1.161c1.034,0,1.54-0.701,1.54-1.31c0-0.563-0.172-1.092-1.126-1.839l-0.529-0.414
		c-1.264-0.988-1.7-1.793-1.7-2.723c0-1.264,1.057-2.171,2.654-2.171c0.747,0,1.23,0.114,1.528,0.195
		c0.103,0.023,0.161,0.058,0.161,0.138c0,0.15-0.046,0.482-0.046,1.379c0,0.253-0.034,0.345-0.127,0.345
		c-0.08,0-0.115-0.069-0.115-0.207c0-0.103-0.057-0.46-0.299-0.759c-0.172-0.218-0.505-0.563-1.252-0.563
		c-0.85,0-1.367,0.494-1.367,1.184c0,0.529,0.264,0.931,1.218,1.654l0.322,0.242c1.39,1.046,1.884,1.839,1.884,2.93
		c0,0.667-0.253,1.46-1.08,1.999c-0.575,0.368-1.218,0.471-1.827,0.471C82.823,46.319,82.306,46.239,81.811,46.02z"/>
	<path fill="#FFFFFF" d="M90.659,38.115l-1.712,0.046c-0.667,0.022-0.942,0.08-1.115,0.333c-0.115,0.172-0.172,0.31-0.195,0.402
		c-0.023,0.093-0.057,0.138-0.127,0.138c-0.081,0-0.103-0.058-0.103-0.184c0-0.184,0.218-1.229,0.241-1.321
		c0.035-0.15,0.069-0.218,0.138-0.218c0.092,0,0.207,0.114,0.494,0.137c0.333,0.035,0.77,0.057,1.149,0.057h4.55
		c0.368,0,0.62-0.034,0.793-0.057c0.172-0.034,0.264-0.057,0.31-0.057c0.08,0,0.092,0.069,0.092,0.241
		c0,0.242-0.034,1.034-0.034,1.333c-0.012,0.114-0.035,0.184-0.103,0.184c-0.092,0-0.115-0.057-0.127-0.23l-0.012-0.127
		c-0.023-0.299-0.333-0.62-1.356-0.644l-1.448-0.034v4.711c0,1.057,0,1.965,0.057,2.459c0.034,0.321,0.103,0.574,0.448,0.62
		c0.161,0.023,0.414,0.046,0.586,0.046c0.126,0,0.184,0.035,0.184,0.092c0,0.08-0.092,0.115-0.218,0.115
		c-0.759,0-1.482-0.035-1.804-0.035c-0.264,0-0.988,0.035-1.448,0.035c-0.149,0-0.23-0.035-0.23-0.115
		c0-0.057,0.046-0.092,0.184-0.092c0.172,0,0.31-0.022,0.414-0.046c0.23-0.046,0.299-0.299,0.333-0.633
		c0.057-0.482,0.057-1.39,0.057-2.447V38.115z"/>
	<path fill="#FFFFFF" d="M97.289,40.803c0-1.746,0-2.068-0.023-2.435c-0.023-0.391-0.138-0.586-0.391-0.644
		c-0.127-0.035-0.276-0.046-0.414-0.046c-0.115,0-0.184-0.023-0.184-0.115c0-0.069,0.092-0.092,0.276-0.092
		c0.437,0,1.161,0.034,1.494,0.034c0.287,0,0.965-0.034,1.402-0.034c0.149,0,0.241,0.023,0.241,0.092
		c0,0.092-0.069,0.115-0.184,0.115c-0.115,0-0.207,0.012-0.345,0.034c-0.31,0.058-0.402,0.253-0.425,0.656
		c-0.023,0.367-0.023,0.689-0.023,2.435v2.022c0,1.115,0,2.022,0.046,2.516c0.034,0.31,0.115,0.517,0.46,0.563
		c0.161,0.023,0.414,0.046,0.586,0.046c0.127,0,0.184,0.035,0.184,0.092c0,0.08-0.093,0.115-0.219,0.115
		c-0.758,0-1.482-0.035-1.792-0.035c-0.264,0-0.988,0.035-1.448,0.035c-0.15,0-0.23-0.035-0.23-0.115
		c0-0.057,0.046-0.092,0.184-0.092c0.172,0,0.311-0.022,0.414-0.046c0.23-0.046,0.299-0.242,0.333-0.575
		c0.057-0.482,0.057-1.39,0.057-2.505V40.803z M97.358,35.943c0-0.288,0.184-0.667,0.644-0.667c0.368,0,0.655,0.241,0.655,0.62
		c0,0.379-0.264,0.69-0.655,0.69C97.541,36.587,97.358,36.231,97.358,35.943z"/>
	<path fill="#FFFFFF" d="M104.01,38.115l-1.712,0.046c-0.667,0.022-0.942,0.08-1.114,0.333c-0.116,0.172-0.173,0.31-0.196,0.402
		c-0.023,0.093-0.057,0.138-0.127,0.138c-0.08,0-0.103-0.058-0.103-0.184c0-0.184,0.219-1.229,0.242-1.321
		c0.035-0.15,0.069-0.218,0.138-0.218c0.092,0,0.207,0.114,0.494,0.137c0.333,0.035,0.77,0.057,1.149,0.057h4.55
		c0.367,0,0.62-0.034,0.793-0.057c0.171-0.034,0.264-0.057,0.31-0.057c0.08,0,0.091,0.069,0.091,0.241
		c0,0.242-0.034,1.034-0.034,1.333c-0.012,0.114-0.035,0.184-0.103,0.184c-0.093,0-0.115-0.057-0.127-0.23l-0.012-0.127
		c-0.022-0.299-0.333-0.62-1.356-0.644l-1.448-0.034v4.711c0,1.057,0,1.965,0.057,2.459c0.035,0.321,0.103,0.574,0.448,0.62
		c0.161,0.023,0.414,0.046,0.586,0.046c0.127,0,0.184,0.035,0.184,0.092c0,0.08-0.091,0.115-0.218,0.115
		c-0.759,0-1.482-0.035-1.804-0.035c-0.264,0-0.988,0.035-1.448,0.035c-0.15,0-0.23-0.035-0.23-0.115
		c0-0.057,0.046-0.092,0.184-0.092c0.173,0,0.31-0.022,0.414-0.046c0.23-0.046,0.299-0.299,0.333-0.633
		c0.057-0.482,0.057-1.39,0.057-2.447V38.115z"/>
	<path fill="#FFFFFF" d="M110.146,40.803c0-1.746,0-2.068-0.023-2.435c-0.023-0.391-0.115-0.575-0.494-0.656
		c-0.093-0.022-0.287-0.034-0.448-0.034c-0.127,0-0.195-0.023-0.195-0.103c0-0.08,0.08-0.103,0.253-0.103
		c0.608,0,1.332,0.034,1.678,0.034c0.276,0,0.999-0.034,1.413-0.034c0.172,0,0.252,0.023,0.252,0.103
		c0,0.08-0.069,0.103-0.184,0.103c-0.127,0-0.195,0.012-0.333,0.034c-0.31,0.058-0.401,0.253-0.424,0.656
		c-0.023,0.367-0.023,0.689-0.023,2.435v1.609c0,1.666,0.333,2.367,0.896,2.827c0.518,0.425,1.046,0.471,1.436,0.471
		c0.506,0,1.127-0.161,1.586-0.62c0.631-0.631,0.666-1.666,0.666-2.849v-1.437c0-1.746,0-2.068-0.022-2.435
		c-0.023-0.391-0.116-0.575-0.495-0.656c-0.092-0.022-0.287-0.034-0.414-0.034s-0.195-0.023-0.195-0.103
		c0-0.08,0.08-0.103,0.241-0.103c0.586,0,1.31,0.034,1.322,0.034c0.138,0,0.862-0.034,1.31-0.034c0.161,0,0.242,0.023,0.242,0.103
		c0,0.08-0.069,0.103-0.207,0.103c-0.126,0-0.195,0.012-0.333,0.034c-0.31,0.058-0.403,0.253-0.426,0.656
		c-0.023,0.367-0.023,0.689-0.023,2.435v1.23c0,1.275-0.126,2.631-1.091,3.459c-0.816,0.701-1.644,0.827-2.39,0.827
		c-0.609,0-1.712-0.035-2.551-0.793c-0.586-0.529-1.022-1.378-1.022-3.045V40.803z M112.134,36.047c0-0.219,0.161-0.529,0.529-0.529
		c0.299,0,0.539,0.184,0.539,0.495c0,0.322-0.218,0.575-0.551,0.575C112.284,36.587,112.134,36.288,112.134,36.047z M114.559,36.047
		c0-0.23,0.161-0.54,0.528-0.54c0.299,0,0.54,0.184,0.54,0.505s-0.218,0.575-0.551,0.575
		C114.708,36.587,114.559,36.288,114.559,36.047z"/>
	<path fill="#FFFFFF" d="M119.798,46.02c-0.184-0.08-0.219-0.137-0.219-0.39c0-0.632,0.046-1.321,0.058-1.505
		c0.012-0.173,0.046-0.299,0.138-0.299c0.103,0,0.114,0.103,0.114,0.196c0,0.149,0.046,0.39,0.103,0.586
		c0.253,0.85,0.931,1.161,1.644,1.161c1.034,0,1.54-0.701,1.54-1.31c0-0.563-0.173-1.092-1.127-1.839l-0.529-0.414
		c-1.264-0.988-1.7-1.793-1.7-2.723c0-1.264,1.057-2.171,2.654-2.171c0.747,0,1.229,0.114,1.529,0.195
		c0.103,0.023,0.161,0.058,0.161,0.138c0,0.15-0.046,0.482-0.046,1.379c0,0.253-0.034,0.345-0.127,0.345
		c-0.08,0-0.114-0.069-0.114-0.207c0-0.103-0.057-0.46-0.299-0.759c-0.172-0.218-0.505-0.563-1.252-0.563
		c-0.85,0-1.367,0.494-1.367,1.184c0,0.529,0.264,0.931,1.218,1.654l0.322,0.242c1.39,1.046,1.884,1.839,1.884,2.93
		c0,0.667-0.252,1.46-1.08,1.999c-0.575,0.368-1.218,0.471-1.827,0.471C120.809,46.319,120.292,46.239,119.798,46.02z"/>
	<path fill="#FFFFFF" d="M126.623,40.803c0-1.746,0-2.068-0.023-2.435c-0.023-0.391-0.115-0.575-0.494-0.656
		c-0.093-0.022-0.287-0.034-0.448-0.034c-0.127,0-0.195-0.023-0.195-0.103c0-0.08,0.08-0.103,0.253-0.103
		c0.608,0,1.332,0.034,1.678,0.034c0.276,0,0.999-0.034,1.413-0.034c0.172,0,0.252,0.023,0.252,0.103
		c0,0.08-0.069,0.103-0.184,0.103c-0.127,0-0.195,0.012-0.333,0.034c-0.31,0.058-0.401,0.253-0.424,0.656
		c-0.023,0.367-0.023,0.689-0.023,2.435v1.609c0,1.666,0.333,2.367,0.896,2.827c0.518,0.425,1.046,0.471,1.436,0.471
		c0.506,0,1.127-0.161,1.586-0.62c0.631-0.631,0.666-1.666,0.666-2.849v-1.437c0-1.746,0-2.068-0.022-2.435
		c-0.023-0.391-0.116-0.575-0.495-0.656c-0.092-0.022-0.287-0.034-0.414-0.034c-0.127,0-0.195-0.023-0.195-0.103
		c0-0.08,0.08-0.103,0.241-0.103c0.586,0,1.31,0.034,1.322,0.034c0.138,0,0.862-0.034,1.31-0.034c0.161,0,0.242,0.023,0.242,0.103
		c0,0.08-0.069,0.103-0.207,0.103c-0.126,0-0.195,0.012-0.333,0.034c-0.31,0.058-0.403,0.253-0.426,0.656
		c-0.023,0.367-0.023,0.689-0.023,2.435v1.23c0,1.275-0.126,2.631-1.091,3.459c-0.816,0.701-1.644,0.827-2.39,0.827
		c-0.609,0-1.712-0.035-2.551-0.793c-0.586-0.529-1.022-1.378-1.022-3.045V40.803z M128.611,36.047c0-0.219,0.161-0.529,0.529-0.529
		c0.299,0,0.539,0.184,0.539,0.495c0,0.322-0.218,0.575-0.551,0.575C128.76,36.587,128.611,36.288,128.611,36.047z M131.035,36.047
		c0-0.23,0.161-0.54,0.528-0.54c0.299,0,0.54,0.184,0.54,0.505s-0.218,0.575-0.551,0.575
		C131.185,36.587,131.035,36.288,131.035,36.047z"/>
</g>
</svg>
