<?xml version="1.0" encoding="utf-8"?>
<!-- Generator: Adobe Illustrator 17.0.0, SVG Export Plug-In . SVG Version: 6.00 Build 0)  -->
<!DOCTYPE svg PUBLIC "-//W3C//DTD SVG 1.1//EN" "http://www.w3.org/Graphics/SVG/1.1/DTD/svg11.dtd">
<svg version="1.1" id="Layer_1" xmlns="http://www.w3.org/2000/svg" xmlns:xlink="http://www.w3.org/1999/xlink" x="0px" y="0px"
	 width="275px" height="93.333px" viewBox="0 0 275 93.333" enable-background="new 0 0 275 93.333" xml:space="preserve">
<path fill="#FFFFFF" d="M79.326,41.081c0,20.899-16.942,37.84-37.84,37.84c-20.899,0-37.84-16.942-37.84-37.84
	c0-20.898,16.942-37.84,37.84-37.84C62.384,3.241,79.326,20.182,79.326,41.081"/>
<path fill="#9A1220" d="M41.486,3.861c-20.556,0-37.22,16.664-37.22,37.22c0,20.556,16.664,37.22,37.22,37.22
	c20.556,0,37.22-16.664,37.22-37.22C78.706,20.525,62.042,3.861,41.486,3.861 M41.486,76.75c-19.699,0-35.669-15.97-35.669-35.669
	c0-19.7,15.969-35.669,35.669-35.669c19.699,0,35.669,15.969,35.669,35.669C77.155,60.78,61.185,76.75,41.486,76.75"/>
<path fill="#9A1220" d="M41.486,13.166c-15.417,0-27.915,12.498-27.915,27.915s12.498,27.915,27.915,27.915
	c15.417,0,27.915-12.498,27.915-27.915S56.903,13.166,41.486,13.166 M41.486,67.445c-14.56,0-26.364-11.803-26.364-26.364
	c0-14.561,11.803-26.364,26.364-26.364S67.85,26.52,67.85,41.081C67.85,55.641,56.046,67.445,41.486,67.445"/>
<path fill="#9A1220" d="M66.299,41.081c0,13.704-11.109,24.813-24.813,24.813c-13.704,0-24.813-11.109-24.813-24.813
	c0-13.703,11.109-24.813,24.813-24.813C55.19,16.268,66.299,27.377,66.299,41.081"/>
<path fill="#404041" d="M19.081,67.452c-0.09,0.104-0.276,0.184-0.443,0.04c-0.133-0.116-0.162-0.294-0.043-0.431
	c0.119-0.138,0.313-0.167,0.454-0.044C19.216,67.161,19.171,67.348,19.081,67.452 M20.632,65.711
	c-0.549,0.633-0.65,0.75-0.757,0.891c-0.114,0.149-0.134,0.256-0.061,0.356c0.035,0.053,0.085,0.103,0.136,0.147
	c0.042,0.036,0.059,0.066,0.03,0.1c-0.022,0.025-0.062,0.005-0.129-0.053c-0.158-0.137-0.41-0.377-0.531-0.482
	c-0.104-0.09-0.361-0.291-0.519-0.429c-0.054-0.047-0.08-0.084-0.059-0.109c0.029-0.033,0.061-0.02,0.103,0.016
	c0.042,0.036,0.079,0.061,0.136,0.096c0.131,0.076,0.225,0.035,0.36-0.104c0.124-0.126,0.225-0.243,0.774-0.876l0.635-0.733
	c0.35-0.404,0.635-0.733,0.774-0.927c0.085-0.123,0.121-0.224,0.01-0.349c-0.051-0.059-0.136-0.147-0.198-0.201
	c-0.046-0.039-0.056-0.07-0.038-0.091c0.025-0.029,0.069-0.013,0.115,0.027c0.275,0.239,0.527,0.478,0.64,0.576
	c0.096,0.083,0.369,0.298,0.536,0.442c0.054,0.047,0.073,0.085,0.048,0.114c-0.018,0.021-0.046,0.019-0.096-0.024
	c-0.063-0.054-0.12-0.089-0.165-0.113c-0.098-0.055-0.184-0.006-0.301,0.104c-0.172,0.157-0.458,0.486-0.808,0.89L20.632,65.711z"/>
<path fill="#404041" d="M18.455,60.345c-0.37-0.424-0.615-0.495-0.798-0.453c-0.099,0.021-0.196,0.061-0.265,0.099
	c-0.049,0.028-0.081,0.041-0.103,0.017c-0.029-0.033-0.007-0.067,0.093-0.154c0.133-0.116,0.45-0.297,0.58-0.359
	c0.093-0.044,0.152-0.044,0.217,0.03c0.606,0.694,1.194,1.411,1.927,2.251c0.04,0.046,0.049,0.081,0.02,0.107
	c-0.029,0.026-0.061,0.031-0.179,0.046c-1.426,0.212-2.902,0.416-4.265,0.624l0.711,0.815c0.185,0.212,0.419,0.455,0.61,0.522
	c0.195,0.072,0.414,0.013,0.52-0.058c0.065-0.043,0.097-0.041,0.118-0.015c0.025,0.029,0.008,0.051-0.042,0.095
	c-0.096,0.083-0.528,0.351-0.671,0.439c-0.066,0.042-0.101,0.044-0.123,0.019c-0.033-0.038-0.03-0.084-0.116-0.192
	c-0.328-0.409-0.506-0.605-0.655-0.776l-1.106-1.268c-0.036-0.041-0.049-0.082-0.028-0.1c0.025-0.022,0.064-0.027,0.108-0.035
	c1.432-0.239,2.935-0.437,4.34-0.631L18.455,60.345z"/>
<path fill="#404041" d="M13.062,59.544c-0.09,0.032-0.149,0.029-0.171-0.009c-0.022-0.038-0.015-0.081,0.074-0.214l1.939-2.862
	l-3.478,0.278c-0.099,0.006-0.151,0.004-0.175-0.039c-0.025-0.043,0.006-0.099,0.098-0.171l2.7-2.141
	c0.276-0.217,0.387-0.345,0.347-0.513c-0.037-0.163-0.088-0.261-0.124-0.324c-0.025-0.043-0.039-0.079-0.011-0.096
	c0.038-0.022,0.086,0.027,0.124,0.094c0.069,0.119,0.436,0.786,0.532,0.986c0.054,0.115,0.056,0.152,0.028,0.169
	c-0.024,0.014-0.049,0.003-0.083-0.022c-0.026-0.023-0.096-0.001-0.219,0.095l-1.935,1.502l0.011,0.019l2.77-0.212
	c0.288-0.021,0.345-0.021,0.37,0.022c0.025,0.043-0.043,0.146-0.142,0.305c-0.153,0.242-0.666,1.042-0.766,1.176
	c-0.076,0.101-0.511,0.735-0.773,1.109l0.011,0.019l2.044-0.851c0.091-0.04,0.156-0.071,0.233-0.115
	c0.091-0.052,0.098-0.139,0.07-0.232c-0.031-0.097-0.064-0.166-0.092-0.214c-0.022-0.038-0.032-0.077-0.008-0.091
	c0.043-0.025,0.077,0.013,0.119,0.084c0.116,0.2,0.226,0.424,0.275,0.51c0.053,0.091,0.199,0.312,0.288,0.465
	c0.028,0.047,0.04,0.091-0.003,0.116c-0.024,0.014-0.05-0.009-0.077-0.057c-0.022-0.038-0.042-0.072-0.097-0.135
	c-0.106-0.117-0.314-0.047-0.49,0.023L13.062,59.544z"/>
<path fill="#404041" d="M9.128,53.348c-0.129,0.048-0.331,0.028-0.407-0.179c-0.061-0.165,0-0.335,0.171-0.398
	c0.171-0.063,0.354,0.005,0.419,0.18C9.387,53.158,9.257,53.3,9.128,53.348 M11.329,52.572c-0.787,0.29-0.932,0.343-1.094,0.415
	c-0.172,0.075-0.241,0.159-0.225,0.283c0.005,0.062,0.025,0.132,0.048,0.194c0.019,0.052,0.02,0.087-0.021,0.102
	c-0.031,0.012-0.057-0.026-0.087-0.109c-0.072-0.197-0.177-0.529-0.232-0.679c-0.048-0.129-0.176-0.429-0.248-0.625
	c-0.025-0.068-0.029-0.112,0.001-0.124c0.042-0.015,0.063,0.012,0.082,0.064c0.019,0.052,0.04,0.091,0.073,0.15
	c0.077,0.13,0.181,0.139,0.366,0.083c0.17-0.05,0.314-0.104,1.101-0.394l0.911-0.336c0.502-0.185,0.911-0.336,1.126-0.438
	c0.134-0.067,0.214-0.138,0.177-0.3c-0.016-0.076-0.048-0.194-0.077-0.272c-0.021-0.057-0.015-0.088,0.011-0.098
	c0.036-0.013,0.067,0.022,0.088,0.079c0.126,0.342,0.23,0.674,0.282,0.813c0.044,0.119,0.179,0.44,0.256,0.647
	c0.025,0.068,0.023,0.109-0.014,0.123c-0.026,0.009-0.049-0.006-0.072-0.068c-0.029-0.078-0.062-0.136-0.09-0.179
	c-0.059-0.096-0.158-0.094-0.314-0.055c-0.227,0.054-0.636,0.205-1.138,0.39L11.329,52.572z"/>
<path fill="#404041" d="M10.166,48.928c-0.82,0.173-0.971,0.204-1.142,0.251c-0.181,0.05-0.258,0.111-0.259,0.297
	c-0.002,0.045,0.012,0.138,0.028,0.214c0.012,0.059,0.009,0.094-0.029,0.102c-0.038,0.008-0.056-0.027-0.074-0.109
	c-0.06-0.286-0.116-0.629-0.139-0.742c-0.039-0.183-0.141-0.59-0.176-0.758c-0.072-0.34-0.115-0.708,0.023-1.042
	c0.071-0.173,0.301-0.447,0.662-0.522c0.399-0.084,0.801,0.006,1.359,0.458c0.503-0.607,0.905-1.081,1.173-1.469
	c0.249-0.368,0.24-0.598,0.24-0.682c-0.001-0.062-0.007-0.111-0.015-0.154c-0.009-0.043,0.003-0.068,0.029-0.074
	c0.043-0.009,0.062,0.027,0.076,0.091l0.108,0.513c0.063,0.302,0.065,0.443,0.019,0.599c-0.076,0.258-0.286,0.517-0.638,0.906
	c-0.251,0.278-0.566,0.604-0.632,0.691c-0.027,0.034-0.025,0.068-0.017,0.106l0.088,0.471c0.006,0.027,0.02,0.041,0.052,0.034
	l0.076-0.016c0.502-0.106,0.928-0.195,1.149-0.27c0.153-0.049,0.265-0.106,0.252-0.273c-0.006-0.083-0.02-0.204-0.034-0.269
	c-0.009-0.043,0.003-0.068,0.029-0.074c0.038-0.008,0.062,0.027,0.077,0.097c0.066,0.313,0.133,0.715,0.151,0.796
	c0.022,0.103,0.109,0.439,0.155,0.655c0.015,0.07,0.007,0.111-0.031,0.119c-0.027,0.006-0.048-0.012-0.061-0.077
	c-0.017-0.081-0.041-0.144-0.062-0.19c-0.044-0.103-0.169-0.106-0.33-0.094c-0.232,0.021-0.659,0.111-1.155,0.215L10.166,48.928z
	 M10.458,48.201c0.059-0.013,0.079-0.028,0.087-0.069c0.014-0.122-0.004-0.287-0.032-0.422c-0.046-0.216-0.082-0.281-0.172-0.364
	c-0.153-0.137-0.434-0.241-0.876-0.148c-0.766,0.162-0.881,0.715-0.814,1.034c0.029,0.135,0.054,0.23,0.082,0.281
	c0.019,0.035,0.043,0.041,0.086,0.032L10.458,48.201z"/>
<path fill="#404041" d="M10.39,40.008c-0.297-0.014-0.421,0.036-0.584,0.1c-0.09,0.035-1.335,0.718-1.63,0.898
	c-0.21,0.129-0.354,0.26-0.419,0.362c-0.042,0.07-0.079,0.162-0.082,0.228c-0.002,0.044-0.015,0.082-0.053,0.08
	c-0.033-0.001-0.048-0.041-0.045-0.107c0.004-0.099,0.039-0.512,0.047-0.694c0.005-0.116-0.001-0.342,0.01-0.59
	c0.002-0.055,0.02-0.082,0.053-0.08c0.033,0.002,0.037,0.04,0.055,0.124c0.009,0.05,0.052,0.08,0.096,0.082
	c0.044,0.002,0.111-0.023,0.19-0.058c0.169-0.07,1.531-0.782,1.689-0.863c-0.13-0.061-1.311-0.81-1.478-0.894
	c-0.119-0.061-0.211-0.087-0.283-0.09c-0.055-0.003-0.117,0.017-0.143,0.109c-0.013,0.049-0.027,0.098-0.06,0.097
	c-0.039-0.002-0.048-0.03-0.045-0.097c0.008-0.182,0.033-0.357,0.04-0.517c0.005-0.121,0.005-0.486,0.01-0.59
	c0.003-0.06,0.015-0.099,0.049-0.097c0.039,0.002,0.053,0.047,0.05,0.107c-0.002,0.055,0.015,0.161,0.055,0.245
	c0.05,0.118,0.113,0.182,0.257,0.309c0.212,0.192,1.473,1.021,1.705,1.131c0.194,0.091,0.365,0.1,0.547,0.107l0.452,0.021
	c0.088,0.004,0.32,0.014,0.552,0.008c0.16-0.004,0.284-0.048,0.313-0.212c0.014-0.077,0.031-0.197,0.034-0.274
	c0.003-0.061,0.021-0.088,0.048-0.086c0.038,0.002,0.053,0.047,0.05,0.118c-0.016,0.347-0.048,0.693-0.054,0.842
	c-0.006,0.138-0.005,0.486-0.015,0.689c-0.003,0.077-0.016,0.121-0.061,0.119c-0.028-0.001-0.043-0.03-0.04-0.09
	c0.004-0.077-0.005-0.144-0.013-0.194c-0.017-0.112-0.136-0.166-0.295-0.185c-0.231-0.027-0.462-0.037-0.55-0.041L10.39,40.008z"/>
<path fill="#404041" d="M7.603,34.333c-0.102-0.023-0.231-0.13-0.193-0.302c0.031-0.14,0.142-0.234,0.288-0.202
	c0.151,0.033,0.247,0.162,0.212,0.318C7.872,34.318,7.717,34.358,7.603,34.333 M7.854,33.196c-0.108-0.024-0.237-0.131-0.199-0.303
	c0.031-0.14,0.142-0.234,0.293-0.201c0.151,0.033,0.247,0.162,0.212,0.318C8.123,33.182,7.967,33.221,7.854,33.196 M9.628,35.757
	c-0.819-0.181-0.969-0.214-1.144-0.241c-0.185-0.029-0.281-0.006-0.358,0.164c-0.02,0.041-0.046,0.131-0.063,0.206
	c-0.013,0.059-0.031,0.089-0.069,0.081c-0.038-0.009-0.04-0.048-0.022-0.129c0.063-0.286,0.154-0.621,0.19-0.783
	c0.029-0.129,0.087-0.472,0.13-0.666c0.018-0.081,0.037-0.116,0.074-0.108c0.038,0.008,0.041,0.043,0.03,0.097
	c-0.013,0.059-0.015,0.093-0.018,0.16c-0.005,0.151,0.077,0.215,0.263,0.267c0.17,0.049,0.321,0.082,1.139,0.263l0.754,0.166
	c0.781,0.173,1.144,0.088,1.418-0.127c0.252-0.199,0.329-0.442,0.369-0.625c0.052-0.237,0.041-0.545-0.127-0.807
	c-0.231-0.362-0.712-0.485-1.267-0.607l-0.673-0.148c-0.819-0.181-0.969-0.214-1.144-0.241c-0.185-0.029-0.281-0.006-0.358,0.164
	c-0.02,0.041-0.046,0.131-0.059,0.19C8.68,33.09,8.662,33.12,8.624,33.112c-0.038-0.008-0.04-0.048-0.023-0.123
	c0.061-0.274,0.152-0.61,0.153-0.615c0.014-0.065,0.073-0.407,0.119-0.618c0.017-0.076,0.036-0.111,0.073-0.103
	c0.038,0.009,0.041,0.043,0.027,0.108c-0.013,0.059-0.015,0.093-0.018,0.16c-0.005,0.151,0.077,0.215,0.263,0.267
	c0.17,0.049,0.321,0.082,1.139,0.263l0.576,0.127c0.598,0.132,1.22,0.332,1.508,0.869c0.244,0.455,0.218,0.856,0.141,1.206
	c-0.063,0.285-0.193,0.799-0.635,1.113c-0.308,0.22-0.752,0.337-1.533,0.165L9.628,35.757z"/>
<path fill="#404041" d="M11.785,29.128l0.011-0.026c-0.115-0.252-0.558-1.314-0.668-1.534c-0.107-0.213-0.187-0.379-0.273-0.415
	c-0.056-0.024-0.1-0.018-0.132,0.028c-0.03,0.041-0.048,0.057-0.079,0.044c-0.035-0.015-0.035-0.045-0.011-0.1
	c0.045-0.107,0.179-0.38,0.237-0.517c0.067-0.157,0.17-0.443,0.236-0.601c0.022-0.05,0.047-0.082,0.082-0.067
	c0.036,0.015,0.035,0.045,0.014,0.095c-0.03,0.071-0.064,0.207-0.069,0.318c-0.006,0.183,0.028,0.401,0.149,0.71
	c0.085,0.222,0.523,1.312,0.632,1.562c0.316-0.082,1.809-0.624,2.081-0.742c0.308-0.133,0.633-0.265,0.856-0.494
	c0.125-0.127,0.184-0.222,0.21-0.283c0.015-0.035,0.038-0.062,0.069-0.049c0.035,0.015,0.04,0.047-0.001,0.143l-0.187,0.442
	c-0.065,0.152-0.103,0.244-0.158,0.346c-0.142,0.263-0.311,0.353-0.597,0.49c-0.293,0.14-1.89,0.644-2.082,0.688l-0.1,0.024
	l-0.011,0.026l0.462,0.196c0.467,0.197,0.869,0.368,1.094,0.445c0.146,0.05,0.278,0.052,0.352-0.067
	c0.04-0.067,0.098-0.174,0.126-0.24c0.017-0.041,0.043-0.059,0.069-0.049c0.035,0.015,0.033,0.062,0.01,0.118
	c-0.12,0.285-0.271,0.598-0.325,0.725c-0.049,0.117-0.17,0.443-0.256,0.646c-0.028,0.066-0.058,0.095-0.094,0.08
	c-0.025-0.011-0.032-0.038-0.006-0.098c0.032-0.077,0.048-0.141,0.057-0.191c0.023-0.11-0.078-0.183-0.217-0.266
	c-0.203-0.115-0.604-0.286-1.071-0.483l-0.894-0.378c-0.772-0.327-0.914-0.387-1.081-0.446c-0.177-0.063-0.275-0.057-0.382,0.096
	c-0.027,0.036-0.069,0.121-0.099,0.192c-0.024,0.056-0.047,0.082-0.082,0.067c-0.035-0.015-0.031-0.055,0.001-0.131
	c0.114-0.269,0.265-0.583,0.317-0.705c0.052-0.122,0.172-0.448,0.245-0.621c0.03-0.071,0.055-0.103,0.091-0.087
	c0.036,0.015,0.033,0.05,0.016,0.091c-0.022,0.05-0.03,0.083-0.045,0.148c-0.033,0.148,0.037,0.225,0.21,0.311
	c0.158,0.079,0.3,0.139,1.073,0.466L11.785,29.128z"/>
<path fill="#404041" d="M15.716,26.192c-0.08,0.054-0.112,0.054-0.214-0.011c-0.257-0.161-0.526-0.355-0.598-0.406
	c-0.067-0.048-0.11-0.095-0.086-0.132c0.027-0.042,0.071-0.021,0.109,0.003c0.061,0.038,0.171,0.081,0.265,0.107
	c0.41,0.114,0.709-0.083,0.89-0.373c0.263-0.421,0.107-0.805-0.141-0.96c-0.229-0.143-0.488-0.208-1.034-0.01l-0.303,0.11
	c-0.724,0.263-1.162,0.236-1.541-0.001c-0.514-0.322-0.615-0.983-0.208-1.633c0.19-0.304,0.36-0.471,0.469-0.572
	c0.036-0.036,0.064-0.051,0.097-0.03c0.061,0.038,0.185,0.141,0.549,0.37c0.103,0.065,0.132,0.102,0.108,0.139
	c-0.02,0.033-0.057,0.029-0.113-0.006c-0.042-0.027-0.202-0.094-0.385-0.072c-0.133,0.015-0.358,0.062-0.548,0.366
	c-0.216,0.346-0.147,0.682,0.133,0.857c0.215,0.135,0.446,0.13,0.983-0.074l0.18-0.069c0.78-0.3,1.228-0.299,1.672-0.021
	c0.271,0.17,0.529,0.474,0.538,0.948c0.003,0.327-0.118,0.615-0.273,0.863C16.095,25.857,15.93,26.047,15.716,26.192"/>
<path fill="#404041" d="M16.343,20.88c-0.639-0.543-0.757-0.643-0.898-0.749c-0.15-0.113-0.246-0.136-0.393-0.022
	c-0.037,0.027-0.102,0.094-0.152,0.153c-0.039,0.046-0.069,0.065-0.098,0.039c-0.03-0.025-0.013-0.062,0.041-0.125
	c0.096-0.113,0.204-0.232,0.293-0.337c0.097-0.106,0.183-0.199,0.233-0.258c0.114-0.135,0.825-0.971,0.888-1.054
	c0.06-0.087,0.108-0.162,0.128-0.202c0.014-0.025,0.022-0.061,0.04-0.082c0.018-0.021,0.038-0.011,0.059,0.007
	c0.029,0.025,0.062,0.089,0.245,0.266c0.038,0.04,0.216,0.205,0.259,0.256c0.018,0.022,0.036,0.052,0.011,0.081
	c-0.025,0.029-0.053,0.02-0.091-0.012c-0.029-0.025-0.104-0.082-0.173-0.103c-0.101-0.035-0.187-0.035-0.39,0.153
	c-0.069,0.064-0.452,0.498-0.524,0.583c-0.018,0.021-0.012,0.04,0.017,0.065l1.064,0.903c0.029,0.025,0.05,0.035,0.071,0.01
	c0.079-0.092,0.489-0.576,0.563-0.68c0.077-0.108,0.118-0.182,0.108-0.256c-0.009-0.058-0.015-0.092,0.002-0.113
	c0.014-0.017,0.033-0.023,0.059-0.001c0.025,0.022,0.078,0.096,0.278,0.294c0.08,0.075,0.238,0.231,0.267,0.256
	c0.034,0.028,0.08,0.068,0.048,0.106c-0.025,0.029-0.049,0.024-0.07,0.006c-0.046-0.031-0.1-0.078-0.166-0.112
	c-0.102-0.05-0.215-0.045-0.364,0.096c-0.076,0.073-0.434,0.486-0.52,0.586c-0.018,0.021-0.005,0.039,0.021,0.061l0.332,0.282
	c0.143,0.121,0.526,0.454,0.652,0.554c0.297,0.238,0.417,0.224,0.781-0.205c0.093-0.109,0.243-0.286,0.285-0.438
	c0.042-0.152-0.003-0.278-0.15-0.453c-0.039-0.047-0.049-0.071-0.024-0.1c0.029-0.034,0.062-0.005,0.104,0.03
	c0.097,0.082,0.354,0.359,0.42,0.451c0.084,0.122,0.052,0.16-0.084,0.32c-0.268,0.315-0.472,0.539-0.63,0.716
	c-0.162,0.174-0.277,0.3-0.384,0.427c-0.039,0.046-0.118,0.138-0.199,0.243c-0.082,0.097-0.166,0.213-0.238,0.297
	c-0.046,0.055-0.084,0.074-0.114,0.049c-0.021-0.018-0.019-0.045,0.024-0.096c0.053-0.063,0.088-0.121,0.112-0.165
	c0.055-0.098-0.02-0.198-0.128-0.318c-0.159-0.171-0.491-0.453-0.878-0.781L16.343,20.88z"/>
<path fill="#404041" d="M20.317,17.084l0.021-0.018c0.011-0.277,0.09-1.425,0.09-1.671c0-0.238,0.003-0.422-0.058-0.494
	c-0.039-0.046-0.081-0.061-0.13-0.033c-0.045,0.024-0.069,0.029-0.09,0.004c-0.025-0.029-0.011-0.056,0.035-0.094
	c0.088-0.075,0.33-0.259,0.443-0.356c0.13-0.111,0.35-0.32,0.48-0.432c0.042-0.036,0.079-0.052,0.104-0.023
	c0.025,0.029,0.011,0.056-0.031,0.091c-0.059,0.05-0.149,0.156-0.204,0.253c-0.087,0.161-0.155,0.371-0.185,0.701
	c-0.023,0.237-0.12,1.407-0.134,1.679c0.319,0.068,1.896,0.253,2.192,0.269c0.335,0.019,0.685,0.047,0.987-0.058
	c0.169-0.057,0.264-0.116,0.314-0.159c0.029-0.025,0.062-0.038,0.083-0.013c0.025,0.029,0.015,0.06-0.065,0.128l-0.365,0.311
	c-0.126,0.107-0.201,0.171-0.297,0.238c-0.244,0.172-0.436,0.177-0.753,0.171c-0.324-0.006-1.977-0.271-2.169-0.318l-0.1-0.024
	l-0.021,0.018l0.325,0.382c0.329,0.386,0.612,0.718,0.778,0.887c0.109,0.111,0.225,0.171,0.344,0.098
	c0.066-0.041,0.165-0.112,0.22-0.158c0.033-0.029,0.065-0.034,0.083-0.013c0.025,0.029,0.002,0.07-0.044,0.11
	c-0.235,0.2-0.51,0.413-0.615,0.502c-0.097,0.082-0.35,0.32-0.518,0.463c-0.055,0.047-0.095,0.059-0.12,0.029
	c-0.018-0.021-0.012-0.048,0.038-0.091c0.063-0.054,0.106-0.105,0.137-0.146c0.07-0.088,0.012-0.199-0.075-0.335
	c-0.129-0.194-0.412-0.526-0.741-0.912l-0.629-0.739c-0.544-0.638-0.644-0.756-0.767-0.883c-0.13-0.135-0.221-0.174-0.384-0.085
	c-0.041,0.02-0.116,0.077-0.175,0.127c-0.046,0.039-0.079,0.053-0.103,0.023c-0.025-0.029-0.003-0.063,0.06-0.115
	c0.222-0.189,0.497-0.402,0.598-0.488c0.101-0.085,0.355-0.324,0.497-0.447c0.059-0.05,0.095-0.066,0.12-0.037
	c0.025,0.029,0.007,0.059-0.027,0.088c-0.042,0.035-0.063,0.062-0.107,0.112c-0.095,0.118-0.068,0.218,0.049,0.372
	c0.106,0.141,0.206,0.259,0.75,0.897L20.317,17.084z"/>
<path fill="#404041" d="M26.698,10.983l-0.731,0.376c-0.284,0.148-0.391,0.23-0.413,0.376c-0.014,0.098-0.01,0.17-0.001,0.215
	c0.009,0.044,0.004,0.071-0.026,0.086c-0.035,0.017-0.056-0.003-0.083-0.058c-0.038-0.08-0.161-0.578-0.17-0.622
	c-0.016-0.071-0.016-0.109,0.014-0.123c0.04-0.019,0.113,0.007,0.242-0.043c0.151-0.054,0.345-0.135,0.509-0.214l1.969-0.945
	c0.159-0.077,0.261-0.144,0.331-0.19c0.067-0.05,0.102-0.079,0.122-0.089c0.035-0.016,0.054,0.011,0.09,0.086
	c0.05,0.104,0.2,0.455,0.262,0.584c0.019,0.053,0.023,0.087-0.006,0.101c-0.04,0.019-0.062-0.001-0.103-0.073l-0.031-0.053
	c-0.072-0.124-0.273-0.199-0.72,0.003l-0.634,0.286l0.979,2.038c0.22,0.458,0.408,0.85,0.536,1.052
	c0.082,0.132,0.164,0.227,0.323,0.175c0.074-0.024,0.189-0.066,0.263-0.102c0.055-0.027,0.087-0.024,0.099,0.001
	c0.017,0.035-0.016,0.069-0.071,0.095c-0.328,0.158-0.648,0.293-0.788,0.36c-0.114,0.055-0.421,0.22-0.619,0.316
	c-0.065,0.031-0.107,0.032-0.123-0.002c-0.012-0.025,0.001-0.049,0.06-0.078c0.075-0.036,0.13-0.074,0.17-0.106
	c0.09-0.068,0.067-0.191,0.013-0.343c-0.076-0.221-0.264-0.614-0.484-1.071L26.698,10.983z"/>
<path fill="#404041" d="M31.449,10.429c-0.24-0.804-0.284-0.951-0.345-1.118c-0.064-0.177-0.132-0.248-0.317-0.233
	c-0.046,0.002-0.137,0.024-0.211,0.046c-0.058,0.017-0.093,0.016-0.104-0.021c-0.011-0.037,0.023-0.059,0.102-0.082
	c0.143-0.043,0.298-0.083,0.43-0.123c0.139-0.035,0.262-0.067,0.336-0.088c0.169-0.05,1.221-0.364,1.32-0.399
	c0.097-0.041,0.179-0.077,0.218-0.1c0.025-0.013,0.052-0.038,0.078-0.047c0.026-0.008,0.038,0.012,0.046,0.038
	c0.011,0.037,0.003,0.109,0.06,0.356c0.01,0.054,0.069,0.29,0.078,0.357c0.002,0.028,0.001,0.063-0.036,0.074
	c-0.037,0.011-0.055-0.012-0.07-0.06c-0.011-0.037-0.043-0.125-0.088-0.181c-0.065-0.084-0.137-0.132-0.411-0.085
	c-0.093,0.016-0.651,0.171-0.757,0.203c-0.026,0.008-0.032,0.027-0.021,0.064l0.399,1.337c0.011,0.037,0.023,0.056,0.055,0.047
	c0.116-0.035,0.724-0.216,0.843-0.263c0.124-0.048,0.198-0.088,0.23-0.155c0.025-0.053,0.038-0.086,0.064-0.094
	c0.021-0.006,0.04,0,0.05,0.031c0.009,0.032,0.014,0.123,0.073,0.399c0.027,0.107,0.074,0.323,0.085,0.36
	c0.012,0.042,0.03,0.1-0.018,0.115c-0.037,0.011-0.054-0.007-0.062-0.033c-0.021-0.051-0.042-0.12-0.078-0.184
	c-0.058-0.098-0.156-0.155-0.357-0.118c-0.104,0.019-0.629,0.17-0.755,0.208c-0.027,0.008-0.025,0.031-0.016,0.062l0.124,0.418
	c0.054,0.18,0.193,0.668,0.244,0.819c0.12,0.362,0.228,0.415,0.767,0.255c0.137-0.041,0.359-0.107,0.478-0.212
	c0.118-0.104,0.149-0.234,0.121-0.462C33.996,11.5,34,11.476,34.037,11.465c0.042-0.013,0.055,0.03,0.07,0.083
	c0.036,0.121,0.101,0.494,0.106,0.607c0.004,0.149-0.043,0.163-0.244,0.223c-0.397,0.118-0.69,0.194-0.919,0.257
	c-0.23,0.057-0.396,0.101-0.554,0.148c-0.058,0.018-0.174,0.052-0.3,0.095c-0.122,0.036-0.256,0.088-0.361,0.119
	c-0.069,0.021-0.111,0.016-0.122-0.021c-0.008-0.027,0.009-0.048,0.072-0.068c0.079-0.024,0.139-0.053,0.184-0.078
	c0.1-0.053,0.091-0.177,0.067-0.336c-0.04-0.23-0.164-0.648-0.309-1.134L31.449,10.429z"/>
<path fill="#404041" d="M36.85,9.419l0.027-0.003c0.16-0.226,0.854-1.144,0.989-1.35c0.13-0.2,0.233-0.352,0.221-0.445
	c-0.008-0.06-0.034-0.096-0.091-0.1c-0.051-0.005-0.074-0.013-0.078-0.046C37.913,7.437,37.939,7.423,38,7.415
	c0.115-0.015,0.418-0.037,0.565-0.056c0.17-0.022,0.468-0.077,0.638-0.099c0.055-0.007,0.094-0.001,0.099,0.037
	c0.005,0.038-0.021,0.053-0.076,0.06c-0.076,0.01-0.21,0.049-0.309,0.101c-0.161,0.087-0.332,0.226-0.538,0.486
	c-0.148,0.186-0.869,1.112-1.03,1.333c0.23,0.232,1.45,1.248,1.689,1.423c0.27,0.199,0.548,0.413,0.858,0.49
	c0.173,0.045,0.284,0.047,0.35,0.039c0.038-0.005,0.072,0.002,0.077,0.034c0.005,0.038-0.02,0.059-0.124,0.072l-0.476,0.061
	c-0.164,0.021-0.263,0.034-0.379,0.037c-0.299,0.011-0.462-0.091-0.724-0.268c-0.268-0.183-1.508-1.308-1.643-1.452L36.906,9.64
	l-0.027,0.004l0.064,0.498c0.065,0.504,0.12,0.936,0.167,1.169c0.03,0.152,0.095,0.266,0.235,0.27
	c0.078,0.001,0.2-0.003,0.271-0.012c0.044-0.006,0.073,0.007,0.077,0.035c0.005,0.038-0.037,0.06-0.097,0.068
	c-0.306,0.039-0.653,0.067-0.79,0.085c-0.126,0.016-0.468,0.077-0.687,0.105c-0.071,0.009-0.111-0.003-0.116-0.041
	c-0.004-0.027,0.016-0.047,0.082-0.055c0.082-0.01,0.146-0.03,0.194-0.047c0.107-0.036,0.118-0.16,0.12-0.321
	c-0.002-0.233-0.058-0.665-0.122-1.169l-0.123-0.963c-0.107-0.831-0.126-0.984-0.16-1.158c-0.035-0.185-0.09-0.267-0.275-0.282
	c-0.045-0.005-0.139,0.001-0.215,0.011c-0.06,0.008-0.094,0.001-0.099-0.037c-0.005-0.038,0.032-0.054,0.114-0.065
	c0.29-0.037,0.637-0.065,0.768-0.082c0.131-0.017,0.474-0.077,0.66-0.102c0.077-0.009,0.116-0.003,0.121,0.035
	c0.005,0.038-0.027,0.053-0.07,0.059C36.94,7.651,36.908,7.66,36.844,7.68c-0.144,0.046-0.176,0.145-0.163,0.338
	c0.012,0.177,0.031,0.33,0.138,1.161L36.85,9.419z"/>
<path fill="#404041" d="M41.972,10.641c-0.015,0.43,0.047,0.577,0.155,0.622c0.091,0.039,0.196,0.051,0.284,0.056
	c0.06,0.004,0.093,0.017,0.091,0.05c-0.003,0.044-0.053,0.052-0.13,0.047c-0.358-0.022-0.577-0.052-0.681-0.059
	c-0.05-0.003-0.309-0.003-0.595-0.02c-0.071-0.004-0.121-0.013-0.118-0.062c0.002-0.033,0.036-0.042,0.091-0.038
	c0.072,0.004,0.171,0.005,0.249-0.012c0.146-0.035,0.178-0.194,0.213-0.672l0.249-3.255c0.007-0.11,0.028-0.186,0.083-0.183
	c0.06,0.003,0.106,0.078,0.193,0.183c0.062,0.076,0.843,1.024,1.598,1.871c0.351,0.397,1.045,1.235,1.134,1.329l0.028,0.001
	l0.096-2.474c0.015-0.336-0.028-0.444-0.157-0.507c-0.081-0.038-0.213-0.046-0.29-0.051c-0.066-0.004-0.087-0.022-0.085-0.055
	c0.003-0.044,0.064-0.046,0.146-0.041c0.286,0.018,0.549,0.05,0.665,0.057c0.06,0.004,0.271,0,0.54,0.017
	c0.072,0.004,0.126,0.013,0.124,0.057c-0.002,0.033-0.036,0.047-0.102,0.043c-0.055-0.003-0.099-0.006-0.166,0.007
	c-0.157,0.035-0.208,0.147-0.232,0.455l-0.273,3.468c-0.007,0.121-0.032,0.169-0.082,0.166c-0.061-0.004-0.123-0.068-0.18-0.132
	c-0.327-0.351-0.987-1.116-1.524-1.717c-0.564-0.631-1.132-1.356-1.225-1.467l-0.017-0.001L41.972,10.641z"/>
<path fill="#404041" d="M47.617,9.844c0.246-0.91,1.166-1.924,2.762-1.492c1.325,0.358,1.942,1.353,1.612,2.572
	c-0.33,1.219-1.442,1.952-2.794,1.586C47.671,12.097,47.363,10.786,47.617,9.844 M51.194,10.919
	c0.322-1.192-0.164-2.118-1.037-2.354c-0.612-0.165-1.402-0.013-1.76,1.312c-0.299,1.107,0.075,2.151,1.097,2.428
	C49.866,12.405,50.778,12.457,51.194,10.919"/>
<path fill="#404041" d="M54.639,12.711c-0.299,0.639-0.46,0.984-0.397,1.123c0.05,0.115,0.163,0.21,0.553,0.392
	c0.265,0.124,0.462,0.21,0.65,0.133c0.09-0.037,0.216-0.149,0.27-0.239c0.026-0.043,0.05-0.068,0.09-0.049
	c0.035,0.016,0.028,0.044,0,0.103c-0.026,0.055-0.236,0.413-0.343,0.539c-0.081,0.096-0.118,0.109-0.378-0.012
	c-0.36-0.168-0.615-0.3-0.837-0.409c-0.22-0.115-0.398-0.204-0.602-0.3c-0.055-0.026-0.165-0.077-0.287-0.128
	c-0.115-0.054-0.25-0.104-0.349-0.151c-0.065-0.03-0.093-0.062-0.077-0.097c0.012-0.025,0.039-0.03,0.098-0.003
	c0.075,0.035,0.14,0.053,0.189,0.064c0.109,0.027,0.186-0.071,0.273-0.207c0.123-0.198,0.307-0.593,0.522-1.052l0.411-0.879
	c0.355-0.76,0.42-0.899,0.485-1.064c0.069-0.174,0.067-0.273-0.082-0.385c-0.035-0.029-0.093-0.062-0.158-0.092
	c-0.055-0.026-0.08-0.05-0.064-0.085c0.016-0.035,0.056-0.029,0.131,0.008c0.235,0.109,0.543,0.272,0.677,0.335
	c0.12,0.056,0.492,0.212,0.686,0.301c0.07,0.033,0.1,0.059,0.084,0.094c-0.016,0.035-0.051,0.031-0.111,0.003
	c-0.055-0.026-0.137-0.058-0.202-0.076c-0.147-0.038-0.226,0.028-0.318,0.198c-0.085,0.156-0.15,0.295-0.505,1.054L54.639,12.711z"
	/>
<path fill="#404041" d="M57.817,13.754c0.54-0.773,1.749-1.415,3.105-0.468c1.126,0.786,1.369,1.932,0.645,2.967
	c-0.723,1.035-2.018,1.348-3.167,0.546C57.103,15.892,57.258,14.554,57.817,13.754 M60.818,15.978
	c0.708-1.013,0.564-2.049-0.178-2.567c-0.52-0.363-1.314-0.488-2.101,0.638c-0.657,0.94-0.658,2.049,0.21,2.656
	C59.065,16.927,59.905,17.285,60.818,15.978"/>
<path fill="#404041" d="M63.626,17.646c0.58-0.605,0.687-0.716,0.801-0.851c0.122-0.143,0.151-0.237,0.046-0.391
	c-0.024-0.038-0.088-0.107-0.144-0.161c-0.044-0.042-0.06-0.073-0.034-0.101c0.027-0.028,0.062-0.009,0.122,0.048
	c0.211,0.202,0.45,0.455,0.554,0.554c0.096,0.091,0.358,0.32,0.513,0.469c0.056,0.053,0.076,0.088,0.049,0.116
	c-0.027,0.028-0.058,0.013-0.106-0.033c-0.044-0.042-0.071-0.061-0.127-0.099c-0.127-0.083-0.223-0.046-0.365,0.086
	c-0.13,0.12-0.237,0.231-0.817,0.836l-0.706,0.736c-0.164,0.171-0.335,0.374-0.526,0.573c-0.218,0.227-0.478,0.466-0.771,0.613
	c-0.316,0.162-0.791,0.235-1.398,0.103c-0.082-0.018-0.177-0.047-0.298-0.087c-0.043-0.011-0.082-0.034-0.102-0.053
	c-0.016-0.015-0.021-0.042-0.001-0.062c0.019-0.02,0.054-0.017,0.156,0.012c0.078,0.022,0.18,0.035,0.336,0.032
	c0.596-0.016,0.974-0.418,1.722-1.198L63.626,17.646z"/>
<path fill="#404041" d="M66.086,20.238c0.645-0.536,0.763-0.634,0.892-0.755c0.137-0.128,0.174-0.23,0.118-0.342
	c-0.026-0.057-0.068-0.116-0.11-0.167c-0.035-0.043-0.048-0.075-0.014-0.103c0.025-0.021,0.062,0.006,0.119,0.074
	c0.134,0.161,0.343,0.439,0.445,0.562c0.088,0.106,0.309,0.346,0.443,0.506c0.046,0.055,0.065,0.096,0.04,0.118
	c-0.034,0.028-0.063,0.009-0.099-0.033c-0.035-0.042-0.068-0.073-0.118-0.117c-0.116-0.097-0.216-0.071-0.372,0.044
	c-0.143,0.104-0.262,0.203-0.906,0.738l-0.746,0.62c-0.411,0.342-0.746,0.62-0.915,0.789c-0.104,0.108-0.156,0.201-0.067,0.342
	c0.041,0.067,0.11,0.167,0.163,0.231c0.039,0.047,0.044,0.078,0.022,0.096c-0.03,0.025-0.071,0.001-0.109-0.045
	c-0.233-0.28-0.442-0.558-0.537-0.672c-0.081-0.098-0.316-0.355-0.457-0.524c-0.046-0.055-0.058-0.095-0.028-0.12
	c0.021-0.018,0.048-0.011,0.09,0.04c0.053,0.064,0.104,0.108,0.144,0.138c0.087,0.071,0.181,0.036,0.314-0.053
	c0.196-0.127,0.531-0.405,0.942-0.747L66.086,20.238z M67.901,18.774c0.106-0.088,0.302-0.136,0.443,0.033
	c0.113,0.136,0.112,0.315-0.028,0.432c-0.14,0.116-0.335,0.114-0.455-0.03C67.719,19.039,67.795,18.862,67.901,18.774"/>
<path fill="#404041" d="M69.875,25.758c0.747-0.38,0.885-0.45,1.037-0.539c0.162-0.095,0.221-0.174,0.173-0.354
	c-0.01-0.044-0.048-0.13-0.083-0.199c-0.027-0.054-0.032-0.088,0.002-0.106c0.034-0.018,0.062,0.012,0.099,0.086
	c0.068,0.133,0.135,0.277,0.197,0.4c0.06,0.13,0.113,0.246,0.147,0.315c0.08,0.157,0.577,1.136,0.629,1.226
	c0.057,0.088,0.107,0.162,0.137,0.197c0.018,0.022,0.047,0.044,0.06,0.069c0.012,0.024-0.005,0.039-0.029,0.052
	c-0.034,0.018-0.106,0.023-0.34,0.123c-0.052,0.02-0.273,0.12-0.337,0.14c-0.027,0.008-0.062,0.013-0.079-0.022
	c-0.018-0.034,0.002-0.056,0.046-0.079c0.034-0.018,0.115-0.065,0.162-0.12c0.071-0.079,0.105-0.158,0.01-0.419
	c-0.033-0.089-0.285-0.61-0.335-0.708c-0.012-0.024-0.032-0.027-0.067-0.009l-1.244,0.632c-0.034,0.018-0.051,0.032-0.037,0.062
	c0.055,0.108,0.342,0.674,0.409,0.782c0.07,0.113,0.122,0.179,0.194,0.198c0.057,0.015,0.091,0.021,0.104,0.046
	c0.01,0.02,0.008,0.039-0.022,0.054c-0.029,0.015-0.118,0.035-0.379,0.143c-0.101,0.045-0.305,0.13-0.339,0.147
	c-0.04,0.02-0.094,0.048-0.116,0.003c-0.018-0.035-0.003-0.054,0.021-0.067c0.047-0.03,0.111-0.062,0.167-0.109
	c0.086-0.075,0.124-0.181,0.051-0.373c-0.037-0.099-0.28-0.588-0.34-0.706c-0.012-0.024-0.035-0.02-0.064-0.004l-0.389,0.197
	c-0.167,0.085-0.621,0.31-0.762,0.387c-0.334,0.182-0.368,0.298-0.113,0.8c0.065,0.128,0.17,0.334,0.294,0.432
	c0.124,0.098,0.257,0.104,0.476,0.036c0.059-0.018,0.084-0.018,0.101,0.017c0.02,0.039-0.019,0.059-0.069,0.084
	c-0.113,0.057-0.467,0.188-0.578,0.213c-0.145,0.03-0.168-0.014-0.263-0.2c-0.187-0.369-0.315-0.644-0.417-0.858
	c-0.098-0.216-0.17-0.371-0.245-0.519c-0.028-0.054-0.083-0.162-0.147-0.278c-0.057-0.113-0.132-0.236-0.182-0.334
	c-0.032-0.064-0.035-0.106-0.001-0.124c0.025-0.012,0.049,0,0.079,0.059c0.037,0.074,0.077,0.128,0.109,0.167
	c0.07,0.088,0.19,0.058,0.343,0.005c0.219-0.08,0.607-0.277,1.06-0.507L69.875,25.758z"/>
<path fill="#404041" d="M70.243,31.016c-0.409,0.134-0.526,0.244-0.531,0.36c-0.005,0.1,0.02,0.201,0.046,0.286
	c0.017,0.058,0.016,0.093-0.015,0.103c-0.042,0.012-0.067-0.032-0.089-0.106c-0.103-0.343-0.15-0.559-0.18-0.66
	c-0.014-0.047-0.104-0.291-0.187-0.566c-0.021-0.069-0.03-0.118,0.018-0.132c0.032-0.009,0.052,0.019,0.068,0.072
	c0.021,0.069,0.055,0.162,0.098,0.23c0.084,0.125,0.243,0.1,0.704-0.032l3.142-0.889c0.106-0.032,0.184-0.038,0.2,0.015
	c0.017,0.058-0.037,0.126-0.105,0.244c-0.05,0.084-0.67,1.145-1.205,2.146c-0.252,0.467-0.799,1.408-0.856,1.523l0.008,0.027
	l2.356-0.764c0.321-0.102,0.407-0.179,0.422-0.322c0.008-0.089-0.03-0.215-0.052-0.289c-0.019-0.064-0.01-0.089,0.022-0.099
	c0.042-0.013,0.065,0.044,0.089,0.123c0.082,0.275,0.142,0.533,0.176,0.644c0.017,0.059,0.093,0.254,0.171,0.513
	c0.021,0.068,0.031,0.123-0.011,0.136c-0.032,0.01-0.057-0.018-0.076-0.081c-0.016-0.053-0.029-0.095-0.063-0.154
	c-0.087-0.135-0.21-0.144-0.508-0.061l-3.351,0.94c-0.116,0.035-0.17,0.028-0.184-0.02c-0.018-0.058,0.022-0.138,0.062-0.214
	c0.217-0.428,0.707-1.311,1.086-2.024c0.398-0.747,0.883-1.531,0.955-1.656l-0.005-0.016L70.243,31.016z"/>
<path fill="#404041" d="M70.915,36.596c0.028-0.092,0.054-0.112,0.174-0.126c0.301-0.035,0.632-0.052,0.721-0.057
	c0.083-0.004,0.145,0.005,0.15,0.049c0.006,0.05-0.043,0.061-0.087,0.066c-0.071,0.009-0.184,0.044-0.274,0.082
	c-0.391,0.168-0.501,0.509-0.461,0.848c0.058,0.493,0.421,0.695,0.711,0.66c0.268-0.032,0.511-0.144,0.813-0.64l0.168-0.275
	c0.4-0.658,0.759-0.911,1.203-0.963c0.602-0.071,1.094,0.382,1.184,1.143c0.042,0.356,0.014,0.592-0.007,0.739
	c-0.005,0.051-0.018,0.08-0.057,0.084c-0.071,0.009-0.233,0.006-0.66,0.056c-0.121,0.015-0.166,0.003-0.171-0.041
	c-0.004-0.038,0.026-0.059,0.092-0.067c0.049-0.006,0.216-0.053,0.345-0.185c0.094-0.094,0.24-0.273,0.198-0.629
	c-0.048-0.405-0.312-0.624-0.641-0.585c-0.252,0.03-0.429,0.178-0.72,0.673l-0.097,0.167c-0.42,0.721-0.77,1.001-1.291,1.063
	c-0.318,0.038-0.71-0.038-1.014-0.403c-0.207-0.253-0.293-0.554-0.327-0.844C70.829,37.095,70.838,36.844,70.915,36.596"/>
<path fill="#404041" d="M75.024,41.92l0.005-0.822c-0.001-0.32-0.023-0.453-0.142-0.54c-0.081-0.058-0.146-0.088-0.19-0.1
	c-0.044-0.013-0.065-0.03-0.064-0.063c0.001-0.038,0.029-0.049,0.09-0.047c0.088,0.003,0.586,0.124,0.63,0.137
	c0.071,0.019,0.104,0.036,0.103,0.069c-0.002,0.044-0.059,0.098-0.074,0.235c-0.022,0.159-0.04,0.368-0.046,0.551l-0.073,2.183
	c-0.006,0.176,0.007,0.298,0.015,0.381c0.014,0.083,0.023,0.127,0.023,0.15c-0.001,0.039-0.035,0.043-0.117,0.041
	c-0.116-0.004-0.496-0.033-0.639-0.038c-0.055-0.007-0.088-0.02-0.087-0.053c0.002-0.044,0.03-0.054,0.112-0.057l0.061-0.004
	c0.144-0.006,0.303-0.15,0.33-0.64l0.04-0.694l-2.261-0.075c-0.507-0.017-0.942-0.032-1.181-0.012
	c-0.155,0.012-0.277,0.041-0.305,0.205c-0.014,0.077-0.029,0.197-0.031,0.28c-0.002,0.061-0.019,0.088-0.047,0.087
	c-0.039-0.001-0.054-0.046-0.052-0.107c0.012-0.364,0.04-0.711,0.045-0.865c0.004-0.127-0.001-0.475,0.007-0.695
	c0.002-0.072,0.02-0.11,0.059-0.109c0.028,0.001,0.044,0.024,0.041,0.09c-0.003,0.083,0.006,0.15,0.015,0.199
	c0.018,0.111,0.138,0.148,0.298,0.17c0.231,0.035,0.666,0.05,1.173,0.067L75.024,41.92z"/>
<path fill="#404041" d="M73.315,46.364c0.826,0.144,0.978,0.171,1.154,0.191c0.187,0.022,0.289-0.016,0.337-0.131
	c0.027-0.057,0.045-0.127,0.056-0.192c0.01-0.054,0.026-0.085,0.07-0.077c0.032,0.005,0.036,0.051,0.021,0.138
	c-0.036,0.206-0.112,0.546-0.14,0.704c-0.024,0.136-0.064,0.459-0.1,0.665c-0.012,0.071-0.031,0.112-0.063,0.106
	c-0.043-0.007-0.048-0.042-0.039-0.096c0.009-0.055,0.012-0.099,0.012-0.166c-0.001-0.152-0.086-0.211-0.275-0.255
	c-0.172-0.041-0.324-0.068-1.15-0.213l-0.956-0.168c-0.527-0.092-0.956-0.167-1.194-0.186c-0.149-0.009-0.254,0.011-0.304,0.171
	c-0.024,0.074-0.056,0.191-0.07,0.273c-0.01,0.06-0.032,0.084-0.059,0.08c-0.038-0.007-0.047-0.053-0.036-0.113
	c0.063-0.359,0.139-0.698,0.165-0.845c0.022-0.125,0.066-0.47,0.104-0.687c0.012-0.071,0.035-0.106,0.074-0.099
	c0.027,0.004,0.04,0.029,0.028,0.094c-0.014,0.082-0.015,0.149-0.013,0.2c0.003,0.112,0.089,0.162,0.244,0.205
	c0.224,0.067,0.653,0.142,1.18,0.235L73.315,46.364z M75.608,46.799c0.136,0.024,0.3,0.142,0.262,0.359
	c-0.031,0.174-0.168,0.29-0.348,0.258c-0.179-0.031-0.304-0.182-0.272-0.367C75.288,46.833,75.472,46.776,75.608,46.799"/>
<path fill="#404041" d="M73.487,51.19l0.233-0.788c0.089-0.307,0.103-0.442,0.014-0.558c-0.062-0.078-0.116-0.125-0.155-0.149
	c-0.039-0.024-0.054-0.047-0.044-0.078c0.012-0.037,0.042-0.038,0.099-0.02c0.084,0.027,0.529,0.282,0.567,0.306
	c0.063,0.038,0.089,0.064,0.079,0.095c-0.014,0.042-0.083,0.077-0.136,0.205c-0.065,0.147-0.141,0.343-0.197,0.516l-0.676,2.076
	c-0.055,0.168-0.076,0.288-0.092,0.37c-0.01,0.084-0.013,0.129-0.02,0.15c-0.012,0.037-0.045,0.032-0.124,0.006
	c-0.11-0.036-0.467-0.169-0.603-0.214c-0.051-0.022-0.079-0.043-0.069-0.074c0.014-0.042,0.043-0.044,0.124-0.024l0.059,0.013
	c0.14,0.034,0.333-0.06,0.495-0.523l0.231-0.655l-2.149-0.7c-0.482-0.157-0.897-0.292-1.131-0.339
	c-0.152-0.032-0.277-0.038-0.35,0.112c-0.034,0.07-0.082,0.182-0.108,0.26c-0.019,0.058-0.043,0.079-0.069,0.071
	c-0.037-0.012-0.039-0.059-0.02-0.116c0.113-0.346,0.236-0.671,0.284-0.818c0.039-0.121,0.131-0.456,0.199-0.666
	c0.022-0.068,0.05-0.1,0.087-0.088c0.026,0.009,0.035,0.035,0.015,0.097c-0.026,0.079-0.036,0.145-0.041,0.196
	c-0.013,0.112,0.092,0.181,0.239,0.246c0.212,0.098,0.626,0.233,1.108,0.39L73.487,51.19z"/>
<path fill="#404041" d="M70.727,54.837c0.739,0.396,0.875,0.469,1.036,0.542c0.171,0.079,0.269,0.082,0.389-0.06
	c0.031-0.034,0.08-0.114,0.116-0.182c0.029-0.054,0.054-0.078,0.088-0.059c0.034,0.018,0.026,0.057-0.013,0.13
	c-0.138,0.258-0.317,0.556-0.395,0.702c-0.062,0.117-0.212,0.431-0.306,0.606c-0.039,0.073-0.067,0.102-0.101,0.084
	c-0.034-0.018-0.028-0.053-0.002-0.101c0.029-0.053,0.039-0.085,0.061-0.149c0.046-0.144-0.016-0.227-0.181-0.328
	c-0.15-0.093-0.286-0.166-1.025-0.562l-0.681-0.365c-0.705-0.377-1.077-0.395-1.399-0.262c-0.297,0.123-0.436,0.336-0.525,0.501
	c-0.115,0.214-0.187,0.513-0.097,0.812c0.124,0.411,0.554,0.66,1.055,0.928l0.608,0.326c0.739,0.396,0.875,0.469,1.036,0.542
	c0.171,0.079,0.269,0.082,0.389-0.061c0.031-0.034,0.08-0.114,0.108-0.167c0.029-0.053,0.054-0.077,0.088-0.059
	c0.034,0.018,0.025,0.058-0.011,0.125c-0.133,0.248-0.312,0.547-0.314,0.551c-0.031,0.059-0.181,0.372-0.282,0.562
	c-0.037,0.068-0.065,0.097-0.099,0.079c-0.034-0.018-0.028-0.053,0.003-0.111c0.029-0.053,0.039-0.085,0.061-0.149
	c0.046-0.144-0.016-0.227-0.181-0.328c-0.15-0.093-0.287-0.166-1.026-0.562l-0.52-0.278c-0.54-0.289-1.085-0.65-1.216-1.246
	c-0.112-0.504,0.022-0.883,0.192-1.198c0.138-0.258,0.403-0.717,0.914-0.9c0.356-0.128,0.815-0.12,1.52,0.257L70.727,54.837z
	 M71.74,57.782c0.097,0.052,0.192,0.191,0.109,0.346c-0.068,0.127-0.2,0.187-0.336,0.114c-0.136-0.073-0.194-0.223-0.118-0.364
	C71.478,57.723,71.638,57.727,71.74,57.782 M72.29,56.756c0.092,0.05,0.187,0.188,0.104,0.343c-0.068,0.127-0.2,0.187-0.332,0.117
	c-0.136-0.073-0.194-0.223-0.118-0.364C72.027,56.697,72.188,56.701,72.29,56.756"/>
<path fill="#404041" d="M65.674,58.456c0.084-0.046,0.116-0.042,0.212,0.032c0.24,0.185,0.489,0.404,0.555,0.462
	c0.062,0.055,0.1,0.105,0.073,0.14c-0.03,0.039-0.073,0.013-0.108-0.014c-0.057-0.044-0.162-0.097-0.253-0.132
	c-0.397-0.153-0.714,0.014-0.922,0.285c-0.303,0.393-0.185,0.791,0.047,0.969c0.214,0.165,0.465,0.254,1.029,0.111l0.312-0.079
	c0.746-0.191,1.179-0.122,1.533,0.151c0.48,0.371,0.516,1.038,0.048,1.646c-0.219,0.283-0.404,0.433-0.522,0.523
	c-0.039,0.033-0.069,0.044-0.1,0.021c-0.057-0.044-0.17-0.159-0.511-0.421c-0.096-0.074-0.121-0.114-0.094-0.149
	c0.024-0.03,0.06-0.023,0.112,0.017c0.039,0.03,0.191,0.113,0.376,0.109c0.134-0.002,0.362-0.027,0.581-0.312
	c0.249-0.323,0.213-0.664-0.049-0.866c-0.201-0.155-0.431-0.172-0.986-0.022l-0.186,0.052c-0.805,0.222-1.251,0.178-1.666-0.142
	c-0.253-0.195-0.481-0.524-0.444-0.996c0.028-0.326,0.178-0.601,0.356-0.832C65.265,58.753,65.447,58.58,65.674,58.456"/>
<path fill="#404041" d="M64.699,63.56c0.572,0.613,0.677,0.726,0.805,0.848c0.136,0.13,0.228,0.164,0.388,0.068
	c0.04-0.022,0.112-0.082,0.169-0.135c0.044-0.041,0.076-0.056,0.102-0.028c0.026,0.029,0.006,0.063-0.055,0.118
	c-0.214,0.199-0.479,0.424-0.6,0.537c-0.097,0.09-0.34,0.339-0.485,0.476c-0.06,0.056-0.096,0.075-0.123,0.047
	c-0.026-0.028-0.01-0.059,0.031-0.097c0.044-0.041,0.065-0.068,0.106-0.121c0.09-0.122,0.058-0.221-0.065-0.369
	c-0.112-0.137-0.218-0.25-0.789-0.863l-0.526-0.565c-0.545-0.585-0.892-0.722-1.239-0.699c-0.321,0.02-0.521,0.177-0.658,0.305
	c-0.178,0.165-0.343,0.425-0.354,0.736c-0.015,0.429,0.311,0.803,0.699,1.219l0.47,0.504c0.571,0.613,0.677,0.726,0.805,0.848
	c0.136,0.13,0.228,0.164,0.388,0.068c0.04-0.022,0.112-0.082,0.156-0.124c0.044-0.041,0.076-0.056,0.103-0.027
	c0.026,0.028,0.006,0.062-0.051,0.114c-0.206,0.192-0.471,0.416-0.475,0.42c-0.048,0.045-0.291,0.294-0.449,0.442
	c-0.056,0.053-0.092,0.071-0.119,0.043c-0.026-0.028-0.01-0.059,0.039-0.104c0.044-0.041,0.065-0.068,0.106-0.121
	c0.09-0.121,0.059-0.221-0.065-0.369c-0.112-0.137-0.218-0.25-0.789-0.863l-0.402-0.431c-0.417-0.448-0.817-0.966-0.748-1.572
	c0.057-0.513,0.306-0.828,0.568-1.072c0.214-0.2,0.612-0.548,1.155-0.557c0.378-0.006,0.81,0.149,1.355,0.734L64.699,63.56z
	 M64.706,66.674c0.075,0.081,0.12,0.242-0.009,0.362c-0.105,0.098-0.25,0.112-0.355-0.001c-0.105-0.112-0.112-0.273,0.006-0.382
	C64.477,66.533,64.627,66.589,64.706,66.674 M65.557,65.88c0.072,0.077,0.117,0.238-0.012,0.359
	c-0.105,0.097-0.25,0.112-0.351,0.003c-0.105-0.113-0.111-0.273,0.006-0.382C65.328,65.74,65.478,65.796,65.557,65.88"/>
<path fill="#FFFFFF" d="M40.135,37.589h-0.789c-0.264,0-0.479-0.214-0.479-0.478v-9.517c0-0.264,0.214-0.479,0.479-0.479h0.789
	c0.264,0,0.478,0.215,0.478,0.479v9.517C40.613,37.375,40.399,37.589,40.135,37.589"/>
<path fill="#FFFFFF" d="M41.683,32.353h-0.394c-0.132,0-0.239-0.107-0.239-0.239v-9.995c0-0.132,0.107-0.239,0.239-0.239h0.394
	c0.132,0,0.239,0.107,0.239,0.239v9.995C41.922,32.245,41.815,32.353,41.683,32.353"/>
<path fill="#FFFFFF" d="M43.626,37.589h-0.789c-0.264,0-0.478-0.214-0.478-0.478v-9.517c0-0.264,0.214-0.479,0.478-0.479h0.789
	c0.264,0,0.478,0.215,0.478,0.479v9.517C44.104,37.375,43.89,37.589,43.626,37.589"/>
<path fill="#FFFFFF" d="M51.277,31.907L51.277,31.907l3.941-3.941c0.085-0.085,0.085-0.224,0-0.309l-0.309-0.309
	c-0.085-0.085-0.223-0.085-0.309,0L50.66,31.29c-0.17-0.171-0.447-0.171-0.617,0l-4.938,4.938c-0.17,0.171-0.17,0.447,0,0.617
	l0.617,0.617c0.17,0.171,0.447,0.171,0.617,0l4.938-4.937C51.447,32.354,51.447,32.078,51.277,31.907"/>
<path fill="#FFFFFF" d="M44.977,39.73v-0.789c0-0.264,0.214-0.478,0.478-0.478h9.517c0.264,0,0.479,0.214,0.479,0.478v0.789
	c0,0.265-0.215,0.478-0.479,0.478h-9.517C45.192,40.208,44.977,39.994,44.977,39.73"/>
<path fill="#FFFFFF" d="M50.214,41.278v-0.395c0-0.132,0.107-0.239,0.239-0.239h9.995c0.132,0,0.239,0.107,0.239,0.239v0.395
	c0,0.132-0.107,0.239-0.239,0.239h-9.995C50.321,41.517,50.214,41.41,50.214,41.278"/>
<path fill="#FFFFFF" d="M44.977,43.221v-0.789c0-0.264,0.214-0.479,0.478-0.479h9.517c0.264,0,0.479,0.215,0.479,0.479v0.789
	c0,0.265-0.215,0.479-0.479,0.479h-9.517C45.192,43.699,44.977,43.485,44.977,43.221"/>
<path fill="#FFFFFF" d="M50.66,50.872L50.66,50.872l3.941,3.941c0.085,0.085,0.224,0.085,0.309,0l0.309-0.309
	c0.085-0.085,0.085-0.223,0-0.309l-3.941-3.941c0.17-0.17,0.17-0.447,0-0.617L46.339,44.7c-0.17-0.171-0.447-0.171-0.617,0
	l-0.617,0.617c-0.17,0.17-0.17,0.447,0,0.617l4.937,4.938C50.213,51.042,50.489,51.042,50.66,50.872"/>
<path fill="#FFFFFF" d="M42.837,44.572h0.789c0.264,0,0.478,0.214,0.478,0.478v9.517c0,0.264-0.214,0.479-0.478,0.479h-0.789
	c-0.264,0-0.478-0.215-0.478-0.479V45.05C42.359,44.786,42.573,44.572,42.837,44.572"/>
<path fill="#FFFFFF" d="M41.289,49.809h0.394c0.132,0,0.239,0.107,0.239,0.239v9.995c0,0.132-0.107,0.239-0.239,0.239h-0.394
	c-0.132,0-0.239-0.107-0.239-0.239v-9.995C41.05,49.916,41.157,49.809,41.289,49.809"/>
<path fill="#FFFFFF" d="M39.346,44.572h0.789c0.264,0,0.479,0.214,0.479,0.478v9.517c0,0.264-0.214,0.479-0.479,0.479h-0.789
	c-0.264,0-0.478-0.215-0.478-0.479V45.05C38.868,44.786,39.082,44.572,39.346,44.572"/>
<path fill="#FFFFFF" d="M31.695,50.254L31.695,50.254l-3.941,3.941c-0.085,0.085-0.085,0.224,0,0.309l0.309,0.309
	c0.085,0.085,0.223,0.085,0.309,0l3.941-3.941c0.171,0.171,0.447,0.171,0.617,0l4.937-4.938c0.17-0.171,0.17-0.447,0-0.617
	L37.25,44.7c-0.17-0.171-0.447-0.171-0.617,0l-4.937,4.937C31.525,49.808,31.525,50.084,31.695,50.254"/>
<path fill="#FFFFFF" d="M37.995,42.432v0.789c0,0.264-0.214,0.478-0.478,0.478H28c-0.264,0-0.479-0.214-0.479-0.478v-0.789
	c0-0.265,0.214-0.478,0.479-0.478h9.517C37.781,41.954,37.995,42.168,37.995,42.432"/>
<path fill="#FFFFFF" d="M32.758,40.884v0.395c0,0.132-0.107,0.239-0.239,0.239h-9.995c-0.132,0-0.239-0.107-0.239-0.239v-0.395
	c0-0.132,0.107-0.239,0.239-0.239h9.995C32.651,40.644,32.758,40.752,32.758,40.884"/>
<path fill="#FFFFFF" d="M37.995,38.941v0.789c0,0.264-0.214,0.479-0.478,0.479H28c-0.264,0-0.479-0.215-0.479-0.479v-0.789
	c0-0.265,0.214-0.479,0.479-0.479h9.517C37.781,38.462,37.995,38.676,37.995,38.941"/>
<path fill="#FFFFFF" d="M32.313,31.29L32.313,31.29l-3.941-3.941c-0.085-0.085-0.223-0.085-0.308,0l-0.309,0.309
	c-0.085,0.085-0.085,0.223,0,0.309l3.941,3.941c-0.17,0.171-0.17,0.447,0,0.617l4.937,4.937c0.17,0.171,0.447,0.171,0.617,0
	l0.617-0.617c0.17-0.17,0.17-0.447,0-0.617L32.93,31.29C32.759,31.12,32.483,31.12,32.313,31.29"/>
<path fill="#404041" d="M35.996,72.191c0.054-0.278,0.097-0.5,0.132-0.675c0.024-0.124,0.036-0.185-0.041-0.2
	c-0.098-0.019-0.524,0.106-0.646,0.131c-0.028,0.005-0.056,0.011-0.076,0.006c-0.015-0.003-0.036-0.033-0.03-0.065
	c0.006-0.031,0.037-0.052,0.065-0.062c0.023-0.006,1.139-0.462,1.346-0.562c0.053-0.022,0.106-0.049,0.147-0.041
	c0.046,0.009,0.051,0.069,0.04,0.121c-0.008,0.041-0.138,0.545-0.292,1.334l-0.186,0.954c-0.097,0.495-0.182,0.934-0.206,1.164
	c-0.017,0.168-0.006,0.25,0.152,0.318c0.074,0.031,0.293,0.089,0.334,0.097c0.021,0.004,0.043,0.024,0.036,0.061
	c-0.007,0.036-0.035,0.041-0.091,0.03c-0.392-0.077-0.719-0.156-0.858-0.183c-0.119-0.023-0.555-0.092-0.885-0.156
	c-0.057-0.011-0.086-0.027-0.079-0.064c0.007-0.036,0.03-0.047,0.051-0.043c0.057,0.011,0.323,0.047,0.42,0.044
	c0.172-0.004,0.212-0.071,0.26-0.233c0.065-0.223,0.161-0.659,0.252-1.155L35.996,72.191z"/>
<path fill="#404041" d="M41.043,72.584c-0.094,1.468-1.437,2.309-2.106,2.571c-0.027,0.014-0.054,0.018-0.096,0.015
	c-0.021-0.001-0.046-0.029-0.044-0.055c0.002-0.037,0.041-0.066,0.068-0.085c0.566-0.296,1.439-1.103,1.518-2.341
	c0.059-0.928-0.308-1.362-0.712-1.387c-0.378-0.024-0.65,0.295-0.679,0.741c-0.051,0.802,0.456,1.024,0.634,1.035
	c0.184,0.012,0.29-0.013,0.361-0.04c0.06-0.028,0.088-0.053,0.109-0.051c0.021,0.001,0.041,0.024,0.039,0.05
	c-0.001,0.016-0.019,0.046-0.03,0.056c-0.162,0.153-0.44,0.215-0.707,0.197c-0.755-0.048-1.033-0.639-1.005-1.08
	c0.045-0.708,0.612-1.187,1.42-1.136C40.667,71.129,41.094,71.788,41.043,72.584"/>
<path fill="#404041" d="M44.551,72.417c0.093,1.468-1.132,2.473-1.763,2.818c-0.025,0.018-0.051,0.024-0.093,0.027
	c-0.021,0.001-0.049-0.023-0.051-0.05c-0.002-0.036,0.032-0.071,0.057-0.093c0.524-0.365,1.287-1.277,1.209-2.514
	c-0.059-0.928-0.479-1.312-0.882-1.286c-0.377,0.024-0.608,0.376-0.579,0.821c0.051,0.802,0.582,0.958,0.76,0.947
	c0.184-0.012,0.286-0.05,0.352-0.086c0.056-0.035,0.08-0.063,0.101-0.065c0.021-0.001,0.043,0.018,0.045,0.044
	c0.001,0.016-0.013,0.048-0.022,0.06c-0.142,0.172-0.409,0.268-0.677,0.285c-0.755,0.048-1.106-0.503-1.134-0.943
	c-0.045-0.708,0.457-1.255,1.264-1.307C43.993,71.02,44.5,71.62,44.551,72.417"/>
<path fill="#404041" d="M45.944,74.854c-0.036,0.007-0.078-0.017-0.086-0.058c-0.008-0.041,0.034-0.097,0.077-0.154
	c0.598-0.775,1.467-1.779,1.255-2.867c-0.159-0.815-0.639-0.892-0.897-0.842c-0.222,0.043-0.384,0.118-0.51,0.292
	c-0.1,0.142-0.146,0.403-0.12,0.538c0.01,0.051,0.004,0.101-0.048,0.111c-0.026,0.005-0.048-0.028-0.065-0.089
	c-0.014-0.046-0.124-0.469-0.153-0.618c-0.009-0.047-0.008-0.068,0.042-0.115c0.181-0.142,0.441-0.289,0.895-0.378
	c0.907-0.177,1.391,0.243,1.508,0.846c0.195,1-0.744,2.087-1.305,2.748c-0.022,0.026-0.008,0.039,0.017,0.034l0.351-0.068
	c0.088-0.017,0.695-0.141,0.881-0.204c0.348-0.11,0.484-0.319,0.498-0.573c0.003-0.065,0.015-0.089,0.046-0.094
	c0.036-0.007,0.05,0.038,0.06,0.09c0.016,0.083,0.012,0.581-0.006,0.766c-0.014,0.147-0.093,0.179-0.418,0.242L45.944,74.854z"/>
<path fill="#9A1220" d="M56.254,68.205c0-0.735,0.511-1.758,1.757-1.758c0.991,0,1.757,0.639,1.757,1.661
	c0,1.023-0.703,1.853-1.789,1.853C56.765,69.962,56.254,69.004,56.254,68.205"/>
<path fill="#9A1220" d="M23.203,68.205c0-0.735,0.511-1.758,1.757-1.758c0.99,0,1.757,0.639,1.757,1.661
	c0,1.023-0.703,1.853-1.789,1.853C23.714,69.962,23.203,69.004,23.203,68.205"/>
<g>
	<g>
		<path fill="#4D4D4D" d="M5.671,88H5.202v-4.194H3.659V83.39h3.556v0.416H5.671V88z"/>
		<path fill="#4D4D4D" d="M9.507,88c-0.009-0.083-0.015-0.173-0.02-0.273c-0.004-0.101-0.006-0.183-0.006-0.247H9.467
			c-0.087,0.178-0.228,0.322-0.423,0.433s-0.401,0.166-0.619,0.166c-0.386,0-0.676-0.114-0.869-0.345s-0.29-0.534-0.29-0.912v-1.869
			H7.71v1.688c0,0.16,0.013,0.306,0.039,0.436c0.026,0.131,0.07,0.242,0.134,0.336c0.062,0.093,0.147,0.166,0.254,0.218
			s0.239,0.078,0.4,0.078c0.117,0,0.23-0.024,0.342-0.071c0.11-0.049,0.209-0.121,0.296-0.219s0.156-0.221,0.209-0.371
			c0.052-0.15,0.078-0.326,0.078-0.531v-1.562h0.442v2.377c0,0.082,0.002,0.189,0.007,0.319c0.004,0.13,0.011,0.247,0.02,0.352
			H9.507z M7.632,83.786c0-0.086,0.03-0.163,0.091-0.23s0.142-0.102,0.241-0.102c0.1,0,0.18,0.034,0.241,0.102
			c0.061,0.067,0.091,0.145,0.091,0.23c0,0.088-0.03,0.164-0.091,0.232c-0.062,0.066-0.142,0.101-0.241,0.101
			c-0.1,0-0.181-0.034-0.241-0.101C7.662,83.951,7.632,83.874,7.632,83.786z M8.882,83.786c0-0.086,0.03-0.163,0.092-0.23
			c0.061-0.067,0.141-0.102,0.24-0.102s0.181,0.034,0.241,0.102s0.091,0.145,0.091,0.23c0,0.088-0.03,0.164-0.091,0.232
			c-0.061,0.066-0.142,0.101-0.241,0.101s-0.18-0.034-0.24-0.101C8.912,83.951,8.882,83.874,8.882,83.786z"/>
		<path fill="#4D4D4D" d="M11.069,85.304c-0.004-0.13-0.011-0.247-0.02-0.352h0.424c0.009,0.083,0.015,0.174,0.02,0.273
			c0.004,0.1,0.007,0.183,0.007,0.248h0.013c0.087-0.178,0.217-0.322,0.391-0.434c0.174-0.11,0.369-0.166,0.586-0.166
			c0.057,0,0.107,0.002,0.153,0.007c0.045,0.005,0.092,0.013,0.14,0.026l-0.059,0.423c-0.025-0.009-0.069-0.017-0.13-0.026
			c-0.061-0.008-0.122-0.013-0.183-0.013c-0.117,0-0.23,0.021-0.339,0.065c-0.108,0.043-0.202,0.111-0.283,0.204
			c-0.08,0.093-0.146,0.212-0.195,0.357s-0.074,0.319-0.074,0.522V88h-0.443v-2.377C11.076,85.54,11.074,85.435,11.069,85.304z"/>
		<path fill="#4D4D4D" d="M13.876,86.327h0.02l1.406-1.375h0.639l-1.537,1.395L16.096,88h-0.651l-1.55-1.603h-0.02V88h-0.443v-4.923
			h0.443V86.327z"/>
		<path fill="#4D4D4D" d="M17.282,83.781c0,0.092-0.033,0.166-0.098,0.225c-0.065,0.059-0.137,0.088-0.215,0.088
			s-0.15-0.029-0.216-0.088c-0.064-0.059-0.098-0.133-0.098-0.225s0.033-0.166,0.098-0.225c0.065-0.059,0.138-0.088,0.216-0.088
			s0.149,0.029,0.215,0.088C17.249,83.615,17.282,83.689,17.282,83.781z M17.19,88h-0.442v-3.048h0.442V88z"/>
		<path fill="#4D4D4D" d="M19.418,87.525h0.013l0.944-2.572h0.481l-1.517,3.836c-0.092,0.234-0.208,0.422-0.349,0.562
			c-0.142,0.142-0.344,0.213-0.609,0.213c-0.134,0-0.267-0.014-0.396-0.039l0.045-0.404c0.104,0.035,0.213,0.053,0.326,0.053
			c0.151,0,0.271-0.047,0.358-0.141c0.086-0.094,0.162-0.227,0.228-0.4l0.247-0.639l-1.302-3.041h0.494L19.418,87.525z"/>
		<path fill="#4D4D4D" d="M24.321,86.386c0,0.029,0,0.062,0,0.098c0,0.034-0.003,0.07-0.007,0.109h-2.526
			c0.004,0.152,0.034,0.296,0.091,0.431c0.057,0.134,0.135,0.251,0.234,0.352c0.1,0.1,0.217,0.179,0.352,0.237
			s0.28,0.088,0.437,0.088c0.23,0,0.429-0.053,0.596-0.159s0.294-0.229,0.381-0.368l0.332,0.261
			c-0.182,0.229-0.383,0.396-0.602,0.495c-0.22,0.1-0.455,0.149-0.707,0.149c-0.226,0-0.436-0.04-0.628-0.12
			c-0.193-0.08-0.359-0.192-0.498-0.336c-0.14-0.143-0.249-0.312-0.329-0.508c-0.081-0.195-0.121-0.408-0.121-0.639
			c0-0.229,0.039-0.442,0.117-0.638s0.188-0.364,0.326-0.508s0.302-0.255,0.488-0.335s0.389-0.121,0.605-0.121
			c0.239,0,0.449,0.041,0.632,0.121s0.334,0.188,0.456,0.325c0.121,0.137,0.214,0.296,0.276,0.479S24.321,86.177,24.321,86.386z
			 M23.872,86.242c-0.014-0.286-0.105-0.523-0.277-0.713c-0.171-0.188-0.415-0.283-0.732-0.283c-0.147,0-0.284,0.027-0.41,0.082
			s-0.236,0.128-0.332,0.221c-0.096,0.094-0.172,0.2-0.228,0.319c-0.057,0.12-0.09,0.244-0.098,0.374H23.872z"/>
		<path fill="#4D4D4D" d="M25.33,84.92h-0.371l0.437-1.53h0.462L25.33,84.92z"/>
		<path fill="#4D4D4D" d="M27.114,84.952c0.009,0.083,0.015,0.174,0.02,0.273c0.004,0.1,0.007,0.183,0.007,0.248h0.013
			c0.087-0.178,0.228-0.322,0.423-0.434c0.195-0.11,0.401-0.166,0.619-0.166c0.386,0,0.676,0.115,0.869,0.346s0.29,0.533,0.29,0.911
			V88h-0.443v-1.687c0-0.16-0.013-0.307-0.039-0.437c-0.025-0.13-0.07-0.241-0.133-0.335c-0.063-0.094-0.148-0.166-0.254-0.219
			c-0.106-0.052-0.24-0.078-0.401-0.078c-0.117,0-0.23,0.024-0.342,0.072c-0.11,0.047-0.209,0.12-0.296,0.218
			s-0.156,0.222-0.208,0.371c-0.053,0.149-0.078,0.327-0.078,0.53V88h-0.443v-2.377c0-0.083-0.002-0.188-0.007-0.319
			c-0.004-0.13-0.011-0.247-0.02-0.352H27.114z"/>
		<path fill="#4D4D4D" d="M31.041,83.781c0,0.092-0.033,0.166-0.098,0.225c-0.065,0.059-0.137,0.088-0.215,0.088
			s-0.15-0.029-0.216-0.088c-0.064-0.059-0.098-0.133-0.098-0.225s0.033-0.166,0.098-0.225c0.065-0.059,0.138-0.088,0.216-0.088
			s0.149,0.029,0.215,0.088C31.007,83.615,31.041,83.689,31.041,83.781z M30.949,88h-0.442v-3.048h0.442V88z"/>
		<path fill="#4D4D4D" d="M32.525,84.952c0.009,0.083,0.015,0.174,0.02,0.273c0.004,0.1,0.007,0.183,0.007,0.248h0.013
			c0.087-0.178,0.228-0.322,0.423-0.434c0.195-0.11,0.401-0.166,0.619-0.166c0.386,0,0.676,0.115,0.869,0.346s0.29,0.533,0.29,0.911
			V88h-0.443v-1.687c0-0.16-0.013-0.307-0.039-0.437c-0.025-0.13-0.07-0.241-0.133-0.335c-0.063-0.094-0.148-0.166-0.254-0.219
			c-0.106-0.052-0.24-0.078-0.401-0.078c-0.117,0-0.23,0.024-0.342,0.072c-0.11,0.047-0.209,0.12-0.296,0.218
			s-0.156,0.222-0.208,0.371c-0.053,0.149-0.078,0.327-0.078,0.53V88h-0.443v-2.377c0-0.083-0.002-0.188-0.007-0.319
			c-0.004-0.13-0.011-0.247-0.02-0.352H32.525z"/>
		<path fill="#4D4D4D" d="M38.887,88h-0.469v-4.194h-1.543V83.39h3.556v0.416h-1.544V88z"/>
		<path fill="#4D4D4D" d="M43.244,86.386c0,0.029,0,0.062,0,0.098c0,0.034-0.003,0.07-0.007,0.109h-2.526
			c0.004,0.152,0.034,0.296,0.091,0.431c0.057,0.134,0.135,0.251,0.234,0.352c0.1,0.1,0.217,0.179,0.352,0.237
			s0.28,0.088,0.437,0.088c0.23,0,0.429-0.053,0.596-0.159s0.294-0.229,0.381-0.368l0.332,0.261
			c-0.182,0.229-0.383,0.396-0.602,0.495c-0.22,0.1-0.455,0.149-0.707,0.149c-0.226,0-0.436-0.04-0.628-0.12
			c-0.193-0.08-0.359-0.192-0.498-0.336c-0.14-0.143-0.249-0.312-0.329-0.508c-0.081-0.195-0.121-0.408-0.121-0.639
			c0-0.229,0.039-0.442,0.117-0.638s0.188-0.364,0.326-0.508s0.302-0.255,0.488-0.335s0.389-0.121,0.605-0.121
			c0.239,0,0.449,0.041,0.632,0.121s0.334,0.188,0.456,0.325c0.121,0.137,0.214,0.296,0.276,0.479S43.244,86.177,43.244,86.386z
			 M42.795,86.242c-0.014-0.286-0.105-0.523-0.277-0.713c-0.171-0.188-0.415-0.283-0.732-0.283c-0.147,0-0.284,0.027-0.41,0.082
			s-0.236,0.128-0.332,0.221c-0.096,0.094-0.172,0.2-0.228,0.319c-0.057,0.12-0.09,0.244-0.098,0.374H42.795z"/>
		<path fill="#4D4D4D" d="M44.65,86.327h0.02l1.406-1.375h0.639l-1.537,1.395L46.871,88h-0.651l-1.55-1.603h-0.02V88h-0.443v-4.923
			h0.443V86.327z"/>
		<path fill="#4D4D4D" d="M47.913,84.952c0.009,0.083,0.015,0.174,0.02,0.273c0.004,0.1,0.007,0.183,0.007,0.248h0.013
			c0.087-0.178,0.228-0.322,0.423-0.434c0.195-0.11,0.401-0.166,0.619-0.166c0.386,0,0.676,0.115,0.869,0.346s0.29,0.533,0.29,0.911
			V88H49.71v-1.687c0-0.16-0.013-0.307-0.039-0.437c-0.025-0.13-0.07-0.241-0.133-0.335c-0.063-0.094-0.148-0.166-0.254-0.219
			c-0.106-0.052-0.24-0.078-0.401-0.078c-0.117,0-0.23,0.024-0.342,0.072c-0.11,0.047-0.209,0.12-0.296,0.218
			s-0.156,0.222-0.208,0.371c-0.053,0.149-0.078,0.327-0.078,0.53V88h-0.443v-2.377c0-0.083-0.002-0.188-0.007-0.319
			c-0.004-0.13-0.011-0.247-0.02-0.352H47.913z"/>
		<path fill="#4D4D4D" d="M54.327,86.476c0,0.23-0.04,0.443-0.121,0.639c-0.08,0.195-0.191,0.365-0.335,0.508
			c-0.144,0.144-0.314,0.256-0.515,0.336c-0.199,0.08-0.419,0.12-0.657,0.12c-0.234,0-0.452-0.04-0.651-0.12
			c-0.2-0.08-0.371-0.192-0.515-0.336c-0.144-0.143-0.255-0.312-0.335-0.508c-0.081-0.195-0.121-0.408-0.121-0.639
			c0-0.229,0.04-0.442,0.121-0.638c0.08-0.195,0.191-0.364,0.335-0.508s0.314-0.255,0.515-0.335c0.199-0.08,0.417-0.121,0.651-0.121
			c0.238,0,0.458,0.041,0.657,0.121c0.2,0.08,0.371,0.191,0.515,0.335s0.255,0.312,0.335,0.508
			C54.287,86.034,54.327,86.246,54.327,86.476z M53.858,86.476c0-0.168-0.027-0.328-0.082-0.479
			c-0.054-0.149-0.131-0.279-0.23-0.391c-0.101-0.11-0.222-0.198-0.365-0.264c-0.143-0.064-0.304-0.098-0.481-0.098
			c-0.179,0-0.338,0.033-0.479,0.098c-0.142,0.065-0.262,0.153-0.361,0.264c-0.101,0.111-0.178,0.241-0.231,0.391
			c-0.055,0.15-0.081,0.311-0.081,0.479c0,0.17,0.026,0.33,0.081,0.479c0.054,0.149,0.131,0.28,0.231,0.391
			c0.1,0.11,0.22,0.197,0.361,0.261c0.141,0.062,0.3,0.094,0.479,0.094c0.178,0,0.339-0.031,0.481-0.094
			c0.144-0.063,0.265-0.15,0.365-0.261c0.1-0.11,0.177-0.241,0.23-0.391C53.831,86.806,53.858,86.646,53.858,86.476z"/>
		<path fill="#4D4D4D" d="M55.734,88h-0.443v-4.923h0.443V88z"/>
		<path fill="#4D4D4D" d="M59.947,86.476c0,0.23-0.04,0.443-0.121,0.639c-0.08,0.195-0.191,0.365-0.335,0.508
			c-0.144,0.144-0.314,0.256-0.515,0.336c-0.199,0.08-0.419,0.12-0.657,0.12c-0.234,0-0.452-0.04-0.651-0.12
			c-0.2-0.08-0.371-0.192-0.515-0.336c-0.144-0.143-0.255-0.312-0.335-0.508c-0.081-0.195-0.121-0.408-0.121-0.639
			c0-0.229,0.04-0.442,0.121-0.638c0.08-0.195,0.191-0.364,0.335-0.508s0.314-0.255,0.515-0.335c0.199-0.08,0.417-0.121,0.651-0.121
			c0.238,0,0.458,0.041,0.657,0.121c0.2,0.08,0.371,0.191,0.515,0.335s0.255,0.312,0.335,0.508
			C59.907,86.034,59.947,86.246,59.947,86.476z M59.478,86.476c0-0.168-0.027-0.328-0.082-0.479
			c-0.054-0.149-0.131-0.279-0.23-0.391c-0.101-0.11-0.222-0.198-0.365-0.264c-0.143-0.064-0.304-0.098-0.481-0.098
			c-0.179,0-0.338,0.033-0.479,0.098c-0.142,0.065-0.262,0.153-0.361,0.264c-0.101,0.111-0.178,0.241-0.231,0.391
			c-0.055,0.15-0.081,0.311-0.081,0.479c0,0.17,0.026,0.33,0.081,0.479c0.054,0.149,0.131,0.28,0.231,0.391
			c0.1,0.11,0.22,0.197,0.361,0.261c0.141,0.062,0.3,0.094,0.479,0.094c0.178,0,0.339-0.031,0.481-0.094
			c0.144-0.063,0.265-0.15,0.365-0.261c0.1-0.11,0.177-0.241,0.23-0.391C59.451,86.806,59.478,86.646,59.478,86.476z"/>
		<path fill="#4D4D4D" d="M60.201,89.146c0.043,0.014,0.09,0.023,0.14,0.029c0.05,0.008,0.097,0.01,0.14,0.01
			c0.092,0,0.165-0.016,0.222-0.049c0.057-0.031,0.1-0.076,0.13-0.133c0.031-0.057,0.052-0.125,0.062-0.205s0.016-0.168,0.016-0.264
			v-3.582h0.443v3.653c0,0.122-0.013,0.239-0.039,0.354s-0.071,0.218-0.137,0.307s-0.153,0.16-0.264,0.215
			c-0.111,0.055-0.253,0.082-0.427,0.082c-0.048,0-0.104-0.004-0.169-0.01c-0.065-0.008-0.126-0.02-0.183-0.037L60.201,89.146z
			 M61.444,83.781c0,0.092-0.032,0.166-0.098,0.225c-0.064,0.059-0.137,0.088-0.215,0.088s-0.149-0.029-0.215-0.088
			s-0.098-0.133-0.098-0.225s0.032-0.166,0.098-0.225s0.137-0.088,0.215-0.088s0.15,0.029,0.215,0.088
			C61.412,83.615,61.444,83.689,61.444,83.781z"/>
		<path fill="#4D4D4D" d="M63.073,83.781c0,0.092-0.033,0.166-0.098,0.225c-0.065,0.059-0.137,0.088-0.215,0.088
			s-0.15-0.029-0.216-0.088c-0.064-0.059-0.098-0.133-0.098-0.225s0.033-0.166,0.098-0.225c0.065-0.059,0.138-0.088,0.216-0.088
			s0.149,0.029,0.215,0.088C63.04,83.615,63.073,83.689,63.073,83.781z M62.981,88h-0.442v-3.048h0.442V88z"/>
		<path fill="#4D4D4D" d="M67.513,88.118c-0.348,0-0.632-0.06-0.853-0.179c-0.222-0.119-0.397-0.271-0.527-0.453
			c-0.131-0.182-0.221-0.381-0.271-0.596s-0.075-0.418-0.075-0.609V83.39h0.469v2.84c0,0.186,0.021,0.367,0.065,0.543
			c0.043,0.176,0.114,0.332,0.212,0.469s0.227,0.248,0.387,0.332c0.161,0.085,0.358,0.127,0.593,0.127s0.432-0.042,0.593-0.127
			c0.16-0.084,0.29-0.195,0.388-0.332s0.168-0.293,0.211-0.469c0.044-0.176,0.065-0.357,0.065-0.543v-2.84h0.469v2.891
			c0,0.191-0.024,0.395-0.074,0.609c-0.051,0.215-0.141,0.414-0.271,0.596c-0.131,0.183-0.308,0.334-0.531,0.453
			S67.856,88.118,67.513,88.118z M66.563,82.485c0-0.087,0.03-0.163,0.091-0.231c0.061-0.066,0.141-0.101,0.241-0.101
			c0.1,0,0.18,0.034,0.24,0.101c0.062,0.068,0.092,0.145,0.092,0.231s-0.03,0.164-0.092,0.231c-0.061,0.067-0.141,0.101-0.24,0.101
			c-0.101,0-0.181-0.033-0.241-0.101S66.563,82.572,66.563,82.485z M67.813,82.485c0-0.087,0.03-0.163,0.091-0.231
			c0.061-0.066,0.142-0.101,0.241-0.101s0.18,0.034,0.241,0.101c0.061,0.068,0.091,0.145,0.091,0.231s-0.03,0.164-0.091,0.231
			c-0.062,0.067-0.142,0.101-0.241,0.101s-0.181-0.033-0.241-0.101S67.813,82.572,67.813,82.485z"/>
		<path fill="#4D4D4D" d="M72.033,85.675c-0.065-0.125-0.164-0.229-0.297-0.309s-0.283-0.121-0.452-0.121
			c-0.078,0-0.156,0.01-0.234,0.026c-0.078,0.018-0.148,0.046-0.209,0.085s-0.109,0.089-0.146,0.149
			c-0.037,0.062-0.055,0.133-0.055,0.215c0,0.144,0.059,0.253,0.176,0.329s0.301,0.141,0.553,0.191
			c0.36,0.074,0.627,0.182,0.798,0.322c0.172,0.142,0.258,0.332,0.258,0.57c0,0.174-0.034,0.32-0.102,0.439
			s-0.155,0.217-0.264,0.293s-0.231,0.131-0.368,0.163s-0.274,0.049-0.413,0.049c-0.23,0-0.454-0.048-0.671-0.144
			s-0.395-0.245-0.534-0.449l0.352-0.26c0.078,0.135,0.193,0.247,0.346,0.338c0.151,0.092,0.319,0.137,0.501,0.137
			c0.096,0,0.187-0.008,0.273-0.025s0.163-0.049,0.229-0.092c0.064-0.043,0.117-0.099,0.156-0.166
			c0.039-0.066,0.059-0.15,0.059-0.25c0-0.161-0.077-0.281-0.231-0.361c-0.154-0.081-0.377-0.156-0.667-0.225
			c-0.092-0.022-0.188-0.049-0.29-0.082c-0.103-0.033-0.196-0.08-0.283-0.143c-0.087-0.063-0.159-0.143-0.215-0.238
			c-0.057-0.096-0.085-0.215-0.085-0.358c0-0.156,0.03-0.29,0.091-0.4c0.062-0.11,0.143-0.202,0.244-0.273
			c0.103-0.071,0.219-0.124,0.349-0.159c0.131-0.035,0.265-0.053,0.404-0.053c0.212,0,0.419,0.049,0.618,0.144
			c0.2,0.096,0.35,0.229,0.449,0.403L72.033,85.675z"/>
		<path fill="#4D4D4D" d="M74.924,85.675c-0.065-0.125-0.164-0.229-0.297-0.309s-0.283-0.121-0.452-0.121
			c-0.078,0-0.156,0.01-0.234,0.026c-0.078,0.018-0.148,0.046-0.209,0.085s-0.109,0.089-0.146,0.149
			c-0.037,0.062-0.055,0.133-0.055,0.215c0,0.144,0.059,0.253,0.176,0.329s0.301,0.141,0.553,0.191
			c0.36,0.074,0.627,0.182,0.798,0.322c0.172,0.142,0.258,0.332,0.258,0.57c0,0.174-0.034,0.32-0.102,0.439
			s-0.155,0.217-0.264,0.293s-0.231,0.131-0.368,0.163s-0.274,0.049-0.413,0.049c-0.23,0-0.454-0.048-0.671-0.144
			s-0.395-0.245-0.534-0.449l0.352-0.26c0.078,0.135,0.193,0.247,0.346,0.338c0.151,0.092,0.319,0.137,0.501,0.137
			c0.096,0,0.187-0.008,0.273-0.025s0.163-0.049,0.229-0.092c0.064-0.043,0.117-0.099,0.156-0.166
			c0.039-0.066,0.059-0.15,0.059-0.25c0-0.161-0.077-0.281-0.231-0.361c-0.154-0.081-0.377-0.156-0.667-0.225
			c-0.092-0.022-0.188-0.049-0.29-0.082c-0.103-0.033-0.196-0.08-0.283-0.143c-0.087-0.063-0.159-0.143-0.215-0.238
			c-0.057-0.096-0.085-0.215-0.085-0.358c0-0.156,0.03-0.29,0.091-0.4c0.062-0.11,0.143-0.202,0.244-0.273
			c0.103-0.071,0.219-0.124,0.349-0.159c0.131-0.035,0.265-0.053,0.404-0.053c0.212,0,0.419,0.049,0.618,0.144
			c0.2,0.096,0.35,0.229,0.449,0.403L74.924,85.675z"/>
		<path fill="#4D4D4D" d="M78.407,88c-0.009-0.083-0.015-0.173-0.02-0.273c-0.004-0.101-0.006-0.183-0.006-0.247h-0.014
			c-0.087,0.178-0.228,0.322-0.423,0.433s-0.401,0.166-0.619,0.166c-0.386,0-0.676-0.114-0.869-0.345s-0.29-0.534-0.29-0.912v-1.869
			h0.443v1.688c0,0.16,0.013,0.306,0.039,0.436c0.026,0.131,0.07,0.242,0.134,0.336c0.062,0.093,0.147,0.166,0.254,0.218
			s0.239,0.078,0.4,0.078c0.117,0,0.23-0.024,0.342-0.071c0.11-0.049,0.209-0.121,0.296-0.219s0.156-0.221,0.209-0.371
			c0.052-0.15,0.078-0.326,0.078-0.531v-1.562h0.442v2.377c0,0.082,0.002,0.189,0.007,0.319c0.004,0.13,0.011,0.247,0.02,0.352
			H78.407z M76.532,83.786c0-0.086,0.03-0.163,0.091-0.23s0.142-0.102,0.241-0.102s0.18,0.034,0.241,0.102
			c0.061,0.067,0.091,0.145,0.091,0.23c0,0.088-0.03,0.164-0.091,0.232c-0.062,0.066-0.142,0.101-0.241,0.101
			s-0.181-0.034-0.241-0.101C76.562,83.951,76.532,83.874,76.532,83.786z M77.782,83.786c0-0.086,0.03-0.163,0.092-0.23
			c0.061-0.067,0.141-0.102,0.24-0.102s0.181,0.034,0.241,0.102s0.091,0.145,0.091,0.23c0,0.088-0.03,0.164-0.091,0.232
			c-0.061,0.066-0.142,0.101-0.241,0.101s-0.18-0.034-0.24-0.101C77.812,83.951,77.782,83.874,77.782,83.786z"/>
	</g>
</g>
<path fill="#4D4D4D" d="M93.214,19.252c0-2.489,0-2.947-0.033-3.471c-0.033-0.557-0.196-0.835-0.557-0.917
	c-0.18-0.049-0.393-0.065-0.59-0.065c-0.163,0-0.262-0.033-0.262-0.164c0-0.098,0.131-0.131,0.394-0.131
	c0.622,0,1.653,0.049,2.128,0.049c0.409,0,1.375-0.049,1.998-0.049c0.212,0,0.344,0.033,0.344,0.131
	c0,0.131-0.099,0.164-0.263,0.164c-0.163,0-0.294,0.016-0.491,0.049c-0.441,0.082-0.572,0.36-0.605,0.933
	c-0.033,0.524-0.033,0.982-0.033,3.471v2.882c0,1.588,0,2.881,0.066,3.585c0.049,0.442,0.163,0.737,0.654,0.802
	c0.229,0.033,0.59,0.065,0.835,0.065c0.181,0,0.262,0.049,0.262,0.131c0,0.115-0.131,0.164-0.311,0.164
	c-1.081,0-2.112-0.049-2.554-0.049c-0.377,0-1.408,0.049-2.063,0.049c-0.213,0-0.327-0.049-0.327-0.164
	c0-0.082,0.065-0.131,0.262-0.131c0.245,0,0.442-0.033,0.59-0.065c0.327-0.065,0.425-0.344,0.475-0.819
	c0.082-0.688,0.082-1.981,0.082-3.569V19.252z M93.311,12.326c0-0.409,0.262-0.95,0.917-0.95c0.524,0,0.934,0.344,0.934,0.884
	c0,0.541-0.377,0.982-0.934,0.982C93.573,13.243,93.311,12.736,93.311,12.326z"/>
<path fill="#4D4D4D" d="M105.592,25.932c1.67,0,2.309-0.409,2.571-0.9c0.146-0.262,0.245-0.557,0.294-0.786
	c0.033-0.164,0.065-0.262,0.164-0.262c0.131,0,0.164,0.114,0.164,0.507c0,0.524-0.213,1.588-0.328,1.998
	c-0.082,0.294-0.196,0.426-0.491,0.426c-2.734,0-5.484-0.082-8.792-0.082c-0.18,0-0.278-0.049-0.278-0.164
	c0-0.115,0.049-0.197,0.246-0.491c2.309-3.602,4.731-7.302,6.926-10.757h-3.21c-0.835,0-1.833,0.049-2.357,0.344
	c-0.54,0.294-0.835,0.9-0.884,1.277c-0.033,0.229-0.099,0.295-0.196,0.295c-0.115,0-0.131-0.082-0.131-0.278
	c0-0.376,0.245-1.867,0.327-2.358c0.032-0.229,0.098-0.311,0.196-0.311c0.147,0,0.246,0.098,0.655,0.115
	c1.555,0.065,2.341,0.049,3.013,0.049h4.993c0.164,0,0.278,0.049,0.278,0.131c0,0.098-0.065,0.196-0.131,0.311
	c-2.26,3.667-4.748,7.417-7.057,10.937H105.592z"/>
<path fill="#4D4D4D" d="M112.849,14.569c0.049-0.278,0.147-0.426,0.278-0.426s0.229,0.082,0.442,0.508l4.47,9.234l4.453-9.349
	c0.131-0.262,0.213-0.393,0.36-0.393s0.245,0.164,0.294,0.508l1.49,10.118c0.147,1.032,0.312,1.506,0.803,1.654
	c0.475,0.147,0.802,0.164,1.015,0.164c0.147,0,0.262,0.017,0.262,0.115c0,0.131-0.196,0.18-0.426,0.18
	c-0.409,0-2.668-0.049-3.323-0.099c-0.377-0.033-0.475-0.082-0.475-0.18c0-0.082,0.065-0.131,0.18-0.18
	c0.099-0.033,0.147-0.246,0.082-0.704l-0.982-7.204h-0.065l-3.569,7.433c-0.376,0.77-0.458,0.917-0.605,0.917
	s-0.312-0.328-0.573-0.819c-0.393-0.753-1.687-3.258-1.883-3.716c-0.147-0.344-1.13-2.407-1.703-3.635h-0.065l-0.851,6.516
	c-0.033,0.295-0.05,0.508-0.05,0.77c0,0.311,0.213,0.458,0.491,0.524c0.295,0.066,0.524,0.082,0.688,0.082
	c0.131,0,0.246,0.033,0.246,0.115c0,0.147-0.147,0.18-0.394,0.18c-0.688,0-1.424-0.049-1.719-0.049
	c-0.311,0-1.097,0.049-1.621,0.049c-0.163,0-0.295-0.033-0.295-0.18c0-0.082,0.099-0.115,0.263-0.115c0.131,0,0.245,0,0.491-0.049
	c0.458-0.098,0.589-0.736,0.671-1.293L112.849,14.569z"/>
<path fill="#4D4D4D" d="M129.325,19.252c0-2.489,0-2.947-0.033-3.471c-0.033-0.557-0.196-0.835-0.557-0.917
	c-0.18-0.049-0.393-0.065-0.59-0.065c-0.163,0-0.262-0.033-0.262-0.164c0-0.098,0.131-0.131,0.394-0.131
	c0.622,0,1.653,0.049,2.128,0.049c0.409,0,1.375-0.049,1.998-0.049c0.212,0,0.344,0.033,0.344,0.131
	c0,0.131-0.099,0.164-0.263,0.164c-0.163,0-0.294,0.016-0.491,0.049c-0.441,0.082-0.572,0.36-0.605,0.933
	c-0.033,0.524-0.033,0.982-0.033,3.471v2.882c0,1.588,0,2.881,0.066,3.585c0.049,0.442,0.163,0.737,0.654,0.802
	c0.229,0.033,0.59,0.065,0.835,0.065c0.181,0,0.262,0.049,0.262,0.131c0,0.115-0.131,0.164-0.311,0.164
	c-1.081,0-2.112-0.049-2.554-0.049c-0.377,0-1.408,0.049-2.063,0.049c-0.213,0-0.327-0.049-0.327-0.164
	c0-0.082,0.065-0.131,0.262-0.131c0.245,0,0.442-0.033,0.59-0.065c0.327-0.065,0.425-0.344,0.475-0.819
	c0.082-0.688,0.082-1.981,0.082-3.569V19.252z M129.423,12.326c0-0.409,0.262-0.95,0.917-0.95c0.524,0,0.934,0.344,0.934,0.884
	c0,0.541-0.377,0.982-0.934,0.982C129.684,13.243,129.423,12.736,129.423,12.326z"/>
<path fill="#4D4D4D" d="M136.727,19.252c0-2.489,0-2.947-0.033-3.471c-0.033-0.557-0.164-0.818-0.704-0.933
	c-0.131-0.033-0.409-0.049-0.639-0.049c-0.18,0-0.278-0.033-0.278-0.147c0-0.115,0.115-0.147,0.36-0.147
	c0.868,0,1.899,0.049,2.243,0.049c0.557,0,1.801-0.049,2.309-0.049c1.031,0,2.128,0.098,3.013,0.704
	c0.458,0.311,1.113,1.146,1.113,2.243c0,1.211-0.508,2.325-2.161,3.667c1.457,1.833,2.587,3.291,3.553,4.306
	c0.917,0.95,1.588,1.064,1.834,1.113c0.18,0.033,0.327,0.049,0.458,0.049s0.196,0.049,0.196,0.131c0,0.131-0.114,0.164-0.311,0.164
	h-1.556c-0.917,0-1.326-0.082-1.752-0.311c-0.704-0.377-1.326-1.146-2.243-2.407c-0.654-0.9-1.408-2.014-1.621-2.259
	c-0.081-0.098-0.18-0.115-0.294-0.115l-1.425-0.033c-0.082,0-0.131,0.033-0.131,0.131v0.229c0,1.522,0,2.816,0.082,3.504
	c0.049,0.475,0.147,0.835,0.639,0.9c0.245,0.033,0.605,0.065,0.802,0.065c0.131,0,0.196,0.049,0.196,0.131
	c0,0.115-0.114,0.164-0.327,0.164c-0.949,0-2.161-0.049-2.407-0.049c-0.311,0-1.342,0.049-1.997,0.049
	c-0.213,0-0.327-0.049-0.327-0.164c0-0.082,0.065-0.131,0.262-0.131c0.245,0,0.442-0.033,0.59-0.065
	c0.327-0.065,0.409-0.426,0.475-0.9c0.082-0.688,0.082-1.981,0.082-3.487V19.252z M138.659,20.545c0,0.18,0.032,0.246,0.147,0.295
	c0.344,0.114,0.835,0.164,1.244,0.164c0.655,0,0.868-0.065,1.162-0.278c0.491-0.36,0.967-1.113,0.967-2.456
	c0-2.325-1.539-2.996-2.506-2.996c-0.409,0-0.704,0.016-0.867,0.065c-0.115,0.033-0.147,0.098-0.147,0.229V20.545z"/>
<path fill="#4D4D4D" d="M95.047,42.294c0-0.884-0.163-1.244-0.376-1.719c-0.115-0.262-2.309-3.864-2.882-4.715
	c-0.409-0.605-0.818-1.015-1.13-1.195c-0.213-0.114-0.491-0.212-0.688-0.212c-0.131,0-0.246-0.033-0.246-0.147
	c0-0.098,0.115-0.147,0.312-0.147c0.295,0,1.522,0.049,2.063,0.049c0.344,0,1.015-0.049,1.751-0.049
	c0.164,0,0.246,0.049,0.246,0.147s-0.114,0.114-0.36,0.18c-0.147,0.033-0.229,0.164-0.229,0.294s0.082,0.328,0.197,0.557
	c0.229,0.491,2.521,4.437,2.783,4.896c0.163-0.393,2.227-3.995,2.456-4.502c0.163-0.36,0.229-0.639,0.229-0.852
	c0-0.164-0.065-0.344-0.344-0.409c-0.147-0.033-0.295-0.065-0.295-0.164c0-0.115,0.082-0.147,0.278-0.147
	c0.541,0,1.064,0.049,1.539,0.049c0.36,0,1.441-0.049,1.752-0.049c0.181,0,0.295,0.033,0.295,0.131c0,0.115-0.131,0.164-0.311,0.164
	c-0.164,0-0.476,0.065-0.721,0.196c-0.344,0.164-0.524,0.36-0.884,0.802c-0.541,0.655-2.833,4.502-3.128,5.207
	c-0.245,0.589-0.245,1.097-0.245,1.637v1.343c0,0.262,0,0.949,0.049,1.637c0.033,0.475,0.18,0.835,0.671,0.9
	c0.229,0.033,0.59,0.065,0.819,0.065c0.18,0,0.262,0.049,0.262,0.131c0,0.115-0.131,0.164-0.344,0.164
	c-1.031,0-2.063-0.049-2.505-0.049c-0.409,0-1.441,0.049-2.047,0.049c-0.229,0-0.36-0.033-0.36-0.164
	c0-0.082,0.082-0.131,0.262-0.131c0.229,0,0.426-0.033,0.573-0.065c0.328-0.065,0.475-0.426,0.508-0.9
	c0.049-0.688,0.049-1.375,0.049-1.637V42.294z"/>
<path fill="#4D4D4D" d="M103.482,38.905c0-2.489,0-2.947-0.033-3.471c-0.032-0.557-0.164-0.818-0.704-0.933
	c-0.131-0.033-0.409-0.049-0.639-0.049c-0.18,0-0.278-0.033-0.278-0.147c0-0.115,0.115-0.147,0.36-0.147
	c0.868,0,1.899,0.049,2.391,0.049c0.393,0,1.425-0.049,2.014-0.049c0.246,0,0.36,0.033,0.36,0.147c0,0.114-0.099,0.147-0.262,0.147
	c-0.181,0-0.278,0.016-0.476,0.049c-0.441,0.082-0.572,0.36-0.605,0.933c-0.032,0.524-0.032,0.982-0.032,3.471v2.292
	c0,2.374,0.475,3.373,1.276,4.028c0.737,0.606,1.49,0.671,2.047,0.671c0.721,0,1.604-0.229,2.26-0.884
	c0.9-0.9,0.949-2.374,0.949-4.061v-2.046c0-2.489,0-2.947-0.032-3.471c-0.033-0.557-0.164-0.818-0.704-0.933
	c-0.131-0.033-0.409-0.049-0.59-0.049c-0.18,0-0.278-0.033-0.278-0.147c0-0.115,0.114-0.147,0.344-0.147
	c0.835,0,1.866,0.049,1.883,0.049c0.196,0,1.229-0.049,1.866-0.049c0.229,0,0.345,0.033,0.345,0.147
	c0,0.114-0.099,0.147-0.295,0.147c-0.181,0-0.278,0.016-0.475,0.049c-0.442,0.082-0.573,0.36-0.606,0.933
	c-0.032,0.524-0.032,0.982-0.032,3.471v1.752c0,1.817-0.181,3.75-1.556,4.928c-1.162,0.999-2.341,1.179-3.405,1.179
	c-0.868,0-2.439-0.049-3.635-1.13c-0.835-0.753-1.457-1.964-1.457-4.338V38.905z M106.314,32.126c0-0.311,0.229-0.753,0.753-0.753
	c0.426,0,0.77,0.262,0.77,0.704c0,0.458-0.311,0.818-0.785,0.818C106.527,32.896,106.314,32.47,106.314,32.126z M109.769,32.126
	c0-0.328,0.229-0.77,0.753-0.77c0.426,0,0.77,0.262,0.77,0.721c0,0.458-0.312,0.818-0.786,0.818
	C109.982,32.896,109.769,32.47,109.769,32.126z"/>
<path fill="#4D4D4D" d="M120.136,39.625h0.082c0.557-0.605,2.947-3.045,3.422-3.602c0.458-0.541,0.818-0.95,0.818-1.228
	c0-0.18-0.065-0.295-0.229-0.328c-0.147-0.033-0.213-0.065-0.213-0.164c0-0.115,0.082-0.147,0.263-0.147
	c0.344,0,1.244,0.049,1.687,0.049c0.507,0,1.407-0.049,1.915-0.049c0.164,0,0.278,0.033,0.278,0.147
	c0,0.114-0.082,0.147-0.245,0.147c-0.229,0-0.639,0.065-0.95,0.18c-0.508,0.197-1.064,0.541-1.768,1.228
	c-0.508,0.491-2.98,2.947-3.537,3.537c0.59,0.77,3.799,4.224,4.438,4.83c0.72,0.688,1.457,1.424,2.341,1.768
	c0.491,0.196,0.818,0.246,1.016,0.246c0.114,0,0.213,0.033,0.213,0.131c0,0.115-0.082,0.164-0.394,0.164h-1.424
	c-0.491,0-0.786,0-1.13-0.033c-0.885-0.082-1.326-0.442-2.03-1.064c-0.721-0.639-3.946-4.42-4.29-4.896l-0.18-0.246h-0.082v1.49
	c0,1.506,0,2.799,0.049,3.503c0.033,0.458,0.181,0.819,0.59,0.884c0.229,0.033,0.589,0.065,0.802,0.065
	c0.131,0,0.213,0.049,0.213,0.131c0,0.115-0.131,0.164-0.311,0.164c-0.917,0-1.948-0.049-2.357-0.049
	c-0.377,0-1.408,0.049-2.063,0.049c-0.213,0-0.327-0.049-0.327-0.164c0-0.082,0.065-0.131,0.262-0.131
	c0.245,0,0.442-0.033,0.59-0.065c0.327-0.065,0.409-0.426,0.475-0.9c0.082-0.688,0.082-1.981,0.082-3.487v-2.882
	c0-2.489,0-2.947-0.033-3.471c-0.033-0.557-0.164-0.818-0.704-0.933c-0.131-0.033-0.409-0.049-0.639-0.049
	c-0.18,0-0.278-0.033-0.278-0.147c0-0.115,0.115-0.147,0.36-0.147c0.868,0,1.899,0.049,2.292,0.049c0.394,0,1.425-0.049,1.981-0.049
	c0.229,0,0.344,0.033,0.344,0.147c0,0.114-0.099,0.147-0.229,0.147c-0.163,0-0.262,0.016-0.458,0.049
	c-0.442,0.082-0.573,0.36-0.606,0.933c-0.032,0.524-0.032,0.982-0.032,3.471V39.625z"/>
<path fill="#4D4D4D" d="M129.897,46.338c-0.262-0.115-0.311-0.196-0.311-0.557c0-0.9,0.065-1.883,0.082-2.145
	c0.016-0.246,0.065-0.426,0.196-0.426c0.147,0,0.164,0.147,0.164,0.278c0,0.213,0.065,0.557,0.146,0.835
	c0.36,1.211,1.326,1.654,2.342,1.654c1.474,0,2.194-0.999,2.194-1.867c0-0.802-0.246-1.555-1.604-2.62l-0.754-0.589
	c-1.801-1.408-2.423-2.554-2.423-3.88c0-1.801,1.506-3.094,3.782-3.094c1.064,0,1.752,0.164,2.178,0.278
	c0.147,0.033,0.229,0.082,0.229,0.196c0,0.213-0.065,0.688-0.065,1.965c0,0.36-0.049,0.491-0.18,0.491
	c-0.114,0-0.164-0.099-0.164-0.295c0-0.147-0.082-0.655-0.426-1.081c-0.245-0.311-0.72-0.802-1.784-0.802
	c-1.212,0-1.948,0.704-1.948,1.687c0,0.753,0.376,1.326,1.735,2.357l0.458,0.344c1.981,1.49,2.686,2.62,2.686,4.175
	c0,0.95-0.36,2.079-1.539,2.849c-0.818,0.524-1.735,0.671-2.604,0.671C131.339,46.764,130.601,46.649,129.897,46.338z"/>
<path fill="#4D4D4D" d="M140.33,38.905c0-2.489,0-2.947-0.033-3.471c-0.032-0.557-0.164-0.818-0.704-0.933
	c-0.131-0.033-0.409-0.049-0.639-0.049c-0.18,0-0.278-0.033-0.278-0.147c0-0.115,0.115-0.147,0.36-0.147
	c0.442,0,0.917,0.017,1.326,0.017c0.426,0.016,0.803,0.033,1.031,0.033c0.524,0,3.782,0,4.094-0.017
	c0.311-0.033,0.573-0.065,0.704-0.098c0.081-0.017,0.18-0.065,0.262-0.065s0.099,0.065,0.099,0.147c0,0.114-0.082,0.311-0.132,1.064
	c-0.016,0.164-0.049,0.884-0.081,1.081c-0.017,0.082-0.05,0.18-0.164,0.18s-0.147-0.082-0.147-0.229c0-0.115-0.017-0.393-0.099-0.59
	c-0.114-0.294-0.278-0.491-1.097-0.589c-0.278-0.033-1.997-0.065-2.325-0.065c-0.081,0-0.114,0.049-0.114,0.164v4.143
	c0,0.115,0.017,0.18,0.114,0.18c0.36,0,2.243,0,2.62-0.033c0.393-0.033,0.639-0.082,0.786-0.246c0.114-0.131,0.18-0.213,0.262-0.213
	c0.065,0,0.114,0.033,0.114,0.131s-0.065,0.36-0.131,1.195c-0.017,0.327-0.065,0.982-0.065,1.097c0,0.131,0,0.311-0.147,0.311
	c-0.114,0-0.147-0.065-0.147-0.147c-0.016-0.164-0.016-0.377-0.065-0.589c-0.082-0.328-0.311-0.573-0.917-0.639
	c-0.311-0.033-1.932-0.049-2.324-0.049c-0.082,0-0.099,0.065-0.099,0.164v1.293c0,0.557-0.017,2.062,0,2.538
	c0.033,1.13,0.295,1.375,1.965,1.375c0.426,0,1.113,0,1.539-0.197c0.426-0.196,0.622-0.54,0.736-1.211
	c0.033-0.18,0.065-0.246,0.181-0.246c0.131,0,0.131,0.131,0.131,0.294c0,0.377-0.131,1.49-0.213,1.817
	c-0.114,0.426-0.262,0.426-0.884,0.426c-1.229,0-2.129-0.033-2.833-0.049c-0.704-0.033-1.212-0.049-1.703-0.049
	c-0.18,0-0.54,0-0.933,0.017c-0.377,0-0.803,0.033-1.13,0.033c-0.213,0-0.327-0.049-0.327-0.164c0-0.082,0.065-0.131,0.262-0.131
	c0.245,0,0.442-0.033,0.59-0.065c0.327-0.065,0.409-0.426,0.475-0.9c0.082-0.688,0.082-1.981,0.082-3.487V38.905z"/>
<path fill="#4D4D4D" d="M152.677,39.625h0.082c0.557-0.605,2.947-3.045,3.422-3.602c0.458-0.541,0.818-0.95,0.818-1.228
	c0-0.18-0.065-0.295-0.229-0.328c-0.147-0.033-0.213-0.065-0.213-0.164c0-0.115,0.082-0.147,0.263-0.147
	c0.344,0,1.244,0.049,1.687,0.049c0.507,0,1.407-0.049,1.915-0.049c0.164,0,0.278,0.033,0.278,0.147
	c0,0.114-0.082,0.147-0.245,0.147c-0.229,0-0.639,0.065-0.95,0.18c-0.508,0.197-1.064,0.541-1.768,1.228
	c-0.508,0.491-2.98,2.947-3.537,3.537c0.59,0.77,3.799,4.224,4.438,4.83c0.72,0.688,1.457,1.424,2.341,1.768
	c0.491,0.196,0.818,0.246,1.016,0.246c0.114,0,0.213,0.033,0.213,0.131c0,0.115-0.082,0.164-0.394,0.164h-1.424
	c-0.491,0-0.786,0-1.13-0.033c-0.885-0.082-1.326-0.442-2.03-1.064c-0.721-0.639-3.946-4.42-4.29-4.896l-0.18-0.246h-0.082v1.49
	c0,1.506,0,2.799,0.049,3.503c0.033,0.458,0.181,0.819,0.59,0.884c0.229,0.033,0.589,0.065,0.802,0.065
	c0.131,0,0.213,0.049,0.213,0.131c0,0.115-0.131,0.164-0.311,0.164c-0.917,0-1.948-0.049-2.357-0.049
	c-0.377,0-1.408,0.049-2.063,0.049c-0.213,0-0.327-0.049-0.327-0.164c0-0.082,0.065-0.131,0.262-0.131
	c0.245,0,0.442-0.033,0.59-0.065c0.327-0.065,0.409-0.426,0.475-0.9c0.082-0.688,0.082-1.981,0.082-3.487v-2.882
	c0-2.489,0-2.947-0.033-3.471c-0.033-0.557-0.164-0.818-0.704-0.933c-0.131-0.033-0.409-0.049-0.639-0.049
	c-0.18,0-0.278-0.033-0.278-0.147c0-0.115,0.115-0.147,0.36-0.147c0.868,0,1.899,0.049,2.292,0.049c0.394,0,1.425-0.049,1.981-0.049
	c0.229,0,0.344,0.033,0.344,0.147c0,0.114-0.099,0.147-0.229,0.147c-0.163,0-0.262,0.016-0.458,0.049
	c-0.442,0.082-0.573,0.36-0.606,0.933c-0.032,0.524-0.032,0.982-0.032,3.471V39.625z"/>
<path fill="#4D4D4D" d="M170.347,35.074l-2.439,0.065c-0.949,0.033-1.342,0.115-1.588,0.475c-0.164,0.246-0.245,0.442-0.278,0.573
	s-0.082,0.196-0.18,0.196c-0.115,0-0.147-0.082-0.147-0.262c0-0.262,0.311-1.752,0.344-1.883c0.049-0.213,0.098-0.311,0.196-0.311
	c0.131,0,0.295,0.164,0.704,0.196c0.475,0.049,1.097,0.082,1.637,0.082h6.484c0.523,0,0.884-0.049,1.129-0.082
	c0.246-0.049,0.377-0.082,0.442-0.082c0.115,0,0.131,0.098,0.131,0.344c0,0.344-0.049,1.474-0.049,1.899
	c-0.017,0.164-0.049,0.262-0.147,0.262c-0.131,0-0.164-0.082-0.18-0.328l-0.017-0.18c-0.033-0.426-0.475-0.884-1.932-0.917
	l-2.063-0.049v6.713c0,1.506,0,2.799,0.082,3.503c0.049,0.458,0.147,0.819,0.639,0.884c0.229,0.033,0.589,0.065,0.835,0.065
	c0.18,0,0.262,0.049,0.262,0.131c0,0.115-0.131,0.164-0.311,0.164c-1.081,0-2.112-0.049-2.571-0.049
	c-0.376,0-1.408,0.049-2.062,0.049c-0.213,0-0.327-0.049-0.327-0.164c0-0.082,0.065-0.131,0.262-0.131
	c0.245,0,0.441-0.033,0.589-0.065c0.328-0.065,0.426-0.426,0.476-0.9c0.081-0.688,0.081-1.981,0.081-3.487V35.074z"/>
<path fill="#4D4D4D" d="M179.799,38.905c0-2.489,0-2.947-0.033-3.471c-0.032-0.557-0.164-0.818-0.704-0.933
	c-0.131-0.033-0.409-0.049-0.639-0.049c-0.18,0-0.278-0.033-0.278-0.147c0-0.115,0.115-0.147,0.36-0.147
	c0.442,0,0.917,0.017,1.326,0.017c0.426,0.016,0.803,0.033,1.031,0.033c0.524,0,3.782,0,4.094-0.017
	c0.311-0.033,0.573-0.065,0.704-0.098c0.081-0.017,0.18-0.065,0.262-0.065s0.099,0.065,0.099,0.147c0,0.114-0.082,0.311-0.132,1.064
	c-0.016,0.164-0.049,0.884-0.081,1.081c-0.017,0.082-0.05,0.18-0.164,0.18s-0.147-0.082-0.147-0.229c0-0.115-0.017-0.393-0.099-0.59
	c-0.114-0.294-0.278-0.491-1.097-0.589c-0.278-0.033-1.997-0.065-2.325-0.065c-0.081,0-0.114,0.049-0.114,0.164v4.143
	c0,0.115,0.017,0.18,0.114,0.18c0.36,0,2.243,0,2.62-0.033c0.393-0.033,0.639-0.082,0.786-0.246c0.114-0.131,0.18-0.213,0.262-0.213
	c0.065,0,0.114,0.033,0.114,0.131s-0.065,0.36-0.131,1.195c-0.017,0.327-0.065,0.982-0.065,1.097c0,0.131,0,0.311-0.147,0.311
	c-0.114,0-0.147-0.065-0.147-0.147c-0.016-0.164-0.016-0.377-0.065-0.589c-0.082-0.328-0.311-0.573-0.917-0.639
	c-0.311-0.033-1.932-0.049-2.324-0.049c-0.082,0-0.099,0.065-0.099,0.164v1.293c0,0.557-0.017,2.062,0,2.538
	c0.033,1.13,0.295,1.375,1.965,1.375c0.426,0,1.113,0,1.539-0.197c0.426-0.196,0.622-0.54,0.736-1.211
	c0.033-0.18,0.065-0.246,0.181-0.246c0.131,0,0.131,0.131,0.131,0.294c0,0.377-0.131,1.49-0.213,1.817
	c-0.114,0.426-0.262,0.426-0.884,0.426c-1.229,0-2.129-0.033-2.833-0.049c-0.704-0.033-1.212-0.049-1.703-0.049
	c-0.18,0-0.54,0-0.933,0.017c-0.377,0-0.803,0.033-1.13,0.033c-0.213,0-0.327-0.049-0.327-0.164c0-0.082,0.065-0.131,0.262-0.131
	c0.245,0,0.442-0.033,0.59-0.065c0.327-0.065,0.409-0.426,0.475-0.9c0.082-0.688,0.082-1.981,0.082-3.487V38.905z"/>
<path fill="#4D4D4D" d="M192.146,39.625h0.082c0.557-0.605,2.947-3.045,3.422-3.602c0.458-0.541,0.818-0.95,0.818-1.228
	c0-0.18-0.065-0.295-0.229-0.328c-0.147-0.033-0.213-0.065-0.213-0.164c0-0.115,0.082-0.147,0.263-0.147
	c0.344,0,1.244,0.049,1.687,0.049c0.507,0,1.407-0.049,1.915-0.049c0.164,0,0.278,0.033,0.278,0.147
	c0,0.114-0.082,0.147-0.245,0.147c-0.229,0-0.639,0.065-0.95,0.18c-0.508,0.197-1.064,0.541-1.768,1.228
	c-0.508,0.491-2.98,2.947-3.537,3.537c0.59,0.77,3.799,4.224,4.438,4.83c0.72,0.688,1.457,1.424,2.341,1.768
	c0.491,0.196,0.818,0.246,1.016,0.246c0.114,0,0.213,0.033,0.213,0.131c0,0.115-0.082,0.164-0.394,0.164h-1.424
	c-0.491,0-0.786,0-1.13-0.033c-0.885-0.082-1.326-0.442-2.03-1.064c-0.721-0.639-3.946-4.42-4.29-4.896l-0.18-0.246h-0.082v1.49
	c0,1.506,0,2.799,0.049,3.503c0.033,0.458,0.181,0.819,0.59,0.884c0.229,0.033,0.589,0.065,0.802,0.065
	c0.131,0,0.213,0.049,0.213,0.131c0,0.115-0.131,0.164-0.311,0.164c-0.917,0-1.948-0.049-2.357-0.049
	c-0.377,0-1.408,0.049-2.063,0.049c-0.213,0-0.327-0.049-0.327-0.164c0-0.082,0.065-0.131,0.262-0.131
	c0.245,0,0.442-0.033,0.59-0.065c0.327-0.065,0.409-0.426,0.475-0.9c0.082-0.688,0.082-1.981,0.082-3.487v-2.882
	c0-2.489,0-2.947-0.033-3.471c-0.033-0.557-0.164-0.818-0.704-0.933c-0.131-0.033-0.409-0.049-0.639-0.049
	c-0.18,0-0.278-0.033-0.278-0.147c0-0.115,0.115-0.147,0.36-0.147c0.868,0,1.899,0.049,2.292,0.049c0.394,0,1.425-0.049,1.981-0.049
	c0.229,0,0.344,0.033,0.344,0.147c0,0.114-0.099,0.147-0.229,0.147c-0.163,0-0.262,0.016-0.458,0.049
	c-0.442,0.082-0.573,0.36-0.606,0.933c-0.032,0.524-0.032,0.982-0.032,3.471V39.625z"/>
<path fill="#4D4D4D" d="M203.642,44.307c0.033,1.277,0.246,1.703,0.573,1.817c0.278,0.098,0.59,0.115,0.852,0.115
	c0.18,0,0.278,0.033,0.278,0.131c0,0.131-0.147,0.164-0.377,0.164c-1.063,0-1.719-0.049-2.029-0.049
	c-0.147,0-0.917,0.049-1.769,0.049c-0.213,0-0.36-0.017-0.36-0.164c0-0.098,0.099-0.131,0.262-0.131
	c0.213,0,0.508-0.017,0.737-0.082c0.426-0.131,0.491-0.605,0.507-2.03l0.147-9.692c0-0.328,0.05-0.557,0.213-0.557
	c0.181,0,0.328,0.213,0.606,0.507c0.196,0.213,2.685,2.882,5.075,5.256c1.113,1.113,3.323,3.471,3.602,3.733h0.082l-0.163-7.351
	c-0.017-0.999-0.164-1.31-0.557-1.474c-0.246-0.098-0.639-0.098-0.868-0.098c-0.196,0-0.262-0.049-0.262-0.147
	c0-0.131,0.18-0.147,0.426-0.147c0.851,0,1.637,0.049,1.98,0.049c0.181,0,0.803-0.049,1.604-0.049c0.213,0,0.377,0.017,0.377,0.147
	c0,0.098-0.099,0.147-0.295,0.147c-0.164,0-0.295,0-0.491,0.049c-0.458,0.131-0.589,0.475-0.605,1.392l-0.181,10.331
	c0,0.36-0.065,0.508-0.213,0.508c-0.18,0-0.376-0.18-0.557-0.36c-1.031-0.982-3.127-3.127-4.829-4.813
	c-1.785-1.768-3.603-3.815-3.897-4.126h-0.049L203.642,44.307z"/>
<path fill="#4D4D4D" d="M216.287,40.346c0-2.8,1.851-6.418,6.762-6.418c4.077,0,6.615,2.374,6.615,6.123
	c0,3.75-2.62,6.713-6.778,6.713C218.186,46.764,216.287,43.243,216.287,40.346z M227.371,40.657c0-3.667-2.111-5.943-4.797-5.943
	c-1.883,0-4.027,1.048-4.027,5.125c0,3.406,1.883,6.107,5.026,6.107C224.718,45.945,227.371,45.388,227.371,40.657z"/>
<path fill="#4D4D4D" d="M235.135,41.786c0,2.096,0,3.225,0.344,3.52c0.278,0.246,0.704,0.36,1.981,0.36
	c0.868,0,1.506-0.016,1.916-0.458c0.196-0.213,0.393-0.671,0.425-0.982c0.017-0.147,0.05-0.246,0.181-0.246
	c0.114,0,0.131,0.082,0.131,0.278c0,0.18-0.114,1.408-0.245,1.883c-0.099,0.36-0.181,0.442-1.032,0.442
	c-1.179,0-2.03-0.033-2.767-0.049c-0.737-0.033-1.326-0.049-1.998-0.049c-0.18,0-0.54,0-0.933,0.017
	c-0.377,0-0.803,0.033-1.13,0.033c-0.213,0-0.327-0.049-0.327-0.164c0-0.082,0.065-0.131,0.262-0.131
	c0.245,0,0.442-0.033,0.59-0.065c0.327-0.065,0.409-0.426,0.475-0.9c0.082-0.688,0.082-1.981,0.082-3.487v-2.882
	c0-2.489,0-2.947-0.033-3.471c-0.032-0.557-0.164-0.818-0.704-0.933c-0.131-0.033-0.327-0.049-0.54-0.049
	c-0.181,0-0.278-0.033-0.278-0.147c0-0.115,0.114-0.147,0.36-0.147c0.77,0,1.801,0.049,2.243,0.049c0.393,0,1.588-0.049,2.227-0.049
	c0.229,0,0.344,0.033,0.344,0.147c0,0.114-0.099,0.147-0.295,0.147c-0.18,0-0.442,0.016-0.639,0.049
	c-0.442,0.082-0.573,0.36-0.605,0.933c-0.033,0.524-0.033,0.982-0.033,3.471V41.786z"/>
<path fill="#4D4D4D" d="M241.132,40.346c0-2.8,1.851-6.418,6.762-6.418c4.077,0,6.615,2.374,6.615,6.123
	c0,3.75-2.62,6.713-6.778,6.713C243.031,46.764,241.132,43.243,241.132,40.346z M252.215,40.657c0-3.667-2.111-5.943-4.797-5.943
	c-1.883,0-4.027,1.048-4.027,5.125c0,3.406,1.883,6.107,5.026,6.107C249.563,45.945,252.215,45.388,252.215,40.657z"/>
<path fill="#4D4D4D" d="M257.934,38.905c0-2.489,0-2.947-0.033-3.471c-0.033-0.557-0.164-0.818-0.704-0.933
	c-0.131-0.033-0.409-0.049-0.639-0.049c-0.18,0-0.278-0.033-0.278-0.147c0-0.115,0.115-0.147,0.36-0.147
	c0.868,0,1.899,0.049,2.325,0.049c0.393,0,1.424-0.049,2.062-0.049c0.229,0,0.344,0.033,0.344,0.147
	c0,0.114-0.098,0.147-0.294,0.147c-0.181,0-0.278,0.016-0.476,0.049c-0.441,0.082-0.572,0.36-0.605,0.933
	c-0.033,0.524-0.033,0.982-0.033,3.471v3.029c0,0.704,0.05,1.49,0.05,2.309c0,0.933-0.065,1.981-0.394,2.898
	c-0.344,0.999-1.211,2.129-2.783,3.095c-0.213,0.131-0.475,0.262-0.818,0.425c-0.114,0.066-0.246,0.1-0.327,0.1
	c-0.065,0-0.131-0.05-0.131-0.132c0-0.081,0.081-0.147,0.359-0.294c0.213-0.115,0.459-0.295,0.786-0.623
	c1.244-1.26,1.229-2.897,1.229-6.106V38.905z"/>
<path fill="#4D4D4D" d="M264.747,38.905c0-2.489,0-2.947-0.033-3.471c-0.033-0.557-0.196-0.835-0.557-0.917
	c-0.18-0.049-0.393-0.065-0.59-0.065c-0.163,0-0.262-0.033-0.262-0.164c0-0.098,0.131-0.131,0.394-0.131
	c0.622,0,1.653,0.049,2.128,0.049c0.409,0,1.375-0.049,1.998-0.049c0.212,0,0.344,0.033,0.344,0.131
	c0,0.131-0.099,0.164-0.263,0.164c-0.163,0-0.294,0.016-0.491,0.049c-0.441,0.082-0.572,0.36-0.605,0.933
	c-0.033,0.524-0.033,0.982-0.033,3.471v2.882c0,1.588,0,2.881,0.066,3.585c0.049,0.442,0.163,0.737,0.654,0.802
	c0.229,0.033,0.59,0.065,0.835,0.065c0.181,0,0.262,0.049,0.262,0.131c0,0.115-0.131,0.164-0.311,0.164
	c-1.081,0-2.112-0.049-2.554-0.049c-0.377,0-1.408,0.049-2.063,0.049c-0.213,0-0.327-0.049-0.327-0.164
	c0-0.082,0.065-0.131,0.262-0.131c0.245,0,0.442-0.033,0.59-0.065c0.327-0.065,0.425-0.344,0.475-0.819
	c0.082-0.688,0.082-1.981,0.082-3.569V38.905z M264.844,31.979c0-0.409,0.262-0.949,0.917-0.949c0.524,0,0.934,0.344,0.934,0.884
	c0,0.541-0.377,0.982-0.934,0.982C265.106,32.896,264.844,32.389,264.844,31.979z"/>
<path fill="#4D4D4D" d="M93.214,58.558c0-2.489,0-2.947-0.033-3.472c-0.033-0.557-0.164-0.818-0.704-0.933
	c-0.131-0.033-0.409-0.049-0.639-0.049c-0.18,0-0.278-0.033-0.278-0.148c0-0.114,0.115-0.146,0.36-0.146
	c0.442,0,0.917,0.016,1.326,0.016c0.426,0.017,0.803,0.033,1.031,0.033c0.524,0,3.782,0,4.094-0.017
	c0.311-0.032,0.573-0.065,0.704-0.099c0.081-0.016,0.18-0.064,0.262-0.064s0.098,0.064,0.098,0.146c0,0.115-0.081,0.312-0.131,1.064
	c-0.016,0.164-0.049,0.885-0.081,1.08c-0.017,0.082-0.05,0.181-0.164,0.181s-0.147-0.082-0.147-0.229
	c0-0.114-0.017-0.393-0.099-0.59c-0.114-0.294-0.278-0.49-1.097-0.589c-0.278-0.032-1.997-0.065-2.325-0.065
	c-0.081,0-0.114,0.049-0.114,0.164v4.143c0,0.114,0.017,0.18,0.114,0.18c0.36,0,2.243,0,2.62-0.033
	c0.393-0.032,0.639-0.082,0.786-0.245c0.114-0.132,0.18-0.213,0.262-0.213c0.065,0,0.114,0.032,0.114,0.131s-0.065,0.36-0.131,1.195
	c-0.017,0.327-0.065,0.982-0.065,1.097c0,0.131,0,0.311-0.147,0.311c-0.114,0-0.147-0.064-0.147-0.146
	c-0.016-0.164-0.016-0.377-0.065-0.59c-0.082-0.327-0.311-0.572-0.917-0.639c-0.311-0.032-1.932-0.049-2.324-0.049
	c-0.082,0-0.099,0.065-0.099,0.164v1.293c0,0.557-0.017,2.062,0,2.538c0.033,1.13,0.295,1.375,1.965,1.375
	c0.426,0,1.113,0,1.539-0.196s0.622-0.54,0.736-1.211c0.033-0.181,0.065-0.246,0.181-0.246c0.131,0,0.131,0.131,0.131,0.295
	c0,0.377-0.131,1.49-0.213,1.816c-0.114,0.426-0.262,0.426-0.884,0.426c-1.229,0-2.129-0.032-2.833-0.049
	c-0.704-0.032-1.212-0.049-1.702-0.049c-0.181,0-0.541,0-0.934,0.017c-0.377,0-0.803,0.032-1.13,0.032
	c-0.213,0-0.327-0.049-0.327-0.164c0-0.081,0.065-0.131,0.262-0.131c0.245,0,0.442-0.032,0.59-0.064
	c0.327-0.066,0.409-0.426,0.475-0.9c0.082-0.688,0.082-1.982,0.082-3.488V58.558z"/>
<path fill="#4D4D4D" d="M104.48,63.96c0.033,1.277,0.246,1.703,0.573,1.817c0.278,0.099,0.59,0.114,0.852,0.114
	c0.18,0,0.278,0.033,0.278,0.131c0,0.132-0.147,0.164-0.377,0.164c-1.063,0-1.719-0.049-2.029-0.049
	c-0.147,0-0.917,0.049-1.769,0.049c-0.213,0-0.36-0.016-0.36-0.164c0-0.098,0.099-0.131,0.262-0.131
	c0.213,0,0.508-0.016,0.737-0.082c0.426-0.131,0.491-0.605,0.507-2.029l0.147-9.693c0-0.327,0.05-0.557,0.213-0.557
	c0.181,0,0.328,0.213,0.606,0.508c0.196,0.213,2.685,2.882,5.075,5.256c1.113,1.113,3.323,3.471,3.602,3.732h0.082l-0.163-7.351
	c-0.017-0.999-0.164-1.31-0.557-1.474c-0.246-0.098-0.639-0.098-0.868-0.098c-0.196,0-0.262-0.05-0.262-0.148
	c0-0.131,0.18-0.146,0.426-0.146c0.851,0,1.637,0.049,1.98,0.049c0.181,0,0.803-0.049,1.604-0.049c0.213,0,0.377,0.016,0.377,0.146
	c0,0.099-0.099,0.148-0.295,0.148c-0.164,0-0.295,0-0.491,0.049c-0.458,0.131-0.589,0.475-0.605,1.391l-0.181,10.332
	c0,0.359-0.065,0.508-0.213,0.508c-0.18,0-0.376-0.181-0.557-0.361c-1.031-0.982-3.127-3.127-4.829-4.813
	c-1.785-1.769-3.603-3.815-3.897-4.127H104.3L104.48,63.96z"/>
<path fill="#4D4D4D" d="M118.172,65.991c-0.262-0.114-0.311-0.196-0.311-0.557c0-0.9,0.065-1.883,0.082-2.145
	c0.017-0.245,0.065-0.426,0.196-0.426c0.147,0,0.164,0.147,0.164,0.278c0,0.213,0.065,0.557,0.146,0.835
	c0.36,1.212,1.326,1.653,2.342,1.653c1.474,0,2.194-0.998,2.194-1.866c0-0.802-0.246-1.556-1.604-2.62l-0.754-0.589
	c-1.801-1.408-2.423-2.554-2.423-3.88c0-1.802,1.506-3.095,3.782-3.095c1.064,0,1.752,0.163,2.178,0.278
	c0.147,0.033,0.229,0.082,0.229,0.196c0,0.213-0.065,0.688-0.065,1.965c0,0.36-0.049,0.491-0.18,0.491
	c-0.114,0-0.164-0.099-0.164-0.295c0-0.147-0.082-0.654-0.426-1.08c-0.245-0.312-0.72-0.803-1.784-0.803
	c-1.212,0-1.948,0.704-1.948,1.687c0,0.753,0.376,1.326,1.735,2.357l0.458,0.344c1.981,1.49,2.686,2.62,2.686,4.175
	c0,0.95-0.36,2.08-1.539,2.85c-0.818,0.523-1.735,0.671-2.604,0.671C119.613,66.416,118.876,66.302,118.172,65.991z"/>
<path fill="#4D4D4D" d="M130.781,54.726l-2.439,0.066c-0.949,0.032-1.342,0.114-1.588,0.475c-0.164,0.245-0.245,0.441-0.278,0.572
	s-0.082,0.197-0.18,0.197c-0.115,0-0.147-0.082-0.147-0.262c0-0.263,0.311-1.752,0.344-1.883c0.049-0.213,0.098-0.312,0.196-0.312
	c0.131,0,0.295,0.163,0.704,0.196c0.475,0.049,1.097,0.082,1.637,0.082h6.484c0.523,0,0.884-0.049,1.129-0.082
	c0.246-0.049,0.377-0.082,0.442-0.082c0.115,0,0.131,0.098,0.131,0.344c0,0.344-0.049,1.474-0.049,1.899
	c-0.017,0.163-0.049,0.263-0.147,0.263c-0.131,0-0.164-0.082-0.18-0.328l-0.017-0.18c-0.033-0.426-0.475-0.885-1.932-0.918
	l-2.063-0.049v6.713c0,1.506,0,2.8,0.082,3.504c0.049,0.459,0.147,0.818,0.639,0.885c0.229,0.032,0.589,0.064,0.835,0.064
	c0.18,0,0.262,0.05,0.262,0.131c0,0.115-0.131,0.164-0.311,0.164c-1.081,0-2.112-0.049-2.571-0.049
	c-0.376,0-1.408,0.049-2.062,0.049c-0.213,0-0.327-0.049-0.327-0.164c0-0.081,0.065-0.131,0.262-0.131
	c0.245,0,0.441-0.032,0.589-0.064c0.328-0.066,0.426-0.426,0.476-0.9c0.081-0.688,0.081-1.982,0.081-3.488V54.726z"/>
<path fill="#4D4D4D" d="M140.232,58.558c0-2.489,0-2.947-0.033-3.472c-0.032-0.557-0.196-0.835-0.557-0.917
	c-0.18-0.049-0.393-0.064-0.59-0.064c-0.163,0-0.262-0.033-0.262-0.164c0-0.099,0.131-0.131,0.394-0.131
	c0.622,0,1.653,0.049,2.128,0.049c0.409,0,1.375-0.049,1.997-0.049c0.213,0,0.345,0.032,0.345,0.131
	c0,0.131-0.099,0.164-0.263,0.164c-0.163,0-0.294,0.016-0.491,0.049c-0.441,0.082-0.572,0.359-0.605,0.933
	c-0.032,0.524-0.032,0.982-0.032,3.472v2.881c0,1.588,0,2.882,0.065,3.586c0.049,0.441,0.163,0.736,0.654,0.803
	c0.229,0.032,0.59,0.064,0.835,0.064c0.181,0,0.262,0.05,0.262,0.131c0,0.115-0.131,0.164-0.311,0.164
	c-1.081,0-2.112-0.049-2.555-0.049c-0.376,0-1.407,0.049-2.062,0.049c-0.213,0-0.327-0.049-0.327-0.164
	c0-0.081,0.065-0.131,0.262-0.131c0.245,0,0.442-0.032,0.59-0.064c0.327-0.066,0.425-0.344,0.475-0.819
	c0.082-0.688,0.082-1.981,0.082-3.569V58.558z M140.33,51.632c0-0.41,0.262-0.95,0.917-0.95c0.524,0,0.934,0.345,0.934,0.884
	c0,0.541-0.377,0.982-0.934,0.982C140.591,52.548,140.33,52.041,140.33,51.632z"/>
<path fill="#4D4D4D" d="M149.811,54.726l-2.439,0.066c-0.949,0.032-1.342,0.114-1.588,0.475c-0.164,0.245-0.245,0.441-0.278,0.572
	c-0.032,0.131-0.082,0.197-0.18,0.197c-0.115,0-0.147-0.082-0.147-0.262c0-0.263,0.311-1.752,0.344-1.883
	c0.049-0.213,0.098-0.312,0.196-0.312c0.131,0,0.295,0.163,0.704,0.196c0.475,0.049,1.097,0.082,1.637,0.082h6.484
	c0.523,0,0.884-0.049,1.129-0.082c0.246-0.049,0.377-0.082,0.442-0.082c0.115,0,0.131,0.098,0.131,0.344
	c0,0.344-0.049,1.474-0.049,1.899c-0.017,0.163-0.049,0.263-0.147,0.263c-0.131,0-0.164-0.082-0.18-0.328l-0.017-0.18
	c-0.033-0.426-0.475-0.885-1.932-0.918l-2.063-0.049v6.713c0,1.506,0,2.8,0.082,3.504c0.049,0.459,0.147,0.818,0.639,0.885
	c0.229,0.032,0.589,0.064,0.835,0.064c0.18,0,0.262,0.05,0.262,0.131c0,0.115-0.131,0.164-0.311,0.164
	c-1.081,0-2.112-0.049-2.571-0.049c-0.376,0-1.408,0.049-2.062,0.049c-0.213,0-0.327-0.049-0.327-0.164
	c0-0.081,0.065-0.131,0.262-0.131c0.245,0,0.441-0.032,0.589-0.064c0.328-0.066,0.426-0.426,0.476-0.9
	c0.081-0.688,0.081-1.982,0.081-3.488V54.726z"/>
<path fill="#4D4D4D" d="M158.558,58.558c0-2.489,0-2.947-0.033-3.472c-0.032-0.557-0.164-0.818-0.704-0.933
	c-0.131-0.033-0.409-0.049-0.639-0.049c-0.18,0-0.278-0.033-0.278-0.148c0-0.114,0.115-0.146,0.36-0.146
	c0.868,0,1.899,0.049,2.391,0.049c0.393,0,1.425-0.049,2.014-0.049c0.246,0,0.36,0.032,0.36,0.146c0,0.115-0.099,0.148-0.262,0.148
	c-0.181,0-0.278,0.016-0.476,0.049c-0.441,0.082-0.572,0.359-0.605,0.933c-0.032,0.524-0.032,0.982-0.032,3.472v2.291
	c0,2.375,0.475,3.373,1.276,4.028c0.737,0.606,1.49,0.671,2.047,0.671c0.721,0,1.604-0.229,2.26-0.884
	c0.9-0.9,0.949-2.374,0.949-4.061v-2.046c0-2.489,0-2.947-0.032-3.472c-0.033-0.557-0.164-0.818-0.704-0.933
	c-0.131-0.033-0.409-0.049-0.59-0.049c-0.18,0-0.278-0.033-0.278-0.148c0-0.114,0.114-0.146,0.344-0.146
	c0.835,0,1.866,0.049,1.883,0.049c0.196,0,1.229-0.049,1.866-0.049c0.229,0,0.345,0.032,0.345,0.146
	c0,0.115-0.099,0.148-0.295,0.148c-0.181,0-0.278,0.016-0.475,0.049c-0.442,0.082-0.573,0.359-0.606,0.933
	c-0.032,0.524-0.032,0.982-0.032,3.472v1.752c0,1.816-0.181,3.749-1.556,4.928c-1.162,0.998-2.341,1.179-3.405,1.179
	c-0.868,0-2.439-0.05-3.635-1.13c-0.835-0.753-1.457-1.965-1.457-4.338V58.558z M161.39,51.779c0-0.311,0.229-0.752,0.753-0.752
	c0.426,0,0.77,0.262,0.77,0.703c0,0.459-0.311,0.818-0.785,0.818C161.603,52.548,161.39,52.122,161.39,51.779z M164.845,51.779
	c0-0.327,0.229-0.77,0.753-0.77c0.426,0,0.77,0.263,0.77,0.721c0,0.459-0.312,0.818-0.786,0.818
	C165.058,52.548,164.845,52.122,164.845,51.779z"/>
<path fill="#4D4D4D" d="M172.314,65.991c-0.262-0.114-0.311-0.196-0.311-0.557c0-0.9,0.065-1.883,0.082-2.145
	c0.017-0.245,0.065-0.426,0.196-0.426c0.147,0,0.164,0.147,0.164,0.278c0,0.213,0.065,0.557,0.146,0.835
	c0.36,1.212,1.326,1.653,2.342,1.653c1.474,0,2.194-0.998,2.194-1.866c0-0.802-0.246-1.556-1.604-2.62l-0.754-0.589
	c-1.801-1.408-2.423-2.554-2.423-3.88c0-1.802,1.506-3.095,3.782-3.095c1.064,0,1.752,0.163,2.178,0.278
	c0.147,0.033,0.229,0.082,0.229,0.196c0,0.213-0.065,0.688-0.065,1.965c0,0.36-0.049,0.491-0.18,0.491
	c-0.114,0-0.164-0.099-0.164-0.295c0-0.147-0.082-0.654-0.426-1.08c-0.245-0.312-0.72-0.803-1.784-0.803
	c-1.212,0-1.948,0.704-1.948,1.687c0,0.753,0.376,1.326,1.735,2.357l0.458,0.344c1.981,1.49,2.686,2.62,2.686,4.175
	c0,0.95-0.36,2.08-1.539,2.85c-0.818,0.523-1.735,0.671-2.604,0.671C173.756,66.416,173.018,66.302,172.314,65.991z"/>
<path fill="#4D4D4D" d="M182.043,58.558c0-2.489,0-2.947-0.033-3.472c-0.032-0.557-0.164-0.818-0.704-0.933
	c-0.131-0.033-0.409-0.049-0.639-0.049c-0.18,0-0.278-0.033-0.278-0.148c0-0.114,0.115-0.146,0.36-0.146
	c0.868,0,1.899,0.049,2.391,0.049c0.393,0,1.425-0.049,2.014-0.049c0.246,0,0.36,0.032,0.36,0.146c0,0.115-0.099,0.148-0.262,0.148
	c-0.181,0-0.278,0.016-0.476,0.049c-0.441,0.082-0.572,0.359-0.605,0.933c-0.032,0.524-0.032,0.982-0.032,3.472v2.291
	c0,2.375,0.475,3.373,1.276,4.028c0.737,0.606,1.49,0.671,2.047,0.671c0.721,0,1.604-0.229,2.26-0.884
	c0.9-0.9,0.949-2.374,0.949-4.061v-2.046c0-2.489,0-2.947-0.032-3.472c-0.033-0.557-0.164-0.818-0.704-0.933
	c-0.131-0.033-0.409-0.049-0.59-0.049c-0.18,0-0.278-0.033-0.278-0.148c0-0.114,0.114-0.146,0.344-0.146
	c0.835,0,1.866,0.049,1.883,0.049c0.196,0,1.229-0.049,1.866-0.049c0.229,0,0.345,0.032,0.345,0.146
	c0,0.115-0.099,0.148-0.295,0.148c-0.181,0-0.278,0.016-0.475,0.049c-0.442,0.082-0.573,0.359-0.606,0.933
	c-0.032,0.524-0.032,0.982-0.032,3.472v1.752c0,1.816-0.181,3.749-1.556,4.928c-1.162,0.998-2.341,1.179-3.405,1.179
	c-0.868,0-2.439-0.05-3.635-1.13c-0.835-0.753-1.457-1.965-1.457-4.338V58.558z M184.875,51.779c0-0.311,0.229-0.752,0.753-0.752
	c0.426,0,0.77,0.262,0.77,0.703c0,0.459-0.311,0.818-0.785,0.818C185.088,52.548,184.875,52.122,184.875,51.779z M188.33,51.779
	c0-0.327,0.229-0.77,0.753-0.77c0.426,0,0.77,0.263,0.77,0.721c0,0.459-0.312,0.818-0.786,0.818
	C188.543,52.548,188.33,52.122,188.33,51.779z"/>
</svg>
