<?xml version="1.0" encoding="utf-8"?>
<!-- Generator: Adobe Illustrator 17.0.0, SVG Export Plug-In . SVG Version: 6.00 Build 0)  -->
<!DOCTYPE svg PUBLIC "-//W3C//DTD SVG 1.1//EN" "http://www.w3.org/Graphics/SVG/1.1/DTD/svg11.dtd">
<svg version="1.1" id="Layer_1" xmlns="http://www.w3.org/2000/svg" xmlns:xlink="http://www.w3.org/1999/xlink" x="0px" y="0px"
	 width="188.694px" height="65.112px" viewBox="0 0 188.694 65.112" enable-background="new 0 0 188.694 65.112"
	 xml:space="preserve">
<text transform="matrix(1 0 0 1 62.8543 60.2972)" fill="#FFFFFF" font-family="'Roboto-ThinItalic'" font-size="8.461">Turkey’s Technology Base</text>
<g>
	<path fill="#FFFFFF" d="M54.121,28.543c0,14.422-11.691,26.113-26.113,26.113c-14.422,0-26.113-11.691-26.113-26.113
		c0-14.422,11.691-26.113,26.113-26.113C42.43,2.43,54.121,14.121,54.121,28.543"/>
	<g>
		<path fill="#92080F" d="M28.008,3.474c-13.845,0-25.069,11.224-25.069,25.069c0,13.845,11.224,25.068,25.069,25.068
			s25.069-11.224,25.069-25.068C53.077,14.698,41.853,3.474,28.008,3.474 M28.008,52.567c-13.268,0-24.024-10.756-24.024-24.024
			c0-13.268,10.756-24.024,24.024-24.024c13.268,0,24.024,10.756,24.024,24.024C52.032,41.811,41.276,52.567,28.008,52.567"/>
		<path fill="#92080F" d="M28.008,9.742c-10.384,0-18.801,8.418-18.801,18.802c0,10.384,8.418,18.801,18.801,18.801
			c10.384,0,18.801-8.417,18.801-18.801C46.809,18.159,38.392,9.742,28.008,9.742 M28.008,46.3c-9.807,0-17.757-7.95-17.757-17.757
			c0-9.807,7.95-17.757,17.757-17.757s17.757,7.95,17.757,17.757C45.765,38.35,37.815,46.3,28.008,46.3"/>
		<path fill="#92080F" d="M44.72,28.543c0,9.23-7.483,16.712-16.712,16.712c-9.23,0-16.712-7.482-16.712-16.712
			c0-9.23,7.483-16.712,16.712-16.712C37.238,11.831,44.72,19.313,44.72,28.543"/>
		<path fill="#92080F" d="M37.955,46.812c0-0.495,0.344-1.184,1.183-1.184c0.667,0,1.184,0.43,1.184,1.119
			c0,0.689-0.473,1.248-1.205,1.248C38.299,47.995,37.955,47.35,37.955,46.812"/>
		<path fill="#92080F" d="M15.694,46.812c0-0.495,0.344-1.184,1.184-1.184c0.667,0,1.183,0.43,1.183,1.119
			c0,0.689-0.473,1.248-1.205,1.248C16.038,47.995,15.694,47.35,15.694,46.812"/>
	</g>
	<g>
		<path fill="#FFFFFF" d="M27.098,26.192h-0.531c-0.178,0-0.322-0.145-0.322-0.322v-6.41c0-0.178,0.144-0.322,0.322-0.322h0.531
			c0.178,0,0.322,0.144,0.322,0.322v6.41C27.42,26.047,27.276,26.192,27.098,26.192"/>
		<path fill="#FFFFFF" d="M28.141,22.664h-0.266c-0.089,0-0.161-0.072-0.161-0.161v-6.732c0-0.089,0.072-0.162,0.161-0.162h0.266
			c0.089,0,0.161,0.072,0.161,0.162v6.732C28.302,22.592,28.23,22.664,28.141,22.664"/>
		<path fill="#FFFFFF" d="M29.449,26.192h-0.531c-0.178,0-0.322-0.145-0.322-0.322v-6.41c0-0.178,0.144-0.322,0.322-0.322h0.531
			c0.178,0,0.322,0.144,0.322,0.322v6.41C29.772,26.047,29.627,26.192,29.449,26.192"/>
		<path fill="#FFFFFF" d="M34.602,22.364L34.602,22.364l2.655-2.654c0.057-0.057,0.057-0.151,0-0.208l-0.208-0.208
			c-0.057-0.057-0.15-0.057-0.208,0l-2.654,2.655c-0.115-0.115-0.301-0.115-0.416,0l-3.325,3.326c-0.115,0.115-0.115,0.301,0,0.416
			l0.416,0.416c0.115,0.114,0.301,0.114,0.416,0l3.325-3.326C34.717,22.665,34.717,22.479,34.602,22.364"/>
		<path fill="#FFFFFF" d="M30.359,27.633v-0.531c0-0.178,0.144-0.323,0.322-0.323h6.41c0.178,0,0.322,0.144,0.322,0.323v0.531
			c0,0.178-0.144,0.323-0.322,0.323h-6.41C30.504,27.955,30.359,27.811,30.359,27.633"/>
		<path fill="#FFFFFF" d="M33.887,28.676V28.41c0-0.089,0.072-0.161,0.161-0.161h6.732c0.089,0,0.161,0.072,0.161,0.161v0.266
			c0,0.089-0.072,0.161-0.161,0.161h-6.732C33.959,28.837,33.887,28.765,33.887,28.676"/>
		<path fill="#FFFFFF" d="M30.359,29.984v-0.531c0-0.178,0.144-0.323,0.322-0.323h6.41c0.178,0,0.322,0.145,0.322,0.323v0.531
			c0,0.178-0.144,0.322-0.322,0.322h-6.41C30.504,30.307,30.359,30.163,30.359,29.984"/>
		<path fill="#FFFFFF" d="M34.187,35.137L34.187,35.137l2.654,2.655c0.057,0.057,0.151,0.057,0.208,0l0.208-0.208
			c0.057-0.057,0.057-0.15,0-0.208l-2.655-2.655c0.115-0.115,0.115-0.301,0-0.416l-3.326-3.325c-0.115-0.115-0.301-0.115-0.416,0
			l-0.416,0.416c-0.115,0.115-0.115,0.301,0,0.415l3.325,3.326C33.886,35.252,34.072,35.252,34.187,35.137"/>
		<path fill="#FFFFFF" d="M28.918,30.895h0.531c0.178,0,0.322,0.144,0.322,0.322v6.41c0,0.178-0.144,0.322-0.322,0.322h-0.531
			c-0.178,0-0.322-0.144-0.322-0.322v-6.41C28.596,31.039,28.74,30.895,28.918,30.895"/>
		<path fill="#FFFFFF" d="M27.875,34.422h0.265c0.089,0,0.161,0.072,0.161,0.161v6.732c0,0.089-0.072,0.161-0.161,0.161h-0.265
			c-0.089,0-0.161-0.072-0.161-0.161v-6.732C27.714,34.494,27.786,34.422,27.875,34.422"/>
		<path fill="#FFFFFF" d="M26.567,30.895h0.531c0.178,0,0.322,0.144,0.322,0.322v6.41c0,0.178-0.144,0.322-0.322,0.322h-0.531
			c-0.178,0-0.322-0.144-0.322-0.322v-6.41C26.244,31.039,26.389,30.895,26.567,30.895"/>
		<path fill="#FFFFFF" d="M21.414,34.722L21.414,34.722l-2.655,2.655c-0.057,0.057-0.057,0.151,0,0.208l0.208,0.208
			c0.058,0.057,0.151,0.057,0.208,0l2.654-2.655c0.115,0.115,0.301,0.115,0.416,0l3.326-3.326c0.115-0.115,0.115-0.301,0-0.415
			l-0.416-0.416c-0.115-0.115-0.301-0.115-0.416,0l-3.326,3.325C21.299,34.421,21.299,34.607,21.414,34.722"/>
		<path fill="#FFFFFF" d="M25.657,29.453v0.531c0,0.178-0.144,0.322-0.322,0.322h-6.41c-0.178,0-0.322-0.144-0.322-0.322v-0.531
			c0-0.178,0.144-0.322,0.322-0.322h6.41C25.512,29.131,25.657,29.275,25.657,29.453"/>
		<path fill="#FFFFFF" d="M22.129,28.41v0.266c0,0.089-0.072,0.161-0.161,0.161h-6.732c-0.089,0-0.161-0.072-0.161-0.161V28.41
			c0-0.089,0.072-0.161,0.161-0.161h6.732C22.057,28.249,22.129,28.321,22.129,28.41"/>
		<path fill="#FFFFFF" d="M25.657,27.102v0.531c0,0.178-0.144,0.323-0.322,0.323h-6.41c-0.178,0-0.322-0.144-0.322-0.323v-0.531
			c0-0.178,0.144-0.322,0.322-0.322h6.41C25.512,26.78,25.657,26.924,25.657,27.102"/>
		<path fill="#FFFFFF" d="M21.829,21.949L21.829,21.949l-2.655-2.655c-0.057-0.057-0.151-0.057-0.208,0l-0.208,0.208
			c-0.057,0.058-0.057,0.151,0,0.208l2.655,2.654c-0.115,0.115-0.115,0.301,0,0.416l3.326,3.326c0.115,0.114,0.301,0.114,0.416,0
			l0.416-0.416c0.115-0.115,0.115-0.301,0-0.416l-3.326-3.326C22.13,21.834,21.944,21.834,21.829,21.949"/>
	</g>
	<g>
		<path fill="#1A1A1A" d="M12.677,46.065c-0.062,0.069-0.187,0.12-0.296,0.022c-0.088-0.079-0.105-0.197-0.024-0.288
			c0.081-0.091,0.21-0.108,0.304-0.025C12.77,45.872,12.738,45.996,12.677,46.065 M13.731,44.916
			c-0.373,0.418-0.442,0.495-0.515,0.588c-0.078,0.098-0.092,0.17-0.044,0.238c0.023,0.035,0.056,0.07,0.089,0.099
			c0.027,0.024,0.039,0.045,0.02,0.067c-0.015,0.016-0.042,0.002-0.086-0.037c-0.105-0.093-0.27-0.256-0.35-0.327
			c-0.069-0.061-0.238-0.198-0.343-0.292c-0.036-0.032-0.053-0.057-0.038-0.074c0.02-0.022,0.041-0.013,0.069,0.012
			c0.028,0.024,0.052,0.041,0.09,0.066c0.087,0.052,0.15,0.025,0.242-0.066c0.084-0.083,0.153-0.16,0.526-0.578l0.432-0.484
			c0.238-0.267,0.432-0.484,0.526-0.612c0.058-0.081,0.083-0.148,0.01-0.233c-0.034-0.04-0.089-0.099-0.131-0.136
			c-0.03-0.027-0.037-0.048-0.024-0.061c0.017-0.019,0.046-0.008,0.077,0.019c0.181,0.162,0.347,0.325,0.422,0.391
			c0.063,0.056,0.244,0.203,0.354,0.301c0.036,0.032,0.048,0.057,0.03,0.077c-0.012,0.014-0.031,0.012-0.064-0.017
			c-0.041-0.037-0.079-0.061-0.109-0.078c-0.065-0.038-0.123-0.006-0.203,0.066c-0.117,0.103-0.311,0.321-0.549,0.587L13.731,44.916
			z"/>
		<path fill="#1A1A1A" d="M12.169,41.114c-0.24-0.29-0.402-0.341-0.525-0.316c-0.066,0.012-0.132,0.037-0.178,0.062
			c-0.033,0.018-0.055,0.026-0.069,0.009c-0.019-0.023-0.004-0.045,0.064-0.101c0.091-0.075,0.306-0.191,0.393-0.23
			c0.063-0.028,0.102-0.027,0.145,0.024c0.392,0.474,0.773,0.962,1.248,1.536c0.026,0.031,0.031,0.055,0.012,0.072
			c-0.02,0.017-0.041,0.02-0.121,0.028c-0.956,0.117-1.945,0.228-2.859,0.343l0.461,0.556c0.12,0.145,0.272,0.311,0.398,0.359
			c0.129,0.051,0.276,0.015,0.348-0.03c0.044-0.027,0.065-0.025,0.079-0.008c0.017,0.02,0.005,0.035-0.03,0.063
			c-0.065,0.054-0.359,0.225-0.456,0.282c-0.044,0.027-0.068,0.027-0.082,0.01c-0.021-0.026-0.018-0.057-0.074-0.13
			c-0.212-0.279-0.328-0.413-0.424-0.529l-0.717-0.866c-0.024-0.029-0.031-0.055-0.017-0.067c0.017-0.014,0.044-0.017,0.073-0.022
			c0.96-0.135,1.967-0.242,2.909-0.347L12.169,41.114z"/>
		<path fill="#1A1A1A" d="M8.433,40.244c-0.06,0.02-0.1,0.016-0.114-0.01c-0.014-0.026-0.008-0.054,0.054-0.141l1.366-1.862
			l-2.329,0.1c-0.066,0.001-0.101-0.001-0.116-0.031c-0.015-0.029,0.007-0.066,0.07-0.112l1.856-1.362
			c0.189-0.138,0.267-0.221,0.244-0.334c-0.021-0.11-0.052-0.177-0.075-0.219c-0.015-0.029-0.024-0.053-0.005-0.064
			c0.026-0.013,0.056,0.02,0.081,0.066c0.043,0.081,0.271,0.536,0.33,0.671c0.033,0.078,0.034,0.103,0.014,0.114
			c-0.016,0.009-0.033,0.001-0.055-0.017c-0.017-0.017-0.064-0.004-0.149,0.058l-1.329,0.955l0.007,0.013l1.855-0.073
			c0.193-0.006,0.231-0.006,0.246,0.024c0.016,0.029-0.032,0.096-0.102,0.2c-0.109,0.157-0.471,0.679-0.541,0.766
			c-0.053,0.066-0.36,0.478-0.544,0.722l0.007,0.013l1.386-0.517c0.062-0.025,0.106-0.044,0.158-0.071
			c0.062-0.033,0.069-0.091,0.052-0.153c-0.018-0.066-0.039-0.113-0.056-0.145c-0.014-0.026-0.019-0.052-0.003-0.061
			c0.029-0.015,0.051,0.01,0.077,0.059c0.072,0.137,0.14,0.289,0.171,0.348c0.033,0.062,0.125,0.213,0.181,0.317
			c0.017,0.033,0.024,0.062-0.005,0.078c-0.016,0.009-0.033-0.007-0.051-0.04c-0.014-0.026-0.026-0.049-0.061-0.092
			c-0.068-0.081-0.209-0.04-0.328,0.003L8.433,40.244z"/>
		<path fill="#1A1A1A" d="M5.868,35.739c-0.088,0.028-0.221,0.008-0.266-0.133c-0.035-0.113,0.011-0.224,0.127-0.26
			c0.116-0.037,0.236,0.014,0.274,0.134C6.048,35.621,5.956,35.711,5.868,35.739 M7.362,35.293
			c-0.534,0.168-0.633,0.199-0.743,0.241c-0.117,0.045-0.166,0.099-0.16,0.181c0.002,0.042,0.012,0.089,0.026,0.131
			c0.011,0.035,0.011,0.058-0.017,0.067c-0.021,0.007-0.037-0.019-0.055-0.076c-0.042-0.134-0.101-0.358-0.133-0.46
			c-0.028-0.088-0.103-0.292-0.145-0.425C6.12,34.907,6.119,34.876,6.14,34.87c0.028-0.009,0.042,0.01,0.053,0.045
			c0.011,0.035,0.024,0.062,0.044,0.102c0.047,0.09,0.116,0.099,0.241,0.067c0.114-0.028,0.213-0.059,0.747-0.227l0.619-0.194
			c0.341-0.107,0.619-0.195,0.765-0.256c0.091-0.041,0.147-0.085,0.128-0.195c-0.008-0.052-0.026-0.131-0.042-0.184
			c-0.012-0.039-0.007-0.059,0.01-0.065c0.025-0.008,0.044,0.017,0.056,0.056c0.073,0.232,0.132,0.457,0.162,0.552
			c0.025,0.081,0.106,0.299,0.15,0.44c0.014,0.046,0.012,0.074-0.013,0.081c-0.018,0.006-0.033-0.005-0.046-0.047
			c-0.017-0.053-0.037-0.093-0.054-0.122c-0.036-0.066-0.103-0.068-0.208-0.047c-0.153,0.029-0.431,0.116-0.772,0.224L7.362,35.293z
			"/>
		<path fill="#1A1A1A" d="M6.651,32.559c-0.554,0.082-0.656,0.097-0.772,0.122c-0.123,0.026-0.177,0.064-0.185,0.188
			c-0.003,0.031,0.003,0.093,0.01,0.144c0.006,0.04,0.002,0.063-0.024,0.067c-0.025,0.004-0.037-0.02-0.044-0.075
			c-0.029-0.193-0.052-0.424-0.063-0.501c-0.018-0.124-0.071-0.4-0.087-0.513c-0.034-0.23-0.049-0.477,0.057-0.694
			c0.054-0.113,0.218-0.286,0.463-0.322c0.27-0.04,0.534,0.036,0.888,0.36c0.36-0.385,0.647-0.685,0.841-0.934
			c0.181-0.235,0.185-0.389,0.187-0.445c0.001-0.041,0-0.075-0.004-0.103c-0.004-0.029,0.004-0.046,0.023-0.048
			c0.029-0.005,0.04,0.02,0.047,0.064l0.051,0.346c0.03,0.204,0.026,0.298-0.011,0.4c-0.06,0.169-0.211,0.333-0.462,0.579
			c-0.179,0.176-0.402,0.38-0.449,0.436c-0.019,0.022-0.02,0.044-0.016,0.069l0.04,0.318c0.003,0.018,0.012,0.028,0.033,0.025
			l0.051-0.007c0.339-0.05,0.627-0.093,0.777-0.134c0.104-0.026,0.181-0.06,0.179-0.172c-0.001-0.056-0.005-0.137-0.012-0.181
			c-0.004-0.029,0.004-0.045,0.023-0.048c0.025-0.004,0.04,0.02,0.047,0.068c0.031,0.211,0.061,0.483,0.069,0.537
			c0.01,0.069,0.055,0.297,0.077,0.443c0.007,0.047,0,0.074-0.026,0.078c-0.018,0.003-0.031-0.01-0.038-0.054
			c-0.008-0.055-0.022-0.097-0.034-0.129c-0.026-0.071-0.108-0.077-0.216-0.076c-0.156,0.005-0.444,0.047-0.779,0.098L6.651,32.559z
			 M6.875,32.086c0.04-0.006,0.054-0.015,0.061-0.042c0.014-0.081,0.009-0.191-0.005-0.283c-0.022-0.146-0.044-0.191-0.101-0.249
			c-0.096-0.098-0.28-0.178-0.579-0.134c-0.518,0.077-0.616,0.442-0.584,0.657c0.013,0.091,0.027,0.156,0.043,0.191
			c0.011,0.024,0.027,0.03,0.056,0.025L6.875,32.086z"/>
		<path fill="#1A1A1A" d="M6.399,26.434c-0.557-0.06-0.659-0.071-0.777-0.077c-0.126-0.006-0.192,0.024-0.219,0.102
			c-0.015,0.039-0.024,0.086-0.029,0.13c-0.004,0.037-0.014,0.058-0.043,0.055c-0.022-0.002-0.026-0.033-0.02-0.091
			c0.015-0.139,0.051-0.369,0.062-0.475c0.01-0.092,0.022-0.309,0.037-0.448c0.005-0.048,0.016-0.076,0.038-0.074
			c0.029,0.003,0.034,0.026,0.03,0.063c-0.004,0.037-0.004,0.066-0.001,0.111c0.008,0.101,0.067,0.137,0.194,0.158
			c0.116,0.02,0.219,0.031,0.776,0.091l0.645,0.07c0.355,0.039,0.645,0.07,0.804,0.072c0.1,0,0.169-0.019,0.196-0.127
			c0.013-0.051,0.029-0.13,0.035-0.185c0.004-0.04,0.017-0.057,0.036-0.056c0.026,0.003,0.033,0.033,0.029,0.074
			c-0.026,0.242-0.062,0.472-0.073,0.57c-0.009,0.084-0.023,0.316-0.039,0.463c-0.005,0.047-0.019,0.072-0.044,0.069
			c-0.018-0.002-0.028-0.018-0.023-0.062c0.006-0.055,0.003-0.1-0.001-0.133c-0.007-0.075-0.067-0.104-0.172-0.126
			c-0.152-0.035-0.441-0.066-0.797-0.105L6.399,26.434z"/>
		<path fill="#1A1A1A" d="M8.055,23.762c0.278,0.073,0.384,0.053,0.429-0.011c0.039-0.054,0.061-0.12,0.078-0.177
			c0.011-0.039,0.024-0.058,0.046-0.052c0.028,0.008,0.026,0.042,0.012,0.092c-0.066,0.23-0.118,0.369-0.137,0.436
			c-0.009,0.032-0.046,0.201-0.099,0.385c-0.013,0.046-0.026,0.077-0.058,0.068c-0.021-0.006-0.022-0.029-0.012-0.065
			c0.013-0.046,0.028-0.111,0.028-0.164c-0.002-0.1-0.1-0.144-0.407-0.236l-2.086-0.636C5.777,23.38,5.73,23.355,5.74,23.32
			c0.011-0.039,0.066-0.058,0.148-0.099c0.058-0.029,0.79-0.401,1.453-0.77c0.31-0.171,0.958-0.502,1.032-0.546l0.005-0.018
			l-1.6-0.423c-0.217-0.059-0.293-0.046-0.353,0.029c-0.037,0.047-0.061,0.132-0.075,0.181c-0.012,0.043-0.027,0.054-0.048,0.047
			c-0.028-0.008-0.021-0.048-0.005-0.101c0.053-0.184,0.113-0.351,0.134-0.425c0.011-0.039,0.039-0.177,0.089-0.35
			c0.013-0.046,0.027-0.081,0.055-0.072c0.021,0.006,0.026,0.03,0.013,0.073c-0.01,0.035-0.018,0.064-0.02,0.109
			c0,0.107,0.066,0.157,0.263,0.218l2.222,0.683c0.078,0.022,0.106,0.046,0.097,0.078c-0.011,0.039-0.063,0.07-0.113,0.098
			c-0.277,0.162-0.871,0.481-1.342,0.744c-0.494,0.276-1.05,0.541-1.135,0.585l-0.003,0.01L8.055,23.762z"/>
		<path fill="#1A1A1A" d="M9.801,20.153c-0.05,0.041-0.071,0.043-0.144,0.006c-0.181-0.091-0.372-0.204-0.423-0.234
			c-0.048-0.028-0.079-0.056-0.066-0.082c0.015-0.03,0.046-0.018,0.073-0.005c0.043,0.022,0.119,0.043,0.183,0.055
			c0.28,0.05,0.466-0.099,0.569-0.303c0.149-0.296,0.021-0.542-0.153-0.63c-0.161-0.081-0.337-0.108-0.689,0.057l-0.195,0.092
			c-0.465,0.22-0.759,0.229-1.025,0.094c-0.362-0.182-0.469-0.616-0.239-1.073c0.108-0.214,0.21-0.335,0.277-0.409
			c0.022-0.026,0.04-0.038,0.063-0.026c0.043,0.021,0.132,0.083,0.388,0.212c0.072,0.037,0.094,0.06,0.08,0.086
			c-0.012,0.023-0.036,0.023-0.076,0.003c-0.03-0.015-0.14-0.05-0.26-0.024c-0.087,0.018-0.234,0.063-0.342,0.277
			c-0.123,0.244-0.056,0.463,0.142,0.563c0.151,0.076,0.305,0.058,0.65-0.11l0.115-0.057c0.5-0.247,0.798-0.274,1.111-0.117
			c0.191,0.096,0.381,0.283,0.417,0.598c0.022,0.218-0.041,0.417-0.129,0.591C10.032,19.906,9.934,20.043,9.801,20.153"/>
		<path fill="#1A1A1A" d="M9.633,15.442l-0.311,0.453c-0.12,0.177-0.157,0.259-0.124,0.352c0.023,0.062,0.048,0.103,0.067,0.126
			c0.019,0.023,0.025,0.041,0.012,0.059c-0.015,0.021-0.034,0.016-0.067-0.008c-0.048-0.035-0.278-0.289-0.297-0.312
			c-0.032-0.037-0.044-0.059-0.031-0.077c0.017-0.024,0.069-0.032,0.129-0.102c0.072-0.08,0.16-0.189,0.232-0.287l0.859-1.179
			c0.069-0.095,0.108-0.167,0.135-0.216c0.024-0.051,0.035-0.079,0.044-0.091c0.015-0.021,0.035-0.011,0.08,0.021
			c0.063,0.046,0.262,0.205,0.339,0.261c0.028,0.025,0.041,0.044,0.028,0.062c-0.017,0.024-0.037,0.019-0.083-0.011l-0.035-0.021
			c-0.082-0.05-0.224-0.031-0.423,0.23L9.905,15.07l1.221,0.89c0.274,0.2,0.509,0.371,0.648,0.45
			c0.09,0.052,0.168,0.082,0.246,0.001c0.036-0.037,0.09-0.099,0.123-0.143c0.024-0.033,0.043-0.041,0.059-0.03
			c0.021,0.015,0.012,0.046-0.012,0.078c-0.143,0.197-0.289,0.378-0.35,0.461c-0.05,0.069-0.178,0.263-0.265,0.382
			c-0.028,0.039-0.052,0.053-0.073,0.038c-0.015-0.011-0.015-0.029,0.011-0.065c0.033-0.045,0.053-0.085,0.066-0.116
			c0.031-0.068-0.021-0.134-0.101-0.206c-0.114-0.106-0.349-0.278-0.624-0.477L9.633,15.442z"/>
		<path fill="#1A1A1A" d="M12.433,13.431c-0.398-0.394-0.471-0.467-0.56-0.545c-0.094-0.083-0.164-0.101-0.235-0.056
			c-0.036,0.021-0.073,0.052-0.104,0.084c-0.026,0.026-0.047,0.037-0.068,0.016c-0.016-0.015,0-0.041,0.041-0.083
			c0.099-0.099,0.27-0.257,0.345-0.332c0.065-0.065,0.21-0.227,0.309-0.327c0.034-0.034,0.06-0.049,0.076-0.034
			c0.021,0.021,0.01,0.042-0.016,0.068c-0.026,0.026-0.044,0.05-0.07,0.086c-0.057,0.084-0.034,0.149,0.053,0.245
			c0.079,0.088,0.152,0.161,0.55,0.555l0.46,0.457c0.254,0.252,0.46,0.457,0.583,0.558c0.078,0.062,0.144,0.09,0.232,0.022
			c0.042-0.031,0.104-0.084,0.143-0.123c0.029-0.029,0.049-0.034,0.062-0.021c0.018,0.018,0.006,0.047-0.023,0.076
			c-0.171,0.172-0.342,0.33-0.413,0.4c-0.06,0.06-0.215,0.233-0.319,0.337c-0.034,0.034-0.06,0.044-0.078,0.026
			c-0.013-0.013-0.01-0.031,0.021-0.063c0.039-0.039,0.065-0.076,0.083-0.105c0.042-0.063,0.013-0.122-0.056-0.206
			c-0.097-0.122-0.303-0.327-0.557-0.579L12.433,13.431z"/>
		<path fill="#1A1A1A" d="M14.393,10.549l-0.432,0.339c-0.167,0.134-0.227,0.201-0.223,0.299c0.003,0.066,0.015,0.113,0.026,0.141
			c0.012,0.028,0.012,0.047-0.006,0.06c-0.021,0.015-0.037,0.005-0.062-0.028c-0.035-0.047-0.179-0.358-0.19-0.387
			c-0.02-0.045-0.024-0.069-0.006-0.083c0.024-0.018,0.075-0.01,0.154-0.059c0.092-0.055,0.209-0.132,0.307-0.205l1.172-0.87
			c0.095-0.07,0.153-0.128,0.193-0.166c0.038-0.042,0.057-0.065,0.069-0.074c0.021-0.016,0.037,0,0.07,0.044
			c0.046,0.062,0.189,0.273,0.246,0.35c0.019,0.032,0.026,0.054,0.008,0.067c-0.024,0.017-0.041,0.007-0.076-0.035l-0.027-0.03
			c-0.063-0.073-0.205-0.096-0.472,0.094l-0.379,0.268l0.901,1.213c0.202,0.272,0.376,0.506,0.485,0.623
			c0.071,0.076,0.137,0.128,0.234,0.074c0.046-0.025,0.115-0.067,0.16-0.1c0.033-0.024,0.054-0.026,0.065-0.012
			c0.015,0.021-0.002,0.047-0.034,0.071c-0.195,0.145-0.388,0.275-0.471,0.336c-0.068,0.051-0.248,0.198-0.366,0.286
			c-0.038,0.029-0.066,0.035-0.081,0.014c-0.011-0.015-0.006-0.033,0.03-0.059c0.044-0.033,0.075-0.065,0.098-0.091
			c0.05-0.056,0.02-0.134-0.035-0.226c-0.078-0.135-0.251-0.369-0.453-0.642L14.393,10.549z"/>
		<path fill="#1A1A1A" d="M17.546,9.496c-0.244-0.504-0.289-0.597-0.347-0.7c-0.061-0.109-0.114-0.15-0.234-0.12
			c-0.03,0.006-0.088,0.03-0.134,0.053c-0.037,0.018-0.06,0.021-0.071-0.002c-0.011-0.023,0.009-0.041,0.059-0.065
			c0.176-0.085,0.39-0.176,0.489-0.224c0.079-0.039,0.284-0.15,0.403-0.208c0.05-0.024,0.076-0.029,0.087-0.005
			c0.011,0.023-0.005,0.039-0.038,0.056c-0.037,0.018-0.055,0.031-0.092,0.056c-0.081,0.06-0.081,0.129-0.031,0.248
			c0.045,0.109,0.09,0.202,0.334,0.707l0.224,0.464c0.233,0.481,0.427,0.637,0.654,0.691c0.209,0.051,0.368-0.01,0.48-0.065
			c0.146-0.07,0.303-0.204,0.371-0.401c0.094-0.271-0.04-0.574-0.206-0.916L19.294,8.65c-0.244-0.504-0.289-0.597-0.347-0.7
			c-0.061-0.11-0.114-0.15-0.234-0.12c-0.03,0.006-0.088,0.03-0.124,0.048c-0.037,0.018-0.06,0.021-0.071-0.003
			c-0.011-0.023,0.009-0.041,0.055-0.063c0.169-0.082,0.383-0.173,0.386-0.175c0.04-0.019,0.244-0.13,0.373-0.193
			c0.047-0.022,0.073-0.027,0.084-0.004c0.012,0.023-0.005,0.04-0.045,0.059c-0.036,0.017-0.055,0.03-0.091,0.056
			c-0.081,0.06-0.081,0.129-0.031,0.248c0.045,0.109,0.09,0.202,0.334,0.707l0.172,0.355c0.178,0.368,0.331,0.778,0.168,1.151
			c-0.138,0.316-0.359,0.468-0.574,0.573c-0.176,0.085-0.499,0.229-0.847,0.128c-0.243-0.071-0.488-0.255-0.721-0.736L17.546,9.496z
			"/>
		<path fill="#1A1A1A" d="M21.938,6.81l-0.526,0.157c-0.205,0.062-0.285,0.103-0.318,0.196c-0.021,0.063-0.027,0.11-0.027,0.141
			c0,0.03-0.006,0.047-0.028,0.053c-0.025,0.007-0.037-0.009-0.047-0.048c-0.015-0.057-0.035-0.399-0.035-0.429
			C20.955,6.83,20.96,6.806,20.981,6.8c0.028-0.008,0.074,0.018,0.164,0.001c0.106-0.017,0.243-0.046,0.36-0.078l1.409-0.379
			c0.114-0.031,0.189-0.062,0.241-0.084c0.05-0.025,0.077-0.04,0.091-0.043c0.025-0.007,0.034,0.013,0.048,0.067
			c0.02,0.075,0.075,0.323,0.1,0.416c0.006,0.037,0.005,0.06-0.017,0.065c-0.028,0.008-0.04-0.008-0.058-0.06l-0.014-0.038
			c-0.032-0.09-0.155-0.164-0.473-0.087l-0.451,0.11l0.392,1.459c0.088,0.327,0.163,0.609,0.222,0.757
			c0.037,0.097,0.08,0.169,0.19,0.155c0.052-0.006,0.132-0.021,0.185-0.035c0.039-0.01,0.06-0.004,0.065,0.013
			c0.007,0.025-0.019,0.043-0.058,0.054c-0.235,0.063-0.462,0.113-0.561,0.139c-0.082,0.022-0.303,0.093-0.446,0.131
			c-0.046,0.013-0.074,0.009-0.081-0.016c-0.005-0.018,0.007-0.033,0.049-0.044c0.054-0.015,0.094-0.033,0.124-0.049
			c0.067-0.034,0.068-0.117,0.051-0.224c-0.022-0.154-0.098-0.435-0.186-0.763L21.938,6.81z"/>
		<path fill="#1A1A1A" d="M25.396,6.996c-0.052-0.558-0.062-0.66-0.08-0.777c-0.019-0.124-0.054-0.18-0.177-0.194
			c-0.03-0.005-0.093-0.002-0.144,0.003C24.954,6.031,24.931,6.026,24.928,6c-0.002-0.026,0.023-0.035,0.078-0.041
			c0.099-0.009,0.206-0.016,0.298-0.024c0.096-0.005,0.181-0.009,0.232-0.014c0.117-0.011,0.848-0.08,0.917-0.09
			c0.069-0.014,0.127-0.027,0.156-0.037c0.018-0.005,0.039-0.019,0.057-0.02c0.018-0.002,0.023,0.013,0.025,0.031
			c0.003,0.026-0.012,0.071-0.007,0.241c0,0.037,0.008,0.199,0.004,0.244c-0.002,0.019-0.007,0.041-0.033,0.044
			c-0.026,0.003-0.035-0.015-0.038-0.048c-0.002-0.026-0.012-0.088-0.034-0.13c-0.032-0.064-0.073-0.104-0.258-0.109
			c-0.063-0.002-0.449,0.027-0.522,0.034c-0.018,0.001-0.025,0.013-0.022,0.039l0.087,0.928c0.002,0.026,0.007,0.04,0.029,0.038
			c0.081-0.008,0.503-0.047,0.586-0.062c0.088-0.015,0.141-0.032,0.171-0.072c0.023-0.032,0.036-0.051,0.054-0.053
			c0.015-0.001,0.026,0.005,0.029,0.027c0.002,0.022-0.007,0.082-0.004,0.271c0.003,0.074,0.006,0.221,0.008,0.247
			c0.003,0.029,0.006,0.07-0.027,0.073c-0.025,0.003-0.034-0.012-0.036-0.03c-0.007-0.036-0.012-0.084-0.027-0.131
			c-0.025-0.072-0.082-0.122-0.219-0.124c-0.07-0.001-0.434,0.03-0.522,0.038c-0.019,0.002-0.021,0.017-0.019,0.039l0.027,0.29
			c0.012,0.125,0.04,0.463,0.053,0.569c0.031,0.252,0.095,0.302,0.469,0.267c0.095-0.009,0.249-0.023,0.341-0.076
			c0.091-0.053,0.128-0.134,0.14-0.287c0.003-0.041,0.009-0.056,0.035-0.059c0.029-0.003,0.032,0.026,0.036,0.063
			c0.008,0.085,0.002,0.337-0.01,0.412c-0.017,0.098-0.05,0.101-0.189,0.114c-0.275,0.026-0.477,0.037-0.635,0.049
			c-0.158,0.007-0.273,0.014-0.383,0.025c-0.04,0.004-0.121,0.012-0.209,0.023c-0.084,0.008-0.179,0.024-0.252,0.031
			c-0.047,0.004-0.074-0.004-0.077-0.03c-0.002-0.018,0.012-0.031,0.056-0.035c0.055-0.005,0.098-0.017,0.131-0.027
			c0.072-0.022,0.083-0.104,0.087-0.212c0.004-0.156-0.023-0.446-0.055-0.783L25.396,6.996z"/>
		<path fill="#1A1A1A" d="M30.651,7.28c0.121-0.618,0.686-1.338,1.77-1.126c0.901,0.176,1.359,0.81,1.197,1.638
			c-0.162,0.828-0.868,1.37-1.787,1.19C30.794,8.779,30.526,7.92,30.651,7.28 M33.086,7.827c0.158-0.81-0.21-1.404-0.803-1.52
			c-0.416-0.081-0.935,0.058-1.111,0.958c-0.147,0.752,0.152,1.43,0.847,1.566C32.272,8.88,32.882,8.872,33.086,7.827"/>
		<path fill="#1A1A1A" d="M35.723,8.954c-0.131,0.328-0.233,0.585-0.273,0.736c-0.029,0.103-0.038,0.187,0.059,0.242
			c0.045,0.026,0.118,0.063,0.166,0.082c0.044,0.018,0.054,0.033,0.047,0.051c-0.01,0.024-0.038,0.025-0.089,0.004
			c-0.216-0.086-0.427-0.182-0.516-0.217c-0.089-0.035-0.309-0.111-0.439-0.163c-0.048-0.019-0.069-0.035-0.058-0.063
			c0.007-0.017,0.025-0.022,0.062-0.007c0.051,0.021,0.095,0.03,0.129,0.035c0.074,0.013,0.121-0.055,0.174-0.149
			c0.074-0.137,0.177-0.394,0.307-0.722l0.24-0.602c0.207-0.521,0.245-0.616,0.282-0.729c0.04-0.119,0.034-0.185-0.069-0.254
			c-0.025-0.018-0.081-0.044-0.129-0.064c-0.034-0.014-0.055-0.03-0.047-0.05c0.011-0.027,0.041-0.023,0.092-0.003
			c0.089,0.035,0.187,0.078,0.276,0.114c0.088,0.039,0.165,0.074,0.213,0.093c0.13,0.052,0.825,0.328,0.905,0.356
			c0.067,0.022,0.108,0.039,0.146,0.042c0.023,0.001,0.046-0.006,0.063,0.001c0.014,0.006,0.019,0.023,0.012,0.04
			c-0.009,0.024-0.043,0.058-0.088,0.143c-0.017,0.033-0.104,0.232-0.128,0.271c-0.014,0.026-0.029,0.044-0.053,0.034
			c-0.024-0.01-0.024-0.029-0.012-0.068c0.011-0.028,0.033-0.082,0.031-0.139c-0.005-0.057-0.056-0.137-0.185-0.193l-0.523-0.22
			c-0.021-0.008-0.035-0.002-0.05,0.036l-0.341,0.856c-0.008,0.021-0.009,0.032,0.012,0.04l0.44,0.171
			c0.058,0.023,0.106,0.042,0.155,0.058c0.067,0.022,0.12,0.028,0.172-0.003c0.025-0.014,0.038-0.025,0.058-0.016
			c0.014,0.005,0.016,0.019,0.008,0.039c-0.008,0.02-0.059,0.099-0.112,0.201c-0.034,0.066-0.104,0.22-0.113,0.244
			c-0.012,0.031-0.026,0.065-0.06,0.052c-0.021-0.008-0.018-0.035-0.008-0.059c0.01-0.024,0.019-0.068,0.022-0.114
			c0.002-0.055-0.025-0.137-0.126-0.193c-0.081-0.044-0.444-0.189-0.502-0.212c-0.017-0.007-0.027-0.003-0.036,0.021L35.723,8.954z"
			/>
		<path fill="#1A1A1A" d="M41.45,10.421l-0.446-0.319c-0.175-0.123-0.257-0.162-0.349-0.131c-0.063,0.022-0.104,0.046-0.128,0.065
			c-0.024,0.019-0.041,0.024-0.059,0.011c-0.021-0.015-0.015-0.034,0.009-0.067c0.036-0.047,0.294-0.272,0.317-0.291
			c0.038-0.031,0.06-0.042,0.077-0.029c0.023,0.018,0.031,0.069,0.1,0.131c0.078,0.073,0.186,0.164,0.283,0.237l1.163,0.881
			c0.094,0.071,0.165,0.112,0.214,0.139c0.051,0.025,0.079,0.037,0.09,0.046c0.021,0.016,0.01,0.035-0.023,0.08
			c-0.047,0.062-0.209,0.258-0.267,0.334c-0.025,0.027-0.044,0.041-0.062,0.027c-0.023-0.018-0.018-0.037,0.012-0.083l0.022-0.035
			c0.052-0.081,0.035-0.223-0.222-0.427l-0.363-0.289l-0.912,1.204c-0.205,0.27-0.38,0.502-0.461,0.64
			c-0.054,0.089-0.085,0.167-0.006,0.246c0.037,0.037,0.097,0.092,0.141,0.125c0.032,0.024,0.04,0.045,0.029,0.059
			c-0.016,0.021-0.046,0.012-0.078-0.013c-0.194-0.147-0.372-0.296-0.454-0.358c-0.068-0.051-0.259-0.183-0.377-0.271
			c-0.038-0.029-0.052-0.053-0.036-0.074c0.011-0.015,0.029-0.015,0.065,0.012c0.044,0.033,0.084,0.054,0.115,0.068
			c0.068,0.033,0.134-0.019,0.208-0.097c0.108-0.112,0.284-0.344,0.488-0.615L41.45,10.421z"/>
		<path fill="#1A1A1A" d="M43.423,13.259c0.407-0.384,0.482-0.455,0.563-0.542c0.086-0.091,0.109-0.153,0.044-0.259
			c-0.015-0.027-0.055-0.075-0.09-0.112c-0.028-0.03-0.038-0.051-0.019-0.068c0.019-0.018,0.042-0.004,0.08,0.036
			c0.068,0.073,0.139,0.153,0.202,0.22c0.063,0.072,0.119,0.136,0.154,0.174c0.081,0.086,0.584,0.619,0.635,0.668
			c0.053,0.046,0.099,0.084,0.125,0.1c0.015,0.011,0.039,0.019,0.051,0.033c0.013,0.013,0.004,0.026-0.009,0.039
			c-0.019,0.017-0.063,0.035-0.194,0.143c-0.029,0.022-0.152,0.128-0.189,0.153c-0.016,0.01-0.037,0.02-0.055,0.001
			c-0.018-0.019-0.009-0.037,0.015-0.06c0.019-0.018,0.062-0.063,0.081-0.107c0.031-0.064,0.037-0.122-0.073-0.271
			c-0.038-0.051-0.297-0.337-0.348-0.391c-0.013-0.013-0.026-0.011-0.045,0.006l-0.678,0.64c-0.019,0.018-0.027,0.03-0.012,0.047
			c0.056,0.059,0.346,0.367,0.41,0.424c0.066,0.059,0.112,0.092,0.161,0.091c0.039-0.001,0.063-0.003,0.075,0.01
			c0.01,0.011,0.012,0.024-0.004,0.039c-0.016,0.015-0.069,0.045-0.216,0.163c-0.056,0.048-0.171,0.141-0.19,0.159
			c-0.022,0.02-0.051,0.048-0.074,0.024c-0.018-0.019-0.012-0.034,0.001-0.047c0.024-0.028,0.059-0.061,0.086-0.102
			c0.041-0.064,0.046-0.139-0.037-0.249c-0.043-0.056-0.29-0.324-0.351-0.388c-0.013-0.014-0.026-0.006-0.042,0.009l-0.212,0.2
			c-0.091,0.086-0.34,0.316-0.415,0.392c-0.18,0.18-0.18,0.26,0.078,0.534c0.065,0.07,0.172,0.182,0.27,0.222
			c0.098,0.039,0.184,0.019,0.312-0.066c0.035-0.022,0.05-0.027,0.068-0.008c0.021,0.021-0.001,0.042-0.028,0.067
			c-0.062,0.058-0.264,0.209-0.33,0.246c-0.087,0.047-0.11,0.023-0.206-0.079c-0.189-0.201-0.323-0.354-0.429-0.471
			c-0.103-0.12-0.179-0.206-0.255-0.287c-0.028-0.029-0.083-0.088-0.147-0.15c-0.058-0.062-0.129-0.126-0.18-0.18
			c-0.033-0.035-0.042-0.061-0.024-0.079c0.013-0.013,0.032-0.009,0.062,0.023c0.038,0.04,0.074,0.067,0.102,0.086
			c0.061,0.043,0.133,0.001,0.221-0.061c0.125-0.093,0.337-0.292,0.584-0.525L43.423,13.259z"/>
		<path fill="#1A1A1A" d="M44.581,16.729c0.067-0.476,0.359-0.782,0.658-0.978c0.209-0.138,0.616-0.311,1.081-0.193
			c0.349,0.088,0.664,0.3,0.965,0.759c0.125,0.191,0.188,0.313,0.262,0.467c0.061,0.127,0.098,0.244,0.15,0.343
			c0.019,0.036,0.012,0.058-0.007,0.071c-0.025,0.016-0.068,0.031-0.18,0.096c-0.106,0.06-0.273,0.175-0.339,0.209
			c-0.048,0.027-0.077,0.037-0.095,0.01c-0.016-0.025,0.005-0.047,0.048-0.075c0.093-0.066,0.175-0.177,0.204-0.306
			c0.041-0.172-0.033-0.467-0.219-0.751c-0.176-0.268-0.359-0.399-0.571-0.454c-0.354-0.089-0.685,0.044-0.984,0.24
			c-0.733,0.481-0.731,1.277-0.46,1.69c0.18,0.274,0.32,0.42,0.543,0.451c0.093,0.014,0.209-0.005,0.272-0.029
			c0.055-0.023,0.072-0.025,0.088,0c0.014,0.022-0.003,0.042-0.028,0.058c-0.037,0.024-0.329,0.163-0.454,0.201
			c-0.062,0.019-0.086,0.017-0.142-0.021c-0.13-0.091-0.305-0.311-0.435-0.508C44.662,17.584,44.522,17.169,44.581,16.729"/>
		<path fill="#1A1A1A" d="M48.386,21.324c0.004,0.01,0.015,0.018,0.032,0.011l0.072-0.029c0.521-0.204,0.617-0.242,0.724-0.292
			c0.114-0.053,0.158-0.102,0.138-0.224c-0.004-0.03-0.024-0.09-0.042-0.138c-0.015-0.038-0.016-0.061,0.008-0.071
			c0.024-0.009,0.04,0.012,0.059,0.061c0.073,0.185,0.147,0.405,0.183,0.498c0.032,0.082,0.127,0.295,0.18,0.427
			c0.019,0.048,0.021,0.075-0.003,0.084c-0.024,0.009-0.039-0.009-0.055-0.05c-0.011-0.028-0.026-0.057-0.049-0.096
			c-0.053-0.086-0.122-0.091-0.245-0.05c-0.113,0.036-0.208,0.074-0.73,0.278l-0.604,0.237c-0.316,0.124-0.587,0.23-0.727,0.305
			c-0.092,0.048-0.159,0.098-0.133,0.206c0.012,0.051,0.035,0.129,0.055,0.18c0.015,0.038,0.011,0.059-0.006,0.066
			c-0.024,0.009-0.045-0.014-0.061-0.054c-0.088-0.223-0.162-0.443-0.2-0.539c-0.031-0.079-0.126-0.291-0.178-0.426
			c-0.019-0.048-0.018-0.076,0.006-0.085c0.017-0.007,0.033,0.003,0.049,0.044c0.02,0.051,0.043,0.09,0.062,0.118
			c0.041,0.063,0.123,0.051,0.228,0.025c0.151-0.039,0.422-0.145,0.737-0.269l0.302-0.118c0.014-0.005,0.017-0.018,0.012-0.029
			l-0.514-1.31c-0.004-0.01-0.012-0.019-0.029-0.012l-0.302,0.118c-0.316,0.124-0.587,0.23-0.727,0.305
			c-0.092,0.048-0.159,0.098-0.133,0.206c0.012,0.051,0.035,0.129,0.055,0.18c0.015,0.038,0.011,0.059-0.006,0.066
			c-0.024,0.01-0.045-0.014-0.061-0.055c-0.087-0.223-0.162-0.443-0.2-0.539c-0.031-0.079-0.126-0.291-0.18-0.428
			c-0.017-0.045-0.017-0.073,0.008-0.082c0.017-0.007,0.033,0.003,0.049,0.044c0.02,0.052,0.043,0.09,0.062,0.118
			c0.041,0.063,0.123,0.051,0.228,0.026c0.151-0.039,0.422-0.146,0.737-0.27l0.604-0.237c0.521-0.204,0.617-0.242,0.725-0.292
			c0.114-0.053,0.158-0.102,0.137-0.224c-0.004-0.03-0.023-0.09-0.042-0.138c-0.015-0.038-0.016-0.061,0.008-0.071
			c0.024-0.01,0.04,0.012,0.059,0.06c0.073,0.185,0.147,0.406,0.183,0.498c0.032,0.082,0.128,0.294,0.18,0.428
			c0.019,0.048,0.022,0.075-0.002,0.084c-0.024,0.009-0.039-0.008-0.055-0.05c-0.011-0.028-0.026-0.057-0.049-0.096
			c-0.053-0.086-0.122-0.09-0.245-0.05c-0.112,0.036-0.209,0.074-0.73,0.278l-0.072,0.029c-0.017,0.007-0.02,0.02-0.016,0.03
			L48.386,21.324z"/>
		<path fill="#1A1A1A" d="M48.119,24.482c-0.283,0.051-0.37,0.113-0.385,0.19c-0.012,0.065-0.005,0.135,0.004,0.193
			c0.006,0.04,0.002,0.063-0.02,0.067c-0.029,0.004-0.041-0.027-0.049-0.079c-0.037-0.236-0.048-0.384-0.059-0.453
			c-0.005-0.033-0.042-0.202-0.072-0.391c-0.007-0.047-0.009-0.081,0.024-0.086c0.022-0.003,0.032,0.017,0.038,0.054
			c0.007,0.047,0.021,0.112,0.043,0.161c0.044,0.09,0.152,0.088,0.469,0.043l2.161-0.3c0.073-0.011,0.125-0.008,0.131,0.028
			c0.006,0.04-0.036,0.08-0.092,0.152c-0.041,0.051-0.549,0.696-0.995,1.309c-0.209,0.286-0.658,0.859-0.706,0.929l0.003,0.019
			l1.629-0.289c0.222-0.038,0.286-0.081,0.309-0.174c0.013-0.058,0-0.146-0.008-0.197c-0.007-0.044,0.002-0.06,0.024-0.063
			c0.029-0.004,0.039,0.035,0.047,0.089c0.029,0.189,0.046,0.365,0.057,0.442c0.006,0.04,0.038,0.177,0.066,0.356
			c0.007,0.047,0.01,0.084-0.019,0.089c-0.022,0.003-0.036-0.017-0.043-0.061c-0.006-0.036-0.01-0.066-0.028-0.108
			c-0.045-0.097-0.126-0.115-0.33-0.087l-2.304,0.315c-0.08,0.012-0.115,0.003-0.12-0.03c-0.006-0.04,0.027-0.09,0.061-0.136
			c0.183-0.263,0.588-0.803,0.905-1.24c0.332-0.457,0.725-0.932,0.784-1.008l-0.002-0.011L48.119,24.482z"/>
		<path fill="#1A1A1A" d="M49.446,28.318c0.629,0.037,1.418,0.5,1.354,1.603c-0.053,0.916-0.62,1.456-1.462,1.407
			c-0.843-0.049-1.474-0.677-1.42-1.611C47.979,28.661,48.794,28.28,49.446,28.318 M49.231,30.805
			c0.824,0.048,1.363-0.397,1.398-1.001c0.025-0.423-0.183-0.919-1.099-0.972c-0.765-0.045-1.397,0.343-1.438,1.05
			C48.077,30.14,48.168,30.743,49.231,30.805"/>
		<path fill="#1A1A1A" d="M48.472,33.562c-0.458-0.113-0.705-0.174-0.788-0.114c-0.069,0.047-0.117,0.134-0.185,0.413
			c-0.047,0.19-0.078,0.33-0.003,0.443c0.036,0.055,0.126,0.122,0.192,0.146c0.031,0.012,0.051,0.024,0.044,0.053
			c-0.006,0.025-0.025,0.024-0.068,0.014c-0.039-0.01-0.302-0.101-0.398-0.155c-0.073-0.041-0.087-0.063-0.041-0.249
			c0.064-0.258,0.117-0.442,0.16-0.602c0.047-0.159,0.082-0.287,0.119-0.434c0.009-0.039,0.029-0.118,0.046-0.205
			c0.02-0.082,0.036-0.177,0.054-0.248c0.012-0.047,0.028-0.069,0.053-0.063c0.018,0.004,0.025,0.021,0.015,0.064
			c-0.013,0.054-0.017,0.098-0.018,0.132c-0.003,0.075,0.071,0.112,0.171,0.152c0.146,0.055,0.429,0.124,0.758,0.206l0.63,0.155
			c0.544,0.134,0.644,0.159,0.76,0.18c0.123,0.023,0.188,0.008,0.242-0.104c0.014-0.027,0.029-0.069,0.04-0.115
			c0.01-0.039,0.022-0.059,0.047-0.053c0.025,0.006,0.026,0.033,0.013,0.087c-0.041,0.168-0.108,0.391-0.132,0.487
			c-0.021,0.086-0.075,0.349-0.109,0.489c-0.012,0.05-0.026,0.073-0.051,0.067c-0.025-0.006-0.027-0.029-0.016-0.073
			c0.01-0.039,0.02-0.097,0.024-0.142c0.006-0.101-0.048-0.144-0.171-0.182c-0.113-0.035-0.213-0.06-0.757-0.194L48.472,33.562z"/>
		<path fill="#1A1A1A" d="M48.109,36.03c0.573,0.261,1.142,0.977,0.685,1.983c-0.38,0.835-1.102,1.134-1.87,0.785
			c-0.768-0.349-1.131-1.162-0.744-2.013C46.617,35.821,47.515,35.76,48.109,36.03 M47.013,38.271
			c0.751,0.342,1.414,0.121,1.664-0.429c0.175-0.385,0.161-0.923-0.674-1.302c-0.698-0.317-1.426-0.183-1.719,0.461
			C46.176,37.235,46.043,37.83,47.013,38.271"/>
		<path fill="#1A1A1A" d="M43.572,41.554c-0.08-0.059-0.084-0.067-0.078-0.117c0.042-0.267,0.224-0.581,0.394-0.812
			c0.537-0.725,1.356-1.114,2.173-0.51c0.474,0.35,0.624,0.841,0.587,1.232c-0.039,0.411-0.213,0.69-0.397,0.939
			c-0.151,0.204-0.38,0.439-0.435,0.489c-0.058,0.054-0.153,0.144-0.206,0.21c-0.029,0.033-0.046,0.031-0.066,0.015
			c-0.033-0.024-0.1-0.106-0.471-0.38c-0.047-0.035-0.056-0.055-0.038-0.079c0.015-0.021,0.035-0.016,0.061-0.001
			c0.075,0.042,0.18,0.097,0.32,0.081c0.161-0.019,0.472-0.155,0.72-0.49c0.121-0.163,0.269-0.388,0.25-0.722
			c-0.017-0.269-0.16-0.54-0.524-0.809c-0.637-0.471-1.414-0.418-1.876,0.207c-0.057,0.077-0.133,0.18-0.154,0.276
			c-0.012,0.06,0.018,0.1,0.068,0.137l0.279,0.206c0.148,0.109,0.261,0.193,0.352,0.256c0.103,0.071,0.17,0.08,0.263-0.003
			c0.023-0.019,0.064-0.067,0.094-0.109c0.02-0.027,0.039-0.04,0.056-0.027c0.024,0.018,0.014,0.043-0.016,0.085
			c-0.114,0.154-0.261,0.334-0.327,0.423c-0.068,0.092-0.175,0.256-0.247,0.353c-0.028,0.039-0.05,0.055-0.073,0.037
			c-0.018-0.013-0.01-0.035,0.005-0.056c0.017-0.024,0.03-0.047,0.05-0.087c0.044-0.091,0.016-0.157-0.086-0.237
			c-0.087-0.069-0.205-0.156-0.353-0.266L43.572,41.554z"/>
		<path fill="#1A1A1A" d="M42.411,43.769c0.135,0.146,0.217,0.18,0.325,0.226c0.059,0.026,0.972,0.284,1.197,0.337
			c0.16,0.037,0.29,0.042,0.369,0.024c0.053-0.014,0.114-0.04,0.146-0.07c0.022-0.02,0.046-0.032,0.063-0.013
			c0.015,0.016,0.003,0.042-0.029,0.072c-0.049,0.045-0.259,0.225-0.348,0.308c-0.057,0.053-0.16,0.163-0.282,0.275
			c-0.027,0.025-0.048,0.03-0.063,0.013c-0.015-0.016,0.001-0.036,0.032-0.085c0.019-0.028,0.013-0.062-0.007-0.084
			c-0.02-0.022-0.063-0.042-0.117-0.062c-0.113-0.046-1.095-0.346-1.208-0.382c0.033,0.09,0.244,1,0.284,1.119
			c0.028,0.084,0.06,0.14,0.093,0.175c0.025,0.027,0.063,0.047,0.119,0.015c0.029-0.017,0.058-0.034,0.074-0.018
			c0.018,0.019,0.009,0.037-0.024,0.067c-0.089,0.083-0.183,0.155-0.261,0.227c-0.06,0.055-0.23,0.229-0.281,0.276
			c-0.03,0.027-0.054,0.04-0.069,0.024c-0.017-0.019-0.003-0.047,0.026-0.075c0.027-0.025,0.068-0.084,0.089-0.143
			c0.032-0.08,0.031-0.139,0.023-0.267c-0.011-0.191-0.222-1.176-0.281-1.337c-0.05-0.135-0.127-0.219-0.21-0.308l-0.205-0.221
			c-0.04-0.043-0.145-0.157-0.259-0.263c-0.078-0.073-0.157-0.11-0.249-0.046c-0.043,0.03-0.107,0.079-0.145,0.115
			c-0.029,0.027-0.051,0.032-0.063,0.019c-0.018-0.019-0.003-0.047,0.032-0.08c0.17-0.158,0.348-0.307,0.421-0.375
			c0.067-0.062,0.23-0.229,0.33-0.321c0.038-0.035,0.064-0.049,0.084-0.028c0.013,0.014,0.006,0.034-0.023,0.062
			c-0.038,0.035-0.065,0.071-0.085,0.098c-0.044,0.061-0.013,0.143,0.054,0.226c0.097,0.121,0.202,0.234,0.242,0.278L42.411,43.769z
			"/>
		<path fill="#1A1A1A" d="M24.311,49.497c0.037-0.187,0.066-0.337,0.089-0.455c0.016-0.083,0.024-0.125-0.028-0.135
			c-0.066-0.013-0.353,0.072-0.435,0.088c-0.019,0.003-0.037,0.007-0.051,0.004c-0.01-0.002-0.024-0.022-0.02-0.043
			c0.004-0.021,0.025-0.035,0.044-0.042c0.015-0.004,0.767-0.311,0.907-0.378c0.035-0.015,0.071-0.033,0.099-0.028
			c0.031,0.006,0.034,0.046,0.027,0.081c-0.006,0.028-0.094,0.367-0.197,0.899L24.62,50.13c-0.065,0.334-0.122,0.629-0.139,0.784
			c-0.011,0.113-0.004,0.169,0.102,0.214c0.05,0.021,0.197,0.06,0.225,0.066c0.014,0.003,0.029,0.016,0.024,0.041
			c-0.005,0.024-0.023,0.028-0.062,0.02c-0.264-0.051-0.484-0.105-0.578-0.123c-0.08-0.015-0.373-0.062-0.596-0.105
			c-0.038-0.007-0.058-0.019-0.053-0.043c0.005-0.024,0.02-0.032,0.035-0.029c0.038,0.007,0.217,0.031,0.282,0.03
			c0.116-0.003,0.143-0.048,0.175-0.157c0.044-0.15,0.108-0.444,0.17-0.778L24.311,49.497z"/>
		<path fill="#1A1A1A" d="M27.71,49.762c-0.063,0.989-0.968,1.555-1.419,1.732c-0.018,0.01-0.036,0.012-0.065,0.01
			c-0.014-0.001-0.031-0.02-0.029-0.037c0.001-0.025,0.028-0.044,0.046-0.057c0.381-0.199,0.969-0.743,1.022-1.577
			c0.04-0.625-0.208-0.917-0.48-0.934c-0.254-0.016-0.438,0.199-0.457,0.499c-0.035,0.54,0.307,0.689,0.427,0.697
			c0.124,0.008,0.196-0.009,0.243-0.027c0.04-0.019,0.059-0.035,0.073-0.034c0.014,0.001,0.027,0.016,0.026,0.033
			c-0.001,0.011-0.012,0.031-0.02,0.038c-0.109,0.103-0.297,0.144-0.477,0.133c-0.508-0.033-0.696-0.431-0.677-0.727
			c0.03-0.477,0.412-0.8,0.956-0.765C27.456,48.781,27.744,49.225,27.71,49.762"/>
		<path fill="#1A1A1A" d="M30.072,49.649c0.063,0.989-0.763,1.665-1.187,1.898c-0.017,0.012-0.034,0.016-0.062,0.018
			c-0.014,0.001-0.033-0.016-0.034-0.033c-0.002-0.024,0.022-0.047,0.039-0.062c0.353-0.246,0.867-0.86,0.814-1.694
			c-0.04-0.625-0.322-0.884-0.594-0.866c-0.254,0.016-0.409,0.253-0.39,0.553c0.035,0.54,0.392,0.645,0.512,0.638
			c0.124-0.008,0.193-0.034,0.237-0.058c0.037-0.024,0.054-0.043,0.068-0.044c0.014-0.001,0.029,0.012,0.03,0.03
			c0.001,0.011-0.008,0.033-0.015,0.04c-0.096,0.116-0.276,0.18-0.456,0.192c-0.508,0.033-0.745-0.339-0.764-0.635
			c-0.031-0.477,0.308-0.846,0.851-0.88C29.697,48.708,30.038,49.112,30.072,49.649"/>
		<path fill="#1A1A1A" d="M31.01,51.29c-0.024,0.005-0.053-0.011-0.058-0.039c-0.006-0.028,0.023-0.066,0.052-0.104
			c0.403-0.522,0.988-1.198,0.845-1.931c-0.107-0.549-0.431-0.601-0.604-0.567c-0.149,0.029-0.258,0.079-0.344,0.197
			c-0.068,0.096-0.098,0.271-0.081,0.362c0.007,0.035,0.002,0.068-0.032,0.075c-0.017,0.003-0.033-0.019-0.044-0.06
			c-0.01-0.031-0.083-0.316-0.103-0.416c-0.006-0.031-0.005-0.046,0.028-0.078c0.122-0.096,0.297-0.195,0.603-0.254
			c0.611-0.119,0.937,0.163,1.016,0.57c0.131,0.673-0.501,1.406-0.879,1.851c-0.015,0.017-0.006,0.026,0.012,0.023l0.236-0.046
			c0.059-0.012,0.468-0.095,0.593-0.137c0.234-0.074,0.326-0.215,0.335-0.386c0.002-0.044,0.01-0.06,0.031-0.064
			c0.024-0.005,0.034,0.026,0.041,0.06c0.011,0.056,0.008,0.391-0.004,0.516c-0.009,0.099-0.063,0.12-0.282,0.163L31.01,51.29z"/>
	</g>
</g>
<text transform="matrix(1 0 0 1 62.7239 18.4837)"><tspan x="0" y="0" fill="#FFFFFF" font-family="'TrajanPro-Bold'" font-size="11.3962">İZMİR</tspan><tspan x="0" y="13.675" fill="#FFFFFF" font-family="'TrajanPro-Bold'" font-size="11.3962">INSTITUTE OF</tspan><tspan x="0" y="27.351" fill="#FFFFFF" font-family="'TrajanPro-Bold'" font-size="11.3962">TECHNOLOGY</tspan></text>
</svg>
